%FSTAX24Y24*%
%MOIN*%
%SFA1B1*%

%IPPOS*%
%ADD34C,0.008000*%
%ADD35C,0.006000*%
%ADD36C,0.005000*%
%ADD67C,0.004000*%
%ADD68R,0.020000X0.020000*%
%ADD69R,0.011000X0.024000*%
%ADD70R,0.011800X0.024000*%
%ADD71R,0.030000X0.057500*%
%ADD72R,0.029500X0.057500*%
%ADD73R,0.019300X0.044000*%
%ADD74R,0.019000X0.044000*%
%ADD75R,0.019000X0.043300*%
%ADD76R,0.019300X0.043300*%
%ADD77R,0.014000X0.056000*%
%ADD78R,0.024000X0.011000*%
%ADD79R,0.024000X0.011800*%
%ADD80R,0.007900X0.055600*%
%ADD81R,0.055600X0.007900*%
%ADD82R,0.045000X0.020000*%
%ADD83R,0.020000X0.045000*%
%ADD84R,0.056000X0.014000*%
%ADD85R,0.057500X0.030000*%
%ADD86R,0.057500X0.029500*%
%LNklogshield-1*%
%LPD*%
G54D34*
X02205Y018701D02*
Y018898D01*
Y0174D02*
Y018701D01*
X025945*
X02205Y0174D02*
X025945D01*
Y018701*
Y018898*
X02205D02*
X025945D01*
G54D35*
X023294Y034512D02*
X02349D01*
X023294Y03469D02*
X02349D01*
X03562Y0361D02*
X03618D01*
X03562Y0356D02*
X03618D01*
X0356Y035D02*
X03616D01*
X0356Y0345D02*
X03616D01*
X028688Y020744D02*
Y02094D01*
X02851Y020744D02*
Y02094D01*
X02991Y023457D02*
X030147Y0233D01*
X02991Y02314D02*
Y023457D01*
Y02314D02*
X030147Y0233D01*
X030344Y02302D02*
Y023576D01*
X02955D02*
X030344D01*
X02955Y02302D02*
Y023576D01*
Y02302D02*
X030344D01*
X0252Y034003D02*
X025357Y03424D01*
X02504D02*
X025357D01*
X02504D02*
X0252Y034003D01*
X02492Y033806D02*
X025476D01*
Y0346*
X02492D02*
X025476D01*
X02492Y033806D02*
Y0346D01*
X03449Y0203D02*
X03505D01*
X03449Y0208D02*
X03505D01*
X02285Y028396D02*
Y028956D01*
X02335Y028396D02*
Y028956D01*
X03405Y021646D02*
Y022206D01*
X03455Y021646D02*
Y022206D01*
X024496Y02925D02*
X025056D01*
X024496Y02875D02*
X025056D01*
X03455Y01894D02*
Y0195D01*
X03405Y01894D02*
Y0195D01*
X02144Y02875D02*
X022D01*
X02144Y02925D02*
X022D01*
G54D36*
X03641Y0376D02*
D01*
X036408Y037649*
X036403Y037698*
X036394Y037747*
X036382Y037795*
X036367Y037842*
X036348Y037888*
X036326Y037933*
X036302Y037976*
X036274Y038017*
X036243Y038056*
X03621Y038093*
X036175Y038127*
X036137Y038159*
X036097Y038188*
X036055Y038214*
X036011Y038238*
X035965Y038258*
X035919Y038275*
X035871Y038288*
X035823Y038299*
X035774Y038306*
X035724Y038309*
X035675*
X035625Y038306*
X035576Y038299*
X035528Y038288*
X03548Y038275*
X035434Y038258*
X035388Y038238*
X035345Y038214*
X035302Y038188*
X035262Y038159*
X035224Y038127*
X035189Y038093*
X035156Y038056*
X035125Y038017*
X035097Y037976*
X035073Y037933*
X035051Y037888*
X035032Y037842*
X035017Y037795*
X035005Y037747*
X034996Y037698*
X034991Y037649*
X03499Y0376*
X034991Y03755*
X034996Y037501*
X035005Y037452*
X035017Y037404*
X035032Y037357*
X035051Y037311*
X035073Y037266*
X035097Y037223*
X035125Y037182*
X035156Y037143*
X035189Y037106*
X035224Y037072*
X035262Y03704*
X035302Y037011*
X035345Y036985*
X035388Y036961*
X035434Y036941*
X03548Y036924*
X035528Y036911*
X035576Y0369*
X035625Y036893*
X035675Y03689*
X035724*
X035774Y036893*
X035823Y0369*
X035871Y036911*
X035919Y036924*
X035965Y036941*
X036011Y036961*
X036055Y036985*
X036097Y037011*
X036137Y03704*
X036175Y037072*
X03621Y037106*
X036243Y037143*
X036274Y037182*
X036302Y037223*
X036326Y037266*
X036348Y037311*
X036367Y037357*
X036382Y037404*
X036394Y037452*
X036403Y037501*
X036408Y03755*
X03641Y0376*
X02541D02*
D01*
X025408Y037649*
X025403Y037698*
X025394Y037747*
X025382Y037795*
X025367Y037842*
X025348Y037888*
X025326Y037933*
X025302Y037976*
X025274Y038017*
X025243Y038056*
X02521Y038093*
X025175Y038127*
X025137Y038159*
X025097Y038188*
X025055Y038214*
X025011Y038238*
X024965Y038258*
X024919Y038275*
X024871Y038288*
X024823Y038299*
X024774Y038306*
X024724Y038309*
X024675*
X024625Y038306*
X024576Y038299*
X024528Y038288*
X02448Y038275*
X024434Y038258*
X024388Y038238*
X024345Y038214*
X024302Y038188*
X024262Y038159*
X024224Y038127*
X024189Y038093*
X024156Y038056*
X024125Y038017*
X024097Y037976*
X024073Y037933*
X024051Y037888*
X024032Y037842*
X024017Y037795*
X024005Y037747*
X023996Y037698*
X023991Y037649*
X02399Y0376*
X023991Y03755*
X023996Y037501*
X024005Y037452*
X024017Y037404*
X024032Y037357*
X024051Y037311*
X024073Y037266*
X024097Y037223*
X024125Y037182*
X024156Y037143*
X024189Y037106*
X024224Y037072*
X024262Y03704*
X024302Y037011*
X024345Y036985*
X024388Y036961*
X024434Y036941*
X02448Y036924*
X024528Y036911*
X024576Y0369*
X024625Y036893*
X024675Y03689*
X024724*
X024774Y036893*
X024823Y0369*
X024871Y036911*
X024919Y036924*
X024965Y036941*
X025011Y036961*
X025055Y036985*
X025097Y037011*
X025137Y03704*
X025175Y037072*
X02521Y037106*
X025243Y037143*
X025274Y037182*
X025302Y037223*
X025326Y037266*
X025348Y037311*
X025367Y037357*
X025382Y037404*
X025394Y037452*
X025403Y037501*
X025408Y03755*
X02541Y0376*
X03841Y0171D02*
D01*
X038408Y017149*
X038403Y017198*
X038394Y017247*
X038382Y017295*
X038367Y017342*
X038348Y017388*
X038326Y017433*
X038302Y017476*
X038274Y017517*
X038243Y017556*
X03821Y017593*
X038175Y017627*
X038137Y017659*
X038097Y017688*
X038055Y017714*
X038011Y017738*
X037965Y017758*
X037919Y017775*
X037871Y017788*
X037823Y017799*
X037774Y017806*
X037724Y017809*
X037675*
X037625Y017806*
X037576Y017799*
X037528Y017788*
X03748Y017775*
X037434Y017758*
X037388Y017738*
X037345Y017714*
X037302Y017688*
X037262Y017659*
X037224Y017627*
X037189Y017593*
X037156Y017556*
X037125Y017517*
X037097Y017476*
X037073Y017433*
X037051Y017388*
X037032Y017342*
X037017Y017295*
X037005Y017247*
X036996Y017198*
X036991Y017149*
X03699Y0171*
X036991Y01705*
X036996Y017001*
X037005Y016952*
X037017Y016904*
X037032Y016857*
X037051Y016811*
X037073Y016766*
X037097Y016723*
X037125Y016682*
X037156Y016643*
X037189Y016606*
X037224Y016572*
X037262Y01654*
X037302Y016511*
X037345Y016485*
X037388Y016461*
X037434Y016441*
X03748Y016424*
X037528Y016411*
X037576Y0164*
X037625Y016393*
X037675Y01639*
X037724*
X037774Y016393*
X037823Y0164*
X037871Y016411*
X037919Y016424*
X037965Y016441*
X038011Y016461*
X038055Y016485*
X038097Y016511*
X038137Y01654*
X038175Y016572*
X03821Y016606*
X038243Y016643*
X038274Y016682*
X038302Y016723*
X038326Y016766*
X038348Y016811*
X038367Y016857*
X038382Y016904*
X038394Y016952*
X038403Y017001*
X038408Y01705*
X03841Y0171*
X01941Y0176D02*
D01*
X019408Y017649*
X019403Y017698*
X019394Y017747*
X019382Y017795*
X019367Y017842*
X019348Y017888*
X019326Y017933*
X019302Y017976*
X019274Y018017*
X019243Y018056*
X01921Y018093*
X019175Y018127*
X019137Y018159*
X019097Y018188*
X019055Y018214*
X019011Y018238*
X018965Y018258*
X018919Y018275*
X018871Y018288*
X018823Y018299*
X018774Y018306*
X018724Y018309*
X018675*
X018625Y018306*
X018576Y018299*
X018528Y018288*
X01848Y018275*
X018434Y018258*
X018388Y018238*
X018345Y018214*
X018302Y018188*
X018262Y018159*
X018224Y018127*
X018189Y018093*
X018156Y018056*
X018125Y018017*
X018097Y017976*
X018073Y017933*
X018051Y017888*
X018032Y017842*
X018017Y017795*
X018005Y017747*
X017996Y017698*
X017991Y017649*
X01799Y0176*
X017991Y01755*
X017996Y017501*
X018005Y017452*
X018017Y017404*
X018032Y017357*
X018051Y017311*
X018073Y017266*
X018097Y017223*
X018125Y017182*
X018156Y017143*
X018189Y017106*
X018224Y017072*
X018262Y01704*
X018302Y017011*
X018345Y016985*
X018388Y016961*
X018434Y016941*
X01848Y016924*
X018528Y016911*
X018576Y0169*
X018625Y016893*
X018675Y01689*
X018724*
X018774Y016893*
X018823Y0169*
X018871Y016911*
X018919Y016924*
X018965Y016941*
X019011Y016961*
X019055Y016985*
X019097Y017011*
X019137Y01704*
X019175Y017072*
X01921Y017106*
X019243Y017143*
X019274Y017182*
X019302Y017223*
X019326Y017266*
X019348Y017311*
X019367Y017357*
X019382Y017404*
X019394Y017452*
X019403Y017501*
X019408Y01755*
X01941Y0176*
G54D67*
X033294Y02579D02*
X033585D01*
X033285Y02631D02*
X033585D01*
X033294Y02759D02*
X033585D01*
X033285Y02811D02*
X033585D01*
X030094Y02579D02*
X030385D01*
X030085Y02631D02*
X030385D01*
X03057Y01754D02*
X03086D01*
X03056Y01806D02*
X03086D01*
X02014Y03245D02*
Y03274D01*
X02066Y03245D02*
Y03275D01*
X03272Y02304D02*
X03301D01*
X03271Y02356D02*
X03301D01*
X02494Y030815D02*
Y031106D01*
X02546Y030815D02*
Y031115D01*
X033615Y01806D02*
X033906D01*
X033615Y01754D02*
X033915D01*
X02066Y02977D02*
Y03006D01*
X02014Y02976D02*
Y03006D01*
G54D68*
X03Y02755D03*
Y03455D03*
Y03355D03*
Y03255D03*
Y03155D03*
Y03055D03*
Y02955D03*
Y02855D03*
X0315Y02755D03*
Y03455D03*
Y03355D03*
Y03255D03*
Y03155D03*
Y03055D03*
Y02955D03*
Y02855D03*
X0296Y0133D03*
X0226D03*
X0236D03*
X0246D03*
X0256D03*
X0266D03*
X0276D03*
X0286D03*
X0296Y0145D03*
X0226D03*
X0236D03*
X0246D03*
X0256D03*
X0266D03*
X0276D03*
X0286D03*
X0252Y02105D03*
Y02605D03*
Y02505D03*
Y02405D03*
Y02305D03*
Y02205D03*
X02295Y02105D03*
Y02605D03*
Y02505D03*
Y02405D03*
Y02305D03*
Y02205D03*
G54D69*
X023555Y0346D03*
G54D70*
X023231Y0346D03*
G54D71*
X033725Y026052D03*
Y027852D03*
X030525Y026052D03*
X031Y017802D03*
X03315Y023303D03*
X033475Y017797D03*
G54D72*
X033152Y026052D03*
Y027852D03*
X029952Y026052D03*
X030428Y017802D03*
X032578Y023303D03*
X034048Y017797D03*
G54D73*
X02575Y01714D03*
X02525D03*
X02475D03*
X02425D03*
G54D74*
X022745Y01714D03*
X022245D03*
X023745D03*
X023245D03*
G54D75*
X022245Y019154D03*
X022745D03*
X023245D03*
X023745D03*
G54D76*
X02425Y019154D03*
X02475D03*
X02525D03*
X02575D03*
G54D77*
X03556Y03585D03*
X03624D03*
X03554Y03475D03*
X03622D03*
X03511Y02055D03*
X03443D03*
X024436Y029D03*
X025116D03*
X02206D03*
X02138D03*
G54D78*
X0286Y021005D03*
G54D79*
X0286Y020681D03*
G54D80*
X030186Y023298D03*
G54D81*
X025198Y033964D03*
G54D82*
X030605Y0196D03*
Y0201D03*
Y0206D03*
X032595Y0211D03*
X032585Y0206D03*
X032595Y0201D03*
Y0196D03*
X030605Y0211D03*
G54D83*
X0221Y032695D03*
X0226D03*
X0231D03*
X0236Y030705D03*
X0231Y030715D03*
X0226Y030705D03*
X0221D03*
X0236Y032695D03*
G54D84*
X0231Y028336D03*
Y029016D03*
X0343Y021586D03*
Y022266D03*
Y01956D03*
Y01888D03*
G54D85*
X020403Y03231D03*
X025203Y030675D03*
X020398Y0302D03*
G54D86*
X020403Y032882D03*
X025203Y031248D03*
X020398Y029628D03*
M02*