%FSTAX24Y24*%
%MOIN*%
%SFA1B1*%

%IPPOS*%
%ADD10R,0.012000X0.057000*%
%ADD11R,0.028000X0.036000*%
%ADD12R,0.052000X0.060000*%
%ADD13R,0.010000X0.040000*%
%ADD14R,0.024000X0.087000*%
%ADD15R,0.052000X0.063000*%
%ADD16R,0.036000X0.028000*%
%ADD17R,0.048000X0.028000*%
%ADD18R,0.028000X0.048000*%
%ADD19R,0.080000X0.026000*%
%ADD20R,0.026000X0.080000*%
%ADD21R,0.063000X0.052000*%
%ADD22R,0.060000X0.052000*%
%LNklogshield-1*%
%LPD*%
G54D10*
X0279Y03165D03*
X0281D03*
X0285D03*
X0283D03*
X0287D03*
Y02985D03*
X0285D03*
X0283D03*
X0281D03*
X0279D03*
X0334Y03015D03*
X0332D03*
X0328D03*
X033D03*
X0326D03*
Y03195D03*
X0328D03*
X033D03*
X0332D03*
X0334D03*
G54D11*
X02365Y0346D03*
X023134D03*
G54D12*
X033775Y02605D03*
X0331D03*
X033775Y02785D03*
X0331D03*
X030575Y02605D03*
X0299D03*
X03105Y0178D03*
X030375D03*
X0332Y0233D03*
X032525D03*
X033425Y0178D03*
X0341D03*
G54D13*
X034966Y03266D03*
X035222D03*
X03548D03*
X03574D03*
Y030442D03*
X03548D03*
X035222D03*
X034966D03*
G54D14*
X02575Y01712D03*
X02525D03*
X02225Y019174D03*
X02275Y01712D03*
Y019174D03*
X02375D03*
X02225Y01712D03*
X02325Y019174D03*
Y01712D03*
X02375D03*
X02475D03*
X02425Y019174D03*
X02475D03*
X02575D03*
X02425Y01712D03*
X02525Y019174D03*
G54D15*
X03552Y03585D03*
X036274D03*
X0355Y03475D03*
X036254D03*
X03515Y02055D03*
X034396D03*
X024396Y029D03*
X02515D03*
X0221D03*
X021346D03*
G54D16*
X0286Y0211D03*
Y020584D03*
G54D17*
X02922Y0233D03*
X030678D03*
G54D18*
X0252Y03493D03*
Y033472D03*
G54D19*
X03039Y0211D03*
X03281D03*
X03039Y0206D03*
Y0201D03*
X03281Y0206D03*
Y0201D03*
X03039Y0196D03*
X03281D03*
G54D20*
X0236Y03291D03*
Y03049D03*
X0231Y03291D03*
X0226D03*
X0231Y03049D03*
X0226D03*
X0221Y03291D03*
Y03049D03*
G54D21*
X0231Y028296D03*
Y02905D03*
X0343Y021546D03*
Y0223D03*
Y0196D03*
Y018846D03*
G54D22*
X0204Y03226D03*
Y032935D03*
X0252Y030625D03*
Y0313D03*
X0204Y03025D03*
Y029575D03*
M02*