%FSTAX24Y24*%
%MOIN*%
%SFA1B1*%

%IPPOS*%
%ADD23C,0.010000*%
%ADD28C,0.000000*%
%LNklogshield_mb_rev1-1*%
%LPD*%
G54D23*
X0275Y01261D02*
Y01295D01*
X02767*
X027727Y012893*
Y012667*
X02767Y01261*
X0275*
X02784Y012667D02*
X028066Y012893D01*
X02784D02*
X028066Y012667D01*
X02784Y01278D02*
X028066D01*
X027953Y012893D02*
Y012667D01*
X025033Y012077D02*
X02509Y01202D01*
Y011907*
X025033Y01185*
X024807*
X02475Y011907*
Y01202*
X024807Y012077*
X02475Y01219D02*
Y012303D01*
Y012247*
X02509*
X025033Y01219*
X029323Y011283D02*
X02938Y01134D01*
X029493*
X02955Y011283*
Y011057*
X029493Y011*
X02938*
X029323Y011057*
X028984Y011D02*
X02921D01*
X028984Y011227*
Y011283*
X02904Y01134*
X029153*
X02921Y011283*
X028973Y010683D02*
X02903Y01074D01*
X029143*
X0292Y010683*
Y010457*
X029143Y0104*
X02903*
X028973Y010457*
X02886Y010683D02*
X028803Y01074D01*
X02869*
X028634Y010683*
Y010627*
X02869Y01057*
X028747*
X02869*
X028634Y010513*
Y010457*
X02869Y0104*
X028803*
X02886Y010457*
X03025Y0146D02*
Y01494D01*
X03008*
X030023Y014883*
Y01477*
X03008Y014713*
X03025*
X030137D02*
X030023Y0146D01*
X02991D02*
X029797D01*
X029853*
Y01494*
X02991Y014883*
X029627Y0146D02*
X029514D01*
X02957*
Y01494*
X029627Y014883*
X0256Y0145D02*
Y01484D01*
X02543*
X025373Y014783*
Y01467*
X02543Y014613*
X0256*
X025487D02*
X025373Y0145D01*
X02526D02*
X025147D01*
X025203*
Y01484*
X02526Y014783*
X024977D02*
X02492Y01484D01*
X024807*
X02475Y014783*
Y014727*
X024807Y01467*
X024864*
X024807*
X02475Y014613*
Y014557*
X024807Y0145*
X02492*
X024977Y014557*
X03105Y01007D02*
Y01157D01*
X03104Y01006D02*
X03105Y01007D01*
X02567Y01006D02*
X03104D01*
X01005Y01005D02*
X02469D01*
X03105Y01157D02*
Y03605D01*
X0247Y01006D02*
X02567D01*
X01166Y03706D02*
X03004D01*
X0305Y0366*
X03105Y03605*
X01005Y01005D02*
Y03545D01*
X01166Y03706*
G54D28*
X03105Y01641D02*
Y03605D01*
X01005Y01005D02*
X02208D01*
X01615Y03705D02*
X02905D01*
X01005Y03545D02*
X01065Y03605D01*
X01005Y01005D02*
Y03545D01*
M02*