%FSTAX24Y24*%
%MOIN*%
%SFA1B1*%

%IPPOS*%
%AMD30*
4,1,8,-0.033000,0.016500,-0.033000,-0.016500,-0.016500,-0.033000,0.016500,-0.033000,0.033000,-0.016500,0.033000,0.016500,0.016500,0.033000,-0.016500,0.033000,-0.033000,0.016500,0.0*
%
%AMD33*
4,1,8,0.019000,0.038000,-0.019000,0.038000,-0.038000,0.019000,-0.038000,-0.019000,-0.019000,-0.038000,0.019000,-0.038000,0.038000,-0.019000,0.038000,0.019000,0.019000,0.038000,0.0*
%
%ADD15R,0.052000X0.063000*%
%ADD21C,0.037000*%
%ADD22C,0.013000*%
%ADD23C,0.010000*%
%ADD24C,0.042000*%
%ADD25C,0.022000*%
%ADD26C,0.050000*%
%ADD27C,0.027000*%
%ADD28C,0.000000*%
%ADD29C,0.056000*%
G04~CAMADD=30~4~0.0~0.0~660.0~660.0~0.0~165.0~0~0.0~0.0~0.0~0.0~0~0.0~0.0~0.0~0.0~0~0.0~0.0~0.0~90.0~660.0~660.0*
%ADD30D30*%
%ADD31C,0.059100*%
%ADD32R,0.059100X0.059100*%
G04~CAMADD=33~4~0.0~0.0~760.0~760.0~0.0~190.0~0~0.0~0.0~0.0~0.0~0~0.0~0.0~0.0~0.0~0~0.0~0.0~0.0~0.0~760.0~760.0*
%ADD33D33*%
%ADD34C,0.050000*%
%ADD35R,0.019700X0.019700*%
%ADD36R,0.063000X0.107000*%
%ADD37R,0.052000X0.060000*%
%LNklogshield_mb_rev1-1*%
%LPD*%
G36*
X03Y0371D02*
X03105Y03605D01*
Y01*
X01*
Y0354*
X0117Y0371*
X03*
G37*
%LNklogshield_mb_rev1-2*%
%LPC*%
G36*
X0221Y02235D02*
X021743D01*
X021847Y022097*
X0221Y021993*
Y02235*
G37*
G36*
X02315Y023828D02*
X022847Y023703D01*
X022722Y0234*
X022847Y023097*
X02315Y022972*
X023453Y023097*
X023484Y023173*
X024006*
X024073Y023106*
Y021794*
X023706Y021427*
X022185*
X022168Y021468*
X0219Y021579*
X021632Y021468*
X021521Y0212*
X021632Y020932*
X0219Y020821*
X022168Y020932*
X022185Y020973*
X0238*
X023961Y021039*
X024461Y021539*
X024527Y0217*
Y0232*
X024461Y023361*
X024261Y023561*
X0241Y023627*
X023484*
X023453Y023703*
X02315Y023828*
G37*
G36*
X022557Y02235D02*
X0222D01*
Y021993*
X022453Y022097*
X022557Y02235*
G37*
G36*
X023557D02*
X0232D01*
Y021993*
X023453Y022097*
X023557Y02235*
G37*
G36*
X0231D02*
X022743D01*
X022847Y022097*
X0231Y021993*
Y02235*
G37*
G36*
X02315Y030828D02*
X022847Y030703D01*
X022722Y0304*
X022847Y030097*
X02315Y029972*
X023274Y030023*
X023771Y029526*
Y0279*
X023824Y027774*
X025608Y025989*
X025571Y0259*
X025682Y025632*
X025696Y025627*
Y021655*
X02452Y02048*
X024446Y0203*
Y019605*
X024176Y019335*
X02395Y019429*
X023682Y019318*
X023571Y01905*
X023682Y018782*
X02395Y018671*
X024218Y018782*
X024223Y018796*
X02425*
X02443Y01887*
X02488Y01932*
X024954Y0195*
Y020195*
X02613Y02137*
X026204Y02155*
Y025627*
X026218Y025632*
X026329Y0259*
X026218Y026168*
X02595Y026279*
X025861Y026242*
X024129Y027974*
Y0296*
X024076Y029726*
X023527Y030276*
X023578Y0304*
X023453Y030703*
X02315Y030828*
G37*
G36*
X011265Y01988D02*
X010835D01*
X01062Y019665*
Y019235*
X010835Y01902*
X011265*
X01148Y019235*
Y019665*
X011265Y01988*
G37*
G36*
Y02088D02*
X010835D01*
X01062Y020665*
Y020235*
X010835Y02002*
X011265*
X01148Y020235*
Y020665*
X011265Y02088*
G37*
G36*
Y02188D02*
X010835D01*
X01062Y021665*
Y021235*
X010835Y02102*
X011265*
X01148Y021235*
Y021665*
X011265Y02188*
G37*
G36*
X02315Y024828D02*
X022847Y024703D01*
X022722Y0244*
X022847Y024097*
X02315Y023972*
X023453Y024097*
X023484Y024173*
X024456*
X024723Y023906*
Y021544*
X023806Y020627*
X021644*
X021127Y021144*
Y02195*
X021061Y022111*
X020411Y022761*
X02025Y022827*
X019985*
X019968Y022868*
X0197Y022979*
X019432Y022868*
X019321Y0226*
X019432Y022332*
X0197Y022221*
X019968Y022332*
X019985Y022373*
X020156*
X020673Y021856*
Y02105*
X020739Y020889*
X021389Y020239*
X02155Y020173*
X0239*
X024061Y020239*
X025111Y021289*
X025177Y02145*
Y024*
X025111Y024161*
X024711Y024561*
X02455Y024627*
X023484*
X023453Y024703*
X02315Y024828*
G37*
G36*
X011265Y02288D02*
X010835D01*
X01062Y022665*
Y022235*
X010835Y02202*
X011265*
X01148Y022235*
Y022665*
X011265Y02288*
G37*
G36*
Y02388D02*
X010835D01*
X01062Y023665*
Y023235*
X010835Y02302*
X011265*
X01148Y023235*
Y023665*
X011265Y02388*
G37*
G36*
X02215Y023828D02*
X021847Y023703D01*
X021722Y0234*
X021847Y023097*
X02215Y022972*
X022453Y023097*
X022578Y0234*
X022453Y023703*
X02215Y023828*
G37*
G36*
X01975Y036808D02*
X019532Y036718D01*
X018732Y035918*
X018642Y0357*
Y031628*
X014737Y027724*
X014482Y027618*
X014371Y02735*
X014482Y027082*
X01475Y026971*
X015018Y027082*
X015053Y027167*
X019168Y031282*
X019258Y0315*
Y035572*
X019878Y036192*
X023472*
X025082Y034582*
X0253Y034492*
X027392*
Y03277*
X027321Y0326*
X027392Y03243*
Y02505*
X027482Y024832*
X028482Y023832*
X028546Y023805*
X0287Y023742*
X029713*
X029835Y02362*
X030265*
X03048Y023835*
Y024265*
X030265Y02448*
X029835*
X029713Y024358*
X028828*
X028008Y025178*
Y03243*
X028079Y0326*
X028008Y03277*
Y03463*
X028079Y0348*
X027968Y035068*
X0277Y035179*
X02753Y035108*
X025428*
X023818Y036718*
X0236Y036808*
X01975*
G37*
G36*
X011265Y02848D02*
X010835D01*
X01062Y028265*
Y027835*
X010835Y02762*
X011159*
X012873Y025906*
Y024421*
X012775Y024402*
X012768Y024418*
X0125Y024529*
X012283Y024439*
X012027Y024694*
Y02595*
X011961Y026111*
X01148Y026591*
Y026665*
X011265Y02688*
X010835*
X01062Y026665*
Y026235*
X010835Y02602*
X011265*
X011337Y026092*
X011573Y025856*
Y025683*
X011473Y025672*
X011265Y02588*
X010835*
X01062Y025665*
Y025235*
X010835Y02502*
X011265*
X011473Y025228*
X011573Y025217*
Y024694*
Y024683*
X011572*
X011566Y024682*
X011564*
X011464Y024681*
X011265Y02488*
X010835*
X01062Y024665*
Y024235*
X010835Y02402*
X011265*
X01148Y024235*
Y024574*
Y024582*
X011482Y024583*
X011488Y024584*
X011493Y024585*
X011569Y024599*
X011573Y0246*
Y024599*
X011577Y02459*
X01158Y024583*
X011615Y024497*
X011639Y024439*
X012089Y023989*
X012208Y02394*
X012232Y023882*
X0125Y023771*
X012768Y023882*
X012775Y023898*
X012873Y023879*
Y0222*
X012939Y022039*
X013437Y021542*
X013482Y021432*
X01375Y021321*
X014018Y021432*
X014129Y0217*
X014018Y021968*
X01375Y022079*
X013603Y022018*
X013327Y022294*
Y026*
X013261Y026161*
X01148Y027941*
Y028265*
X011265Y02848*
G37*
G36*
X02215Y024828D02*
X021847Y024703D01*
X021722Y0244*
X021847Y024097*
X02215Y023972*
X022453Y024097*
X022578Y0244*
X022453Y024703*
X02215Y024828*
G37*
G36*
X0222Y022807D02*
Y02245D01*
X022557*
X022453Y022703*
X0222Y022807*
G37*
G36*
X0221D02*
X021847Y022703D01*
X021743Y02245*
X0221*
Y022807*
G37*
G36*
X0231D02*
X022847Y022703D01*
X022743Y02245*
X0231*
Y022807*
G37*
G36*
X030265Y02348D02*
X029835D01*
X02962Y023265*
Y022835*
X029835Y02262*
X030265*
X03048Y022835*
Y023265*
X030265Y02348*
G37*
G36*
X0232Y022807D02*
Y02245D01*
X023557*
X023453Y022703*
X0232Y022807*
G37*
G36*
X011265Y03248D02*
X010835D01*
X01062Y032265*
Y031835*
X010835Y03162*
X011265*
X011468Y031823*
X012156*
X013273Y030706*
Y02705*
X013339Y026889*
X015473Y024756*
Y019435*
X015432Y019418*
X015321Y01915*
X015432Y018882*
X0157Y018771*
X015968Y018882*
X016079Y01915*
X015968Y019418*
X015927Y019435*
Y02485*
X015861Y025011*
X013727Y027144*
Y0308*
X013661Y030961*
X012411Y032211*
X01225Y032277*
X011468*
X011265Y03248*
G37*
G36*
X02755Y01205D02*
X027402D01*
Y011902*
X02755*
Y01205*
G37*
G36*
X030265D02*
X0299D01*
Y011465*
X030265*
Y01205*
G37*
G36*
X02681Y012735D02*
X026445D01*
Y01215*
X02681*
Y012735*
G37*
G36*
X02755Y012298D02*
X027402D01*
Y01215*
X02755*
Y012298*
G37*
G36*
X027275Y012735D02*
X02691D01*
Y01215*
X027275*
Y012735*
G37*
G36*
X027425Y0113D02*
X027115D01*
Y01095*
X027425*
Y0113*
G37*
G36*
Y01085D02*
X027115D01*
Y0105*
X027425*
Y01085*
G37*
G36*
X02681Y01205D02*
X026445D01*
Y011465*
X02681*
Y01205*
G37*
G36*
X0298D02*
X029435D01*
Y011465*
X0298*
Y01205*
G37*
G36*
X027275D02*
X02691D01*
Y011465*
X027275*
Y01205*
G37*
G36*
X0298Y012735D02*
X029435D01*
Y01215*
X0298*
Y012735*
G37*
G36*
X02625Y01465D02*
X02594D01*
Y014285*
X02625*
Y01465*
G37*
G36*
X029744Y013891D02*
Y01355D01*
X030084*
X029985Y013791*
X029744Y013891*
G37*
G36*
X02625Y015115D02*
X02594D01*
Y01475*
X02625*
Y015115*
G37*
G36*
X02675Y025179D02*
X026482Y025068D01*
X026371Y0248*
X026482Y024532*
X026523Y024515*
Y0228*
X026589Y022639*
X027123Y022106*
Y018377*
X024235*
X024218Y018418*
X02395Y018529*
X023682Y018418*
X023571Y01815*
X023682Y017882*
X02395Y017771*
X024218Y017882*
X024235Y017923*
X02735*
X027511Y017989*
X027577Y01815*
Y0222*
X027511Y022361*
X026977Y022894*
Y024515*
X027018Y024532*
X027129Y0248*
X027018Y025068*
X02675Y025179*
G37*
G36*
X02765Y023979D02*
X027382Y023868D01*
X027271Y0236*
X027382Y023332*
X027552Y023262*
X027842Y022972*
Y015115*
X02779*
Y015008*
X027414*
Y015115*
X02676*
X026694*
X026677*
X02666*
X026594*
X02635*
Y0147*
Y014285*
X026594*
X02666*
X026677*
X026694*
X02676*
X027414*
Y014392*
X02779*
Y014285*
X028425*
X02851*
X028525Y014191*
Y013661*
X028471Y013607*
X02836Y013339*
Y012735*
X028324*
Y012354*
X028072*
X027937Y012298*
X027898*
X027874*
X027836*
X027798*
X027774*
X02765*
Y0121*
Y011902*
X027774*
X027798*
X027836*
X027874*
X027898*
X027937*
X028072Y011846*
X028324*
Y011465*
X02836*
Y0113*
X027525*
Y0109*
Y0105*
X02851*
Y010525*
X028768Y010632*
X029007Y010871*
X029118Y011139*
Y011465*
X029154*
Y012735*
X029118*
Y013179*
X029191Y013209*
X029247Y013344*
X029347*
X029403Y013209*
X029644Y013109*
Y0135*
Y013891*
X029403Y013791*
X029383Y013743*
X029283Y013762*
Y0147*
X029264Y014745*
Y015115*
X02861*
X028544*
X028458Y01515*
Y0231*
X028368Y023318*
X027988Y023698*
X027918Y023868*
X02765Y023979*
G37*
G36*
X025906Y013911D02*
X025615Y013791D01*
X025583Y013712*
X025481Y01361*
X02537Y013343*
Y012735*
X025334*
Y011465*
X026164*
Y012735*
X026128*
Y01318*
X026197Y013209*
X026253Y013344*
X026353*
X026409Y013209*
X02665Y013109*
Y0135*
Y013891*
X026409Y013791*
X026353Y013656*
X026253*
X026197Y013791*
X025906Y013911*
G37*
G36*
X030265Y012735D02*
X0299D01*
Y01215*
X030265*
Y012735*
G37*
G36*
X027091Y01345D02*
X02675D01*
Y013109*
X026991Y013209*
X027091Y01345*
G37*
G36*
X02675Y013891D02*
Y01355D01*
X027091*
X026991Y013791*
X02675Y013891*
G37*
G36*
X030084Y01345D02*
X029744D01*
Y013109*
X029985Y013209*
X030084Y01345*
G37*
G36*
X030265Y02548D02*
X029835D01*
X02962Y025265*
Y024835*
X029835Y02462*
X030265*
X03048Y024835*
Y025265*
X030265Y02548*
G37*
G36*
X011265Y03148D02*
X010835D01*
X01062Y031265*
Y030835*
X010835Y03062*
X011265*
X01148Y030835*
Y031265*
X011265Y03148*
G37*
G36*
X02215Y030828D02*
X021847Y030703D01*
X021796Y030579*
X0213*
X021174Y030526*
X020674Y030026*
X020621Y0299*
Y029174*
X020523Y029155*
X020518Y029168*
X0203Y029258*
Y0289*
Y028542*
X020518Y028632*
X020523Y028645*
X020621Y028626*
Y026255*
X020532Y026218*
X020421Y02595*
X020532Y025682*
X0208Y025571*
X021068Y025682*
X021179Y02595*
X021068Y026218*
X020979Y026255*
Y029826*
X021374Y030221*
X021796*
X021847Y030097*
X02215Y029972*
X022453Y030097*
X022578Y0304*
X022453Y030703*
X02215Y030828*
G37*
G36*
X030265Y03148D02*
X029835D01*
X02962Y031265*
Y030835*
X029835Y03062*
X030265*
X03048Y030835*
Y031265*
X030265Y03148*
G37*
G36*
X022545Y031795D02*
X021755D01*
Y031736*
X0204*
X020163Y031637*
X017213Y028687*
X017114Y02845*
Y02715*
X017213Y026913*
X017278Y026848*
X017258Y026749*
X017182Y026718*
X017071Y02645*
X017182Y026182*
X01745Y026071*
X01762Y026142*
X017814*
Y02475*
Y019939*
X016061Y018186*
X01455*
X014313Y018087*
X013513Y017287*
X013414Y01705*
Y016184*
X01327Y01604*
Y01556*
X01351Y01532*
X01399*
X01423Y01556*
Y01604*
X014086Y016184*
Y016911*
X014689Y017514*
X0162*
X016437Y017613*
X018316Y019492*
X01893*
X0191Y019421*
X019368Y019532*
X019479Y0198*
X019368Y020068*
X0191Y020179*
X01893Y020108*
X018486*
Y02339*
X018586Y023436*
X018635Y023395*
Y02143*
X018623Y0214*
X018689Y021239*
X021223Y018706*
Y01865*
X021289Y018489*
X022639Y017139*
X0228Y017073*
X023306*
X023339Y017039*
X0235Y016973*
X023815*
X023832Y016932*
X0241Y016821*
X024368Y016932*
X024479Y0172*
X024368Y017468*
X0241Y017579*
X023832Y017468*
X023815Y017427*
X023594*
X023561Y017461*
X0234Y017527*
X022894*
X021677Y018744*
Y0188*
X021611Y018961*
X01909Y021482*
Y023428*
X01913Y023445*
X019241Y023712*
X01913Y02398*
X018863Y024091*
X018595Y02398*
X018584Y023954*
X018486Y023973*
Y024538*
X019438*
X019482Y024432*
X01975Y024321*
X020018Y024432*
X020129Y0247*
X020018Y024968*
X01975Y025079*
X019482Y024968*
X019438Y024862*
X018486*
Y02645*
X018387Y026687*
X017786Y027289*
Y028311*
X020539Y031064*
X021755*
Y031005*
X022545*
Y031795*
G37*
G36*
X02315Y031828D02*
X022847Y031703D01*
X022722Y0314*
X022847Y031097*
X02315Y030972*
X023453Y031097*
X023578Y0314*
X023453Y031703*
X02315Y031828*
G37*
G36*
X030265Y03048D02*
X029835D01*
X02962Y030265*
Y029835*
X029835Y02962*
X030265*
X03048Y029835*
Y030265*
X030265Y03048*
G37*
G36*
X0202Y029258D02*
X019982Y029168D01*
X019892Y02895*
X0202*
Y029258*
G37*
G36*
X011265Y02948D02*
X010835D01*
X01062Y029265*
Y028835*
X010835Y02862*
X011265*
X01148Y028835*
Y029265*
X011265Y02948*
G37*
G36*
X02215Y029828D02*
X021847Y029703D01*
X021722Y0294*
X02178Y02926*
X021335Y028815*
X021288Y0287*
Y025667*
X020977Y025356*
X020918Y025368*
X02065Y025479*
X020382Y025368*
X020271Y0251*
X020382Y024832*
X02065Y024721*
X020918Y024832*
X020964Y024943*
X021065Y024985*
X021565Y025485*
X021612Y0256*
Y028633*
X02201Y02903*
X02215Y028972*
X022453Y029097*
X022578Y0294*
X022453Y029703*
X02215Y029828*
G37*
G36*
X011265Y03048D02*
X010835D01*
X01062Y030265*
Y029835*
X010835Y02962*
X011265*
X01148Y029835*
Y030265*
X011265Y03048*
G37*
G36*
X02315Y029828D02*
X022847Y029703D01*
X022722Y0294*
X022847Y029097*
X02315Y028972*
X023453Y029097*
X023578Y0294*
X023453Y029703*
X02315Y029828*
G37*
G36*
X011265Y03548D02*
X010835D01*
X01062Y035265*
Y034835*
X010835Y03462*
X011265*
X01148Y034835*
Y035265*
X011265Y03548*
G37*
G36*
X0286Y034478D02*
X028297Y034353D01*
X028172Y03405*
X028297Y033747*
X0286Y033622*
X028903Y033747*
X029028Y03405*
X028903Y034353*
X0286Y034478*
G37*
G36*
X030265Y03548D02*
X029835D01*
X02962Y035265*
Y034835*
X029835Y03462*
X030265*
X03048Y034835*
Y035265*
X030265Y03548*
G37*
G36*
X021045Y035845D02*
X020255D01*
Y035055*
X021045*
Y035845*
G37*
G36*
X028995Y035445D02*
X028205D01*
Y034655*
X028995*
Y035445*
G37*
G36*
X030265Y03448D02*
X029835D01*
X02962Y034265*
Y033835*
X029835Y03362*
X030265*
X03048Y033835*
Y034265*
X030265Y03448*
G37*
G36*
X011265Y03348D02*
X010835D01*
X01062Y033265*
Y032835*
X010835Y03262*
X011265*
X01148Y032835*
Y033265*
X011265Y03348*
G37*
G36*
X030265Y03248D02*
X029835D01*
X02962Y032265*
Y031835*
X029835Y03162*
X030265*
X03048Y031835*
Y032265*
X030265Y03248*
G37*
G36*
Y03348D02*
X029835D01*
X02962Y033265*
Y032835*
X029835Y03262*
X030265*
X03048Y032835*
Y033265*
X030265Y03348*
G37*
G36*
X011265Y03448D02*
X010835D01*
X01062Y034265*
Y033835*
X010835Y03362*
X011265*
X01148Y033835*
Y034265*
X011265Y03448*
G37*
G36*
X02065Y034878D02*
X020347Y034753D01*
X020222Y03445*
X020347Y034147*
X020396Y034128*
Y0336*
X02047Y03342*
X02107Y03282*
X02125Y032746*
X023377*
X023382Y032732*
X02365Y032621*
X023918Y032732*
X024029Y033*
X023918Y033268*
X02365Y033379*
X023382Y033268*
X023377Y033254*
X021355*
X020904Y033705*
Y034128*
X020953Y034147*
X021078Y03445*
X020953Y034753*
X02065Y034878*
G37*
G36*
X030265Y02648D02*
X0301D01*
Y0261*
X03048*
Y026265*
X030265Y02648*
G37*
G36*
X03D02*
X029835D01*
X02962Y026265*
Y0261*
X03*
Y02648*
G37*
G36*
Y027D02*
X02962D01*
Y026835*
X029835Y02662*
X03*
Y027*
G37*
G36*
X02215Y027828D02*
X021847Y027703D01*
X021722Y0274*
X021847Y027097*
X02215Y026972*
X022453Y027097*
X022578Y0274*
X022453Y027703*
X02215Y027828*
G37*
G36*
X03048Y027D02*
X0301D01*
Y02662*
X030265*
X03048Y026835*
Y027*
G37*
G36*
X02315Y026828D02*
X022847Y026703D01*
X022722Y0264*
X022847Y026097*
X02315Y025972*
X023453Y026097*
X023578Y0264*
X023453Y026703*
X02315Y026828*
G37*
G36*
Y025828D02*
X022847Y025703D01*
X022722Y0254*
X022847Y025097*
X02315Y024972*
X023453Y025097*
X023578Y0254*
X023453Y025703*
X02315Y025828*
G37*
G36*
X02215D02*
X021847Y025703D01*
X021722Y0254*
X021847Y025097*
X02215Y024972*
X022453Y025097*
X022578Y0254*
X022453Y025703*
X02215Y025828*
G37*
G36*
X03Y026D02*
X02962D01*
Y025835*
X029835Y02562*
X03*
Y026*
G37*
G36*
X02215Y026828D02*
X021847Y026703D01*
X021722Y0264*
X021847Y026097*
X02215Y025972*
X022453Y026097*
X022578Y0264*
X022453Y026703*
X02215Y026828*
G37*
G36*
X03048Y026D02*
X0301D01*
Y02562*
X030265*
X03048Y025835*
Y026*
G37*
G36*
X02315Y028828D02*
X022847Y028703D01*
X022722Y0284*
X022847Y028097*
X02315Y027972*
X023453Y028097*
X023578Y0284*
X023453Y028703*
X02315Y028828*
G37*
G36*
X02215D02*
X021847Y028703D01*
X021722Y0284*
X021847Y028097*
X02215Y027972*
X022453Y028097*
X022578Y0284*
X022453Y028703*
X02215Y028828*
G37*
G36*
X01855Y028658D02*
X018332Y028568D01*
X018242Y02835*
X01855*
Y028658*
G37*
G36*
X0202Y02885D02*
X019892D01*
X019982Y028632*
X0202Y028542*
Y02885*
G37*
G36*
X01865Y028658D02*
Y02835D01*
X018958*
X018868Y028568*
X01865Y028658*
G37*
G36*
X018958Y02825D02*
X01865D01*
Y027942*
X018868Y028032*
X018958Y02825*
G37*
G36*
X03Y02748D02*
X029835D01*
X02962Y027265*
Y0271*
X03*
Y02748*
G37*
G36*
X02315Y027828D02*
X022847Y027703D01*
X022722Y0274*
X022847Y027097*
X02315Y026972*
X023453Y027097*
X023578Y0274*
X023453Y027703*
X02315Y027828*
G37*
G36*
X030265Y02748D02*
X0301D01*
Y0271*
X03048*
Y027265*
X030265Y02748*
G37*
G36*
X01855Y02825D02*
X018242D01*
X018332Y028032*
X01855Y027942*
Y02825*
G37*
G36*
X030265Y02848D02*
X029835D01*
X02962Y028265*
Y027835*
X029835Y02762*
X030265*
X03048Y027835*
Y028265*
X030265Y02848*
G37*
%LNklogshield_mb_rev1-3*%
%LPD*%
G54D15*
X027054Y0147D03*
X0263D03*
X028904D03*
X02815D03*
G54D21*
X0267Y0135D02*
X02686Y01334D01*
Y0121D02*
Y01334D01*
X029694Y0135D02*
X02985Y013344D01*
Y0121D02*
Y013344D01*
X027Y0109D02*
X027475D01*
X02686Y01104D02*
X027Y0109D01*
X02686Y01104D02*
Y0121D01*
X027054Y0147D02*
X02815D01*
X0277Y0326D02*
Y0348D01*
X01745Y02645D02*
X01815D01*
X0287Y02405D02*
X03005D01*
X0277Y02505D02*
X0287Y02405D01*
X0277Y02505D02*
Y0326D01*
X0253Y0348D02*
X0277D01*
X0236Y0365D02*
X0253Y0348D01*
X01975Y0365D02*
X0236D01*
X01895Y0357D02*
X01975Y0365D01*
X01895Y0315D02*
Y0357D01*
X0148Y02735D02*
X01895Y0315D01*
X01475Y02735D02*
X0148D01*
X01815Y0198D02*
X0191D01*
X02815Y0147D02*
Y0231D01*
X02765Y0236D02*
X02815Y0231D01*
G54D22*
X0208Y02595D02*
Y0299D01*
X0213Y0304*
X02215*
X02395Y0279D02*
Y0296D01*
X02315Y0304D02*
X02395Y0296D01*
Y0279D02*
X02595Y0259D01*
X0186Y0283D02*
Y0286D01*
X0189Y0289*
X02025*
G54D23*
X02065Y0251D02*
X02095D01*
X02145Y0256*
Y0287*
X02215Y0294*
X0182Y0247D02*
X01975D01*
X01815Y02475D02*
X0182Y0247D01*
X03105Y01007D02*
Y01157D01*
X03104Y01006D02*
X03105Y01007D01*
X02567Y01006D02*
X03104D01*
X01005Y01005D02*
X02469D01*
X03105Y01157D02*
Y03605D01*
X0247Y01006D02*
X02567D01*
X01166Y03706D02*
X03004D01*
X0305Y0366*
X03105Y03605*
X01005Y01005D02*
Y03545D01*
X01166Y03706*
G54D24*
X0204Y0314D02*
X02215D01*
X0162Y01785D02*
X01815Y0198D01*
X01455Y01785D02*
X0162D01*
X01375Y01705D02*
X01455Y01785D01*
X01375Y0158D02*
Y01705D01*
X01815Y0198D02*
Y02475D01*
Y02645*
X01745Y02715D02*
X01815Y02645D01*
X01745Y02715D02*
Y02845D01*
X0204Y0314*
G54D25*
X02455Y0244D02*
X02495Y024D01*
X02315Y0244D02*
X02455D01*
X0239Y0204D02*
X02495Y02145D01*
Y024*
X02155Y0204D02*
X0239D01*
X0219Y0212D02*
X0238D01*
X0243Y0217*
Y0232*
X0241Y0234D02*
X0243Y0232D01*
X02315Y0234D02*
X0241D01*
X01105Y02645D02*
X0113D01*
X0118Y02595*
Y0246D02*
Y02595D01*
X01105Y02805D02*
X0131Y026D01*
Y0222D02*
Y026D01*
X0136Y0217D02*
X01375D01*
X0131Y0222D02*
X0136Y0217D01*
X01885Y0214D02*
X02145Y0188D01*
X0235Y0172D02*
X0241D01*
X0234Y0173D02*
X0235Y0172D01*
X0209Y02105D02*
X02155Y0204D01*
X0209Y02105D02*
Y02195D01*
X02025Y0226D02*
X0209Y02195D01*
X0197Y0226D02*
X02025D01*
X01105Y03205D02*
X01225D01*
X0135Y0308*
Y02705D02*
Y0308D01*
Y02705D02*
X0157Y02485D01*
Y01915D02*
Y02485D01*
X02395Y01815D02*
X02735D01*
Y0222*
X02675Y0228D02*
Y0248D01*
Y0228D02*
X02735Y0222D01*
X02145Y01865D02*
Y0188D01*
Y01865D02*
X0228Y0173D01*
X0234*
X0118Y0246D02*
X01225Y02415D01*
X0125*
X01885Y0214D02*
X018863Y021412D01*
Y023712*
G54D26*
X025749Y0121D02*
Y013343D01*
X025906Y0135*
X028739Y0121D02*
Y013339D01*
X0289Y0135*
X02815Y0109D02*
X0285D01*
X028739Y011139*
Y0121*
X028904Y013504D02*
Y0147D01*
X0289Y0135D02*
X028904Y013504D01*
G54D27*
X02686Y0121D02*
X0276D01*
X028072D02*
X028739D01*
X02065Y0336D02*
Y03445D01*
X02595Y02155D02*
Y0259D01*
X0247Y0203D02*
X02595Y02155D01*
X0247Y0195D02*
Y0203D01*
X02425Y01905D02*
X0247Y0195D01*
X02395Y01905D02*
X02425D01*
X02125Y033D02*
X02365D01*
X02065Y0336D02*
X02125Y033D01*
G54D28*
X03105Y01641D02*
Y03605D01*
X01005Y01005D02*
X02208D01*
X01615Y03705D02*
X02905D01*
X01005Y03545D02*
X01065Y03605D01*
X01005Y01005D02*
Y03545D01*
G54D29*
X025906Y0135D03*
X0267D03*
X0289D03*
X029694D03*
G54D30*
X01105Y03105D03*
X03005Y03005D03*
X01105Y03205D03*
Y03305D03*
Y03405D03*
Y03505D03*
Y03005D03*
Y02905D03*
Y02805D03*
Y02645D03*
Y02545D03*
Y02445D03*
Y02345D03*
Y02245D03*
Y02145D03*
Y02045D03*
Y01945D03*
X03005Y03105D03*
Y03205D03*
Y03305D03*
Y03405D03*
Y03505D03*
Y02805D03*
Y02705D03*
Y02605D03*
Y02505D03*
Y02405D03*
Y02305D03*
G54D31*
X0286Y03405D03*
X02065Y03445D03*
X02315Y0224D03*
X02215D03*
X02315Y0234D03*
X02215D03*
X02315Y0244D03*
X02215D03*
X02315Y0254D03*
X02215D03*
X02315Y0264D03*
X02215D03*
X02315Y0274D03*
X02215D03*
X02315Y0284D03*
X02215D03*
X02315Y0294D03*
X02215D03*
X02315Y0304D03*
X02215D03*
X02315Y0314D03*
G54D32*
X0286Y03505D03*
X02065Y03545D03*
X02215Y0314D03*
G54D33*
X01375Y0158D03*
G54D34*
X01975Y0247D03*
X0208Y02595D03*
X02065Y0251D03*
X0277Y0348D03*
Y0326D03*
X02595Y0259D03*
X01745Y02645D03*
X0197Y0226D03*
X0219Y0212D03*
X01475Y02735D03*
X02765Y0236D03*
X01375Y0217D03*
X0241Y0172D03*
X0191Y0198D03*
X0157Y01915D03*
X02395Y01905D03*
Y01815D03*
X02675Y0248D03*
X02025Y0289D03*
X0186Y0283D03*
X0125Y02415D03*
X02365Y033D03*
X018863Y023712D03*
G54D35*
X028072Y0121D03*
X0276D03*
G54D36*
X025749Y0121D03*
X02686D03*
X028739D03*
X02985D03*
G54D37*
X02815Y0109D03*
X027475D03*
M02*