%FSTAX24Y24*%
%MOIN*%
%SFA1B1*%

%IPPOS*%
%AMD27*
4,1,8,0.017500,0.035000,-0.017500,0.035000,-0.035000,0.017500,-0.035000,-0.017500,-0.017500,-0.035000,0.017500,-0.035000,0.035000,-0.017500,0.035000,0.017500,0.017500,0.035000,0.0*
%
%AMD28*
4,1,8,-0.035000,0.017500,-0.035000,-0.017500,-0.017500,-0.035000,0.017500,-0.035000,0.035000,-0.017500,0.035000,0.017500,0.017500,0.035000,-0.017500,0.035000,-0.035000,0.017500,0.0*
%
%AMD29*
4,1,8,0.015000,0.030000,-0.015000,0.030000,-0.030000,0.015000,-0.030000,-0.015000,-0.015000,-0.030000,0.015000,-0.030000,0.030000,-0.015000,0.030000,0.015000,0.015000,0.030000,0.0*
%
%AMD31*
4,1,8,-0.033000,0.016500,-0.033000,-0.016500,-0.016500,-0.033000,0.016500,-0.033000,0.033000,-0.016500,0.033000,0.016500,0.016500,0.033000,-0.016500,0.033000,-0.033000,0.016500,0.0*
%
%ADD25C,0.150000*%
%ADD26C,0.140000*%
G04~CAMADD=27~4~0.0~0.0~700.0~700.0~0.0~175.0~0~0.0~0.0~0.0~0.0~0~0.0~0.0~0.0~0.0~0~0.0~0.0~0.0~0.0~700.0~700.0*
%ADD27D27*%
G04~CAMADD=28~4~0.0~0.0~700.0~700.0~0.0~175.0~0~0.0~0.0~0.0~0.0~0~0.0~0.0~0.0~0.0~0~0.0~0.0~0.0~90.0~700.0~700.0*
%ADD28D28*%
G04~CAMADD=29~4~0.0~0.0~600.0~600.0~0.0~150.0~0~0.0~0.0~0.0~0.0~0~0.0~0.0~0.0~0.0~0~0.0~0.0~0.0~0.0~600.0~600.0*
%ADD29D29*%
%ADD30C,0.056000*%
G04~CAMADD=31~4~0.0~0.0~660.0~660.0~0.0~165.0~0~0.0~0.0~0.0~0.0~0~0.0~0.0~0.0~0.0~0~0.0~0.0~0.0~90.0~660.0~660.0*
%ADD31D31*%
%LNklogshield-1*%
%LPD*%
G54D25*
X0377Y0171D03*
X0357Y0376D03*
X0187Y0176D03*
G54D26*
X0247Y0376D03*
G54D27*
X03Y02755D03*
Y02855D03*
Y02955D03*
Y03055D03*
Y03155D03*
Y03255D03*
Y03355D03*
Y03455D03*
X0315Y02755D03*
Y02855D03*
Y02955D03*
Y03055D03*
Y03155D03*
Y03255D03*
Y03355D03*
Y03455D03*
G54D28*
X0296Y0133D03*
X0286D03*
X0276D03*
X0266D03*
X0256D03*
X0246D03*
X0236D03*
X0226D03*
X0296Y0145D03*
X0286D03*
X0276D03*
X0266D03*
X0256D03*
X0246D03*
X0236D03*
X0226D03*
G54D29*
X0252Y02105D03*
Y02205D03*
Y02305D03*
Y02405D03*
Y02505D03*
Y02605D03*
X02295Y02105D03*
Y02205D03*
Y02305D03*
Y02405D03*
Y02505D03*
Y02605D03*
G54D30*
X028744Y03675D03*
X02795D03*
X032944D03*
X03215D03*
G54D31*
X0187Y019D03*
Y02D03*
X0377Y0246D03*
Y0256D03*
Y0266D03*
Y0276D03*
Y0286D03*
Y0296D03*
Y0366D03*
Y0356D03*
Y0346D03*
Y0336D03*
Y0326D03*
X0187Y021D03*
Y022D03*
Y023D03*
Y024D03*
Y025D03*
Y026D03*
Y027D03*
Y028D03*
Y0296D03*
Y0306D03*
Y0316D03*
Y0366D03*
Y0356D03*
Y0346D03*
Y0336D03*
X0377Y0316D03*
X0187Y0326D03*
M02*