%FSTAX24Y24*%
%MOIN*%
%SFA1B1*%

%IPPOS*%
%AMD30*
4,1,8,-0.033000,0.016500,-0.033000,-0.016500,-0.016500,-0.033000,0.016500,-0.033000,0.033000,-0.016500,0.033000,0.016500,0.016500,0.033000,-0.016500,0.033000,-0.033000,0.016500,0.0*
%
%AMD33*
4,1,8,0.019000,0.038000,-0.019000,0.038000,-0.038000,0.019000,-0.038000,-0.019000,-0.019000,-0.038000,0.019000,-0.038000,0.038000,-0.019000,0.038000,0.019000,0.019000,0.038000,0.0*
%
%ADD10R,0.012000X0.057000*%
%ADD11R,0.087000X0.024000*%
%ADD12R,0.063000X0.052000*%
%ADD13R,0.056000X0.040000*%
%ADD14R,0.048000X0.048000*%
%ADD15R,0.052000X0.063000*%
%ADD16R,0.028000X0.048000*%
%ADD17R,0.026000X0.080000*%
%ADD18R,0.056000X0.103000*%
%ADD19R,0.119000X0.056000*%
%ADD20R,0.060000X0.052000*%
%ADD21C,0.037000*%
%ADD22C,0.013000*%
%ADD23C,0.010000*%
%ADD24C,0.042000*%
%ADD25C,0.022000*%
%ADD26C,0.050000*%
%ADD27C,0.027000*%
%ADD28C,0.000000*%
%ADD29C,0.056000*%
G04~CAMADD=30~4~0.0~0.0~660.0~660.0~0.0~165.0~0~0.0~0.0~0.0~0.0~0~0.0~0.0~0.0~0.0~0~0.0~0.0~0.0~90.0~660.0~660.0*
%ADD30D30*%
%ADD31C,0.059100*%
%ADD32R,0.059100X0.059100*%
G04~CAMADD=33~4~0.0~0.0~760.0~760.0~0.0~190.0~0~0.0~0.0~0.0~0.0~0~0.0~0.0~0.0~0.0~0~0.0~0.0~0.0~0.0~760.0~760.0*
%ADD33D33*%
%ADD34C,0.050000*%
%LNklogshield_mb_rev1-1*%
%LPD*%
G36*
X0117Y0371D02*
X03D01*
X03105Y03605*
Y01*
X01*
Y0354*
X0117Y0371*
G37*
%LNklogshield_mb_rev1-2*%
%LPC*%
G36*
X017385Y02065D02*
X0169D01*
Y02048*
X017385*
Y02065*
G37*
G36*
X0168D02*
X016315D01*
Y02048*
X0168*
Y02065*
G37*
G36*
X0221Y02235D02*
X021743D01*
X021847Y022097*
X0221Y021993*
Y02235*
G37*
G36*
X011265Y02188D02*
X010835D01*
X01062Y021665*
Y021235*
X010835Y02102*
X011265*
X01148Y021235*
Y021665*
X011265Y02188*
G37*
G36*
X029044Y020365D02*
X029027D01*
X02901*
X028944*
X02829*
Y020283*
X02711*
Y020315*
X02643*
Y019635*
X02711*
Y019667*
X028219*
X02829Y019596*
Y01954*
Y019535*
Y019488*
Y01944*
X028233Y019358*
X02711*
Y01939*
X02643*
Y01871*
X02711*
Y018742*
X028219*
X02829Y018671*
Y018615*
Y01861*
Y018563*
Y018515*
X028233Y018433*
X02711*
Y018465*
X02643*
Y017785*
X02711*
Y017817*
X028219*
X02829Y017746*
Y01769*
Y017685*
Y017637*
Y01759*
X028233Y017508*
X02711*
Y01754*
X02643*
Y01686*
X02711*
Y016892*
X028219*
X02829Y016821*
Y016765*
Y01676*
Y016712*
Y016665*
Y01666*
Y016558*
X02711*
Y01659*
X02643*
Y01591*
X02711*
Y015942*
X02829*
Y015835*
X028944*
X02901*
X029027*
X029044*
X02911*
X029354*
Y01625*
X029404*
Y0163*
X029764*
Y01666*
Y016665*
Y016712*
Y01676*
Y016765*
Y017125*
X029404*
Y017225*
X029764*
Y017585*
Y01759*
Y017637*
Y017685*
Y01769*
Y01805*
X029404*
Y01815*
X029764*
Y01851*
Y018515*
Y018563*
Y01861*
Y018615*
Y018975*
X029404*
Y019075*
X029764*
Y019435*
Y01944*
Y019488*
Y019535*
Y01954*
Y0199*
X029404*
Y01995*
X029354*
Y020365*
X02911*
X029044*
G37*
G36*
X011265Y01988D02*
X010835D01*
X01062Y019665*
Y019235*
X010835Y01902*
X011265*
X01148Y019235*
Y019665*
X011265Y01988*
G37*
G36*
X018076Y018515D02*
X017766D01*
Y01815*
X018076*
Y018515*
G37*
G36*
X011265Y02088D02*
X010835D01*
X01062Y020665*
Y020235*
X010835Y02002*
X011265*
X01148Y020235*
Y020665*
X011265Y02088*
G37*
G36*
X029454Y020365D02*
Y02D01*
X029764*
Y020365*
X029454*
G37*
G36*
X022557Y02235D02*
X0222D01*
Y021993*
X022453Y022097*
X022557Y02235*
G37*
G36*
X0232Y022807D02*
Y02245D01*
X023557*
X023453Y022703*
X0232Y022807*
G37*
G36*
X0231D02*
X022847Y022703D01*
X022743Y02245*
X0231*
Y022807*
G37*
G36*
X02315Y023828D02*
X022847Y023703D01*
X022722Y0234*
X022847Y023097*
X02315Y022972*
X023453Y023097*
X023578Y0234*
X023453Y023703*
X02315Y023828*
G37*
G36*
X030265Y02348D02*
X029835D01*
X02962Y023265*
Y022835*
X029835Y02262*
X030265*
X03048Y022835*
Y023265*
X030265Y02348*
G37*
G36*
X0222Y022807D02*
Y02245D01*
X022557*
X022453Y022703*
X0222Y022807*
G37*
G36*
X023557Y02235D02*
X0232D01*
Y021993*
X023453Y022097*
X023557Y02235*
G37*
G36*
X0231D02*
X022743D01*
X022847Y022097*
X0231Y021993*
Y02235*
G37*
G36*
X0221Y022807D02*
X021847Y022703D01*
X021743Y02245*
X0221*
Y022807*
G37*
G36*
X011265Y02288D02*
X010835D01*
X01062Y022665*
Y022235*
X010835Y02202*
X011265*
X01148Y022235*
Y022665*
X011265Y02288*
G37*
G36*
X02395Y018529D02*
X023682Y018418D01*
X023571Y01815*
X023682Y017882*
X02395Y017771*
X02412Y017842*
X025597*
Y017785*
X026277*
Y018465*
X025597*
Y018458*
X02412*
X02395Y018529*
G37*
G36*
X0224Y014172D02*
X02207D01*
Y013607*
X0224*
Y014172*
G37*
G36*
X029744Y013891D02*
Y01355D01*
X030084*
X029985Y013791*
X029744Y013891*
G37*
G36*
X0219Y015525D02*
X02155D01*
Y015215*
X0219*
Y015525*
G37*
G36*
X02283Y014172D02*
X0225D01*
Y013607*
X02283*
Y014172*
G37*
G36*
X02675Y013891D02*
Y01355D01*
X027091*
X026991Y013791*
X02675Y013891*
G37*
G36*
X02283Y013507D02*
X0225D01*
Y012942*
X02283*
Y013507*
G37*
G36*
X0224D02*
X02207D01*
Y012942*
X0224*
Y013507*
G37*
G36*
X030084Y01345D02*
X029744D01*
Y013109*
X029985Y013209*
X030084Y01345*
G37*
G36*
X027091D02*
X02675D01*
Y013109*
X026991Y013209*
X027091Y01345*
G37*
G36*
X02235Y015525D02*
X022D01*
Y015215*
X02235*
Y015525*
G37*
G36*
X0193Y01636D02*
X01912D01*
Y01591*
X0193*
Y01636*
G37*
G36*
X01884Y01618D02*
X018195D01*
Y01585*
X01884*
Y01618*
G37*
G36*
X018076Y01805D02*
X017766D01*
Y017685*
X018076*
Y01805*
G37*
G36*
X0241Y017579D02*
X023832Y017468D01*
X023721Y0172*
X023832Y016932*
X0241Y016821*
X024368Y016932*
X024385Y016973*
X025597*
Y01686*
X026277*
Y01754*
X025597*
Y017427*
X024385*
X024368Y017468*
X0241Y017579*
G37*
G36*
X018095Y01618D02*
X01745D01*
Y01585*
X018095*
Y01618*
G37*
G36*
Y01575D02*
X01745D01*
Y01542*
X018095*
Y01575*
G37*
G36*
X0193Y01581D02*
X01912D01*
Y01536*
X0193*
Y01581*
G37*
G36*
X029764Y0162D02*
X029454D01*
Y015835*
X029764*
Y0162*
G37*
G36*
X01884Y01575D02*
X018195D01*
Y01542*
X01884*
Y01575*
G37*
G36*
X011265Y02388D02*
X010835D01*
X01062Y023665*
Y023235*
X010835Y02302*
X011265*
X01148Y023235*
Y023665*
X011265Y02388*
G37*
G36*
Y02948D02*
X010835D01*
X01062Y029265*
Y028835*
X010835Y02862*
X011265*
X01148Y028835*
Y029265*
X011265Y02948*
G37*
G36*
X020608Y02885D02*
X0203D01*
Y028542*
X020518Y028632*
X020608Y02885*
G37*
G36*
X0203Y029258D02*
Y02895D01*
X020608*
X020518Y029168*
X0203Y029258*
G37*
G36*
X011265Y03048D02*
X010835D01*
X01062Y030265*
Y029835*
X010835Y02962*
X011265*
X01148Y029835*
Y030265*
X011265Y03048*
G37*
G36*
X027365Y03619D02*
X026535D01*
Y036163*
X0259*
X02588Y036154*
X02552*
Y035554*
X02588*
X0259Y035546*
X026439*
X026461Y035528*
X026467Y035473*
X026414Y035408*
X0259*
X02588Y0354*
X02552*
Y0348*
X02588*
X0259Y034792*
X026535*
Y034716*
X027348*
X027362Y034702*
X027432Y034532*
X0276Y034462*
X02758Y034362*
X027368*
Y034414*
X026538*
Y034388*
X025883*
X025863Y03438*
X025503*
Y03378*
X025863*
X025883Y033772*
X026443*
X026464Y033755*
X026469Y033695*
X026419Y033634*
X025883*
X025863Y033626*
X025503*
Y033026*
X025863*
X025883Y033017*
X026538*
Y03294*
X026645*
Y032853*
X026735Y032635*
X026988Y032382*
X027206Y032292*
X02753*
X0277Y032221*
X027968Y032332*
X028079Y0326*
X027968Y032868*
X0277Y032979*
X02753Y032908*
X027455*
X027368Y03294*
Y033594*
Y03366*
X027403Y033746*
X028302*
X0286Y033622*
X028888Y033742*
X029713*
X029835Y03362*
X030265*
X03048Y033835*
Y034265*
X030265Y03448*
X029835*
X029713Y034358*
X028888*
X0286Y034478*
X028322Y034362*
X02782*
X0278Y034462*
X027968Y034532*
X028079Y0348*
X027968Y035068*
X027798Y035138*
X027642Y035294*
X027447Y035375*
X027415Y035459*
X027453Y035522*
X027692*
X028205Y035009*
Y034655*
X028995*
Y034742*
X029713*
X029835Y03462*
X030265*
X03048Y034835*
Y035265*
X030265Y03548*
X029835*
X029713Y035358*
X028995*
Y035445*
X028641*
X028038Y036048*
X02782Y036138*
X027365*
Y03619*
G37*
G36*
X02005Y029729D02*
X019924Y029676D01*
X019274Y029026*
X019221Y0289*
Y0285*
X019274Y028374*
X01937Y028277*
X019332Y028185*
X01929*
Y027845*
X019271Y0278*
Y02715*
X019324Y027024*
X01945Y026971*
X0219*
X022026Y027024*
X02215Y026972*
X022453Y027097*
X022578Y0274*
X022453Y027703*
X02215Y027828*
X021847Y027703*
X021722Y0274*
X021674Y027329*
X020443*
X02041Y027415*
Y02775*
X02025*
Y0278*
X02021*
Y028185*
X019829*
Y02825*
X019776Y028376*
X019579Y028574*
Y028826*
X019841Y029088*
X019926Y029032*
X019892Y02895*
X0202*
Y029258*
X020159Y029241*
X020097Y029324*
X020135Y029371*
X020926*
X021773Y028524*
X021722Y0284*
X021847Y028097*
X02215Y027972*
X022453Y028097*
X022578Y0284*
X022453Y028703*
X02215Y028828*
X022026Y028777*
X021126Y029676*
X021Y029729*
X02005*
G37*
G36*
X018958Y02825D02*
X01865D01*
Y027942*
X018868Y028032*
X018958Y02825*
G37*
G36*
X01855Y028658D02*
X018332Y028568D01*
X018242Y02835*
X01855*
Y028658*
G37*
G36*
X0202Y02885D02*
X019892D01*
X019982Y028632*
X0202Y028542*
Y02885*
G37*
G36*
X01865Y028658D02*
Y02835D01*
X018958*
X018868Y028568*
X01865Y028658*
G37*
G36*
X011265Y03548D02*
X010835D01*
X01062Y035265*
Y034835*
X010835Y03462*
X011265*
X01148Y034835*
Y035265*
X011265Y03548*
G37*
G36*
Y03348D02*
X010835D01*
X01062Y033265*
Y032835*
X010835Y03262*
X011265*
X01148Y032835*
Y033265*
X011265Y03348*
G37*
G36*
X02065Y034878D02*
X020347Y034753D01*
X020222Y03445*
X020347Y034147*
X02065Y034022*
X020953Y034147*
X021078Y03445*
X020953Y034753*
X02065Y034878*
G37*
G36*
X011265Y03448D02*
X010835D01*
X01062Y034265*
Y033835*
X010835Y03362*
X011265*
X01148Y033835*
Y034265*
X011265Y03448*
G37*
G36*
X030265Y03348D02*
X029835D01*
X02962Y033265*
Y032835*
X029835Y03262*
X030265*
X03048Y032835*
Y033265*
X030265Y03348*
G37*
G36*
X011265Y03148D02*
X010835D01*
X01062Y031265*
Y030835*
X010835Y03062*
X011265*
X01148Y030835*
Y031265*
X011265Y03148*
G37*
G36*
X021045Y035845D02*
X020255D01*
Y035055*
X021045*
Y035142*
X021342*
Y034128*
X020782Y033568*
X020692Y03335*
Y03095*
X020782Y030732*
X021332Y030182*
X02155Y030092*
X021862*
X02215Y029972*
X022438Y030092*
X022862*
X02315Y029972*
X023453Y030097*
X023578Y0304*
X023453Y030703*
X02315Y030828*
X022862Y030708*
X022438*
X02215Y030828*
X021862Y030708*
X021678*
X021308Y031078*
Y033222*
X021868Y033782*
X021958Y034*
Y035101*
X022008Y035111*
X022085Y035028*
Y03499*
Y034336*
X022192*
Y0327*
X022282Y032482*
X022842Y031922*
Y031708*
X022545*
Y031795*
X021755*
Y031005*
X022545*
Y031092*
X022862*
X02315Y030972*
X023453Y031097*
X023578Y0314*
X023458Y031688*
Y03205*
X023368Y032268*
X022808Y032828*
Y034336*
X022915*
Y034388*
X023164*
X023235Y034317*
Y03416*
Y034094*
Y034077*
Y03406*
Y033994*
Y03334*
X023342*
Y03317*
X023271Y033*
X023382Y032732*
X02365Y032621*
X023918Y032732*
X024029Y033*
X023958Y03317*
Y03334*
X024065*
Y033392*
X024702*
Y030438*
X023972Y029708*
X023438*
X02315Y029828*
X022862Y029708*
X022438*
X02215Y029828*
X021847Y029703*
X021722Y0294*
X021847Y029097*
X02215Y028972*
X022438Y029092*
X022862*
X02315Y028972*
X023438Y029092*
X0241*
X024318Y029182*
X024374Y029238*
X025033*
X026288Y027983*
Y026229*
X026188Y02618*
X02595Y026279*
X025708Y026179*
X02551*
Y026385*
X025112*
Y026533*
X025465Y026885*
X025512Y027*
Y0278*
X02551Y027806*
Y028185*
X024929*
Y0283*
X024876Y028426*
X024776Y028526*
X02465Y028579*
X023504*
X023453Y028703*
X02315Y028828*
X022847Y028703*
X022722Y0284*
X022847Y028097*
X02315Y027972*
X023453Y028097*
X023504Y028221*
X024305*
X02439Y028185*
Y027979*
X0243*
X024174Y027926*
X023826Y027579*
X023504*
X023453Y027703*
X02315Y027828*
X022847Y027703*
X022722Y0274*
X022847Y027097*
X02315Y026972*
X023453Y027097*
X023504Y027221*
X0239*
X024026Y027274*
X02429Y027537*
X02439Y027496*
Y027415*
X02491*
Y027755*
X024929Y0278*
X02499*
Y027415*
X025188*
Y027067*
X024835Y026715*
X024788Y0266*
Y026385*
X02439*
Y026254*
X02429Y026213*
X023976Y026526*
X02385Y026579*
X023504*
X023453Y026703*
X02315Y026828*
X022847Y026703*
X022722Y0264*
X022847Y026097*
X02315Y025972*
X023453Y026097*
X023504Y026221*
X023776*
X024124Y025874*
X02425Y025821*
X024319*
X02439Y025751*
Y025615*
X024305Y025579*
X023504*
X023453Y025703*
X02315Y025828*
X022847Y025703*
X022722Y0254*
X022847Y025097*
X02315Y024972*
X023453Y025097*
X023504Y025221*
X0247*
X024704Y025223*
X024788Y025168*
Y02474*
X024835Y024626*
X025488Y023973*
Y0222*
X025535Y022085*
X025838Y021783*
Y020315*
X025597*
Y020283*
X023925*
X023771Y02022*
X023707Y020193*
X022722Y019208*
X020265*
Y01924*
X020096*
X019438Y019898*
X019368Y020068*
X0191Y020179*
X018832Y020068*
X018721Y0198*
X018832Y019532*
X019002Y019462*
X019435Y019029*
Y018586*
Y01852*
Y018508*
X019432Y018483*
X01934Y018408*
X01924*
Y018515*
X018586*
X01852*
X018503*
X018486*
X01842*
X018176*
Y0181*
Y017685*
X01842*
X018486*
X018503*
X01852*
X018586*
X01924*
Y017792*
X019435*
Y017766*
X019542*
Y017121*
X019456Y017066*
X019061Y017461*
X0189Y017527*
X016294*
X015927Y017894*
Y018865*
X015968Y018882*
X016079Y01915*
X015968Y019418*
X0157Y019529*
X015432Y019418*
X015321Y01915*
X015432Y018882*
X015473Y018865*
Y0178*
X015539Y017639*
X016039Y017139*
X0162Y017073*
X018806*
X019426Y016452*
X0194Y016389*
Y01586*
Y01536*
X01958*
X01962*
X01968*
X02008*
X02012*
X02018*
X02058*
X02062*
X02108*
Y015671*
X021158Y01586*
Y01649*
X021258Y01651*
X021332Y016332*
X02155Y016114*
Y01589*
Y015625*
X02235*
Y01589*
Y01661*
X022126*
X021979Y016757*
Y01725*
X02196Y017295*
Y017665*
X021306*
X02124*
X021223*
X021206*
X02114*
X020486*
Y017031*
X020394Y016993*
X020158Y017228*
Y017766*
X020265*
Y01842*
Y018486*
Y018492*
X020275Y018527*
X020363Y018592*
X02285*
X023068Y018682*
X02349Y019104*
X023571Y01905*
X023682Y018782*
X02395Y018671*
X024218Y018782*
X024223Y018796*
X025597*
Y01871*
X026277*
Y01939*
X025597*
Y019304*
X024223*
X024218Y019318*
X02395Y019429*
X023896Y01951*
X024053Y019667*
X025597*
Y019635*
X026277*
Y020315*
X026162*
Y02185*
X026115Y021965*
X025812Y022267*
Y02404*
X025765Y024155*
X025112Y024808*
Y025112*
X02515Y025138*
X0261*
X026215Y025185*
X026439Y025409*
X026571Y025276*
Y025105*
X026482Y025068*
X026371Y0248*
X026482Y024532*
X02675Y024421*
X027018Y024532*
X027129Y0248*
X027018Y025068*
X026929Y025105*
Y02535*
X026876Y025476*
X026612Y02574*
Y02805*
X026565Y028165*
X025215Y029515*
X0251Y029562*
X024829*
X024791Y029655*
X025228Y030092*
X025318Y03031*
Y0334*
X02539*
Y034*
X02503*
X02501Y034008*
X0241*
X024065Y034094*
Y03416*
Y034814*
X023726*
X023626Y034914*
X023408Y035004*
X023008*
X022968Y035073*
X023008Y035142*
X025003*
X025081Y035174*
X025407*
Y035774*
X025047*
X025027Y035782*
X025006Y035774*
X024647*
Y035758*
X022915*
Y03581*
X022085*
Y035758*
X0217*
X02165Y035738*
X0216Y035758*
X021045*
Y035845*
G37*
G36*
X030265Y03148D02*
X029835D01*
X02962Y031265*
Y030835*
X029835Y03062*
X030265*
X03048Y030835*
Y031265*
X030265Y03148*
G37*
G36*
Y03248D02*
X029835D01*
X02962Y032265*
Y031835*
X029835Y03162*
X030265*
X03048Y031835*
Y032265*
X030265Y03248*
G37*
G36*
X011265D02*
X010835D01*
X01062Y032265*
Y031835*
X010835Y03162*
X011265*
X01148Y031835*
Y032265*
X011265Y03248*
G37*
G36*
X03Y026D02*
X02962D01*
Y025835*
X029835Y02562*
X03*
Y026*
G37*
G36*
X030265Y02548D02*
X029835D01*
X02962Y025265*
Y024835*
X029835Y02462*
X030265*
X03048Y024835*
Y025265*
X030265Y02548*
G37*
G36*
X03048Y026D02*
X0301D01*
Y02562*
X030265*
X03048Y025835*
Y026*
G37*
G36*
X03Y02648D02*
X029835D01*
X02962Y026265*
Y0261*
X03*
Y02648*
G37*
G36*
X011265Y02688D02*
X010835D01*
X01062Y026665*
Y026235*
X010835Y02602*
X011265*
X01148Y026235*
Y026665*
X011265Y02688*
G37*
G36*
X030265Y02448D02*
X029835D01*
X02962Y024265*
Y023835*
X029835Y02362*
X030265*
X03048Y023835*
Y024265*
X030265Y02448*
G37*
G36*
Y03048D02*
X029835D01*
X02962Y030265*
Y030056*
X028632Y029068*
X028542Y02885*
Y025378*
X027432Y024268*
X027342Y02405*
Y02377*
X027271Y0236*
X027382Y023332*
X02765Y023221*
X027918Y023332*
X028029Y0236*
X027958Y02377*
Y023922*
X029068Y025032*
X029158Y02525*
Y028722*
X030056Y02962*
X030265*
X03048Y029835*
Y030265*
X030265Y03048*
G37*
G36*
X02315Y024828D02*
X022847Y024703D01*
X022722Y0244*
X022847Y024097*
X02315Y023972*
X023453Y024097*
X023578Y0244*
X023453Y024703*
X02315Y024828*
G37*
G36*
X0169Y02442D02*
Y02425D01*
X017385*
Y02442*
X0169*
G37*
G36*
X011265Y02488D02*
X010835D01*
X01062Y024665*
Y024235*
X010835Y02402*
X011265*
X01148Y024235*
Y024665*
X011265Y02488*
G37*
G36*
Y02848D02*
X010835D01*
X01062Y028265*
Y027835*
X010835Y02762*
X011265*
X01148Y027835*
Y028265*
X011265Y02848*
G37*
G36*
X030265Y02748D02*
X0301D01*
Y0271*
X03048*
Y027265*
X030265Y02748*
G37*
G36*
X03D02*
X029835D01*
X02962Y027265*
Y0271*
X03*
Y02748*
G37*
G36*
X01855Y02825D02*
X018242D01*
X018332Y028032*
X01855Y027942*
Y02825*
G37*
G36*
X02041Y028185D02*
X0203D01*
Y02785*
X02041*
Y028185*
G37*
G36*
X030265Y02848D02*
X029835D01*
X02962Y028265*
Y027835*
X029835Y02762*
X030265*
X03048Y027835*
Y028265*
X030265Y02848*
G37*
G36*
Y02648D02*
X0301D01*
Y0261*
X03048*
Y026265*
X030265Y02648*
G37*
G36*
X01475Y027729D02*
X014482Y027618D01*
X014412Y027448*
X013719Y026755*
X013628Y026537*
Y026512*
X013265*
Y026564*
X012435*
Y02591*
Y025844*
X0124Y025758*
X011387*
X011265Y02588*
X010835*
X01062Y025665*
Y025235*
X010835Y02502*
X011265*
X011387Y025142*
X012435*
Y02509*
X013265*
Y025142*
X013587*
Y02512*
X013946*
X013967Y025112*
X013987Y02512*
X014232*
X01425Y025027*
X014089Y024961*
X013504Y024376*
X0135Y024377*
X012785*
X012768Y024418*
X0125Y024529*
X012232Y024418*
X012121Y02415*
X012232Y023882*
X0125Y023771*
X012768Y023882*
X012785Y023923*
X013429*
X01355Y023873*
X013711Y023939*
X014161Y02439*
X014261Y024348*
Y02402*
Y02398*
Y02395*
Y02392*
Y02388*
Y02352*
Y02348*
Y02345*
Y02342*
Y02338*
Y02302*
Y02298*
Y02295*
Y02292*
Y02288*
Y02252*
Y02248*
Y02245*
Y02242*
Y02238*
Y022027*
Y02198*
X014183Y021927*
X014035*
X014018Y021968*
X01375Y022079*
X013482Y021968*
X013371Y0217*
X013482Y021432*
X01375Y021321*
X014018Y021432*
X014035Y021473*
X014183*
X014261Y02142*
Y021373*
Y021027*
Y02098*
X014183Y020927*
X01405*
X013889Y020861*
X013589Y020561*
X013523Y0204*
Y01628*
X01351*
X01327Y01604*
Y01556*
X01351Y01532*
X01399*
X014134Y015464*
X01534*
X01539Y015393*
X015401Y015364*
X015392Y015343*
Y013*
X015423Y012923*
X0155Y012892*
X0185*
X018542Y012864*
Y012758*
X0175*
X017423Y012727*
X017392Y01265*
Y0112*
X017423Y011123*
X0175Y011092*
X0195*
X019577Y011123*
X019679Y011109*
X019721Y011092*
X02375*
X023827Y011123*
X023858Y0112*
Y011561*
X024346*
X024614Y011672*
X026119Y013177*
X026197Y013209*
X026253Y013344*
X026353*
X026409Y013209*
X02665Y013109*
Y0135*
Y013891*
X026409Y013791*
X026385Y013733*
X026285Y013753*
Y014349*
X026657Y014721*
X028293*
X028521Y014493*
Y013578*
X028489Y0135*
X028609Y013209*
X0289Y013089*
X029191Y013209*
X029247Y013344*
X029347*
X029403Y013209*
X029644Y013109*
Y0135*
Y013891*
X029403Y013791*
X029379Y013733*
X029279Y013753*
Y01465*
X029168Y014918*
X028718Y015368*
X02845Y015479*
X0265*
X026315Y015402*
X026215Y015469*
Y01591*
X026277*
Y01659*
X025597*
Y01591*
X025598*
Y014676*
X025527Y014506*
Y013657*
X024189Y012319*
X023929*
X023858Y01239*
Y012579*
X023827Y012656*
X023756Y012727*
X023679Y012758*
X022842*
X02281Y012745*
X022776Y012736*
X022772Y012729*
X022766Y012727*
X022752Y012694*
X022735Y012664*
X022723Y012569*
X022628Y012555*
X022272*
X022177Y012569*
X022165Y012664*
X022148Y012694*
X022134Y012727*
X022128Y012729*
X022124Y012736*
X02209Y012745*
X022058Y012758*
X020645*
X020577Y012827*
X020544Y01284*
X020564Y01294*
X02058*
X0206*
X02062*
X02068*
X02108*
Y01394*
X02068*
X02062*
X0206*
X02058*
X02052*
X02018*
X02012*
X0201*
X02008*
X02002*
X01962*
X01958*
X01912*
Y013608*
X01865*
X018608Y013636*
Y01475*
X018577Y014827*
X0185Y014858*
X017108*
Y015343*
X017096Y015373*
X017088Y015406*
X017033Y015483*
X017025Y015488*
X017022Y015497*
X016991Y015509*
X016963Y015527*
X016945Y015623*
Y01618*
X015555*
Y016136*
X014134*
X01399Y01628*
X013977*
Y020306*
X014144Y020473*
X014796*
X014814Y02048*
X015331*
Y02088*
Y02092*
Y02095*
Y02098*
Y02102*
Y02138*
Y02142*
Y02145*
Y02148*
Y02152*
Y02188*
Y02192*
Y02195*
Y02198*
Y02202*
Y02238*
Y02242*
Y02245*
Y02248*
Y02252*
Y02288*
Y02292*
Y02295*
Y02298*
Y02302*
Y023188*
X015431Y023208*
X015439Y023189*
X015823Y022806*
Y02135*
X015889Y021189*
X016039Y021039*
X0162Y020973*
X016237*
X016315Y02092*
Y020873*
Y02075*
X017385*
Y02088*
Y02092*
Y02095*
Y02098*
Y02102*
Y021373*
Y021402*
X017468Y02146*
X017839Y021089*
X018Y021023*
X021595*
X021632Y020932*
X0219Y020821*
X022168Y020932*
X022279Y0212*
X022168Y021468*
X0219Y021579*
X021655Y021477*
X018094*
X017891Y02168*
X017893Y02169*
X01794Y021773*
X0201*
X020261Y021839*
X021594Y023173*
X021816*
X021847Y023097*
X02215Y022972*
X022453Y023097*
X022578Y0234*
X022453Y023703*
X02215Y023828*
X021963Y023751*
X021907Y023835*
X022075Y024003*
X02215Y023972*
X022453Y024097*
X022578Y0244*
X022453Y024703*
X02215Y024828*
X021847Y024703*
X021722Y0244*
X021753Y024325*
X021456Y024027*
X021171*
X02113Y024127*
X022026Y025023*
X02215Y024972*
X022453Y025097*
X022578Y0254*
X022453Y025703*
X02215Y025828*
X021847Y025703*
X021722Y0254*
X021773Y025276*
X020876Y024379*
X020095*
X020037Y024479*
X020129Y0247*
X020018Y024968*
X020011Y024994*
X02004Y025039*
X020167Y025054*
X020235Y024985*
X020336Y024943*
X020382Y024832*
X02065Y024721*
X020918Y024832*
X021029Y0251*
X020918Y025368*
X02065Y025479*
X020382Y025368*
X020323Y025356*
X020212Y025467*
Y025615*
X02041*
Y025716*
X02051Y025736*
X020532Y025682*
X0208Y025571*
X021068Y025682*
X021179Y02595*
X021068Y026218*
X0208Y026329*
X020532Y026218*
X020429Y02623*
X02041Y026249*
Y026385*
X020495Y026421*
X021708*
X021722Y0264*
X021847Y026097*
X02215Y025972*
X022453Y026097*
X022578Y0264*
X022453Y026703*
X02215Y026828*
X021991Y026762*
X02195Y026779*
X01945*
X019324Y026726*
X019271Y0266*
Y026*
X01929Y025955*
Y025615*
X019326Y025528*
X018974Y025176*
X018921Y02505*
Y02445*
X018974Y024324*
X019224Y024074*
X01935Y024021*
X020359*
X0204Y023921*
X019906Y023427*
X019231*
X019165Y023527*
X019241Y023712*
X01913Y02398*
X018863Y024091*
X018595Y02398*
X018573Y023927*
X017463*
X017385Y02398*
Y024027*
Y02415*
X01685*
Y0242*
X0168*
Y02442*
X016373*
X016315*
X016273Y024503*
Y025313*
X016373Y025385*
X016406*
X016423*
X01644*
X016506*
X01716*
Y025724*
X017548Y026112*
X017718Y026182*
X017829Y02645*
X017718Y026718*
X01745Y026829*
X017182Y026718*
X017112Y026548*
X016779Y026215*
X016506*
X01644*
X016423*
X016406*
X01634*
X015686*
Y026027*
X01522*
Y0261*
X01446*
Y0255*
X01522*
Y025573*
X015686*
Y025385*
X015819*
Y025033*
X015719Y024978*
X0156Y025027*
X014365*
X014347Y02512*
Y025127*
Y02572*
X01403*
X013937Y025758*
X013358*
X013318Y025827*
X013358Y025896*
X013587*
Y025874*
X014347*
Y026474*
X014391Y026555*
X014848Y027012*
X015018Y027082*
X015129Y02735*
X015018Y027618*
X01475Y027729*
G37*
G36*
X03048Y027D02*
X0301D01*
Y02662*
X030265*
X03048Y026835*
Y027*
G37*
G36*
X03D02*
X02962D01*
Y026835*
X029835Y02662*
X03*
Y027*
G37*
%LNklogshield_mb_rev1-3*%
%LPD*%
G36*
X01912Y01349D02*
X01935D01*
Y01344*
X0194*
Y01294*
X0195*
Y012565*
X019246*
Y01215*
Y011735*
X0195*
Y0112*
X0175*
Y01265*
X0186*
X01865Y0127*
Y0135*
X01912*
Y01349*
G37*
G36*
X0199Y01294D02*
X02D01*
Y01275*
X0205*
X0206Y01265*
X022058*
X02207Y012555*
Y01255*
Y01199*
X02283*
Y01255*
Y012555*
X022842Y01265*
X023679*
X02375Y012579*
Y0112*
X019721*
X01965Y011271*
Y011735*
X0199*
Y01215*
Y012565*
X019752*
X019685Y012665*
X0197Y0127*
Y01294*
X0198*
Y01344*
X0199*
Y01294*
G37*
G36*
X0163Y01542D02*
X016945D01*
X017Y015343*
Y01475*
X0185*
Y013*
X0155*
Y015343*
X015555Y01542*
X0162*
Y0158*
X0163*
Y01542*
G37*
%LNklogshield_mb_rev1-4*%
%LPC*%
G36*
X019146Y0121D02*
X018836D01*
Y011735*
X019146*
Y0121*
G37*
G36*
X02031D02*
X02D01*
Y011735*
X02031*
Y0121*
G37*
G36*
X018Y01207D02*
X01781D01*
Y01178*
X018*
Y01207*
G37*
G36*
X02283Y01189D02*
X0225D01*
Y011325*
X02283*
Y01189*
G37*
G36*
X01829Y013918D02*
X0181D01*
Y013628*
X01829*
Y013918*
G37*
G36*
X018D02*
X01781D01*
Y013628*
X018*
Y013918*
G37*
G36*
X0224Y01189D02*
X02207D01*
Y011325*
X0224*
Y01189*
G37*
G36*
X0193Y01339D02*
X01912D01*
Y01294*
X0193*
Y01339*
G37*
G36*
X02031Y012565D02*
X02D01*
Y0122*
X02031*
Y012565*
G37*
G36*
X018Y013528D02*
X01781D01*
Y013238*
X018*
Y013528*
G37*
G36*
X01829D02*
X0181D01*
Y013238*
X01829*
Y013528*
G37*
G36*
X018Y01246D02*
X01781D01*
Y01217*
X018*
Y01246*
G37*
G36*
X01829Y01207D02*
X0181D01*
Y01178*
X01829*
Y01207*
G37*
G36*
X019146Y012565D02*
X018836D01*
Y0122*
X019146*
Y012565*
G37*
G36*
X01829Y01246D02*
X0181D01*
Y01217*
X01829*
Y01246*
G37*
%LNklogshield_mb_rev1-5*%
%LPD*%
G54D10*
X02535Y0278D03*
X02515D03*
X02495D03*
X02475D03*
X02455D03*
Y026D03*
X02495D03*
X02475D03*
X02515D03*
X02535D03*
X02025Y0278D03*
X02005D03*
X01985D03*
X01965D03*
X01945D03*
Y026D03*
X01985D03*
X01965D03*
X02005D03*
X02025D03*
G54D11*
X01685Y0212D03*
X014796Y0222D03*
X01685Y0207D03*
Y0217D03*
Y0222D03*
X014796Y0217D03*
Y0227D03*
Y0232D03*
X01685D03*
X014796Y0242D03*
X01685Y0227D03*
Y0237D03*
X014796D03*
X01685Y0242D03*
X014796Y0212D03*
Y0207D03*
G54D12*
X01285Y026204D03*
Y02545D03*
X01985Y018126D03*
Y01888D03*
X02365Y034454D03*
Y0337D03*
X0225Y034696D03*
Y03545D03*
X026953Y0333D03*
Y034054D03*
X02695Y035076D03*
Y03583D03*
G54D13*
X013967Y026174D03*
Y02542D03*
X01484Y0258D03*
X025883Y033326D03*
Y03408D03*
X02501Y0337D03*
X0259Y0351D03*
Y035854D03*
X025027Y035474D03*
G54D14*
X02677Y01905D03*
X025937D03*
X02677Y019975D03*
X025937D03*
X02677Y018125D03*
X025937D03*
X02677Y0172D03*
X025937D03*
X02677Y01625D03*
X025937D03*
G54D15*
X01995Y01215D03*
X019196D03*
X018126Y0181D03*
X01888D03*
X0216Y01725D03*
X020846D03*
X0168Y0258D03*
X016046D03*
X029404Y0181D03*
X02865D03*
X029404Y019025D03*
X02865D03*
X029404Y01995D03*
X02865D03*
X029404Y01625D03*
X02865D03*
X029404Y017175D03*
X02865D03*
G54D16*
X01805Y01212D03*
Y013578D03*
G54D17*
X01935Y01344D03*
Y01586D03*
X01985Y01344D03*
X02035D03*
X01985Y01586D03*
X02035D03*
X02085Y01344D03*
Y01586D03*
G54D18*
X02245Y013557D03*
Y01194D03*
G54D19*
X018145Y0158D03*
X01625D03*
G54D20*
X02195Y01625D03*
Y015575D03*
G54D21*
X025906Y01622D02*
X025937Y01625D01*
X02677Y019975D02*
X028625D01*
X02865Y01995*
X02677Y01905D02*
X028625D01*
X02865Y019025*
X02677Y018125D02*
X028625D01*
X02865Y0181*
X02677Y0172D02*
X028625D01*
X02865Y017175*
X02677Y01625D02*
X02865D01*
X029404Y019025D02*
Y01995D01*
Y0181D02*
Y019025D01*
Y017175D02*
Y0181D01*
Y01625D02*
Y017175D01*
Y01625D02*
X029694Y01596D01*
Y0135D02*
Y01596D01*
X02315Y0294D02*
X0241D01*
X02501Y03031*
Y0337*
X02155Y0304D02*
X02215D01*
X021Y03095D02*
X02155Y0304D01*
X021Y03095D02*
Y03335D01*
X02165Y034*
Y0354*
X0217Y03545*
X0225*
X02065D02*
X0216D01*
X02165Y0354*
X0225Y034696D02*
X023408D01*
X02365Y034454*
Y0337D02*
X02501D01*
X0225Y03545D02*
X025003D01*
X025027Y035474*
X0259Y035854D02*
X026926D01*
X02695Y03583*
X02782*
X0286Y03505*
X03005*
X0286Y03405D02*
X03005D01*
X025883Y03408D02*
X026927D01*
X026953Y034054*
X028596*
X0286Y03405*
X025883Y033326D02*
X026927D01*
X026953Y0333*
X0259Y0351D02*
X026926D01*
X02695Y035076*
X027424*
X0277Y0348*
X026953Y032853D02*
Y0333D01*
Y032853D02*
X027206Y0326D01*
X0277*
X0225Y0327D02*
Y034696D01*
Y0327D02*
X02315Y03205D01*
Y0314D02*
Y03205D01*
X02215Y0314D02*
X02315D01*
X01105Y02545D02*
X01285D01*
X013937*
X013967Y02542*
X01285Y026204D02*
X013937D01*
X0168Y0258D02*
X01745Y02645D01*
X013937Y026537D02*
X01475Y02735D01*
X013937Y026204D02*
Y026537D01*
X02765Y0236D02*
Y02405D01*
X02885Y02525*
Y02885*
X03005Y03005*
X02085Y01586D02*
Y017246D01*
X020846Y01725D02*
X02085Y017246D01*
X01985Y0171D02*
X02035Y0166D01*
Y01586D02*
Y0166D01*
X01985Y0171D02*
Y018126D01*
X01888Y0181D02*
X019824D01*
X01985Y018126*
X0191Y0198D02*
X01985Y01905D01*
Y01888D02*
Y01905D01*
X02215Y0304D02*
X02315D01*
X02215Y0294D02*
X02315D01*
X02395Y01815D02*
X025912D01*
X025937Y018125*
X025906Y014506D02*
Y01622D01*
X0191Y0198D02*
X02Y0189D01*
X02285*
X023925Y019975*
X025937*
X02365Y033D02*
Y0337D01*
G54D22*
X01945Y02715D02*
Y0278D01*
Y02715D02*
X0219D01*
X02215Y0274*
X01945Y026D02*
Y0266D01*
X02195*
X02215Y0264*
X0243Y0278D02*
X02455D01*
X0239Y0274D02*
X0243Y0278D01*
X02315Y0274D02*
X0239D01*
X02475Y0278D02*
Y0283D01*
X02465Y0284D02*
X02475Y0283D01*
X02315Y0284D02*
X02465D01*
X02425Y026D02*
X02455D01*
X02315Y0264D02*
X02385D01*
X02475Y02545D02*
Y026D01*
X0247Y0254D02*
X02475Y02545D01*
X02315Y0254D02*
X0247D01*
X01965Y0256D02*
Y026D01*
X0191Y02505D02*
X01965Y0256D01*
X0191Y02445D02*
Y02505D01*
Y02445D02*
X01935Y0242D01*
X02095D02*
X02215Y0254D01*
X02025Y026D02*
X02075D01*
X0208Y02595*
X01935Y0242D02*
X02095D01*
X02535Y026D02*
X02585D01*
X02385Y0264D02*
X02425Y026D01*
X02585D02*
X02595Y0259D01*
X02675Y0248D02*
Y02535D01*
X02645Y02565D02*
X02675Y02535D01*
X0194Y0285D02*
X01965Y02825D01*
X0194Y0285D02*
Y0289D01*
X01965Y0278D02*
Y02825D01*
X0194Y0289D02*
X02005Y02955D01*
X021*
X02215Y0284*
X01685Y0242D02*
X0187Y02605D01*
Y0282*
X0186Y0283D02*
X0187Y0282D01*
G54D23*
X02005Y0254D02*
Y026D01*
Y0254D02*
X02035Y0251D01*
X02065*
X0261Y0253D02*
X02645Y02565D01*
X0251Y0294D02*
X02645Y02805D01*
Y02565D02*
Y02805D01*
X0241Y0294D02*
X0251D01*
X01975Y0247D02*
Y02505D01*
X01985Y02515*
Y026*
X02535Y027D02*
Y0278D01*
X02495Y0266D02*
X02535Y027D01*
X02495Y026D02*
Y0266D01*
X02515Y0253D02*
X0261D01*
X02515D02*
Y026D01*
X02565Y0222D02*
Y02404D01*
X02495Y02474D02*
Y026D01*
Y02474D02*
X02565Y02404D01*
X025937Y019975D02*
X026Y020038D01*
Y02185*
X02565Y0222D02*
X026Y02185D01*
X02025Y0284D02*
X02026Y02839D01*
X01985Y0278D02*
Y0285D01*
X02025Y0289*
Y0284D02*
Y0289D01*
X02026Y0278D02*
Y02839D01*
X03105Y01007D02*
Y01157D01*
X03104Y01006D02*
X03105Y01007D01*
X02567Y01006D02*
X03104D01*
X01005Y01005D02*
X02469D01*
X03105Y01157D02*
Y03605D01*
X0247Y01006D02*
X02567D01*
X01166Y03706D02*
X03004D01*
X0305Y0366*
X03105Y03605*
X01005Y01005D02*
Y03545D01*
X01166Y03706*
G54D24*
X01375Y0158D02*
X01625D01*
G54D25*
X01484Y0258D02*
X016046D01*
X01605Y0237D02*
X01685D01*
Y0232D02*
X02D01*
X0206Y0238*
X02155*
X02215Y0244*
X0215Y0234D02*
X02215D01*
X017713Y0222D02*
X017912Y022D01*
X01685Y0222D02*
X017713D01*
X017912Y022D02*
X0201D01*
X0215Y0234*
X01685Y0227D02*
X0196D01*
X0197Y0226*
X01685Y0217D02*
X01755D01*
X018Y02125*
X02185*
X0219Y0212*
X016046Y023704D02*
X01605Y0237D01*
X016046Y023704D02*
Y0258D01*
X0162Y0212D02*
X01685D01*
X01605Y02135D02*
X0162Y0212D01*
X01605Y02135D02*
Y0229D01*
X0156Y02335D02*
X01605Y0229D01*
X0156Y02335D02*
Y0248D01*
X01425D02*
X0156D01*
X01375Y0217D02*
X014796D01*
X0241Y0172D02*
X025937D01*
X01405Y0207D02*
X014796D01*
X01375Y0204D02*
X01405Y0207D01*
X01375Y0158D02*
Y0204D01*
X01985Y01586D02*
Y01635D01*
X0189Y0173D02*
X01985Y01635D01*
X0162Y0173D02*
X0189D01*
X0157Y0178D02*
X0162Y0173D01*
X0157Y0178D02*
Y01915D01*
X01355Y0241D02*
X01425Y0248D01*
X0135Y02415D02*
X01355Y0241D01*
X0125Y02415D02*
X0135D01*
X01885Y0237D02*
X018863Y023712D01*
X01685Y0237D02*
X01885D01*
G54D26*
X02215Y0224D02*
X02315D01*
X02245Y01194D02*
X024346D01*
X025906Y0135*
X0216Y0166D02*
Y01725D01*
Y0166D02*
X02195Y01625D01*
X016322Y013578D02*
X01805D01*
X01625Y01365D02*
X016322Y013578D01*
X01625Y01365D02*
Y0158D01*
X025906Y0135D02*
Y014506D01*
X0265Y0151*
X02845*
X0289Y01465*
Y0135D02*
Y01465D01*
X01995Y01215D02*
X0214D01*
X02161Y01194*
X02245*
X01805Y01212D02*
X019166D01*
X019196Y01215*
G54D27*
X02395Y01905D02*
X025937D01*
X01935Y012304D02*
Y01344D01*
X019196Y01215D02*
X01935Y012304D01*
X01985Y01225D02*
Y01344D01*
Y01225D02*
X01995Y01215D01*
G54D28*
X03105Y01641D02*
Y03605D01*
X01005Y01005D02*
X02208D01*
X01615Y03705D02*
X02905D01*
X01005Y03545D02*
X01065Y03605D01*
X01005Y01005D02*
Y03545D01*
G54D29*
X025906Y0135D03*
X0267D03*
X0289D03*
X029694D03*
G54D30*
X01105Y03105D03*
X03005Y03005D03*
X01105Y03205D03*
Y03305D03*
Y03405D03*
Y03505D03*
Y03005D03*
Y02905D03*
Y02805D03*
Y02645D03*
Y02545D03*
Y02445D03*
Y02345D03*
Y02245D03*
Y02145D03*
Y02045D03*
Y01945D03*
X03005Y03105D03*
Y03205D03*
Y03305D03*
Y03405D03*
Y03505D03*
Y02805D03*
Y02705D03*
Y02605D03*
Y02505D03*
Y02405D03*
Y02305D03*
G54D31*
X0286Y03405D03*
X02065Y03445D03*
X02315Y0224D03*
X02215D03*
X02315Y0234D03*
X02215D03*
X02315Y0244D03*
X02215D03*
X02315Y0254D03*
X02215D03*
X02315Y0264D03*
X02215D03*
X02315Y0274D03*
X02215D03*
X02315Y0284D03*
X02215D03*
X02315Y0294D03*
X02215D03*
X02315Y0304D03*
X02215D03*
X02315Y0314D03*
G54D32*
X0286Y03505D03*
X02065Y03545D03*
X02215Y0314D03*
G54D33*
X01375Y0158D03*
G54D34*
X01975Y0247D03*
X0208Y02595D03*
X02065Y0251D03*
X0277Y0348D03*
Y0326D03*
X02595Y0259D03*
X01745Y02645D03*
X0197Y0226D03*
X0219Y0212D03*
X01475Y02735D03*
X02765Y0236D03*
X01375Y0217D03*
X0241Y0172D03*
X0191Y0198D03*
X0157Y01915D03*
X02395Y01905D03*
Y01815D03*
X02675Y0248D03*
X02025Y0289D03*
X0186Y0283D03*
X0125Y02415D03*
X02365Y033D03*
X018863Y023712D03*
M02*