%FSTAX24Y24*%
%MOIN*%
%SFA1B1*%

%IPPOS*%
%ADD34C,0.008000*%
%ADD37C,0.002000*%
%LNklogshield-1*%
%LPD*%
G54D34*
X02187Y01661D02*
Y019685D01*
X026124Y01661D02*
Y019685D01*
X02187D02*
X026124D01*
X02187Y01661D02*
X026124D01*
G54D37*
X02281Y03441D02*
Y0348D01*
Y03441D02*
X02397D01*
Y0348*
X02281D02*
X02397D01*
X034215Y025663D02*
Y02644D01*
X032658Y025663D02*
Y02644D01*
Y025663D02*
X034215D01*
X032658Y02644D02*
X034215D01*
Y027463D02*
Y02824D01*
X032658Y027463D02*
Y02824D01*
Y027463D02*
X034215D01*
X032658Y02824D02*
X034215D01*
X031015Y025663D02*
Y02644D01*
X029458Y025663D02*
Y02644D01*
Y025663D02*
X031015D01*
X029458Y02644D02*
X031015D01*
X03512Y03546D02*
Y036237D01*
X036677Y03546D02*
Y036237D01*
X03512D02*
X036677D01*
X03512Y03546D02*
X036677D01*
X0351Y03436D02*
Y035137D01*
X036657Y03436D02*
Y035137D01*
X0351D02*
X036657D01*
X0351Y03436D02*
X036657D01*
X0284Y02026D02*
X02879D01*
Y02142*
X0284D02*
X02879D01*
X0284Y02026D02*
Y02142D01*
X03555Y020163D02*
Y02094D01*
X033993Y020163D02*
Y02094D01*
Y020163D02*
X03555D01*
X033993Y02094D02*
X03555D01*
X022713Y027896D02*
X02349D01*
X022713Y029453D02*
X02349D01*
X022713Y027896D02*
Y029453D01*
X02349Y027896D02*
Y029453D01*
X03149Y017413D02*
Y01819D01*
X029933Y017413D02*
Y01819D01*
Y017413D02*
X03149D01*
X029933Y01819D02*
X03149D01*
X020013Y03182D02*
X02079D01*
X020013Y033377D02*
X02079D01*
X020013Y03182D02*
Y033377D01*
X02079Y03182D02*
Y033377D01*
X03364Y022913D02*
Y02369D01*
X032083Y022913D02*
Y02369D01*
Y022913D02*
X03364D01*
X032083Y02369D02*
X03364D01*
X024813Y030185D02*
X02559D01*
X024813Y031742D02*
X02559D01*
X024813Y030185D02*
Y031742D01*
X02559Y030185D02*
Y031742D01*
X033913Y021146D02*
X03469D01*
X033913Y022703D02*
X03469D01*
X033913Y021146D02*
Y022703D01*
X03469Y021146D02*
Y022703D01*
X023996Y02861D02*
Y029387D01*
X025553Y02861D02*
Y029387D01*
X023996D02*
X025553D01*
X023996Y02861D02*
X025553D01*
X03391Y02D02*
X034687D01*
X03391Y018443D02*
X034687D01*
Y02*
X03391Y018443D02*
Y02D01*
X0225Y028613D02*
Y02939D01*
X020943Y028613D02*
Y02939D01*
Y028613D02*
X0225D01*
X020943Y02939D02*
X0225D01*
X032985Y01741D02*
Y018187D01*
X034542Y01741D02*
Y018187D01*
X032985D02*
X034542D01*
X032985Y01741D02*
X034542D01*
X02001Y03069D02*
X020787D01*
X02001Y029133D02*
X020787D01*
Y03069*
X02001Y029133D02*
Y03069D01*
M02*