%FSTAX24Y24*%
%MOIN*%
%SFA1B1*%

%IPPOS*%
%AMD53*
4,1,8,0.019500,0.039000,-0.019500,0.039000,-0.039000,0.019500,-0.039000,-0.019500,-0.019500,-0.039000,0.019500,-0.039000,0.039000,-0.019500,0.039000,0.019500,0.019500,0.039000,0.0*
%
%AMD54*
4,1,8,-0.039000,0.019500,-0.039000,-0.019500,-0.019500,-0.039000,0.019500,-0.039000,0.039000,-0.019500,0.039000,0.019500,0.019500,0.039000,-0.019500,0.039000,-0.039000,0.019500,0.0*
%
%AMD55*
4,1,8,0.017000,0.034000,-0.017000,0.034000,-0.034000,0.017000,-0.034000,-0.017000,-0.017000,-0.034000,0.017000,-0.034000,0.034000,-0.017000,0.034000,0.017000,0.017000,0.034000,0.0*
%
%AMD57*
4,1,8,-0.037000,0.018500,-0.037000,-0.018500,-0.018500,-0.037000,0.018500,-0.037000,0.037000,-0.018500,0.037000,0.018500,0.018500,0.037000,-0.018500,0.037000,-0.037000,0.018500,0.0*
%
%ADD51C,0.158000*%
%ADD52C,0.148000*%
G04~CAMADD=53~4~0.0~0.0~780.0~780.0~0.0~195.0~0~0.0~0.0~0.0~0.0~0~0.0~0.0~0.0~0.0~0~0.0~0.0~0.0~0.0~780.0~780.0*
%ADD53D53*%
G04~CAMADD=54~4~0.0~0.0~780.0~780.0~0.0~195.0~0~0.0~0.0~0.0~0.0~0~0.0~0.0~0.0~0.0~0~0.0~0.0~0.0~90.0~780.0~780.0*
%ADD54D54*%
G04~CAMADD=55~4~0.0~0.0~680.0~680.0~0.0~170.0~0~0.0~0.0~0.0~0.0~0~0.0~0.0~0.0~0.0~0~0.0~0.0~0.0~0.0~680.0~680.0*
%ADD55D55*%
%ADD56C,0.064000*%
G04~CAMADD=57~4~0.0~0.0~740.0~740.0~0.0~185.0~0~0.0~0.0~0.0~0.0~0~0.0~0.0~0.0~0.0~0~0.0~0.0~0.0~90.0~740.0~740.0*
%ADD57D57*%
%ADD58C,0.058000*%
%LNklogshield-1*%
%LPD*%
G54D51*
X0377Y0171D03*
X0357Y0376D03*
X0187Y0176D03*
G54D52*
X0247Y0376D03*
G54D53*
X03Y02755D03*
Y02855D03*
Y02955D03*
Y03055D03*
Y03155D03*
Y03255D03*
Y03355D03*
Y03455D03*
X0315Y02755D03*
Y02855D03*
Y02955D03*
Y03055D03*
Y03155D03*
Y03255D03*
Y03355D03*
Y03455D03*
G54D54*
X0296Y0133D03*
X0286D03*
X0276D03*
X0266D03*
X0256D03*
X0246D03*
X0236D03*
X0226D03*
X0296Y0145D03*
X0286D03*
X0276D03*
X0266D03*
X0256D03*
X0246D03*
X0236D03*
X0226D03*
G54D55*
X0252Y02105D03*
Y02205D03*
Y02305D03*
Y02405D03*
Y02505D03*
Y02605D03*
X02295Y02105D03*
Y02205D03*
Y02305D03*
Y02405D03*
Y02505D03*
Y02605D03*
G54D56*
X028744Y03675D03*
X02795D03*
X032944D03*
X03215D03*
G54D57*
X0187Y019D03*
Y02D03*
X0377Y0246D03*
Y0256D03*
Y0266D03*
Y0276D03*
Y0286D03*
Y0296D03*
Y0366D03*
Y0356D03*
Y0346D03*
Y0336D03*
Y0326D03*
X0187Y021D03*
Y022D03*
Y023D03*
Y024D03*
Y025D03*
Y026D03*
Y027D03*
Y028D03*
Y0296D03*
Y0306D03*
Y0316D03*
Y0366D03*
Y0356D03*
Y0346D03*
Y0336D03*
X0377Y0316D03*
X0187Y0326D03*
G54D58*
X03195Y01545D03*
X0273D03*
X0321Y0252D03*
X0348Y0269D03*
X0269Y0125D03*
X02385D03*
X0341Y03015D03*
X03335Y0311D03*
X0287Y0288D03*
X02675Y028D03*
X02805Y0284D03*
X0361Y0293D03*
Y0319D03*
X02655Y0202D03*
X02625Y0164D03*
X0288Y02685D03*
X0272Y02575D03*
X02715Y0231D03*
X0213Y03225D03*
Y0302D03*
X03493Y03533D03*
X0355Y03155D03*
X03465Y0342D03*
X03615Y0332D03*
X0337Y0343D03*
X02515Y0298D03*
X0271Y0192D03*
X0325Y0243D03*
X03655Y02135D03*
X0322Y0185D03*
X02165Y02195D03*
X0343Y0292D03*
M02*