%FSLAX24Y24*%
%MOIN*%
G70*
G01*
G75*
G04 Layer_Physical_Order=1*
G04 Layer_Color=255*
%ADD10R,0.0120X0.0570*%
%ADD11R,0.0280X0.0360*%
%ADD12R,0.0520X0.0600*%
%ADD13R,0.0100X0.0400*%
%ADD14R,0.0240X0.0870*%
%ADD15R,0.0520X0.0630*%
%ADD16R,0.0360X0.0280*%
%ADD17R,0.0480X0.0280*%
%ADD18R,0.0280X0.0480*%
%ADD19R,0.0800X0.0260*%
%ADD20R,0.0260X0.0800*%
%ADD21R,0.0630X0.0520*%
%ADD22R,0.0600X0.0520*%
%ADD23C,0.0120*%
%ADD24C,0.0150*%
%ADD25C,0.1500*%
%ADD26C,0.1400*%
G04:AMPARAMS|DCode=27|XSize=70mil|YSize=70mil|CornerRadius=0mil|HoleSize=0mil|Usage=FLASHONLY|Rotation=0.000|XOffset=0mil|YOffset=0mil|HoleType=Round|Shape=Octagon|*
%AMOCTAGOND27*
4,1,8,0.0350,-0.0175,0.0350,0.0175,0.0175,0.0350,-0.0175,0.0350,-0.0350,0.0175,-0.0350,-0.0175,-0.0175,-0.0350,0.0175,-0.0350,0.0350,-0.0175,0.0*
%
%ADD27OCTAGOND27*%

G04:AMPARAMS|DCode=28|XSize=70mil|YSize=70mil|CornerRadius=0mil|HoleSize=0mil|Usage=FLASHONLY|Rotation=90.000|XOffset=0mil|YOffset=0mil|HoleType=Round|Shape=Octagon|*
%AMOCTAGOND28*
4,1,8,0.0175,0.0350,-0.0175,0.0350,-0.0350,0.0175,-0.0350,-0.0175,-0.0175,-0.0350,0.0175,-0.0350,0.0350,-0.0175,0.0350,0.0175,0.0175,0.0350,0.0*
%
%ADD28OCTAGOND28*%

G04:AMPARAMS|DCode=29|XSize=60mil|YSize=60mil|CornerRadius=0mil|HoleSize=0mil|Usage=FLASHONLY|Rotation=0.000|XOffset=0mil|YOffset=0mil|HoleType=Round|Shape=Octagon|*
%AMOCTAGOND29*
4,1,8,0.0300,-0.0150,0.0300,0.0150,0.0150,0.0300,-0.0150,0.0300,-0.0300,0.0150,-0.0300,-0.0150,-0.0150,-0.0300,0.0150,-0.0300,0.0300,-0.0150,0.0*
%
%ADD29OCTAGOND29*%

%ADD30C,0.0560*%
G04:AMPARAMS|DCode=31|XSize=66mil|YSize=66mil|CornerRadius=0mil|HoleSize=0mil|Usage=FLASHONLY|Rotation=90.000|XOffset=0mil|YOffset=0mil|HoleType=Round|Shape=Octagon|*
%AMOCTAGOND31*
4,1,8,0.0165,0.0330,-0.0165,0.0330,-0.0330,0.0165,-0.0330,-0.0165,-0.0165,-0.0330,0.0165,-0.0330,0.0330,-0.0165,0.0330,0.0165,0.0165,0.0330,0.0*
%
%ADD31OCTAGOND31*%

%ADD32C,0.0500*%
G36*
X36700Y38600D02*
X37700Y37600D01*
X38594D01*
X38700Y37494D01*
X38700Y15756D01*
X38594Y15650D01*
X32950Y15650D01*
X32950Y11706D01*
X32844Y11600D01*
X17700D01*
Y37000D01*
X17817Y37129D01*
X18300Y37600D01*
X22775Y37600D01*
X23636Y38421D01*
X23800Y38600D01*
X24050D01*
X36700Y38600D01*
D02*
G37*
%LPC*%
G36*
X23125Y23400D02*
X22775D01*
X22600Y23225D01*
Y22875D01*
X22775Y22700D01*
X23125D01*
X23300Y22875D01*
Y23225D01*
X23125Y23400D01*
D02*
G37*
G36*
X33560Y23250D02*
X33250D01*
Y22900D01*
X33560D01*
Y23250D01*
D02*
G37*
G36*
X34715Y22660D02*
X34350D01*
Y22350D01*
X34715D01*
Y22660D01*
D02*
G37*
G36*
X18890Y23380D02*
X18510D01*
X18320Y23190D01*
Y22810D01*
X18510Y22620D01*
X18890D01*
X19080Y22810D01*
Y23190D01*
X18890Y23380D01*
D02*
G37*
G36*
Y24380D02*
X18510D01*
X18320Y24190D01*
Y23810D01*
X18510Y23620D01*
X18890D01*
X19080Y23810D01*
Y24190D01*
X18890Y24380D01*
D02*
G37*
G36*
X22900Y24000D02*
X22550D01*
Y23850D01*
X22750Y23650D01*
X22900D01*
Y24000D01*
D02*
G37*
G36*
X25375Y26400D02*
X25025D01*
X24850Y26225D01*
Y25875D01*
X25025Y25700D01*
X25375D01*
X25550Y25875D01*
Y25931D01*
X25881D01*
Y23169D01*
X25550D01*
Y23225D01*
X25375Y23400D01*
X25025D01*
X24850Y23225D01*
Y22875D01*
X25025Y22700D01*
X25375D01*
X25550Y22875D01*
Y22931D01*
X26000D01*
X26084Y22966D01*
X26292Y23174D01*
X26431Y23117D01*
Y20475D01*
X26320Y20430D01*
X26225Y20200D01*
X26320Y19970D01*
X26550Y19875D01*
X26780Y19970D01*
X26875Y20200D01*
X26780Y20430D01*
X26669Y20475D01*
Y20750D01*
X26819Y20813D01*
X27132Y20500D01*
X27216Y20465D01*
X27996D01*
X27996Y17356D01*
X28012Y17318D01*
X28012Y17318D01*
X28118Y17212D01*
X28156Y17196D01*
X28156Y17196D01*
X30500Y17196D01*
X30538Y17212D01*
X30554Y17250D01*
Y17366D01*
X30690Y17400D01*
X30690D01*
X30754D01*
X30815Y17400D01*
X31000D01*
Y17800D01*
Y18200D01*
X30900D01*
D01*
X30815D01*
X30754Y18200D01*
X30690D01*
X30690D01*
X30554Y18234D01*
Y19000D01*
X30538Y19038D01*
X30500Y19054D01*
X29804D01*
Y19386D01*
X29940Y19420D01*
X29954Y19420D01*
X30840D01*
Y19770D01*
X30840Y19780D01*
Y19850D01*
Y19920D01*
X30840Y19930D01*
Y20270D01*
X30840Y20280D01*
Y20350D01*
Y20420D01*
X30840Y20430D01*
Y20770D01*
X30840Y20780D01*
Y20850D01*
Y20920D01*
X30840Y20930D01*
Y21280D01*
X30643D01*
X30504Y21330D01*
Y22500D01*
X30488Y22538D01*
X30450Y22554D01*
X30470Y22696D01*
X32750D01*
X32788Y22712D01*
X32804Y22750D01*
Y22765D01*
X32840Y22900D01*
X32901D01*
X32965Y22900D01*
X33150D01*
Y23300D01*
Y23700D01*
X33000D01*
D01*
X32965D01*
X32901Y23700D01*
X32840D01*
X32804Y23835D01*
Y23850D01*
X32788Y23888D01*
X32750Y23904D01*
X32720D01*
X32690Y24054D01*
X32730Y24070D01*
X32825Y24300D01*
X32730Y24530D01*
X32500Y24625D01*
X32270Y24530D01*
X32175Y24300D01*
X32270Y24070D01*
X32310Y24054D01*
X32280Y23904D01*
X30797D01*
Y24322D01*
X30763Y24406D01*
X30584Y24584D01*
X30500Y24619D01*
X27450D01*
X27366Y24584D01*
X26466Y23684D01*
X26466Y23684D01*
X26258Y23476D01*
X26119Y23533D01*
Y26050D01*
X26084Y26134D01*
X26000Y26169D01*
X25550D01*
Y26225D01*
X25375Y26400D01*
D02*
G37*
G36*
X33560Y23700D02*
X33250D01*
Y23350D01*
X33560D01*
Y23700D01*
D02*
G37*
G36*
X34250Y22660D02*
X33885D01*
Y22350D01*
X34250D01*
Y22660D01*
D02*
G37*
G36*
X22900Y21450D02*
X22750D01*
X22550Y21250D01*
Y21100D01*
X22900D01*
Y21450D01*
D02*
G37*
G36*
X23150D02*
X23000D01*
Y21100D01*
X23350D01*
Y21250D01*
X23150Y21450D01*
D02*
G37*
G36*
X25150Y21000D02*
X24800D01*
Y20850D01*
X25000Y20650D01*
X25150D01*
Y21000D01*
D02*
G37*
G36*
X25600D02*
X25250D01*
Y20650D01*
X25400D01*
X25600Y20850D01*
Y21000D01*
D02*
G37*
G36*
X25150Y21450D02*
X25000D01*
X24800Y21250D01*
Y21100D01*
X25150D01*
Y21450D01*
D02*
G37*
G36*
X33310Y21330D02*
X32860D01*
Y21150D01*
X33310D01*
Y21330D01*
D02*
G37*
G36*
X18890Y22380D02*
X18510D01*
X18320Y22190D01*
Y21810D01*
X18510Y21620D01*
X18890D01*
X19080Y21810D01*
Y22190D01*
X18890Y22380D01*
D02*
G37*
G36*
X25400Y21450D02*
X25250D01*
Y21100D01*
X25600D01*
Y21250D01*
X25400Y21450D01*
D02*
G37*
G36*
X32760Y21330D02*
X32310D01*
Y21150D01*
X32760D01*
Y21330D01*
D02*
G37*
G36*
X23350Y24000D02*
X23000D01*
Y23650D01*
X23150D01*
X23350Y23850D01*
Y24000D01*
D02*
G37*
G36*
X32458Y25150D02*
X32150D01*
Y24842D01*
X32368Y24932D01*
X32458Y25150D01*
D02*
G37*
G36*
X37890Y25980D02*
X37510D01*
X37320Y25790D01*
Y25719D01*
X37300D01*
X37216Y25684D01*
X36916Y25384D01*
X36881Y25300D01*
Y23950D01*
X36916Y23866D01*
X37781Y23001D01*
Y19149D01*
X36251Y17619D01*
X36200D01*
X36116Y17584D01*
X34951Y16419D01*
X32800D01*
X32716Y16384D01*
X32061Y15729D01*
X31950Y15775D01*
X31720Y15680D01*
X31625Y15450D01*
X31720Y15220D01*
X31950Y15125D01*
X32180Y15220D01*
X32275Y15450D01*
X32229Y15561D01*
X32849Y16181D01*
X35000D01*
X35084Y16216D01*
X36249Y17381D01*
X36300D01*
X36384Y17416D01*
X37984Y19016D01*
X38019Y19100D01*
Y23050D01*
X37984Y23134D01*
X37119Y23999D01*
Y25251D01*
X37291Y25422D01*
X37320Y25410D01*
X37510Y25220D01*
X37890D01*
X38080Y25410D01*
Y25790D01*
X37890Y25980D01*
D02*
G37*
G36*
X25375Y25400D02*
X25025D01*
X24850Y25225D01*
Y25169D01*
X24400D01*
X24316Y25134D01*
X24016Y24834D01*
X23981Y24750D01*
Y21872D01*
X23849Y21838D01*
X23831Y21837D01*
X23534Y22134D01*
X23450Y22169D01*
X23300D01*
Y22225D01*
X23125Y22400D01*
X22775D01*
X22600Y22225D01*
Y21875D01*
X22775Y21700D01*
X23125D01*
X23300Y21875D01*
X23450Y21882D01*
X23631Y21701D01*
Y19659D01*
X23580D01*
Y18689D01*
X23920D01*
Y19659D01*
X23869D01*
Y20228D01*
X24001Y20262D01*
X24019Y20263D01*
X24131Y20151D01*
Y19659D01*
X24080D01*
Y18689D01*
X24420D01*
Y19659D01*
X24369D01*
Y20200D01*
X24334Y20284D01*
X24232Y20386D01*
X24246Y20498D01*
X24394Y20538D01*
X24631Y20301D01*
Y19659D01*
X24580D01*
Y18689D01*
X24920D01*
Y19659D01*
X24869D01*
Y20350D01*
X24834Y20434D01*
X24569Y20699D01*
Y21881D01*
X24850D01*
Y21875D01*
X25025Y21700D01*
X25375D01*
X25550Y21875D01*
Y22225D01*
X25375Y22400D01*
X25025D01*
X24850Y22225D01*
Y22119D01*
X24450D01*
X24366Y22084D01*
X24219Y22122D01*
Y24701D01*
X24449Y24931D01*
X24850D01*
Y24875D01*
X25025Y24700D01*
X25375D01*
X25550Y24875D01*
Y25225D01*
X25375Y25400D01*
D02*
G37*
G36*
X32050Y25150D02*
X31742D01*
X31832Y24932D01*
X32050Y24842D01*
Y25150D01*
D02*
G37*
G36*
Y25558D02*
X31832Y25468D01*
X31742Y25250D01*
X32050D01*
Y25558D01*
D02*
G37*
G36*
X29850Y26000D02*
X29540D01*
Y25650D01*
X29850D01*
Y26000D01*
D02*
G37*
G36*
X34135D02*
X33825D01*
Y25650D01*
X34135D01*
Y26000D01*
D02*
G37*
G36*
X32150Y25558D02*
Y25250D01*
X32458D01*
X32368Y25468D01*
X32150Y25558D01*
D02*
G37*
G36*
X18890Y26380D02*
X18510D01*
X18320Y26190D01*
Y25810D01*
X18510Y25620D01*
X18890D01*
X19080Y25810D01*
Y26190D01*
X18890Y26380D01*
D02*
G37*
G36*
X22900Y24450D02*
X22750D01*
X22550Y24250D01*
Y24100D01*
X22900D01*
Y24450D01*
D02*
G37*
G36*
X23150D02*
X23000D01*
Y24100D01*
X23350D01*
Y24250D01*
X23150Y24450D01*
D02*
G37*
G36*
X25150Y24000D02*
X24800D01*
Y23850D01*
X25000Y23650D01*
X25150D01*
Y24000D01*
D02*
G37*
G36*
X25600D02*
X25250D01*
Y23650D01*
X25400D01*
X25600Y23850D01*
Y24000D01*
D02*
G37*
G36*
X25150Y24450D02*
X25000D01*
X24800Y24250D01*
Y24100D01*
X25150D01*
Y24450D01*
D02*
G37*
G36*
X18890Y25380D02*
X18510D01*
X18320Y25190D01*
Y24810D01*
X18510Y24620D01*
X18890D01*
X19080Y24810D01*
Y25190D01*
X18890Y25380D01*
D02*
G37*
G36*
X23125Y25400D02*
X22775D01*
X22600Y25225D01*
Y25169D01*
X22250D01*
X22166Y25134D01*
X21016Y23984D01*
X20981Y23900D01*
Y18700D01*
X21016Y18616D01*
X21766Y17866D01*
X21850Y17831D01*
X22700D01*
X22784Y17866D01*
X23334Y18416D01*
X23344Y18440D01*
X23369Y18500D01*
Y18689D01*
X23420D01*
Y19659D01*
X23080D01*
Y18689D01*
X23105D01*
X23120Y18539D01*
X22996Y18414D01*
X22869Y18499D01*
X22869Y18500D01*
Y18689D01*
X22920D01*
Y19659D01*
X22620D01*
X22599Y19659D01*
X22470Y19709D01*
X22469D01*
X22451Y19709D01*
X22300D01*
Y19174D01*
Y18639D01*
X22451D01*
X22469Y18639D01*
X22470D01*
X22522Y18604D01*
X22537Y18455D01*
X22501Y18419D01*
X22156D01*
X22103Y18489D01*
X22153Y18612D01*
X22177Y18639D01*
X22200D01*
Y19124D01*
X22030D01*
Y18773D01*
Y18773D01*
X22030Y18763D01*
X22030Y18719D01*
Y18713D01*
Y18701D01*
X22024Y18698D01*
X22013Y18694D01*
X21999Y18688D01*
X21940Y18663D01*
X21940Y18663D01*
X21880Y18638D01*
X21769Y18749D01*
Y21675D01*
X21880Y21720D01*
X21975Y21950D01*
X21880Y22180D01*
X21650Y22275D01*
X21420Y22180D01*
X21369Y22056D01*
X21219Y22086D01*
Y23851D01*
X22299Y24931D01*
X22600D01*
Y24875D01*
X22775Y24700D01*
X23125D01*
X23300Y24875D01*
Y25225D01*
X23125Y25400D01*
D02*
G37*
G36*
X25400Y24450D02*
X25250D01*
Y24100D01*
X25600D01*
Y24250D01*
X25400Y24450D01*
D02*
G37*
G36*
X37890Y24980D02*
X37510D01*
X37320Y24790D01*
Y24410D01*
X37510Y24220D01*
X37890D01*
X38080Y24410D01*
Y24790D01*
X37890Y24980D01*
D02*
G37*
G36*
X24800Y14900D02*
X24400D01*
X24200Y14700D01*
Y14300D01*
X24400Y14100D01*
X24800D01*
X25000Y14300D01*
Y14700D01*
X24800Y14900D01*
D02*
G37*
G36*
X23550Y14950D02*
X23375D01*
X23150Y14725D01*
Y14550D01*
X23550D01*
Y14950D01*
D02*
G37*
G36*
X24050Y14450D02*
X23650D01*
Y14050D01*
X23825D01*
X24050Y14275D01*
Y14450D01*
D02*
G37*
G36*
X22800Y14900D02*
X22400D01*
X22200Y14700D01*
Y14300D01*
X22400Y14100D01*
X22800D01*
X23000Y14300D01*
Y14700D01*
X22800Y14900D01*
D02*
G37*
G36*
X23825Y14950D02*
X23650D01*
Y14550D01*
X24050D01*
Y14725D01*
X23825Y14950D01*
D02*
G37*
G36*
X18890Y28380D02*
X18510D01*
X18320Y28190D01*
Y27810D01*
X18510Y27620D01*
X18890D01*
X19080Y27810D01*
Y27810D01*
X19230Y27852D01*
X19881Y27201D01*
Y16050D01*
X19916Y15966D01*
X20316Y15566D01*
X20340Y15556D01*
X20400Y15531D01*
X26400D01*
X26484Y15566D01*
X27134Y16216D01*
X27169Y16300D01*
Y17450D01*
X27134Y17534D01*
X26284Y18384D01*
X26200Y18419D01*
X25369D01*
Y18689D01*
X25420D01*
Y19659D01*
X25080D01*
Y18689D01*
X25131D01*
Y18300D01*
X25166Y18216D01*
X25250Y18181D01*
X26151D01*
X26931Y17401D01*
Y16349D01*
X26351Y15769D01*
X20449D01*
X20119Y16099D01*
Y27250D01*
X20084Y27334D01*
X19334Y28084D01*
X19250Y28119D01*
X19080D01*
Y28190D01*
X18890Y28380D01*
D02*
G37*
G36*
Y29980D02*
X18510D01*
X18320Y29790D01*
Y29410D01*
X18510Y29220D01*
X18890D01*
X18901Y29231D01*
X20331Y27801D01*
Y16300D01*
X20366Y16216D01*
X20616Y15966D01*
X20640Y15956D01*
X20700Y15931D01*
X24500D01*
X24584Y15966D01*
X24834Y16216D01*
X24844Y16240D01*
X24869Y16300D01*
Y16635D01*
X24920D01*
Y17605D01*
X24580D01*
Y16635D01*
X24631D01*
Y16349D01*
X24451Y16169D01*
X20749D01*
X20569Y16349D01*
Y27850D01*
X20534Y27934D01*
X19069Y29399D01*
X19080Y29410D01*
Y29790D01*
X18890Y29980D01*
D02*
G37*
G36*
X27550Y14950D02*
X27375D01*
X27150Y14725D01*
Y14550D01*
X27550D01*
Y14950D01*
D02*
G37*
G36*
X27825D02*
X27650D01*
Y14550D01*
X28050D01*
Y14725D01*
X27825Y14950D01*
D02*
G37*
G36*
X24050Y13250D02*
X23150D01*
Y13075D01*
X23375Y12850D01*
X23468D01*
X23554Y12700D01*
X23492Y12550D01*
X24208D01*
X24118Y12768D01*
X23977Y12826D01*
X23948Y12973D01*
X24050Y13075D01*
Y13250D01*
D02*
G37*
G36*
X27550D02*
X27150D01*
Y13075D01*
X27375Y12850D01*
X27550D01*
Y13250D01*
D02*
G37*
G36*
X23800Y12450D02*
X23492D01*
X23582Y12232D01*
X23800Y12142D01*
Y12450D01*
D02*
G37*
G36*
X24208D02*
X23900D01*
Y12142D01*
X24118Y12232D01*
X24208Y12450D01*
D02*
G37*
G36*
X28050Y13250D02*
X27650D01*
Y12850D01*
X27825D01*
X28050Y13075D01*
Y13250D01*
D02*
G37*
G36*
X23825Y13750D02*
X23650D01*
Y13350D01*
X24050D01*
Y13525D01*
X23825Y13750D01*
D02*
G37*
G36*
X23550Y14450D02*
X23150D01*
Y14275D01*
X23375Y14050D01*
X23550D01*
Y14450D01*
D02*
G37*
G36*
X22800Y13700D02*
X22400D01*
X22200Y13500D01*
Y13100D01*
X22400Y12900D01*
X22800D01*
X23000Y13100D01*
Y13500D01*
X22800Y13700D01*
D02*
G37*
G36*
X23550Y13750D02*
X23375D01*
X23150Y13525D01*
Y13350D01*
X23550D01*
Y13750D01*
D02*
G37*
G36*
X25920Y17605D02*
X25580D01*
Y16635D01*
X25847D01*
X25971Y16511D01*
X25925Y16400D01*
X26020Y16170D01*
X26250Y16075D01*
X26480Y16170D01*
X26575Y16400D01*
X26480Y16630D01*
X26250Y16725D01*
X26139Y16679D01*
X25920Y16898D01*
Y17605D01*
D02*
G37*
G36*
X18890Y19380D02*
X18510D01*
X18320Y19190D01*
Y18810D01*
X18510Y18620D01*
X18890D01*
X19080Y18810D01*
Y19190D01*
X18890Y19380D01*
D02*
G37*
G36*
X25920Y19659D02*
X25580D01*
Y18689D01*
X25920D01*
Y19081D01*
X26825D01*
X26870Y18970D01*
X27100Y18875D01*
X27330Y18970D01*
X27425Y19200D01*
X27330Y19430D01*
X27100Y19525D01*
X26870Y19430D01*
X26825Y19319D01*
X25920D01*
Y19659D01*
D02*
G37*
G36*
X31410Y18200D02*
X31100D01*
Y17850D01*
X31410D01*
Y18200D01*
D02*
G37*
G36*
X33375D02*
X33065D01*
Y17850D01*
X33375D01*
Y18200D01*
D02*
G37*
G36*
X22200Y19709D02*
X22030D01*
Y19224D01*
X22200D01*
Y19709D01*
D02*
G37*
G36*
X22900Y21000D02*
X22550D01*
Y20850D01*
X22750Y20650D01*
X22900D01*
Y21000D01*
D02*
G37*
G36*
X23350D02*
X23000D01*
Y20650D01*
X23150D01*
X23350Y20850D01*
Y21000D01*
D02*
G37*
G36*
X18890Y20380D02*
X18510D01*
X18320Y20190D01*
Y19810D01*
X18510Y19620D01*
X18890D01*
X19080Y19810D01*
Y20190D01*
X18890Y20380D01*
D02*
G37*
G36*
Y21380D02*
X18510D01*
X18320Y21190D01*
Y20810D01*
X18510Y20620D01*
X18890D01*
X19080Y20810D01*
Y21190D01*
X18890Y21380D01*
D02*
G37*
G36*
X22920Y17605D02*
X22580D01*
Y16635D01*
X22920D01*
Y17605D01*
D02*
G37*
G36*
X23420D02*
X23080D01*
Y16635D01*
X23420D01*
Y17605D01*
D02*
G37*
G36*
X37700Y17916D02*
X37388Y17854D01*
X37123Y17677D01*
X36946Y17412D01*
X36884Y17100D01*
X36946Y16788D01*
X37123Y16523D01*
X37388Y16346D01*
X37700Y16284D01*
X38012Y16346D01*
X38277Y16523D01*
X38454Y16788D01*
X38516Y17100D01*
X38454Y17412D01*
X38277Y17677D01*
X38012Y17854D01*
X37700Y17916D01*
D02*
G37*
G36*
X22420Y17605D02*
X22080D01*
Y16635D01*
X22420D01*
Y17605D01*
D02*
G37*
G36*
X23920D02*
X23580D01*
Y16635D01*
X23920D01*
Y17605D01*
D02*
G37*
G36*
X18700Y18416D02*
X18388Y18354D01*
X18123Y18177D01*
X17946Y17912D01*
X17884Y17600D01*
X17946Y17288D01*
X18123Y17023D01*
X18388Y16846D01*
X18700Y16784D01*
X19012Y16846D01*
X19277Y17023D01*
X19454Y17288D01*
X19516Y17600D01*
X19454Y17912D01*
X19277Y18177D01*
X19012Y18354D01*
X18700Y18416D01*
D02*
G37*
G36*
X31410Y17750D02*
X31100D01*
Y17400D01*
X31410D01*
Y17750D01*
D02*
G37*
G36*
X24420Y17605D02*
X24080D01*
Y16635D01*
X24420D01*
Y17605D01*
D02*
G37*
G36*
X25420D02*
X25080D01*
Y16635D01*
X25420D01*
Y17605D01*
D02*
G37*
G36*
X33560Y32335D02*
X33450D01*
Y32000D01*
X33560D01*
Y32335D01*
D02*
G37*
G36*
X30200Y32950D02*
X29800D01*
X29600Y32750D01*
Y32350D01*
X29800Y32150D01*
X30200D01*
X30400Y32350D01*
Y32750D01*
X30200Y32950D01*
D02*
G37*
G36*
X21658Y32200D02*
X21350D01*
Y31892D01*
X21568Y31982D01*
X21629Y32130D01*
X21658Y32200D01*
D02*
G37*
G36*
X20350Y32210D02*
X20000D01*
Y31900D01*
X20350D01*
Y32210D01*
D02*
G37*
G36*
X21350Y32608D02*
Y32300D01*
X21658D01*
X21568Y32518D01*
X21350Y32608D01*
D02*
G37*
G36*
X30450Y33500D02*
X30050D01*
Y33100D01*
X30225D01*
X30450Y33325D01*
Y33500D01*
D02*
G37*
G36*
X18890Y32980D02*
X18510D01*
X18320Y32790D01*
Y32410D01*
X18510Y32220D01*
X18890D01*
X19080Y32410D01*
Y32790D01*
X18890Y32980D01*
D02*
G37*
G36*
X37890D02*
X37510D01*
X37320Y32790D01*
Y32410D01*
X37510Y32220D01*
X37890D01*
X38080Y32410D01*
Y32790D01*
X37890Y32980D01*
D02*
G37*
G36*
X31700Y32950D02*
X31300D01*
X31100Y32750D01*
Y32350D01*
X31300Y32150D01*
X31700D01*
X31900Y32350D01*
Y32431D01*
X32480D01*
X32490Y32285D01*
X32490Y32285D01*
X32490Y32285D01*
Y32008D01*
X32151Y31669D01*
X31900D01*
Y31750D01*
X31700Y31950D01*
X31300D01*
X31100Y31750D01*
Y31350D01*
X31300Y31150D01*
X31700D01*
X31900Y31350D01*
Y31431D01*
X32200D01*
X32284Y31466D01*
X32367Y31549D01*
X32490Y31615D01*
Y31615D01*
X32490Y31615D01*
X32840D01*
Y31565D01*
X32950D01*
Y31950D01*
Y32335D01*
X32919D01*
Y32550D01*
X32884Y32634D01*
X32800Y32669D01*
X31900D01*
Y32750D01*
X31700Y32950D01*
D02*
G37*
G36*
X20350Y30610D02*
X20000D01*
Y30300D01*
X20350D01*
Y30610D01*
D02*
G37*
G36*
X35890Y30742D02*
X35790D01*
Y30492D01*
X35890D01*
Y30742D01*
D02*
G37*
G36*
X18890Y30980D02*
X18510D01*
X18320Y30790D01*
Y30410D01*
X18510Y30220D01*
X18890D01*
X19080Y30410D01*
Y30790D01*
X18890Y30980D01*
D02*
G37*
G36*
X21350Y30558D02*
Y30250D01*
X21658D01*
X21568Y30468D01*
X21350Y30558D01*
D02*
G37*
G36*
X33160Y32335D02*
Y32335D01*
X33050D01*
Y31950D01*
Y31565D01*
X33160D01*
Y31565D01*
X33240D01*
Y31565D01*
X33350D01*
Y31950D01*
Y32335D01*
X33240D01*
Y32335D01*
X33160D01*
D02*
G37*
G36*
X33560Y31900D02*
X33450D01*
Y31565D01*
X33560D01*
Y31900D01*
D02*
G37*
G36*
X23650Y30990D02*
Y30540D01*
X23830D01*
Y30990D01*
X23650D01*
D02*
G37*
G36*
X37890Y31980D02*
X37510D01*
X37320Y31790D01*
Y31410D01*
X37510Y31220D01*
X37890D01*
X38080Y31410D01*
Y31790D01*
X37890Y31980D01*
D02*
G37*
G36*
X31450Y33500D02*
X31050D01*
Y33325D01*
X31275Y33100D01*
X31450D01*
Y33500D01*
D02*
G37*
G36*
X32100Y36700D02*
X31759D01*
X31859Y36459D01*
X32100Y36359D01*
Y36700D01*
D02*
G37*
G36*
X35700Y38416D02*
X35388Y38354D01*
X35123Y38177D01*
X34946Y37912D01*
X34884Y37600D01*
X34946Y37288D01*
X35123Y37023D01*
X35388Y36846D01*
X35700Y36784D01*
X36012Y36846D01*
X36277Y37023D01*
X36454Y37288D01*
X36516Y37600D01*
X36454Y37912D01*
X36277Y38177D01*
X36012Y38354D01*
X35700Y38416D01*
D02*
G37*
G36*
X18890Y36980D02*
X18510D01*
X18320Y36790D01*
Y36410D01*
X18510Y36220D01*
X18890D01*
X19080Y36410D01*
Y36790D01*
X18890Y36980D01*
D02*
G37*
G36*
X27900Y36700D02*
X27559D01*
X27659Y36459D01*
X27900Y36359D01*
Y36700D01*
D02*
G37*
G36*
X24700Y38365D02*
X24407Y38306D01*
X24159Y38141D01*
X23994Y37893D01*
X23935Y37600D01*
X23994Y37307D01*
X24159Y37059D01*
X24407Y36894D01*
X24700Y36835D01*
X24993Y36894D01*
X25241Y37059D01*
X25406Y37307D01*
X25465Y37600D01*
X25406Y37893D01*
X25241Y38141D01*
X24993Y38306D01*
X24700Y38365D01*
D02*
G37*
G36*
X32600Y37719D02*
X29300D01*
X29216Y37684D01*
X28660Y37128D01*
X28632Y37061D01*
X28491Y37003D01*
X28455Y36916D01*
X28293D01*
X28241Y37041D01*
X28000Y37141D01*
Y36750D01*
Y36359D01*
X28241Y36459D01*
X28293Y36584D01*
X28455D01*
X28491Y36497D01*
X28625Y36442D01*
Y36293D01*
X28451Y36119D01*
X23450D01*
X23366Y36084D01*
X23050Y35768D01*
X23015Y35684D01*
Y35075D01*
X22884Y35033D01*
X22865Y35030D01*
X22863Y35032D01*
X22860Y35038D01*
X22846Y35044D01*
X22835Y35053D01*
X22828Y35052D01*
X22822Y35054D01*
X19750D01*
X19712Y35038D01*
X19696Y35000D01*
Y32750D01*
X19712Y32712D01*
X19750Y32696D01*
X19881D01*
X20000Y32620D01*
Y32556D01*
X20000Y32500D01*
D01*
Y32495D01*
D01*
Y32310D01*
X20400D01*
Y32260D01*
X20450D01*
Y31900D01*
X20800D01*
Y32090D01*
Y32151D01*
X20950Y32180D01*
X20950Y32180D01*
D01*
X21032Y31982D01*
X21250Y31892D01*
Y32250D01*
Y32608D01*
X21032Y32518D01*
X20950Y32320D01*
X20916Y32326D01*
Y32326D01*
X20916Y32326D01*
Y32326D01*
X20916D01*
X20800Y32410D01*
Y32495D01*
X20800Y32556D01*
Y32620D01*
X20750Y32749D01*
Y32770D01*
Y33241D01*
X20788Y33256D01*
X20804Y33295D01*
Y33446D01*
X21806D01*
X21920Y33360D01*
X21920Y33296D01*
Y32460D01*
X22270D01*
X22280Y32460D01*
X22350D01*
X22420D01*
X22430Y32460D01*
X22770D01*
X22780Y32460D01*
X22850D01*
X22920D01*
X22930Y32460D01*
X23270D01*
X23280Y32460D01*
X23280Y32460D01*
X23420D01*
Y32460D01*
X23420Y32460D01*
X23780D01*
Y32707D01*
X23830Y32846D01*
X24496D01*
X24501Y32846D01*
X24646Y32773D01*
Y31769D01*
X24648Y31764D01*
X24647Y31760D01*
X24655Y31746D01*
X24662Y31730D01*
X24666Y31729D01*
X24668Y31725D01*
X24818Y31616D01*
X24835Y31612D01*
X24850Y31606D01*
Y31135D01*
Y31115D01*
X24800Y30985D01*
Y30921D01*
X24800Y30861D01*
Y30675D01*
X25600D01*
Y30844D01*
X25604Y30850D01*
X25627Y30879D01*
X25695Y30939D01*
X25712Y30953D01*
X25715Y30953D01*
X25750Y30955D01*
X25853Y30961D01*
X25870Y30969D01*
X25888Y30976D01*
X25910Y30985D01*
X25982Y31008D01*
X25992Y31009D01*
X26115Y30898D01*
Y28306D01*
X25794Y27985D01*
X24056D01*
X23650Y28392D01*
X23554Y28431D01*
X23465Y28520D01*
Y28590D01*
X23465Y28606D01*
Y28673D01*
Y28740D01*
X23465Y28756D01*
Y28915D01*
X24086D01*
Y28635D01*
X24640D01*
X24661Y28635D01*
X24790Y28585D01*
X24794D01*
X24835Y28585D01*
X25100D01*
Y29000D01*
X25150D01*
Y29050D01*
X25510D01*
Y29415D01*
D01*
X25497D01*
D01*
D01*
X25431Y29565D01*
D01*
D01*
X25508Y29750D01*
X24792D01*
X24869Y29565D01*
X24803Y29415D01*
X24794D01*
X24790D01*
X24661Y29365D01*
X24640Y29365D01*
X24086D01*
Y29185D01*
X23465D01*
Y29360D01*
X22981D01*
X22735Y29606D01*
Y29904D01*
X22756Y29966D01*
X22885Y30040D01*
X22920D01*
X22930Y30040D01*
X23220D01*
X23241Y30040D01*
X23370Y29990D01*
X23373D01*
X23409Y29990D01*
X23550D01*
Y30490D01*
Y30990D01*
X23409D01*
X23373Y30990D01*
X23370D01*
X23370D01*
X23235Y31027D01*
Y31200D01*
X23196Y31296D01*
X22946Y31546D01*
X22850Y31585D01*
X19080D01*
Y31790D01*
X18890Y31980D01*
X18510D01*
X18320Y31790D01*
Y31410D01*
X18510Y31220D01*
X18890D01*
X18985Y31315D01*
X22794D01*
X22954Y31154D01*
X22933Y31007D01*
X22815Y30940D01*
X22780D01*
X22770Y30940D01*
X22430D01*
X22420Y30940D01*
X22350D01*
X22280D01*
X22270Y30940D01*
X21920D01*
Y30040D01*
X21965D01*
Y29471D01*
X21859Y29365D01*
X21806D01*
X21790Y29365D01*
X21723D01*
X21656D01*
X21640Y29365D01*
X21172D01*
X20866Y29671D01*
X20771Y29711D01*
X20786Y29854D01*
X20800Y29890D01*
Y29954D01*
X20800Y30015D01*
Y30040D01*
X20916Y30124D01*
X20916D01*
Y30124D01*
X20916Y30124D01*
Y30124D01*
X20950Y30130D01*
X21032Y29932D01*
X21250Y29842D01*
Y30200D01*
Y30558D01*
X21032Y30468D01*
X20950Y30270D01*
X20916Y30276D01*
Y30276D01*
X20916Y30276D01*
Y30276D01*
X20916D01*
X20800Y30360D01*
Y30610D01*
X20450D01*
Y30250D01*
X20400D01*
Y30200D01*
X20000D01*
Y30015D01*
X20000Y29954D01*
Y29890D01*
X20050Y29761D01*
Y29740D01*
Y29265D01*
X20750D01*
X20750Y29265D01*
Y29265D01*
X20897Y29258D01*
X21036Y29119D01*
Y28635D01*
X21640D01*
X21656Y28635D01*
X21723D01*
X21790D01*
X21806Y28635D01*
X22410D01*
Y29223D01*
X22410Y29226D01*
X22410Y29226D01*
X22410Y29249D01*
X22547Y29369D01*
X22593Y29366D01*
X22593D01*
X22735Y29224D01*
Y28756D01*
X22735Y28740D01*
Y28673D01*
Y28606D01*
X22735Y28590D01*
Y27986D01*
X23465D01*
Y27986D01*
X23615Y28044D01*
X23904Y27754D01*
X24000Y27715D01*
X25850D01*
X25946Y27754D01*
X26233Y28041D01*
X26381Y27977D01*
X26482Y27732D01*
X26700Y27642D01*
Y28000D01*
Y28358D01*
X26535Y28290D01*
X26385Y28367D01*
Y31000D01*
X26379Y31015D01*
X26473Y31165D01*
X27094D01*
X27404Y30854D01*
X27500Y30815D01*
X28150D01*
X28246Y30854D01*
X28396Y31004D01*
X28401Y31018D01*
X28574Y31058D01*
X28981Y30651D01*
Y29327D01*
X28831Y29237D01*
X28819Y29243D01*
Y29850D01*
X28810Y29872D01*
Y30185D01*
X28460D01*
Y30235D01*
X28350D01*
Y29850D01*
X28250D01*
Y30235D01*
X28140D01*
Y30185D01*
X27790D01*
Y29515D01*
X28140D01*
Y29465D01*
X28234D01*
X28297Y29315D01*
X27966Y28984D01*
X27931Y28900D01*
Y28675D01*
X27820Y28630D01*
X27725Y28400D01*
X27820Y28170D01*
X28050Y28075D01*
X28280Y28170D01*
X28375Y28400D01*
X28280Y28630D01*
X28169Y28675D01*
Y28851D01*
X28280Y28961D01*
X28407Y28876D01*
X28375Y28800D01*
X28470Y28570D01*
X28700Y28475D01*
X28930Y28570D01*
X28973Y28676D01*
X29118Y28707D01*
X29231Y28609D01*
Y28200D01*
X29266Y28116D01*
X29616Y27766D01*
X29600Y27750D01*
Y27350D01*
X29800Y27150D01*
X30200D01*
X30400Y27350D01*
Y27750D01*
X30200Y27950D01*
X29800D01*
X29784Y27934D01*
X29552Y28166D01*
X29557Y28181D01*
X29727Y28223D01*
X29800Y28150D01*
X30200D01*
X30400Y28350D01*
Y28750D01*
X30200Y28950D01*
X29927D01*
X29915Y28968D01*
X29987Y29100D01*
X30225D01*
X30450Y29325D01*
Y29500D01*
X30000D01*
Y29550D01*
X29950D01*
Y30000D01*
X29775D01*
X29669Y29894D01*
X29519Y29956D01*
Y30219D01*
X29669Y30281D01*
X29800Y30150D01*
X30200D01*
X30400Y30350D01*
Y30750D01*
X30200Y30950D01*
X29800D01*
X29669Y30819D01*
X29519Y30881D01*
Y31115D01*
X29562Y31247D01*
X29562Y31247D01*
Y31247D01*
X29593Y31267D01*
X29608Y31277D01*
X29608Y31277D01*
X29610Y31278D01*
X29649Y31290D01*
X29654Y31291D01*
X29657Y31292D01*
X29658Y31292D01*
X29658Y31292D01*
X29662Y31288D01*
X29662Y31288D01*
X29800Y31150D01*
X30200D01*
X30400Y31350D01*
Y31750D01*
X30200Y31950D01*
X29800D01*
X29600Y31750D01*
Y31432D01*
Y31432D01*
X29600Y31417D01*
X29600Y31417D01*
X29599Y31417D01*
X29599Y31416D01*
X29547Y31400D01*
X29545Y31399D01*
X29496Y31383D01*
X29372Y31446D01*
X29084Y31734D01*
X29000Y31769D01*
X28810D01*
Y31985D01*
X28419D01*
Y32351D01*
X29400Y33332D01*
X29550Y33325D01*
X29550Y33325D01*
X29578Y33297D01*
X29775Y33100D01*
X29950D01*
Y33550D01*
X30000D01*
Y33600D01*
X30450D01*
Y33775D01*
X30225Y34000D01*
X30034D01*
X29953Y34150D01*
X30200D01*
X30400Y34350D01*
Y34750D01*
X30200Y34950D01*
X29800D01*
X29600Y34750D01*
Y34350D01*
Y34302D01*
X29476Y34205D01*
X29369Y34250D01*
Y35251D01*
X29499Y35381D01*
X32001D01*
X32731Y34651D01*
Y34150D01*
X32766Y34066D01*
X33316Y33516D01*
X33340Y33506D01*
X33400Y33481D01*
X33827D01*
X33881Y33400D01*
Y30819D01*
X33721D01*
X33623Y30937D01*
X33616Y30958D01*
X33675Y31100D01*
X33580Y31330D01*
X33350Y31425D01*
X33120Y31330D01*
X33025Y31100D01*
X33071Y30989D01*
X32951Y30869D01*
X31781D01*
X31700Y30950D01*
X31300D01*
X31100Y30750D01*
Y30350D01*
X31300Y30150D01*
X31700D01*
X31900Y30350D01*
Y30631D01*
X32480D01*
X32490Y30485D01*
X32490Y30485D01*
X32490Y30485D01*
Y30172D01*
X32481Y30150D01*
Y29849D01*
X32100Y29468D01*
X31950Y29531D01*
Y29775D01*
X31725Y30000D01*
X31550D01*
Y29550D01*
X31500D01*
Y29500D01*
X31050D01*
Y29325D01*
X31275Y29100D01*
X31513D01*
X31585Y28968D01*
X31573Y28950D01*
X31300D01*
X31100Y28750D01*
Y28350D01*
X31300Y28150D01*
X31700D01*
X31773Y28223D01*
X31943Y28181D01*
X31948Y28166D01*
X31716Y27934D01*
X31700Y27950D01*
X31300D01*
X31100Y27750D01*
Y27350D01*
X31300Y27150D01*
X31700D01*
X31900Y27350D01*
Y27750D01*
X31884Y27766D01*
X32234Y28116D01*
X32269Y28200D01*
Y28701D01*
X32742Y29174D01*
X32881Y29117D01*
Y28200D01*
X32790D01*
Y27500D01*
X32981D01*
Y26400D01*
X32790D01*
Y26169D01*
X30885D01*
Y26400D01*
X30410D01*
X30389D01*
X30260Y26450D01*
X30196D01*
X30135Y26450D01*
X29950D01*
Y26050D01*
Y25650D01*
X30135D01*
X30196Y25650D01*
X30260D01*
X30389Y25700D01*
X30410D01*
X30885D01*
Y25931D01*
X32790D01*
Y25700D01*
X33265D01*
X33285D01*
X33415Y25650D01*
X33479D01*
X33539Y25650D01*
X33725D01*
Y26050D01*
Y26450D01*
X33539D01*
X33479Y26450D01*
X33415D01*
X33369Y26432D01*
X33221Y26527D01*
X33219Y26531D01*
Y27369D01*
X33221Y27373D01*
X33369Y27468D01*
X33415Y27450D01*
X33479D01*
X33539Y27450D01*
X33725D01*
Y27850D01*
Y28250D01*
X33539D01*
X33479Y28250D01*
X33415D01*
X33285Y28200D01*
X33269D01*
X33119Y28211D01*
Y29815D01*
X33510D01*
X33510Y29815D01*
Y29815D01*
X33618Y29714D01*
X34021Y29311D01*
X33975Y29200D01*
X34070Y28970D01*
X34300Y28875D01*
X34530Y28970D01*
X34575Y29081D01*
X35211D01*
X35222Y29081D01*
X35222D01*
X35361Y28976D01*
Y23820D01*
X35396Y23736D01*
X36881Y22251D01*
Y21674D01*
X36731Y21600D01*
X36550Y21675D01*
X36320Y21580D01*
X36225Y21350D01*
X36271Y21239D01*
X35701Y20669D01*
X35460D01*
Y20915D01*
X34856D01*
X34840Y20915D01*
X34773D01*
X34706D01*
X34690Y20915D01*
X34515D01*
Y21236D01*
X34665D01*
Y21790D01*
X34665Y21811D01*
X34715Y21940D01*
Y21944D01*
X34715Y21985D01*
Y22250D01*
X33885D01*
Y22000D01*
D01*
Y21985D01*
X33885Y21944D01*
Y21940D01*
X33935Y21811D01*
X33935Y21790D01*
Y21236D01*
X34277D01*
Y20915D01*
X34086D01*
Y20669D01*
X33800D01*
X33716Y20634D01*
X33410Y20328D01*
X33370Y20334D01*
X33267Y20414D01*
X33260Y20430D01*
Y20435D01*
Y20720D01*
X33260Y20741D01*
X33310Y20870D01*
Y20873D01*
X33310Y20909D01*
Y21050D01*
X32310D01*
Y21006D01*
Y21006D01*
Y20909D01*
X32310Y20873D01*
Y20870D01*
X32310Y20869D01*
X32208Y20719D01*
X32050D01*
X31966Y20684D01*
X31931Y20600D01*
Y18650D01*
X31934Y18642D01*
X31875Y18500D01*
X31970Y18270D01*
X32200Y18175D01*
X32430Y18270D01*
X32525Y18500D01*
X32430Y18730D01*
X32200Y18825D01*
X32169Y18845D01*
Y20344D01*
X32319Y20439D01*
X32328Y20435D01*
X32360Y20331D01*
Y20280D01*
X32360Y20270D01*
Y19930D01*
X32360Y19920D01*
Y19850D01*
Y19780D01*
X32360Y19770D01*
Y19420D01*
X33260D01*
Y19481D01*
X33829D01*
X33935Y19375D01*
Y19306D01*
X33935Y19290D01*
Y19223D01*
Y19156D01*
X33935Y19140D01*
Y18536D01*
X34181D01*
Y18256D01*
X34075Y18150D01*
X33935D01*
X33915D01*
X33785Y18200D01*
X33721D01*
X33661Y18200D01*
X33475D01*
Y17800D01*
X33425D01*
Y17750D01*
X33065D01*
Y17469D01*
X33065Y17400D01*
X32949Y17319D01*
X32949Y17319D01*
X32100D01*
X32040Y17294D01*
X32016Y17284D01*
X29811Y15079D01*
X29060D01*
X28976Y15044D01*
X28816Y14884D01*
X28800Y14900D01*
X28400D01*
X28200Y14700D01*
Y14300D01*
X28331Y14169D01*
X28269Y14019D01*
X28006D01*
X27944Y14169D01*
X28050Y14275D01*
Y14450D01*
X27150D01*
Y14275D01*
X27256Y14169D01*
X27194Y14019D01*
X26931D01*
X26869Y14169D01*
X27000Y14300D01*
Y14700D01*
X26934Y14766D01*
Y14916D01*
X27189Y15171D01*
X27300Y15125D01*
X27530Y15220D01*
X27625Y15450D01*
X27530Y15680D01*
X27300Y15775D01*
X27070Y15680D01*
X26975Y15450D01*
X27021Y15339D01*
X26582Y14900D01*
X26400D01*
X26200Y14700D01*
Y14300D01*
X26331Y14169D01*
X26269Y14019D01*
X25988D01*
D01*
X25952Y14019D01*
X25950D01*
X25930Y14023D01*
X25863Y14163D01*
X25891Y14191D01*
X25891Y14191D01*
X26000Y14300D01*
Y14700D01*
X25800Y14900D01*
X25400D01*
X25200Y14700D01*
Y14300D01*
X25400Y14100D01*
X25698D01*
X25698D01*
X25783Y14100D01*
X25783Y14100D01*
X25784Y14098D01*
X25785Y14097D01*
X25788Y14092D01*
X25795Y14079D01*
X25804Y14063D01*
X25832Y14012D01*
X25837Y14003D01*
X25848Y13983D01*
X25848Y13983D01*
X25851Y13977D01*
X25853Y13975D01*
X25807Y13926D01*
X25854Y13972D01*
X25854Y13972D01*
X25800Y13918D01*
X25582Y13700D01*
X25400D01*
X25200Y13500D01*
Y13100D01*
X25400Y12900D01*
X25800D01*
X26000Y13100D01*
Y13500D01*
X25859Y13641D01*
X25999Y13781D01*
X26269D01*
X26331Y13631D01*
X26200Y13500D01*
Y13100D01*
X26400Y12900D01*
X26690D01*
X26720Y12750D01*
X26670Y12730D01*
X26625Y12619D01*
X24999D01*
X24848Y12770D01*
X24800Y12900D01*
X25000Y13100D01*
Y13500D01*
X24800Y13700D01*
X24400D01*
X24200Y13500D01*
Y13100D01*
X24400Y12900D01*
X24481D01*
Y12850D01*
X24516Y12766D01*
X24866Y12416D01*
X24950Y12381D01*
X26625D01*
X26670Y12270D01*
X26900Y12175D01*
X27130Y12270D01*
X27225Y12500D01*
X27130Y12730D01*
X26926Y12814D01*
X26863Y12963D01*
X27000Y13100D01*
Y13500D01*
X26869Y13631D01*
X26931Y13781D01*
X27194D01*
X27256Y13631D01*
X27150Y13525D01*
Y13350D01*
X28050D01*
Y13525D01*
X27944Y13631D01*
X28006Y13781D01*
X28269D01*
X28331Y13631D01*
X28200Y13500D01*
Y13100D01*
X28400Y12900D01*
X28800D01*
X29000Y13100D01*
Y13500D01*
X28986Y13514D01*
X29035Y13677D01*
X29052Y13680D01*
X29216Y13516D01*
X29200Y13500D01*
Y13100D01*
X29400Y12900D01*
X29800D01*
X30000Y13100D01*
Y13500D01*
X29800Y13700D01*
X29400D01*
X29384Y13684D01*
X29084Y13984D01*
X29000Y14019D01*
X28931D01*
X28869Y14169D01*
X29000Y14300D01*
Y14602D01*
X29132Y14722D01*
X29200Y14700D01*
Y14300D01*
X29400Y14100D01*
X29800D01*
X30000Y14300D01*
Y14381D01*
X30100D01*
X30184Y14416D01*
X32449Y16681D01*
X34750D01*
X34834Y16716D01*
X37584Y19466D01*
X37619Y19550D01*
X37584Y19634D01*
X37569Y19649D01*
Y22700D01*
X37534Y22784D01*
X36219Y24099D01*
Y29025D01*
X36330Y29070D01*
X36425Y29300D01*
X36330Y29530D01*
X36100Y29625D01*
X35870Y29530D01*
X35775Y29300D01*
X35870Y29070D01*
X35981Y29025D01*
Y24050D01*
X36016Y23966D01*
X37331Y22651D01*
Y19600D01*
X37346Y19564D01*
X34701Y16919D01*
X32400D01*
X32316Y16884D01*
X30220Y14789D01*
X30028Y14793D01*
X29980Y14846D01*
X29990Y14922D01*
X32149Y17081D01*
X34550D01*
X34634Y17116D01*
X34684Y17166D01*
X34719Y17250D01*
Y17451D01*
X37084Y19816D01*
X37119Y19900D01*
Y22300D01*
X37084Y22384D01*
X35599Y23869D01*
Y30142D01*
X35690D01*
Y30442D01*
Y30742D01*
X35619D01*
Y31275D01*
X35730Y31320D01*
X35817Y31530D01*
X35825Y31550D01*
X35825Y31550D01*
X35951Y31637D01*
X36100Y31575D01*
X36330Y31670D01*
X36425Y31900D01*
X36330Y32130D01*
X36100Y32225D01*
X35870Y32130D01*
X35802Y32116D01*
X35658Y32260D01*
X35721Y32410D01*
X35749D01*
X35840D01*
Y32782D01*
Y32782D01*
X35840Y32783D01*
Y32832D01*
X35840Y32847D01*
Y32855D01*
X35843Y32857D01*
X35843Y32857D01*
X35850Y32861D01*
X35850Y32862D01*
X35851Y32862D01*
X35853Y32864D01*
X35856Y32866D01*
X35873Y32878D01*
X35953Y32933D01*
X35967Y32943D01*
X35973Y32947D01*
X35974Y32948D01*
X35977Y32947D01*
X36002Y32936D01*
Y32936D01*
X36150Y32875D01*
X36261Y32921D01*
X36781Y32401D01*
Y30400D01*
X36816Y30316D01*
X37331Y29801D01*
X37320Y29790D01*
Y29410D01*
X37510Y29220D01*
X37890D01*
X38080Y29410D01*
Y29790D01*
X37890Y29980D01*
X37510D01*
X37499Y29969D01*
X37019Y30449D01*
Y32450D01*
X36984Y32534D01*
X36429Y33089D01*
X36475Y33200D01*
X36380Y33430D01*
X36150Y33525D01*
X35920Y33430D01*
X35825Y33200D01*
X35881Y33066D01*
X35881D01*
X35881Y33066D01*
X35892Y33038D01*
X35891Y33036D01*
X35885Y33029D01*
X35876Y33019D01*
X35813Y32943D01*
X35801Y32929D01*
X35790Y32917D01*
X35785Y32910D01*
X35777D01*
X35749Y32910D01*
X35749Y32910D01*
X35749D01*
X35746D01*
X35746D01*
X35713Y32910D01*
X35711D01*
X35711D01*
X35640D01*
X35599Y33043D01*
Y33531D01*
X36338Y34270D01*
X36373Y34354D01*
Y34385D01*
X36564D01*
Y35081D01*
X37300D01*
X37384Y35116D01*
X37499Y35231D01*
X37510Y35220D01*
X37890D01*
X38080Y35410D01*
Y35790D01*
X37890Y35980D01*
X37510D01*
X37320Y35790D01*
Y35410D01*
X37208Y35319D01*
X36254D01*
X36170Y35284D01*
X36135Y35200D01*
X36050Y35115D01*
X35960D01*
X35944Y35115D01*
X35877D01*
X35810D01*
X35794Y35115D01*
X35639D01*
Y35379D01*
X35745Y35485D01*
X35814D01*
X35830Y35485D01*
X35897D01*
X35964D01*
X35980Y35485D01*
X36584D01*
Y35992D01*
X36673Y36081D01*
X37300D01*
X37384Y36116D01*
X37499Y36231D01*
X37510Y36220D01*
X37890D01*
X38080Y36410D01*
Y36790D01*
X37890Y36980D01*
X37510D01*
X37320Y36790D01*
Y36410D01*
X37208Y36319D01*
X36624D01*
X36540Y36284D01*
X36393Y36350D01*
Y36376D01*
X36358Y36460D01*
X36234Y36584D01*
X36150Y36619D01*
X34900D01*
X34816Y36584D01*
X34316Y36084D01*
X34281Y36000D01*
Y34450D01*
X34316Y34366D01*
X34371Y34311D01*
X34325Y34200D01*
X34420Y33970D01*
X34650Y33875D01*
X34880Y33970D01*
X34975Y34200D01*
X34880Y34430D01*
X34650Y34525D01*
X34519Y34633D01*
Y35146D01*
X34669Y35176D01*
X34700Y35100D01*
X34930Y35005D01*
X35040Y35051D01*
X35190Y34951D01*
Y34385D01*
X35794D01*
X35810Y34385D01*
X35877D01*
X35927D01*
X35983Y34251D01*
X35453Y33722D01*
X35317Y33687D01*
X35262Y33703D01*
X35251Y33707D01*
X35222Y33719D01*
X33449D01*
X32969Y34199D01*
Y34650D01*
X33110Y34721D01*
X33421Y34411D01*
X33375Y34300D01*
X33470Y34070D01*
X33700Y33975D01*
X33930Y34070D01*
X34025Y34300D01*
X33930Y34530D01*
X33700Y34625D01*
X33589Y34579D01*
X32234Y35934D01*
X32150Y35969D01*
X29350D01*
X29266Y35934D01*
X28766Y35434D01*
X28731Y35350D01*
Y34349D01*
X27816Y33434D01*
X27781Y33350D01*
Y31650D01*
X27790Y31628D01*
Y31315D01*
X28081D01*
X28134Y31165D01*
X28059Y31085D01*
X27556D01*
X27246Y31396D01*
X27150Y31435D01*
X25904D01*
Y33894D01*
X25888Y33932D01*
X25888Y33932D01*
X25782Y34038D01*
X25744Y34054D01*
X25744Y34054D01*
X25750Y34196D01*
X25788Y34212D01*
X25804Y34250D01*
Y35250D01*
X25788Y35288D01*
X25750Y35304D01*
X25440D01*
X25402Y35288D01*
X25386Y35250D01*
Y35220D01*
X25014D01*
Y35250D01*
X24998Y35288D01*
X24960Y35304D01*
X23450D01*
X23412Y35288D01*
X23396Y35250D01*
X23253Y35268D01*
Y35635D01*
X23499Y35881D01*
X28500D01*
X28584Y35916D01*
X28828Y36160D01*
X28863Y36244D01*
Y36442D01*
X28996Y36497D01*
X29101Y36750D01*
X28996Y37003D01*
X28975Y37107D01*
X29349Y37481D01*
X32551D01*
X32825Y37207D01*
Y37058D01*
X32691Y37003D01*
X32655Y36916D01*
X32493D01*
X32441Y37041D01*
X32200Y37141D01*
Y36750D01*
Y36359D01*
X32441Y36459D01*
X32493Y36584D01*
X32655D01*
X32691Y36497D01*
X32944Y36393D01*
X33196Y36497D01*
X33301Y36750D01*
X33196Y37003D01*
X33063Y37058D01*
Y37256D01*
X33028Y37340D01*
X32684Y37684D01*
X32600Y37719D01*
D02*
G37*
G36*
X27900Y37141D02*
X27659Y37041D01*
X27559Y36800D01*
X27900D01*
Y37141D01*
D02*
G37*
G36*
X32100D02*
X31859Y37041D01*
X31759Y36800D01*
X32100D01*
Y37141D01*
D02*
G37*
G36*
X18890Y35980D02*
X18510D01*
X18320Y35790D01*
Y35410D01*
X18510Y35220D01*
X18890D01*
X19080Y35410D01*
Y35790D01*
X18890Y35980D01*
D02*
G37*
G36*
X37890Y33980D02*
X37510D01*
X37320Y33790D01*
Y33410D01*
X37510Y33220D01*
X37890D01*
X38080Y33410D01*
Y33790D01*
X37890Y33980D01*
D02*
G37*
G36*
X31450Y34000D02*
X31275D01*
X31050Y33775D01*
Y33600D01*
X31450D01*
Y34000D01*
D02*
G37*
G36*
X31950Y33500D02*
X31550D01*
Y33100D01*
X31725D01*
X31950Y33325D01*
Y33500D01*
D02*
G37*
G36*
X18890Y33980D02*
X18510D01*
X18320Y33790D01*
Y33410D01*
X18510Y33220D01*
X18890D01*
X19080Y33410D01*
Y33790D01*
X18890Y33980D01*
D02*
G37*
G36*
Y34980D02*
X18510D01*
X18320Y34790D01*
Y34410D01*
X18510Y34220D01*
X18890D01*
X19080Y34410D01*
Y34790D01*
X18890Y34980D01*
D02*
G37*
G36*
X37890D02*
X37510D01*
X37320Y34790D01*
Y34410D01*
X37510Y34220D01*
X37890D01*
X38080Y34410D01*
Y34790D01*
X37890Y34980D01*
D02*
G37*
G36*
X31725Y34000D02*
X31550D01*
Y33600D01*
X31950D01*
Y33775D01*
X31725Y34000D01*
D02*
G37*
G36*
X31700Y34950D02*
X31300D01*
X31100Y34750D01*
Y34350D01*
X31300Y34150D01*
X31700D01*
X31900Y34350D01*
Y34750D01*
X31700Y34950D01*
D02*
G37*
G36*
X30225Y30000D02*
X30050D01*
Y29600D01*
X30450D01*
Y29775D01*
X30225Y30000D01*
D02*
G37*
G36*
X37915Y29030D02*
X37750D01*
Y28650D01*
X38130D01*
Y28815D01*
X37915Y29030D01*
D02*
G37*
G36*
X38130Y28550D02*
X37270D01*
Y28385D01*
X37478Y28177D01*
X37482Y28100D01*
X37478Y28023D01*
X37270Y27815D01*
Y27650D01*
X38130D01*
Y27815D01*
X37922Y28023D01*
X37918Y28100D01*
X37922Y28177D01*
X38130Y28385D01*
Y28550D01*
D02*
G37*
G36*
X31450Y30000D02*
X31275D01*
X31050Y29775D01*
Y29600D01*
X31450D01*
Y30000D01*
D02*
G37*
G36*
X34750Y27258D02*
X34532Y27168D01*
X34442Y26950D01*
X34750D01*
Y27258D01*
D02*
G37*
G36*
X27108Y27950D02*
X26800D01*
Y27642D01*
X27018Y27732D01*
X27108Y27950D01*
D02*
G37*
G36*
X34135Y27800D02*
X33825D01*
Y27450D01*
X34135D01*
Y27800D01*
D02*
G37*
G36*
X26800Y28358D02*
Y28050D01*
X27108D01*
X27018Y28268D01*
X26800Y28358D01*
D02*
G37*
G36*
X37650Y27550D02*
X37270D01*
Y27385D01*
X37485Y27170D01*
X37650D01*
Y27550D01*
D02*
G37*
G36*
X38130D02*
X37750D01*
Y27170D01*
X37915D01*
X38130Y27385D01*
Y27550D01*
D02*
G37*
G36*
X34850Y27258D02*
Y26950D01*
X35158D01*
X35068Y27168D01*
X34850Y27258D01*
D02*
G37*
G36*
X37650Y29030D02*
X37485D01*
X37270Y28815D01*
Y28650D01*
X37650D01*
Y29030D01*
D02*
G37*
G36*
X33825Y28250D02*
Y27900D01*
X34135D01*
Y28250D01*
X33825D01*
D02*
G37*
G36*
X25510Y28950D02*
X25200D01*
Y28585D01*
X25510D01*
Y28624D01*
Y28950D01*
D02*
G37*
G36*
X18890Y27380D02*
X18510D01*
X18320Y27190D01*
Y26810D01*
X18510Y26620D01*
X18890D01*
X19080Y26810D01*
Y27190D01*
X18890Y27380D01*
D02*
G37*
G36*
X29850Y26450D02*
X29540D01*
Y26100D01*
X29850D01*
Y26450D01*
D02*
G37*
G36*
X33825D02*
Y26100D01*
X34135D01*
Y26450D01*
X33825D01*
D02*
G37*
G36*
X37890Y26980D02*
X37510D01*
X37320Y26790D01*
Y26410D01*
X37510Y26220D01*
X37890D01*
X38080Y26410D01*
Y26790D01*
X37890Y26980D01*
D02*
G37*
G36*
X25600Y30575D02*
X24800D01*
Y30265D01*
X24967D01*
X24997Y30115D01*
X24882Y30068D01*
X24792Y29850D01*
X25508D01*
X25418Y30068D01*
X25303Y30115D01*
X25333Y30265D01*
X25600D01*
Y30575D01*
D02*
G37*
G36*
X35890Y30392D02*
X35790D01*
Y30142D01*
X35890D01*
Y30392D01*
D02*
G37*
G36*
X23830Y30440D02*
X23650D01*
Y29990D01*
X23830D01*
Y30440D01*
D02*
G37*
G36*
X23125Y26400D02*
X22775D01*
X22600Y26225D01*
Y25875D01*
X22775Y25700D01*
X23125D01*
X23300Y25875D01*
Y26225D01*
X23125Y26400D01*
D02*
G37*
G36*
X28800Y27175D02*
X28570Y27080D01*
X28525Y26969D01*
X28300D01*
X28216Y26934D01*
X27311Y26029D01*
X27200Y26075D01*
X26970Y25980D01*
X26875Y25750D01*
X26970Y25520D01*
X27200Y25425D01*
X27430Y25520D01*
X27525Y25750D01*
X27479Y25861D01*
X28349Y26731D01*
X28525D01*
X28570Y26620D01*
X28800Y26525D01*
X29030Y26620D01*
X29125Y26850D01*
X29030Y27080D01*
X28800Y27175D01*
D02*
G37*
G36*
X35158Y26850D02*
X34850D01*
Y26542D01*
X35068Y26632D01*
X35158Y26850D01*
D02*
G37*
G36*
X21658Y30150D02*
X21350D01*
Y29842D01*
X21568Y29932D01*
X21658Y30150D01*
D02*
G37*
G36*
X34750Y26850D02*
X34442D01*
X34532Y26632D01*
X34750Y26542D01*
Y26850D01*
D02*
G37*
%LPD*%
G36*
X32750Y23700D02*
X32575D01*
Y23300D01*
Y22900D01*
X32750D01*
Y22750D01*
X30250D01*
Y22947D01*
X30338Y23060D01*
X30400Y23060D01*
X30628D01*
Y23300D01*
Y23540D01*
X30400D01*
X30338Y23540D01*
X30250Y23653D01*
X30250Y23653D01*
Y23850D01*
X32750D01*
Y23700D01*
D02*
G37*
G36*
X29884Y20650D02*
X30390D01*
Y20550D01*
X29890D01*
Y20450D01*
X29750D01*
Y19000D01*
X30500D01*
Y18200D01*
X30425D01*
Y17800D01*
Y17400D01*
X30500D01*
Y17250D01*
X28156Y17250D01*
X28050Y17356D01*
X28050Y20750D01*
X28214D01*
X28320Y20644D01*
Y20634D01*
X28880D01*
Y20750D01*
X29784D01*
X29884Y20650D01*
D02*
G37*
G36*
X25750Y34250D02*
X24500D01*
Y32900D01*
X23830D01*
Y33410D01*
X23650D01*
Y32910D01*
X23550D01*
Y33429D01*
X23471Y33520D01*
X23458Y33552D01*
Y34320D01*
X23600D01*
Y34600D01*
Y34880D01*
X23450D01*
Y35250D01*
X24960D01*
Y34980D01*
X25440D01*
Y35250D01*
X25750D01*
Y34250D01*
D02*
G37*
G36*
X22894Y34880D02*
Y34650D01*
X23134D01*
Y34600D01*
X23184D01*
Y34320D01*
X23350D01*
Y33552D01*
X23330Y33410D01*
X23150D01*
Y32910D01*
X23050D01*
Y33410D01*
X22870D01*
X22850Y33500D01*
Y33500D01*
X20750D01*
Y33295D01*
X20450D01*
Y32935D01*
X20400D01*
Y32885D01*
X20000D01*
Y32750D01*
X19750D01*
Y35000D01*
X22822D01*
X22894Y34880D01*
D02*
G37*
G36*
X29750Y22500D02*
X30450D01*
Y21330D01*
X30440D01*
Y21100D01*
X30390D01*
Y21050D01*
X29890D01*
Y21024D01*
X29750Y21000D01*
X29750Y21000D01*
X29750Y21000D01*
X28880D01*
Y21050D01*
X28600D01*
Y21100D01*
X28550D01*
Y21340D01*
X28320D01*
X28250Y21461D01*
Y23750D01*
X29750D01*
Y22500D01*
D02*
G37*
G36*
X25850Y33894D02*
Y31015D01*
X25709Y31007D01*
X25600Y31112D01*
Y31250D01*
X25200D01*
Y31300D01*
X25150D01*
Y31660D01*
X24850D01*
X24700Y31769D01*
X24700Y34000D01*
X25744Y34000D01*
X25850Y33894D01*
D02*
G37*
%LPC*%
G36*
X25440Y34880D02*
X25250D01*
Y34590D01*
X25440D01*
Y34880D01*
D02*
G37*
G36*
X23890D02*
X23700D01*
Y34650D01*
X23890D01*
Y34880D01*
D02*
G37*
G36*
X25150D02*
X24960D01*
Y34590D01*
X25150D01*
Y34880D01*
D02*
G37*
G36*
X23084Y34550D02*
X22894D01*
Y34320D01*
X23084D01*
Y34550D01*
D02*
G37*
G36*
X23890D02*
X23700D01*
Y34320D01*
X23890D01*
Y34550D01*
D02*
G37*
G36*
X31018Y23250D02*
X30728D01*
Y23060D01*
X31018D01*
Y23250D01*
D02*
G37*
G36*
X29560D02*
X29270D01*
Y23060D01*
X29560D01*
Y23250D01*
D02*
G37*
G36*
X29170Y23540D02*
X28880D01*
Y23350D01*
X29170D01*
Y23540D01*
D02*
G37*
G36*
X30728D02*
Y23350D01*
X31018D01*
Y23540D01*
X30728D01*
D02*
G37*
G36*
X29560D02*
X29270D01*
Y23350D01*
X29560D01*
Y23540D01*
D02*
G37*
G36*
X30340Y21330D02*
X29890D01*
Y21150D01*
X30340D01*
Y21330D01*
D02*
G37*
G36*
X32475Y23250D02*
X32165D01*
Y22900D01*
X32475D01*
Y23250D01*
D02*
G37*
G36*
X28650Y21340D02*
Y21150D01*
X28880D01*
Y21340D01*
X28650D01*
D02*
G37*
G36*
X25600Y31660D02*
X25250D01*
Y31350D01*
X25600D01*
Y31660D01*
D02*
G37*
G36*
X29170Y23250D02*
X28880D01*
Y23060D01*
X29170D01*
Y23250D01*
D02*
G37*
G36*
X25150Y33422D02*
X24960D01*
Y33132D01*
X25150D01*
Y33422D01*
D02*
G37*
G36*
X30325Y17750D02*
X30015D01*
Y17400D01*
X30325D01*
Y17750D01*
D02*
G37*
G36*
X25440Y33422D02*
X25250D01*
Y33132D01*
X25440D01*
Y33422D01*
D02*
G37*
G36*
Y33812D02*
X25250D01*
Y33522D01*
X25440D01*
Y33812D01*
D02*
G37*
G36*
X25150D02*
X24960D01*
Y33522D01*
X25150D01*
Y33812D01*
D02*
G37*
G36*
X28550Y20534D02*
X28320D01*
Y20344D01*
X28550D01*
Y20534D01*
D02*
G37*
G36*
X28880D02*
X28650D01*
Y20344D01*
X28880D01*
Y20534D01*
D02*
G37*
G36*
X32475Y23700D02*
X32165D01*
Y23350D01*
X32475D01*
Y23700D01*
D02*
G37*
G36*
X30325Y18200D02*
X30015D01*
Y17850D01*
X30325D01*
Y18200D01*
D02*
G37*
G36*
X20350Y33295D02*
X20000D01*
Y32985D01*
X20350D01*
Y33295D01*
D02*
G37*
%LPD*%
D10*
X27900Y31650D02*
D03*
X28100D02*
D03*
X28500D02*
D03*
X28300D02*
D03*
X28700D02*
D03*
Y29850D02*
D03*
X28500D02*
D03*
X28300D02*
D03*
X28100D02*
D03*
X27900D02*
D03*
X33400Y30150D02*
D03*
X33200D02*
D03*
X32800D02*
D03*
X33000D02*
D03*
X32600D02*
D03*
Y31950D02*
D03*
X32800D02*
D03*
X33000D02*
D03*
X33200D02*
D03*
X33400D02*
D03*
D11*
X23650Y34600D02*
D03*
X23134D02*
D03*
D12*
X33775Y26050D02*
D03*
X33100D02*
D03*
X33775Y27850D02*
D03*
X33100D02*
D03*
X30575Y26050D02*
D03*
X29900D02*
D03*
X31050Y17800D02*
D03*
X30375D02*
D03*
X33200Y23300D02*
D03*
X32525D02*
D03*
X33425Y17800D02*
D03*
X34100D02*
D03*
D13*
X34966Y32660D02*
D03*
X35222D02*
D03*
X35480D02*
D03*
X35740D02*
D03*
Y30442D02*
D03*
X35480D02*
D03*
X35222D02*
D03*
X34966D02*
D03*
D14*
X25750Y17120D02*
D03*
X25250D02*
D03*
X22250Y19174D02*
D03*
X22750Y17120D02*
D03*
Y19174D02*
D03*
X23750D02*
D03*
X22250Y17120D02*
D03*
X23250Y19174D02*
D03*
Y17120D02*
D03*
X23750D02*
D03*
X24750D02*
D03*
X24250Y19174D02*
D03*
X24750D02*
D03*
X25750D02*
D03*
X24250Y17120D02*
D03*
X25250Y19174D02*
D03*
D15*
X35520Y35850D02*
D03*
X36274D02*
D03*
X35500Y34750D02*
D03*
X36254D02*
D03*
X35150Y20550D02*
D03*
X34396D02*
D03*
X24396Y29000D02*
D03*
X25150D02*
D03*
X22100D02*
D03*
X21346D02*
D03*
D16*
X28600Y21100D02*
D03*
Y20584D02*
D03*
D17*
X29220Y23300D02*
D03*
X30678D02*
D03*
D18*
X25200Y34930D02*
D03*
Y33472D02*
D03*
D19*
X30390Y21100D02*
D03*
X32810D02*
D03*
X30390Y20600D02*
D03*
Y20100D02*
D03*
X32810Y20600D02*
D03*
Y20100D02*
D03*
X30390Y19600D02*
D03*
X32810D02*
D03*
D20*
X23600Y32910D02*
D03*
Y30490D02*
D03*
X23100Y32910D02*
D03*
X22600D02*
D03*
X23100Y30490D02*
D03*
X22600D02*
D03*
X22100Y32910D02*
D03*
Y30490D02*
D03*
D21*
X23100Y28296D02*
D03*
Y29050D02*
D03*
X34300Y21546D02*
D03*
Y22300D02*
D03*
Y19600D02*
D03*
Y18846D02*
D03*
D22*
X20400Y32260D02*
D03*
Y32935D02*
D03*
X25200Y30625D02*
D03*
Y31300D02*
D03*
X20400Y30250D02*
D03*
Y29575D02*
D03*
D23*
X36200Y17500D02*
X36300D01*
X35000Y16300D02*
X36200Y17500D01*
X32800Y16300D02*
X35000D01*
X31950Y15450D02*
X32800Y16300D01*
X32400Y16800D02*
X34750D01*
X30100Y14500D02*
X32400Y16800D01*
X29600Y14500D02*
X30100D01*
X34750Y16800D02*
X37500Y19550D01*
X34600Y17250D02*
Y17500D01*
X34550Y17200D02*
X34600Y17250D01*
X32100Y17200D02*
X34550D01*
X29860Y14960D02*
X32100Y17200D01*
X29060Y14960D02*
X29860D01*
X32000Y17800D02*
X33425D01*
X30100Y15900D02*
X32000Y17800D01*
X28850Y15900D02*
X30100D01*
X26600Y14500D02*
Y14750D01*
X27300Y15450D01*
X26400Y15650D02*
X27050Y16300D01*
X20400Y15650D02*
X26400D01*
X27600Y14650D02*
X28850Y15900D01*
X27600Y14500D02*
Y14650D01*
X28600Y14500D02*
X29060Y14960D01*
X30000Y34500D02*
Y34550D01*
X29400Y33900D02*
X30000Y34500D01*
X29400Y33500D02*
Y33900D01*
X28300Y32400D02*
X29400Y33500D01*
X28300Y31650D02*
Y32400D01*
X30000Y33550D02*
X31500D01*
X29300Y37600D02*
X32600D01*
X28744Y37044D02*
X29300Y37600D01*
X28744Y36750D02*
Y37044D01*
X32600Y37600D02*
X32944Y37256D01*
Y36750D02*
Y37256D01*
X29900Y25350D02*
Y26050D01*
Y25350D02*
X30150Y25100D01*
X32000D01*
X32100Y25200D01*
X33775Y27850D02*
X33850D01*
X34800Y26900D01*
X34300Y22300D02*
Y25525D01*
X33775Y26050D02*
X34300Y25525D01*
X30575Y26050D02*
X33100D01*
X36100Y24050D02*
Y29300D01*
Y24050D02*
X37450Y22700D01*
Y19600D02*
Y22700D01*
Y19600D02*
X37500Y19550D01*
X34600Y17500D02*
X37000Y19900D01*
Y22300D01*
X35480Y23820D02*
X37000Y22300D01*
X36300Y17500D02*
X37900Y19100D01*
Y23050D01*
X37000Y23950D02*
X37900Y23050D01*
X37000Y23950D02*
Y25300D01*
X37300Y25600D01*
X37700D01*
X29000Y13900D02*
X29600Y13300D01*
X25950Y13900D02*
X29000D01*
X25600Y13550D02*
X25950Y13900D01*
X25600Y13300D02*
Y13550D01*
X24950Y12500D02*
X26900D01*
X24600Y12850D02*
X24950Y12500D01*
X24600Y12850D02*
Y13300D01*
X27600Y12150D02*
Y13300D01*
X27500Y12050D02*
X27600Y12150D01*
X24450Y12050D02*
X27500D01*
X24000Y12500D02*
X24450Y12050D01*
X23850Y12500D02*
X24000D01*
X23600Y13100D02*
Y13300D01*
X34300Y30150D02*
X34650Y30500D01*
X34100Y30150D02*
X34300D01*
X34966Y31616D02*
Y32660D01*
X34650Y31300D02*
X34966Y31616D01*
X34650Y30500D02*
Y31300D01*
X34000Y30700D02*
Y33400D01*
X33661Y30700D02*
X34000D01*
X33506Y30545D02*
X33661Y30700D01*
X33000Y30750D02*
X33350Y31100D01*
X33294Y30545D02*
X33506D01*
X33230Y30481D02*
X33294Y30545D01*
X33230Y30150D02*
Y30481D01*
X33200Y30150D02*
X33230D01*
X31500Y30550D02*
X31700Y30750D01*
X33000D01*
Y32500D02*
Y33050D01*
Y31950D02*
Y32500D01*
X33400D01*
Y31950D02*
Y32500D01*
X31500Y33550D02*
X32500D01*
X33000Y33050D01*
X31500Y32550D02*
X32800D01*
Y31950D02*
Y32550D01*
X31500Y31550D02*
X32200D01*
X32600Y31950D01*
X34200Y33600D02*
X35222D01*
X33400D02*
X34200D01*
X34000Y33400D02*
X34200Y33600D01*
X33400Y30100D02*
X34300Y29200D01*
X33400Y30100D02*
Y30150D01*
X33000D02*
Y30750D01*
Y27950D02*
X33100Y27850D01*
X33000Y27950D02*
Y30150D01*
X31500Y27550D02*
X32150Y28200D01*
Y28750D01*
X32800Y29400D01*
Y30150D01*
X31500Y28550D02*
X32050Y29100D01*
Y29250D01*
X32600Y29800D01*
Y30150D01*
X29900Y26050D02*
Y26400D01*
X30650Y27150D01*
Y29200D01*
X30300Y29550D02*
X30650Y29200D01*
X30000Y29550D02*
X30300D01*
X26750Y28000D02*
X26800D01*
X28300Y29500D01*
Y29850D01*
X28700Y28800D02*
Y29850D01*
X26750Y27150D02*
Y28000D01*
X26550Y26950D02*
X26750Y27150D01*
X28500Y29350D02*
Y29850D01*
X28050Y28900D02*
X28500Y29350D01*
X28050Y28400D02*
Y28900D01*
X29100Y28950D02*
Y30700D01*
X28500Y31300D02*
X29100Y30700D01*
X28500Y31300D02*
Y31650D01*
X28300Y31100D02*
Y31650D01*
X29100Y28950D02*
X29350Y28700D01*
Y28200D02*
Y28700D01*
Y28200D02*
X30000Y27550D01*
X28700Y31650D02*
X29000D01*
X29400Y31250D01*
Y29150D02*
Y31250D01*
Y29150D02*
X30000Y28550D01*
X32850Y34150D02*
X33400Y33600D01*
X32850Y34150D02*
Y34700D01*
X32050Y35500D02*
X32850Y34700D01*
X29450Y35500D02*
X32050D01*
X29250Y35300D02*
X29450Y35500D01*
X29250Y34150D02*
Y35300D01*
X29000Y33900D02*
X29250Y34150D01*
X29000Y33600D02*
Y33900D01*
X32150Y35850D02*
X33700Y34300D01*
X29350Y35850D02*
X32150D01*
X28850Y35350D02*
X29350Y35850D01*
X28850Y34300D02*
Y35350D01*
X30000Y29550D02*
X30650Y30200D01*
Y32900D01*
X30000Y33550D02*
X30650Y32900D01*
X37700Y27600D02*
Y28600D01*
X35850Y31900D02*
X36100D01*
X35480Y32270D02*
X35850Y31900D01*
X35480Y32270D02*
Y32660D01*
X26550Y23600D02*
X27450Y24500D01*
X26000Y23050D02*
X26550Y23600D01*
Y20200D02*
Y23600D01*
X25750Y16900D02*
X26250Y16400D01*
X25750Y16900D02*
Y17120D01*
X28300Y26850D02*
X28800D01*
X27200Y25750D02*
X28300Y26850D01*
X26850Y22800D02*
X27150Y23100D01*
X26850Y20950D02*
Y22800D01*
Y20950D02*
X27216Y20584D01*
X28600D01*
X25150Y29800D02*
X25200Y29850D01*
Y30625D01*
X23600Y30490D02*
X23735Y30625D01*
X25200D01*
X20400Y32260D02*
X20410Y32250D01*
X21300D01*
X20400Y30250D02*
X21250D01*
X21300Y30200D01*
X34930Y35330D02*
X35000D01*
X35520Y35850D01*
X35500Y34750D02*
X35520Y34770D01*
Y35850D01*
X35500Y30462D02*
Y31550D01*
X35480Y30442D02*
X35500Y30462D01*
X34400Y34450D02*
X34650Y34200D01*
X34400Y34450D02*
Y36000D01*
X34900Y36500D01*
X36150D01*
X36274Y36376D01*
Y35850D02*
Y36376D01*
Y35850D02*
X36624Y36200D01*
X36900Y30400D02*
X37700Y29600D01*
X36900Y30400D02*
Y32450D01*
X36150Y33200D02*
X36900Y32450D01*
X27900Y33350D02*
X28850Y34300D01*
X23134Y34600D02*
Y35684D01*
X23450Y36000D01*
X28500D01*
X28744Y36244D01*
Y36750D01*
X22950Y24050D02*
X23450D01*
X23750Y24350D01*
Y26500D01*
X24200Y26950D01*
X26550D01*
X25150Y29000D02*
Y29800D01*
X37100Y27600D02*
X37700D01*
X36950Y27750D02*
X37100Y27600D01*
X36950Y27750D02*
Y29900D01*
X36408Y30442D02*
X36950Y29900D01*
X35740Y30442D02*
X36408D01*
X25750Y19174D02*
X25776Y19200D01*
X27100D01*
X32500Y23325D02*
X32525Y23300D01*
X32500Y23325D02*
Y24300D01*
X35750Y20550D02*
X36550Y21350D01*
X35150Y20550D02*
X35750D01*
X34300Y21546D02*
X34396Y21450D01*
Y20550D02*
Y21450D01*
X32050Y18650D02*
X32200Y18500D01*
X32050Y18650D02*
Y20600D01*
X32810D01*
X31050Y17800D02*
X33425D01*
X34100D02*
X34300Y18000D01*
Y18846D01*
X32810Y19600D02*
X34300D01*
X33800Y20550D02*
X34396D01*
X33350Y20100D02*
X33800Y20550D01*
X32810Y20100D02*
X33350D01*
X30678Y23300D02*
Y24322D01*
X30500Y24500D02*
X30678Y24322D01*
X27450Y24500D02*
X30500D01*
X27050Y16300D02*
Y17450D01*
X26200Y18300D02*
X27050Y17450D01*
X18700Y28000D02*
X19250D01*
X20000Y27250D01*
Y16050D02*
Y27250D01*
Y16050D02*
X20400Y15650D01*
X25250Y18300D02*
X26200D01*
X25250D02*
Y19174D01*
X20450Y16300D02*
X20700Y16050D01*
X24500D01*
X18700Y29600D02*
X20450Y27850D01*
Y16300D02*
Y27850D01*
X24500Y16050D02*
X24750Y16300D01*
Y17120D01*
X21650Y18700D02*
Y21950D01*
Y18700D02*
X22050Y18300D01*
X22550D01*
X22750Y18500D01*
Y19174D01*
X21100Y23900D02*
X22250Y25050D01*
X21100Y18700D02*
Y23900D01*
Y18700D02*
X21850Y17950D01*
X22700D01*
X23250Y18500D01*
Y19174D01*
X22250Y25050D02*
X22950D01*
X24400D02*
X25200D01*
X24100Y24750D02*
X24400Y25050D01*
X24100Y20350D02*
Y24750D01*
Y20350D02*
X24250Y20200D01*
Y19174D02*
Y20200D01*
X24750Y19174D02*
Y20350D01*
X24450Y20650D02*
X24750Y20350D01*
X24450Y20650D02*
Y22000D01*
X25150D01*
X25200Y22050D01*
X23750Y19174D02*
Y21750D01*
X23450Y22050D02*
X23750Y21750D01*
X22950Y22050D02*
X23450D01*
X22250Y20350D02*
X22950Y21050D01*
X22250Y19174D02*
Y20350D01*
X26000Y23050D02*
Y26050D01*
X25200D02*
X26000D01*
X25200Y23050D02*
X26000D01*
X33100Y26050D02*
Y27850D01*
X33775Y26050D02*
Y27850D01*
X37650Y25650D02*
X37700Y25600D01*
X35480Y23820D02*
Y30442D01*
Y32660D02*
Y33580D01*
X36254Y34354D01*
Y35200D01*
X37300D02*
X37700Y35600D01*
X36254Y35200D02*
X37300D01*
Y36200D02*
X37700Y36600D01*
X36624Y36200D02*
X37300D01*
X35222Y32660D02*
Y33600D01*
Y29200D02*
Y30442D01*
X34300Y29200D02*
X35222D01*
X28100Y32700D02*
X29000Y33600D01*
X28100Y31650D02*
Y32700D01*
X27900Y31650D02*
Y33350D01*
D24*
X28150Y30950D02*
X28300Y31100D01*
X27500Y30950D02*
X28150D01*
X22850Y31450D02*
X23100Y31200D01*
X18850Y31450D02*
X22850D01*
X18700Y31600D02*
X18850Y31450D01*
X25200Y31300D02*
Y33472D01*
X25950Y31300D02*
X27150D01*
X25200D02*
X25950D01*
X27150D02*
X27500Y30950D01*
X22100Y29000D02*
Y30490D01*
X20771Y29575D02*
X21346Y29000D01*
X20400Y29575D02*
X20771D01*
X25950Y31300D02*
X26250Y31000D01*
Y28250D02*
Y31000D01*
X25850Y27850D02*
X26250Y28250D01*
X24000Y27850D02*
X25850D01*
X23554Y28296D02*
X24000Y27850D01*
X23100Y28296D02*
X23554D01*
X24346Y29050D02*
X24396Y29000D01*
X23100Y29050D02*
X24346D01*
X22600Y29550D02*
X23100Y29050D01*
X22600Y29550D02*
Y30490D01*
X23100D02*
Y31200D01*
D25*
X37700Y17100D02*
D03*
X35700Y37600D02*
D03*
X18700Y17600D02*
D03*
D26*
X24700Y37600D02*
D03*
D27*
X30000Y27550D02*
D03*
Y28550D02*
D03*
Y29550D02*
D03*
Y30550D02*
D03*
Y31550D02*
D03*
Y32550D02*
D03*
Y33550D02*
D03*
Y34550D02*
D03*
X31500Y27550D02*
D03*
Y28550D02*
D03*
Y29550D02*
D03*
Y30550D02*
D03*
Y31550D02*
D03*
Y32550D02*
D03*
Y33550D02*
D03*
Y34550D02*
D03*
D28*
X29600Y13300D02*
D03*
X28600D02*
D03*
X27600D02*
D03*
X26600D02*
D03*
X25600D02*
D03*
X24600D02*
D03*
X23600D02*
D03*
X22600D02*
D03*
X29600Y14500D02*
D03*
X28600D02*
D03*
X27600D02*
D03*
X26600D02*
D03*
X25600D02*
D03*
X24600D02*
D03*
X23600D02*
D03*
X22600D02*
D03*
D29*
X25200Y21050D02*
D03*
Y22050D02*
D03*
Y23050D02*
D03*
Y24050D02*
D03*
Y25050D02*
D03*
Y26050D02*
D03*
X22950Y21050D02*
D03*
Y22050D02*
D03*
Y23050D02*
D03*
Y24050D02*
D03*
Y25050D02*
D03*
Y26050D02*
D03*
D30*
X28744Y36750D02*
D03*
X27950D02*
D03*
X32944D02*
D03*
X32150D02*
D03*
D31*
X18700Y19000D02*
D03*
Y20000D02*
D03*
X37700Y24600D02*
D03*
Y25600D02*
D03*
Y26600D02*
D03*
Y27600D02*
D03*
Y28600D02*
D03*
Y29600D02*
D03*
Y36600D02*
D03*
Y35600D02*
D03*
Y34600D02*
D03*
Y33600D02*
D03*
Y32600D02*
D03*
X18700Y21000D02*
D03*
Y22000D02*
D03*
Y23000D02*
D03*
Y24000D02*
D03*
Y25000D02*
D03*
Y26000D02*
D03*
Y27000D02*
D03*
Y28000D02*
D03*
Y29600D02*
D03*
Y30600D02*
D03*
Y31600D02*
D03*
Y36600D02*
D03*
Y35600D02*
D03*
Y34600D02*
D03*
Y33600D02*
D03*
X37700Y31600D02*
D03*
X18700Y32600D02*
D03*
D32*
X31950Y15450D02*
D03*
X27300D02*
D03*
X32100Y25200D02*
D03*
X34800Y26900D02*
D03*
X26900Y12500D02*
D03*
X23850D02*
D03*
X34100Y30150D02*
D03*
X33350Y31100D02*
D03*
X28700Y28800D02*
D03*
X26750Y28000D02*
D03*
X28050Y28400D02*
D03*
X36100Y29300D02*
D03*
Y31900D02*
D03*
X26550Y20200D02*
D03*
X26250Y16400D02*
D03*
X28800Y26850D02*
D03*
X27200Y25750D02*
D03*
X27150Y23100D02*
D03*
X21300Y32250D02*
D03*
Y30200D02*
D03*
X34930Y35330D02*
D03*
X35500Y31550D02*
D03*
X34650Y34200D02*
D03*
X36150Y33200D02*
D03*
X33700Y34300D02*
D03*
X25150Y29800D02*
D03*
X27100Y19200D02*
D03*
X32500Y24300D02*
D03*
X36550Y21350D02*
D03*
X32200Y18500D02*
D03*
X21650Y21950D02*
D03*
X34300Y29200D02*
D03*
M02*
