%FSLAX24Y24*%
%MOIN*%
G70*
G01*
G75*
G04 Layer_Color=8388736*
%ADD10R,0.0120X0.0570*%
%ADD11R,0.0870X0.0240*%
%ADD12R,0.0630X0.0520*%
%ADD13R,0.0560X0.0400*%
%ADD14R,0.0480X0.0480*%
%ADD15R,0.0520X0.0630*%
%ADD16R,0.0280X0.0480*%
%ADD17R,0.0260X0.0800*%
%ADD18R,0.0560X0.1030*%
%ADD19R,0.1190X0.0560*%
%ADD20R,0.0600X0.0520*%
%ADD21C,0.0370*%
%ADD22C,0.0130*%
%ADD23C,0.0100*%
%ADD24C,0.0420*%
%ADD25C,0.0220*%
%ADD26C,0.0500*%
%ADD27C,0.0270*%
%ADD28C,0.0000*%
%ADD29C,0.0560*%
G04:AMPARAMS|DCode=30|XSize=66mil|YSize=66mil|CornerRadius=0mil|HoleSize=0mil|Usage=FLASHONLY|Rotation=90.000|XOffset=0mil|YOffset=0mil|HoleType=Round|Shape=Octagon|*
%AMOCTAGOND30*
4,1,8,0.0165,0.0330,-0.0165,0.0330,-0.0330,0.0165,-0.0330,-0.0165,-0.0165,-0.0330,0.0165,-0.0330,0.0330,-0.0165,0.0330,0.0165,0.0165,0.0330,0.0*
%
%ADD30OCTAGOND30*%

%ADD31C,0.0591*%
%ADD32R,0.0591X0.0591*%
G04:AMPARAMS|DCode=33|XSize=76mil|YSize=76mil|CornerRadius=0mil|HoleSize=0mil|Usage=FLASHONLY|Rotation=0.000|XOffset=0mil|YOffset=0mil|HoleType=Round|Shape=Octagon|*
%AMOCTAGOND33*
4,1,8,0.0380,-0.0190,0.0380,0.0190,0.0190,0.0380,-0.0190,0.0380,-0.0380,0.0190,-0.0380,-0.0190,-0.0190,-0.0380,0.0190,-0.0380,0.0380,-0.0190,0.0*
%
%ADD33OCTAGOND33*%

%ADD34C,0.0500*%
%ADD35R,0.0197X0.0197*%
%ADD36R,0.0630X0.1070*%
%ADD37R,0.0520X0.0600*%
%ADD38C,0.0060*%
%ADD39C,0.0040*%
%ADD40C,0.0050*%
%ADD41C,0.0079*%
%ADD42C,0.0020*%
%ADD43C,0.0027*%
%ADD44C,0.0080*%
%ADD45R,0.0080X0.0079*%
%ADD46R,0.0950X0.0320*%
%ADD47R,0.0710X0.0600*%
%ADD48R,0.0640X0.0480*%
%ADD49R,0.0560X0.0560*%
%ADD50R,0.0600X0.0710*%
%ADD51R,0.0360X0.0560*%
%ADD52R,0.0340X0.0880*%
%ADD53R,0.0640X0.1110*%
%ADD54R,0.1270X0.0640*%
%ADD55R,0.0680X0.0600*%
%ADD56C,0.0640*%
G04:AMPARAMS|DCode=57|XSize=74mil|YSize=74mil|CornerRadius=0mil|HoleSize=0mil|Usage=FLASHONLY|Rotation=90.000|XOffset=0mil|YOffset=0mil|HoleType=Round|Shape=Octagon|*
%AMOCTAGOND57*
4,1,8,0.0185,0.0370,-0.0185,0.0370,-0.0370,0.0185,-0.0370,-0.0185,-0.0185,-0.0370,0.0185,-0.0370,0.0370,-0.0185,0.0370,0.0185,0.0185,0.0370,0.0*
%
%ADD57OCTAGOND57*%

%ADD58C,0.0671*%
%ADD59R,0.0671X0.0671*%
G04:AMPARAMS|DCode=60|XSize=84mil|YSize=84mil|CornerRadius=0mil|HoleSize=0mil|Usage=FLASHONLY|Rotation=0.000|XOffset=0mil|YOffset=0mil|HoleType=Round|Shape=Octagon|*
%AMOCTAGOND60*
4,1,8,0.0420,-0.0210,0.0420,0.0210,0.0210,0.0420,-0.0210,0.0420,-0.0420,0.0210,-0.0420,-0.0210,-0.0210,-0.0420,0.0210,-0.0420,0.0420,-0.0210,0.0*
%
%ADD60OCTAGOND60*%

%ADD61C,0.0580*%
D10*
X25350Y27800D02*
D03*
X25150D02*
D03*
X24950D02*
D03*
X24750D02*
D03*
X24550D02*
D03*
Y26000D02*
D03*
X24950D02*
D03*
X24750D02*
D03*
X25150D02*
D03*
X25350D02*
D03*
X20250Y27800D02*
D03*
X20050D02*
D03*
X19850D02*
D03*
X19650D02*
D03*
X19450D02*
D03*
Y26000D02*
D03*
X19850D02*
D03*
X19650D02*
D03*
X20050D02*
D03*
X20250D02*
D03*
D23*
X31050Y10070D02*
Y11570D01*
X31040Y10060D02*
X31050Y10070D01*
X25670Y10060D02*
X31040D01*
X10050Y10050D02*
X24690D01*
X31050Y11570D02*
Y36050D01*
X24700Y10060D02*
X25670D01*
X11660Y37060D02*
X30040D01*
X30500Y36600D01*
X31050Y36050D01*
X10050Y10050D02*
Y35450D01*
X11660Y37060D01*
D28*
X31050Y16410D02*
Y36050D01*
X10050Y10050D02*
X22080D01*
X16150Y37050D02*
X29050D01*
X10050Y35450D02*
X10650Y36050D01*
X10050Y10050D02*
Y35450D01*
D46*
X16850Y21200D02*
D03*
X14796Y22200D02*
D03*
X16850Y20700D02*
D03*
Y21700D02*
D03*
Y22200D02*
D03*
X14796Y21700D02*
D03*
Y22700D02*
D03*
Y23200D02*
D03*
X16850D02*
D03*
X14796Y24200D02*
D03*
X16850Y22700D02*
D03*
Y23700D02*
D03*
X14796D02*
D03*
X16850Y24200D02*
D03*
X14796Y21200D02*
D03*
Y20700D02*
D03*
D47*
X12850Y26204D02*
D03*
Y25450D02*
D03*
X19850Y18126D02*
D03*
Y18880D02*
D03*
X23650Y34454D02*
D03*
Y33700D02*
D03*
X22500Y34696D02*
D03*
Y35450D02*
D03*
X26953Y33300D02*
D03*
Y34054D02*
D03*
X26950Y35076D02*
D03*
Y35830D02*
D03*
D48*
X13967Y26174D02*
D03*
Y25420D02*
D03*
X14840Y25800D02*
D03*
X25883Y33326D02*
D03*
Y34080D02*
D03*
X25010Y33700D02*
D03*
X25900Y35100D02*
D03*
Y35854D02*
D03*
X25027Y35474D02*
D03*
D49*
X26770Y19050D02*
D03*
X25937D02*
D03*
X26770Y19975D02*
D03*
X25937D02*
D03*
X26770Y18125D02*
D03*
X25937D02*
D03*
X26770Y17200D02*
D03*
X25937D02*
D03*
X26770Y16250D02*
D03*
X25937D02*
D03*
D50*
X19950Y12150D02*
D03*
X19196D02*
D03*
X18126Y18100D02*
D03*
X18880D02*
D03*
X21600Y17250D02*
D03*
X20846D02*
D03*
X16800Y25800D02*
D03*
X16046D02*
D03*
X29404Y18100D02*
D03*
X28650D02*
D03*
X29404Y19025D02*
D03*
X28650D02*
D03*
X29404Y19950D02*
D03*
X28650D02*
D03*
X29404Y16250D02*
D03*
X28650D02*
D03*
X29404Y17175D02*
D03*
X28650D02*
D03*
D51*
X18050Y12120D02*
D03*
Y13578D02*
D03*
D52*
X19350Y13440D02*
D03*
Y15860D02*
D03*
X19850Y13440D02*
D03*
X20350D02*
D03*
X19850Y15860D02*
D03*
X20350D02*
D03*
X20850Y13440D02*
D03*
Y15860D02*
D03*
D53*
X22450Y13557D02*
D03*
Y11940D02*
D03*
D54*
X18145Y15800D02*
D03*
X16250D02*
D03*
D55*
X21950Y16250D02*
D03*
Y15575D02*
D03*
D56*
X25906Y13500D02*
D03*
X26700D02*
D03*
X28900D02*
D03*
X29694D02*
D03*
D57*
X11050Y31050D02*
D03*
X30050Y30050D02*
D03*
X11050Y32050D02*
D03*
Y33050D02*
D03*
Y34050D02*
D03*
Y35050D02*
D03*
Y30050D02*
D03*
Y29050D02*
D03*
Y28050D02*
D03*
Y26450D02*
D03*
Y25450D02*
D03*
Y24450D02*
D03*
Y23450D02*
D03*
Y22450D02*
D03*
Y21450D02*
D03*
Y20450D02*
D03*
Y19450D02*
D03*
X30050Y31050D02*
D03*
Y32050D02*
D03*
Y33050D02*
D03*
Y34050D02*
D03*
Y35050D02*
D03*
Y28050D02*
D03*
Y27050D02*
D03*
Y26050D02*
D03*
Y25050D02*
D03*
Y24050D02*
D03*
Y23050D02*
D03*
D58*
X28600Y34050D02*
D03*
X20650Y34450D02*
D03*
X23150Y22400D02*
D03*
X22150D02*
D03*
X23150Y23400D02*
D03*
X22150D02*
D03*
X23150Y24400D02*
D03*
X22150D02*
D03*
X23150Y25400D02*
D03*
X22150D02*
D03*
X23150Y26400D02*
D03*
X22150D02*
D03*
X23150Y27400D02*
D03*
X22150D02*
D03*
X23150Y28400D02*
D03*
X22150D02*
D03*
X23150Y29400D02*
D03*
X22150D02*
D03*
X23150Y30400D02*
D03*
X22150D02*
D03*
X23150Y31400D02*
D03*
D59*
X28600Y35050D02*
D03*
X20650Y35450D02*
D03*
X22150Y31400D02*
D03*
D60*
X13750Y15800D02*
D03*
D61*
X19750Y24700D02*
D03*
X20800Y25950D02*
D03*
X20650Y25100D02*
D03*
X27700Y34800D02*
D03*
Y32600D02*
D03*
X25950Y25900D02*
D03*
X17450Y26450D02*
D03*
X19700Y22600D02*
D03*
X21900Y21200D02*
D03*
X14750Y27350D02*
D03*
X27650Y23600D02*
D03*
X13750Y21700D02*
D03*
X24100Y17200D02*
D03*
X19100Y19800D02*
D03*
X15700Y19150D02*
D03*
X23950Y19050D02*
D03*
Y18150D02*
D03*
X26750Y24800D02*
D03*
X20250Y28900D02*
D03*
X18600Y28300D02*
D03*
X12500Y24150D02*
D03*
X23650Y33000D02*
D03*
X18863Y23712D02*
D03*
M02*
