M48
;Layer_Color=9474304
;FILE_FORMAT=2:4
INCH,LZ
;TYPE=PLATED
T1F00S00C0.0280
T2F00S00C0.0320
T3F00S00C0.0400
T4F00S00C0.1400
%
T01
X02385Y0125
X0269
X0273Y01545
X03195
X0322Y0185
X0325Y0243
X0321Y0252
X0348Y0269
X0343Y0292
X0341Y03015
X03335Y0311
X0361Y0293
X03655Y02135
X02655Y0202
X0271Y0192
X02625Y0164
X02715Y0231
X0272Y02575
X02675Y028
X02805Y0284
X0287Y0288
X0288Y02685
X02515Y0298
X0213Y0302
X02165Y02195
X0213Y03225
X0337Y0343
X03465Y0342
X03493Y03533
X03615Y0332
X0361Y0319
X0355Y03155
T02
X02795Y03675
X028744
X03215
X032944
T03
X0226Y0133
X0236
X0246
X0256
X0266
X0276
X0286
X0296
Y0145
X0286
X0276
X0266
X0256
X0246
X0236
X0226
X0315Y02755
Y02855
Y02955
Y03055
X0377Y0296
Y0286
Y0276
Y0266
Y0256
Y0246
X03Y02755
Y02855
Y02955
Y03055
X0252Y02605
Y02505
Y02405
Y02305
Y02205
Y02105
X02295
Y02205
Y02305
Y02405
Y02505
Y02605
X0187Y026
Y025
Y024
Y023
Y022
Y021
Y02
Y019
Y027
Y028
Y0296
Y0306
Y0316
Y0326
Y0336
Y0346
Y0356
Y0366
X03Y03455
Y03355
Y03255
Y03155
X0315
Y03255
Y03355
Y03455
X0377Y0346
Y0356
Y0366
Y0336
Y0326
Y0316
T04
X0377Y0171
X0187Y0176
X0247Y0376
X0357
M30
