%FSLAX24Y24*%
%MOIN*%
G70*
G01*
G75*
G04 Layer_Color=12632256*
%ADD10R,0.0120X0.0570*%
%ADD11R,0.0280X0.0360*%
%ADD12R,0.0520X0.0600*%
%ADD13R,0.0100X0.0400*%
%ADD14R,0.0240X0.0870*%
%ADD15R,0.0520X0.0630*%
%ADD16R,0.0360X0.0280*%
%ADD17R,0.0480X0.0280*%
%ADD18R,0.0280X0.0480*%
%ADD19R,0.0800X0.0260*%
%ADD20R,0.0260X0.0800*%
%ADD21R,0.0630X0.0520*%
%ADD22R,0.0600X0.0520*%
%ADD23C,0.0120*%
%ADD24C,0.0150*%
%ADD25C,0.1500*%
%ADD26C,0.1400*%
G04:AMPARAMS|DCode=27|XSize=70mil|YSize=70mil|CornerRadius=0mil|HoleSize=0mil|Usage=FLASHONLY|Rotation=0.000|XOffset=0mil|YOffset=0mil|HoleType=Round|Shape=Octagon|*
%AMOCTAGOND27*
4,1,8,0.0350,-0.0175,0.0350,0.0175,0.0175,0.0350,-0.0175,0.0350,-0.0350,0.0175,-0.0350,-0.0175,-0.0175,-0.0350,0.0175,-0.0350,0.0350,-0.0175,0.0*
%
%ADD27OCTAGOND27*%

G04:AMPARAMS|DCode=28|XSize=70mil|YSize=70mil|CornerRadius=0mil|HoleSize=0mil|Usage=FLASHONLY|Rotation=90.000|XOffset=0mil|YOffset=0mil|HoleType=Round|Shape=Octagon|*
%AMOCTAGOND28*
4,1,8,0.0175,0.0350,-0.0175,0.0350,-0.0350,0.0175,-0.0350,-0.0175,-0.0175,-0.0350,0.0175,-0.0350,0.0350,-0.0175,0.0350,0.0175,0.0175,0.0350,0.0*
%
%ADD28OCTAGOND28*%

G04:AMPARAMS|DCode=29|XSize=60mil|YSize=60mil|CornerRadius=0mil|HoleSize=0mil|Usage=FLASHONLY|Rotation=0.000|XOffset=0mil|YOffset=0mil|HoleType=Round|Shape=Octagon|*
%AMOCTAGOND29*
4,1,8,0.0300,-0.0150,0.0300,0.0150,0.0150,0.0300,-0.0150,0.0300,-0.0300,0.0150,-0.0300,-0.0150,-0.0150,-0.0300,0.0150,-0.0300,0.0300,-0.0150,0.0*
%
%ADD29OCTAGOND29*%

%ADD30C,0.0560*%
G04:AMPARAMS|DCode=31|XSize=66mil|YSize=66mil|CornerRadius=0mil|HoleSize=0mil|Usage=FLASHONLY|Rotation=90.000|XOffset=0mil|YOffset=0mil|HoleType=Round|Shape=Octagon|*
%AMOCTAGOND31*
4,1,8,0.0165,0.0330,-0.0165,0.0330,-0.0330,0.0165,-0.0330,-0.0165,-0.0165,-0.0330,0.0165,-0.0330,0.0330,-0.0165,0.0330,0.0165,0.0165,0.0330,0.0*
%
%ADD31OCTAGOND31*%

%ADD32C,0.0500*%
%ADD33C,0.0100*%
%ADD34C,0.0080*%
%ADD35C,0.0060*%
%ADD36C,0.0050*%
%ADD37C,0.0020*%
%ADD38C,0.0034*%
%ADD39R,0.0360X0.0440*%
%ADD40R,0.0600X0.0680*%
%ADD41R,0.0180X0.0480*%
%ADD42R,0.0320X0.0950*%
%ADD43R,0.0600X0.0710*%
%ADD44R,0.0440X0.0360*%
%ADD45R,0.0560X0.0360*%
%ADD46R,0.0360X0.0560*%
%ADD47R,0.0880X0.0340*%
%ADD48R,0.0340X0.0880*%
%ADD49R,0.0710X0.0600*%
%ADD50R,0.0680X0.0600*%
%ADD51C,0.1580*%
%ADD52C,0.1480*%
G04:AMPARAMS|DCode=53|XSize=78mil|YSize=78mil|CornerRadius=0mil|HoleSize=0mil|Usage=FLASHONLY|Rotation=0.000|XOffset=0mil|YOffset=0mil|HoleType=Round|Shape=Octagon|*
%AMOCTAGOND53*
4,1,8,0.0390,-0.0195,0.0390,0.0195,0.0195,0.0390,-0.0195,0.0390,-0.0390,0.0195,-0.0390,-0.0195,-0.0195,-0.0390,0.0195,-0.0390,0.0390,-0.0195,0.0*
%
%ADD53OCTAGOND53*%

G04:AMPARAMS|DCode=54|XSize=78mil|YSize=78mil|CornerRadius=0mil|HoleSize=0mil|Usage=FLASHONLY|Rotation=90.000|XOffset=0mil|YOffset=0mil|HoleType=Round|Shape=Octagon|*
%AMOCTAGOND54*
4,1,8,0.0195,0.0390,-0.0195,0.0390,-0.0390,0.0195,-0.0390,-0.0195,-0.0195,-0.0390,0.0195,-0.0390,0.0390,-0.0195,0.0390,0.0195,0.0195,0.0390,0.0*
%
%ADD54OCTAGOND54*%

G04:AMPARAMS|DCode=55|XSize=68mil|YSize=68mil|CornerRadius=0mil|HoleSize=0mil|Usage=FLASHONLY|Rotation=0.000|XOffset=0mil|YOffset=0mil|HoleType=Round|Shape=Octagon|*
%AMOCTAGOND55*
4,1,8,0.0340,-0.0170,0.0340,0.0170,0.0170,0.0340,-0.0170,0.0340,-0.0340,0.0170,-0.0340,-0.0170,-0.0170,-0.0340,0.0170,-0.0340,0.0340,-0.0170,0.0*
%
%ADD55OCTAGOND55*%

%ADD56C,0.0640*%
G04:AMPARAMS|DCode=57|XSize=74mil|YSize=74mil|CornerRadius=0mil|HoleSize=0mil|Usage=FLASHONLY|Rotation=90.000|XOffset=0mil|YOffset=0mil|HoleType=Round|Shape=Octagon|*
%AMOCTAGOND57*
4,1,8,0.0185,0.0370,-0.0185,0.0370,-0.0370,0.0185,-0.0370,-0.0185,-0.0185,-0.0370,0.0185,-0.0370,0.0370,-0.0185,0.0370,0.0185,0.0185,0.0370,0.0*
%
%ADD57OCTAGOND57*%

%ADD58C,0.0580*%
%ADD59C,0.0000*%
%ADD60R,0.0159X0.0238*%
%ADD61R,0.0079X0.0318*%
%ADD62R,0.0159X0.0476*%
%ADD63R,0.0238X0.0159*%
%ADD64R,0.0476X0.0159*%
%ADD65R,0.0318X0.0079*%
%ADD66R,0.0476X0.0159*%
%ADD67C,0.0040*%
%ADD68R,0.0200X0.0200*%
%ADD69R,0.0110X0.0240*%
%ADD70R,0.0118X0.0240*%
%ADD71R,0.0300X0.0575*%
%ADD72R,0.0295X0.0575*%
%ADD73R,0.0193X0.0440*%
%ADD74R,0.0190X0.0440*%
%ADD75R,0.0190X0.0433*%
%ADD76R,0.0193X0.0433*%
%ADD77R,0.0140X0.0560*%
%ADD78R,0.0240X0.0110*%
%ADD79R,0.0240X0.0118*%
%ADD80R,0.0079X0.0556*%
%ADD81R,0.0556X0.0079*%
%ADD82R,0.0450X0.0200*%
%ADD83R,0.0200X0.0450*%
%ADD84R,0.0560X0.0140*%
%ADD85R,0.0575X0.0300*%
%ADD86R,0.0575X0.0295*%
D25*
X37700Y17100D02*
D03*
X35700Y37600D02*
D03*
X18700Y17600D02*
D03*
D26*
X24700Y37600D02*
D03*
D27*
X30000Y27550D02*
D03*
Y28550D02*
D03*
Y29550D02*
D03*
Y30550D02*
D03*
Y31550D02*
D03*
Y32550D02*
D03*
Y33550D02*
D03*
Y34550D02*
D03*
X31500Y27550D02*
D03*
Y28550D02*
D03*
Y29550D02*
D03*
Y30550D02*
D03*
Y31550D02*
D03*
Y32550D02*
D03*
Y33550D02*
D03*
Y34550D02*
D03*
D28*
X29600Y13300D02*
D03*
X28600D02*
D03*
X27600D02*
D03*
X26600D02*
D03*
X25600D02*
D03*
X24600D02*
D03*
X23600D02*
D03*
X22600D02*
D03*
X29600Y14500D02*
D03*
X28600D02*
D03*
X27600D02*
D03*
X26600D02*
D03*
X25600D02*
D03*
X24600D02*
D03*
X23600D02*
D03*
X22600D02*
D03*
D29*
X25200Y21050D02*
D03*
Y22050D02*
D03*
Y23050D02*
D03*
Y24050D02*
D03*
Y25050D02*
D03*
Y26050D02*
D03*
X22950Y21050D02*
D03*
Y22050D02*
D03*
Y23050D02*
D03*
Y24050D02*
D03*
Y25050D02*
D03*
Y26050D02*
D03*
D30*
X28744Y36750D02*
D03*
X27950D02*
D03*
X32944D02*
D03*
X32150D02*
D03*
D31*
X18700Y19000D02*
D03*
Y20000D02*
D03*
X37700Y24600D02*
D03*
Y25600D02*
D03*
Y26600D02*
D03*
Y27600D02*
D03*
Y28600D02*
D03*
Y29600D02*
D03*
Y36600D02*
D03*
Y35600D02*
D03*
Y34600D02*
D03*
Y33600D02*
D03*
Y32600D02*
D03*
X18700Y21000D02*
D03*
Y22000D02*
D03*
Y23000D02*
D03*
Y24000D02*
D03*
Y25000D02*
D03*
Y26000D02*
D03*
Y27000D02*
D03*
Y28000D02*
D03*
Y29600D02*
D03*
Y30600D02*
D03*
Y31600D02*
D03*
Y36600D02*
D03*
Y35600D02*
D03*
Y34600D02*
D03*
Y33600D02*
D03*
X37700Y31600D02*
D03*
X18700Y32600D02*
D03*
M02*
