%FSLAX24Y24*%
%MOIN*%
G70*
G01*
G75*
G04 Layer_Color=32896*
%ADD10R,0.0120X0.0570*%
%ADD11R,0.0870X0.0240*%
%ADD12R,0.0630X0.0520*%
%ADD13R,0.0560X0.0400*%
%ADD14R,0.0480X0.0480*%
%ADD15R,0.0520X0.0630*%
%ADD16R,0.0280X0.0480*%
%ADD17R,0.0260X0.0800*%
%ADD18R,0.0560X0.1030*%
%ADD19R,0.1190X0.0560*%
%ADD20R,0.0600X0.0520*%
%ADD21C,0.0370*%
%ADD22C,0.0130*%
%ADD23C,0.0100*%
%ADD24C,0.0420*%
%ADD25C,0.0220*%
%ADD26C,0.0500*%
%ADD27C,0.0270*%
%ADD28C,0.0000*%
%ADD29C,0.0560*%
G04:AMPARAMS|DCode=30|XSize=66mil|YSize=66mil|CornerRadius=0mil|HoleSize=0mil|Usage=FLASHONLY|Rotation=90.000|XOffset=0mil|YOffset=0mil|HoleType=Round|Shape=Octagon|*
%AMOCTAGOND30*
4,1,8,0.0165,0.0330,-0.0165,0.0330,-0.0330,0.0165,-0.0330,-0.0165,-0.0165,-0.0330,0.0165,-0.0330,0.0330,-0.0165,0.0330,0.0165,0.0165,0.0330,0.0*
%
%ADD30OCTAGOND30*%

%ADD31C,0.0591*%
%ADD32R,0.0591X0.0591*%
G04:AMPARAMS|DCode=33|XSize=76mil|YSize=76mil|CornerRadius=0mil|HoleSize=0mil|Usage=FLASHONLY|Rotation=0.000|XOffset=0mil|YOffset=0mil|HoleType=Round|Shape=Octagon|*
%AMOCTAGOND33*
4,1,8,0.0380,-0.0190,0.0380,0.0190,0.0190,0.0380,-0.0190,0.0380,-0.0380,0.0190,-0.0380,-0.0190,-0.0190,-0.0380,0.0190,-0.0380,0.0380,-0.0190,0.0*
%
%ADD33OCTAGOND33*%

%ADD34C,0.0500*%
%ADD35R,0.0197X0.0197*%
%ADD36R,0.0630X0.1070*%
%ADD37R,0.0520X0.0600*%
%ADD38C,0.0060*%
%ADD39C,0.0040*%
%ADD40C,0.0050*%
%ADD41C,0.0079*%
%ADD42C,0.0020*%
%ADD43C,0.0027*%
%ADD44C,0.0080*%
%ADD45R,0.0080X0.0079*%
%ADD46R,0.0950X0.0320*%
%ADD47R,0.0710X0.0600*%
%ADD48R,0.0640X0.0480*%
%ADD49R,0.0560X0.0560*%
%ADD50R,0.0600X0.0710*%
%ADD51R,0.0360X0.0560*%
%ADD52R,0.0340X0.0880*%
%ADD53R,0.0640X0.1110*%
%ADD54R,0.1270X0.0640*%
%ADD55R,0.0680X0.0600*%
%ADD56C,0.0640*%
G04:AMPARAMS|DCode=57|XSize=74mil|YSize=74mil|CornerRadius=0mil|HoleSize=0mil|Usage=FLASHONLY|Rotation=90.000|XOffset=0mil|YOffset=0mil|HoleType=Round|Shape=Octagon|*
%AMOCTAGOND57*
4,1,8,0.0185,0.0370,-0.0185,0.0370,-0.0370,0.0185,-0.0370,-0.0185,-0.0185,-0.0370,0.0185,-0.0370,0.0370,-0.0185,0.0370,0.0185,0.0185,0.0370,0.0*
%
%ADD57OCTAGOND57*%

%ADD58C,0.0671*%
%ADD59R,0.0671X0.0671*%
G04:AMPARAMS|DCode=60|XSize=84mil|YSize=84mil|CornerRadius=0mil|HoleSize=0mil|Usage=FLASHONLY|Rotation=0.000|XOffset=0mil|YOffset=0mil|HoleType=Round|Shape=Octagon|*
%AMOCTAGOND60*
4,1,8,0.0420,-0.0210,0.0420,0.0210,0.0210,0.0420,-0.0210,0.0420,-0.0420,0.0210,-0.0420,-0.0210,-0.0210,-0.0420,0.0210,-0.0420,0.0420,-0.0210,0.0*
%
%ADD60OCTAGOND60*%

%ADD61C,0.0580*%
%ADD62R,0.0277X0.0277*%
%ADD63R,0.0710X0.1150*%
%ADD64R,0.0600X0.0680*%
D23*
X27500Y12610D02*
Y12950D01*
X27670D01*
X27727Y12893D01*
Y12667D01*
X27670Y12610D01*
X27500D01*
X27840Y12667D02*
X28066Y12893D01*
X27840D02*
X28066Y12667D01*
X27840Y12780D02*
X28066D01*
X27953Y12893D02*
Y12667D01*
X25033Y12077D02*
X25090Y12020D01*
Y11907D01*
X25033Y11850D01*
X24807D01*
X24750Y11907D01*
Y12020D01*
X24807Y12077D01*
X24750Y12190D02*
Y12303D01*
Y12247D01*
X25090D01*
X25033Y12190D01*
X29323Y11283D02*
X29380Y11340D01*
X29493D01*
X29550Y11283D01*
Y11057D01*
X29493Y11000D01*
X29380D01*
X29323Y11057D01*
X28984Y11000D02*
X29210D01*
X28984Y11227D01*
Y11283D01*
X29040Y11340D01*
X29153D01*
X29210Y11283D01*
X28973Y10683D02*
X29030Y10740D01*
X29143D01*
X29200Y10683D01*
Y10457D01*
X29143Y10400D01*
X29030D01*
X28973Y10457D01*
X28860Y10683D02*
X28803Y10740D01*
X28690D01*
X28634Y10683D01*
Y10627D01*
X28690Y10570D01*
X28747D01*
X28690D01*
X28634Y10513D01*
Y10457D01*
X28690Y10400D01*
X28803D01*
X28860Y10457D01*
X30250Y14600D02*
Y14940D01*
X30080D01*
X30023Y14883D01*
Y14770D01*
X30080Y14713D01*
X30250D01*
X30137D02*
X30023Y14600D01*
X29910D02*
X29797D01*
X29853D01*
Y14940D01*
X29910Y14883D01*
X29627Y14600D02*
X29514D01*
X29570D01*
Y14940D01*
X29627Y14883D01*
X25600Y14500D02*
Y14840D01*
X25430D01*
X25373Y14783D01*
Y14670D01*
X25430Y14613D01*
X25600D01*
X25487D02*
X25373Y14500D01*
X25260D02*
X25147D01*
X25203D01*
Y14840D01*
X25260Y14783D01*
X24977D02*
X24920Y14840D01*
X24807D01*
X24750Y14783D01*
Y14727D01*
X24807Y14670D01*
X24864D01*
X24807D01*
X24750Y14613D01*
Y14557D01*
X24807Y14500D01*
X24920D01*
X24977Y14557D01*
X31050Y10070D02*
Y11570D01*
X31040Y10060D02*
X31050Y10070D01*
X25670Y10060D02*
X31040D01*
X10050Y10050D02*
X24690D01*
X31050Y11570D02*
Y36050D01*
X24700Y10060D02*
X25670D01*
X11660Y37060D02*
X30040D01*
X30500Y36600D01*
X31050Y36050D01*
X10050Y10050D02*
Y35450D01*
X11660Y37060D01*
D28*
X31050Y16410D02*
Y36050D01*
X10050Y10050D02*
X22080D01*
X16150Y37050D02*
X29050D01*
X10050Y35450D02*
X10650Y36050D01*
X10050Y10050D02*
Y35450D01*
M02*
