%FSLAX24Y24*%
%MOIN*%
G70*
G01*
G75*
G04 Layer_Color=8421504*
%ADD10R,0.0120X0.0570*%
%ADD11R,0.0870X0.0240*%
%ADD12R,0.0630X0.0520*%
%ADD13R,0.0560X0.0400*%
%ADD14R,0.0480X0.0480*%
%ADD15R,0.0520X0.0630*%
%ADD16R,0.0280X0.0480*%
%ADD17R,0.0260X0.0800*%
%ADD18R,0.0560X0.1030*%
%ADD19R,0.1190X0.0560*%
%ADD20R,0.0600X0.0520*%
%ADD21C,0.0370*%
%ADD22C,0.0130*%
%ADD23C,0.0100*%
%ADD24C,0.0420*%
%ADD25C,0.0220*%
%ADD26C,0.0500*%
%ADD27C,0.0270*%
%ADD28C,0.0000*%
%ADD29C,0.0560*%
G04:AMPARAMS|DCode=30|XSize=66mil|YSize=66mil|CornerRadius=0mil|HoleSize=0mil|Usage=FLASHONLY|Rotation=90.000|XOffset=0mil|YOffset=0mil|HoleType=Round|Shape=Octagon|*
%AMOCTAGOND30*
4,1,8,0.0165,0.0330,-0.0165,0.0330,-0.0330,0.0165,-0.0330,-0.0165,-0.0165,-0.0330,0.0165,-0.0330,0.0330,-0.0165,0.0330,0.0165,0.0165,0.0330,0.0*
%
%ADD30OCTAGOND30*%

%ADD31C,0.0591*%
%ADD32R,0.0591X0.0591*%
G04:AMPARAMS|DCode=33|XSize=76mil|YSize=76mil|CornerRadius=0mil|HoleSize=0mil|Usage=FLASHONLY|Rotation=0.000|XOffset=0mil|YOffset=0mil|HoleType=Round|Shape=Octagon|*
%AMOCTAGOND33*
4,1,8,0.0380,-0.0190,0.0380,0.0190,0.0190,0.0380,-0.0190,0.0380,-0.0380,0.0190,-0.0380,-0.0190,-0.0190,-0.0380,0.0190,-0.0380,0.0380,-0.0190,0.0*
%
%ADD33OCTAGOND33*%

%ADD34C,0.0500*%
%ADD35R,0.0197X0.0197*%
%ADD36R,0.0630X0.1070*%
%ADD37R,0.0520X0.0600*%
%ADD38C,0.0060*%
%ADD39C,0.0040*%
%ADD40C,0.0050*%
%ADD41C,0.0079*%
%ADD42C,0.0020*%
%ADD43C,0.0027*%
%ADD44C,0.0080*%
%ADD45R,0.0080X0.0079*%
D10*
X25350Y27800D02*
D03*
X25150D02*
D03*
X24950D02*
D03*
X24750D02*
D03*
X24550D02*
D03*
Y26000D02*
D03*
X24950D02*
D03*
X24750D02*
D03*
X25150D02*
D03*
X25350D02*
D03*
X20250Y27800D02*
D03*
X20050D02*
D03*
X19850D02*
D03*
X19650D02*
D03*
X19450D02*
D03*
Y26000D02*
D03*
X19850D02*
D03*
X19650D02*
D03*
X20050D02*
D03*
X20250D02*
D03*
D11*
X16850Y21200D02*
D03*
X14796Y22200D02*
D03*
X16850Y20700D02*
D03*
Y21700D02*
D03*
Y22200D02*
D03*
X14796Y21700D02*
D03*
Y22700D02*
D03*
Y23200D02*
D03*
X16850D02*
D03*
X14796Y24200D02*
D03*
X16850Y22700D02*
D03*
Y23700D02*
D03*
X14796D02*
D03*
X16850Y24200D02*
D03*
X14796Y21200D02*
D03*
Y20700D02*
D03*
D12*
X12850Y26204D02*
D03*
Y25450D02*
D03*
X19850Y18126D02*
D03*
Y18880D02*
D03*
X23650Y34454D02*
D03*
Y33700D02*
D03*
X22500Y34696D02*
D03*
Y35450D02*
D03*
X26953Y33300D02*
D03*
Y34054D02*
D03*
X26950Y35076D02*
D03*
Y35830D02*
D03*
D13*
X13967Y26174D02*
D03*
Y25420D02*
D03*
X14840Y25800D02*
D03*
X25883Y33326D02*
D03*
Y34080D02*
D03*
X25010Y33700D02*
D03*
X25900Y35100D02*
D03*
Y35854D02*
D03*
X25027Y35474D02*
D03*
D14*
X26770Y19050D02*
D03*
X25937D02*
D03*
X26770Y19975D02*
D03*
X25937D02*
D03*
X26770Y18125D02*
D03*
X25937D02*
D03*
X26770Y17200D02*
D03*
X25937D02*
D03*
X26770Y16250D02*
D03*
X25937D02*
D03*
D15*
X19950Y12150D02*
D03*
X19196D02*
D03*
X18126Y18100D02*
D03*
X18880D02*
D03*
X21600Y17250D02*
D03*
X20846D02*
D03*
X16800Y25800D02*
D03*
X16046D02*
D03*
X29404Y18100D02*
D03*
X28650D02*
D03*
X29404Y19025D02*
D03*
X28650D02*
D03*
X29404Y19950D02*
D03*
X28650D02*
D03*
X29404Y16250D02*
D03*
X28650D02*
D03*
X29404Y17175D02*
D03*
X28650D02*
D03*
D16*
X18050Y12120D02*
D03*
Y13578D02*
D03*
D17*
X19350Y13440D02*
D03*
Y15860D02*
D03*
X19850Y13440D02*
D03*
X20350D02*
D03*
X19850Y15860D02*
D03*
X20350D02*
D03*
X20850Y13440D02*
D03*
Y15860D02*
D03*
D18*
X22450Y13557D02*
D03*
Y11940D02*
D03*
D19*
X18145Y15800D02*
D03*
X16250D02*
D03*
D20*
X21950Y16250D02*
D03*
Y15575D02*
D03*
D23*
X31050Y10070D02*
Y11570D01*
X31040Y10060D02*
X31050Y10070D01*
X25670Y10060D02*
X31040D01*
X10050Y10050D02*
X24690D01*
X31050Y11570D02*
Y36050D01*
X24700Y10060D02*
X25670D01*
X11660Y37060D02*
X30040D01*
X30500Y36600D01*
X31050Y36050D01*
X10050Y10050D02*
Y35450D01*
X11660Y37060D01*
D28*
X31050Y16410D02*
Y36050D01*
X10050Y10050D02*
X22080D01*
X16150Y37050D02*
X29050D01*
X10050Y35450D02*
X10650Y36050D01*
X10050Y10050D02*
Y35450D01*
M02*
