%FSLAX24Y24*%
%MOIN*%
G70*
G01*
G75*
G04 Layer_Physical_Order=1*
G04 Layer_Color=255*
%ADD10R,0.0120X0.0570*%
%ADD11R,0.0870X0.0240*%
%ADD12R,0.0630X0.0520*%
%ADD13R,0.0560X0.0400*%
%ADD14R,0.0480X0.0480*%
%ADD15R,0.0520X0.0630*%
%ADD16R,0.0280X0.0480*%
%ADD17R,0.0260X0.0800*%
%ADD18R,0.0560X0.1030*%
%ADD19R,0.1190X0.0560*%
%ADD20R,0.0600X0.0520*%
%ADD21C,0.0370*%
%ADD22C,0.0130*%
%ADD23C,0.0100*%
%ADD24C,0.0420*%
%ADD25C,0.0220*%
%ADD26C,0.0500*%
%ADD27C,0.0270*%
%ADD28C,0.0000*%
%ADD29C,0.0560*%
G04:AMPARAMS|DCode=30|XSize=66mil|YSize=66mil|CornerRadius=0mil|HoleSize=0mil|Usage=FLASHONLY|Rotation=90.000|XOffset=0mil|YOffset=0mil|HoleType=Round|Shape=Octagon|*
%AMOCTAGOND30*
4,1,8,0.0165,0.0330,-0.0165,0.0330,-0.0330,0.0165,-0.0330,-0.0165,-0.0165,-0.0330,0.0165,-0.0330,0.0330,-0.0165,0.0330,0.0165,0.0165,0.0330,0.0*
%
%ADD30OCTAGOND30*%

%ADD31C,0.0591*%
%ADD32R,0.0591X0.0591*%
G04:AMPARAMS|DCode=33|XSize=76mil|YSize=76mil|CornerRadius=0mil|HoleSize=0mil|Usage=FLASHONLY|Rotation=0.000|XOffset=0mil|YOffset=0mil|HoleType=Round|Shape=Octagon|*
%AMOCTAGOND33*
4,1,8,0.0380,-0.0190,0.0380,0.0190,0.0190,0.0380,-0.0190,0.0380,-0.0380,0.0190,-0.0380,-0.0190,-0.0190,-0.0380,0.0190,-0.0380,0.0380,-0.0190,0.0*
%
%ADD33OCTAGOND33*%

%ADD34C,0.0500*%
G36*
X11700Y37100D02*
X30000D01*
X31050Y36050D01*
X31050Y36050D01*
Y10000D01*
X10000D01*
Y35400D01*
X11700Y37100D01*
X11700Y37100D01*
D02*
G37*
%LPC*%
G36*
X17385Y20650D02*
X16900D01*
Y20480D01*
X17385D01*
Y20650D01*
D02*
G37*
G36*
X16800D02*
X16315D01*
Y20480D01*
X16800D01*
Y20650D01*
D02*
G37*
G36*
X22100Y22350D02*
X21743D01*
X21847Y22097D01*
X22100Y21993D01*
Y22350D01*
D02*
G37*
G36*
X11265Y21880D02*
X10835D01*
X10620Y21665D01*
Y21235D01*
X10835Y21020D01*
X11265D01*
X11480Y21235D01*
Y21665D01*
X11265Y21880D01*
D02*
G37*
G36*
X29044Y20365D02*
X29027D01*
X29010D01*
X28944Y20365D01*
X28290D01*
Y20283D01*
X27110D01*
Y20315D01*
X26430D01*
Y19635D01*
X27110D01*
Y19667D01*
X28219D01*
X28290Y19596D01*
Y19540D01*
X28290Y19535D01*
Y19488D01*
Y19440D01*
X28233Y19358D01*
X27110D01*
Y19390D01*
X26430D01*
Y18710D01*
X27110D01*
Y18742D01*
X28219D01*
X28290Y18671D01*
Y18615D01*
X28290Y18610D01*
Y18563D01*
Y18515D01*
X28233Y18433D01*
X27110D01*
Y18465D01*
X26430D01*
Y17785D01*
X27110D01*
Y17817D01*
X28219D01*
X28290Y17746D01*
Y17690D01*
X28290Y17685D01*
Y17637D01*
Y17590D01*
X28233Y17508D01*
X27110D01*
Y17540D01*
X26430D01*
Y16860D01*
X27110D01*
Y16892D01*
X28219D01*
X28290Y16821D01*
Y16765D01*
X28290Y16760D01*
Y16712D01*
Y16665D01*
X28290Y16660D01*
Y16558D01*
X27110D01*
Y16590D01*
X26430D01*
Y15910D01*
X27110D01*
Y15942D01*
X28290D01*
Y15835D01*
X28944D01*
X29010Y15835D01*
X29027D01*
X29044D01*
X29110Y15835D01*
X29354D01*
Y16250D01*
X29404D01*
Y16300D01*
X29764D01*
Y16660D01*
X29764Y16665D01*
Y16712D01*
Y16760D01*
X29764Y16765D01*
Y17125D01*
X29404D01*
Y17225D01*
X29764D01*
Y17585D01*
X29764Y17590D01*
Y17637D01*
Y17685D01*
X29764Y17690D01*
Y18050D01*
X29404D01*
Y18150D01*
X29764D01*
Y18510D01*
X29764Y18515D01*
Y18563D01*
Y18610D01*
X29764Y18615D01*
Y18975D01*
X29404D01*
Y19075D01*
X29764D01*
Y19435D01*
X29764Y19440D01*
Y19488D01*
Y19535D01*
X29764Y19540D01*
Y19900D01*
X29404D01*
Y19950D01*
X29354D01*
Y20365D01*
X29110D01*
X29044Y20365D01*
D02*
G37*
G36*
X11265Y19880D02*
X10835D01*
X10620Y19665D01*
Y19235D01*
X10835Y19020D01*
X11265D01*
X11480Y19235D01*
Y19665D01*
X11265Y19880D01*
D02*
G37*
G36*
X18076Y18515D02*
X17766D01*
Y18150D01*
X18076D01*
Y18515D01*
D02*
G37*
G36*
X11265Y20880D02*
X10835D01*
X10620Y20665D01*
Y20235D01*
X10835Y20020D01*
X11265D01*
X11480Y20235D01*
Y20665D01*
X11265Y20880D01*
D02*
G37*
G36*
X29454Y20365D02*
Y20000D01*
X29764D01*
Y20365D01*
X29454D01*
D02*
G37*
G36*
X22557Y22350D02*
X22200D01*
Y21993D01*
X22453Y22097D01*
X22557Y22350D01*
D02*
G37*
G36*
X23200Y22807D02*
Y22450D01*
X23557D01*
X23453Y22703D01*
X23200Y22807D01*
D02*
G37*
G36*
X23100D02*
X22847Y22703D01*
X22743Y22450D01*
X23100D01*
Y22807D01*
D02*
G37*
G36*
X23150Y23828D02*
X22847Y23703D01*
X22722Y23400D01*
X22847Y23097D01*
X23150Y22972D01*
X23453Y23097D01*
X23578Y23400D01*
X23453Y23703D01*
X23150Y23828D01*
D02*
G37*
G36*
X30265Y23480D02*
X29835D01*
X29620Y23265D01*
Y22835D01*
X29835Y22620D01*
X30265D01*
X30480Y22835D01*
Y23265D01*
X30265Y23480D01*
D02*
G37*
G36*
X22200Y22807D02*
Y22450D01*
X22557D01*
X22453Y22703D01*
X22200Y22807D01*
D02*
G37*
G36*
X23557Y22350D02*
X23200D01*
Y21993D01*
X23453Y22097D01*
X23557Y22350D01*
D02*
G37*
G36*
X23100D02*
X22743D01*
X22847Y22097D01*
X23100Y21993D01*
Y22350D01*
D02*
G37*
G36*
X22100Y22807D02*
X21847Y22703D01*
X21743Y22450D01*
X22100D01*
Y22807D01*
D02*
G37*
G36*
X11265Y22880D02*
X10835D01*
X10620Y22665D01*
Y22235D01*
X10835Y22020D01*
X11265D01*
X11480Y22235D01*
Y22665D01*
X11265Y22880D01*
D02*
G37*
G36*
X23950Y18529D02*
X23682Y18418D01*
X23571Y18150D01*
X23682Y17882D01*
X23950Y17771D01*
X24120Y17842D01*
X25597D01*
Y17785D01*
X26277D01*
Y18465D01*
X25597D01*
Y18458D01*
X24120D01*
X23950Y18529D01*
D02*
G37*
G36*
X22400Y14172D02*
X22070D01*
Y13607D01*
X22400D01*
Y14172D01*
D02*
G37*
G36*
X29744Y13891D02*
Y13550D01*
X30084D01*
X29985Y13791D01*
X29744Y13891D01*
D02*
G37*
G36*
X21900Y15525D02*
X21550D01*
Y15215D01*
X21900D01*
Y15525D01*
D02*
G37*
G36*
X22830Y14172D02*
X22500D01*
Y13607D01*
X22830D01*
Y14172D01*
D02*
G37*
G36*
X26750Y13891D02*
Y13550D01*
X27091D01*
X26991Y13791D01*
X26750Y13891D01*
D02*
G37*
G36*
X22830Y13507D02*
X22500D01*
Y12942D01*
X22830D01*
Y13507D01*
D02*
G37*
G36*
X22400D02*
X22070D01*
Y12942D01*
X22400D01*
Y13507D01*
D02*
G37*
G36*
X30084Y13450D02*
X29744D01*
Y13109D01*
X29985Y13209D01*
X30084Y13450D01*
D02*
G37*
G36*
X27091D02*
X26750D01*
Y13109D01*
X26991Y13209D01*
X27091Y13450D01*
D02*
G37*
G36*
X22350Y15525D02*
X22000D01*
Y15215D01*
X22350D01*
Y15525D01*
D02*
G37*
G36*
X19300Y16360D02*
X19120D01*
Y15910D01*
X19300D01*
Y16360D01*
D02*
G37*
G36*
X18840Y16180D02*
X18195D01*
Y15850D01*
X18840D01*
Y16180D01*
D02*
G37*
G36*
X18076Y18050D02*
X17766D01*
Y17685D01*
X18076D01*
Y18050D01*
D02*
G37*
G36*
X24100Y17579D02*
X23832Y17468D01*
X23721Y17200D01*
X23832Y16932D01*
X24100Y16821D01*
X24368Y16932D01*
X24385Y16973D01*
X25597D01*
Y16860D01*
X26277D01*
Y17540D01*
X25597D01*
Y17427D01*
X24385D01*
X24368Y17468D01*
X24100Y17579D01*
D02*
G37*
G36*
X18095Y16180D02*
X17450D01*
Y15850D01*
X18095D01*
Y16180D01*
D02*
G37*
G36*
Y15750D02*
X17450D01*
Y15420D01*
X18095D01*
Y15750D01*
D02*
G37*
G36*
X19300Y15810D02*
X19120D01*
Y15360D01*
X19300D01*
Y15810D01*
D02*
G37*
G36*
X29764Y16200D02*
X29454D01*
Y15835D01*
X29764D01*
Y16200D01*
D02*
G37*
G36*
X18840Y15750D02*
X18195D01*
Y15420D01*
X18840D01*
Y15750D01*
D02*
G37*
G36*
X11265Y23880D02*
X10835D01*
X10620Y23665D01*
Y23235D01*
X10835Y23020D01*
X11265D01*
X11480Y23235D01*
Y23665D01*
X11265Y23880D01*
D02*
G37*
G36*
Y29480D02*
X10835D01*
X10620Y29265D01*
Y28835D01*
X10835Y28620D01*
X11265D01*
X11480Y28835D01*
Y29265D01*
X11265Y29480D01*
D02*
G37*
G36*
X20608Y28850D02*
X20300D01*
Y28542D01*
X20518Y28632D01*
X20608Y28850D01*
D02*
G37*
G36*
X20300Y29258D02*
Y28950D01*
X20608D01*
X20518Y29168D01*
X20300Y29258D01*
D02*
G37*
G36*
X11265Y30480D02*
X10835D01*
X10620Y30265D01*
Y29835D01*
X10835Y29620D01*
X11265D01*
X11480Y29835D01*
Y30265D01*
X11265Y30480D01*
D02*
G37*
G36*
X27365Y36190D02*
X26535D01*
Y36163D01*
X25900D01*
X25880Y36154D01*
X25520D01*
Y35554D01*
X25880D01*
X25900Y35546D01*
X26439D01*
X26461Y35528D01*
X26467Y35473D01*
X26414Y35408D01*
X25900D01*
X25880Y35400D01*
X25520D01*
Y34800D01*
X25880D01*
X25900Y34792D01*
X26535D01*
Y34716D01*
X27348D01*
X27362Y34702D01*
X27432Y34532D01*
X27600Y34462D01*
X27580Y34362D01*
X27368D01*
Y34414D01*
X26538D01*
Y34388D01*
X25883D01*
X25863Y34380D01*
X25503D01*
Y33780D01*
X25863D01*
X25883Y33772D01*
X26443D01*
X26464Y33755D01*
X26469Y33695D01*
X26419Y33634D01*
X25883D01*
X25863Y33626D01*
X25503D01*
Y33026D01*
X25863D01*
X25883Y33017D01*
X26538D01*
Y32940D01*
X26645D01*
Y32853D01*
X26735Y32635D01*
X26988Y32382D01*
X27206Y32292D01*
X27206Y32292D01*
X27530D01*
X27700Y32221D01*
X27968Y32332D01*
X28079Y32600D01*
X27968Y32868D01*
X27700Y32979D01*
X27530Y32908D01*
X27455D01*
X27368Y32940D01*
Y33594D01*
X27368Y33660D01*
X27403Y33746D01*
X27403Y33746D01*
X28302D01*
X28600Y33622D01*
X28888Y33742D01*
X29713D01*
X29835Y33620D01*
X30265D01*
X30480Y33835D01*
Y34265D01*
X30265Y34480D01*
X29835D01*
X29713Y34358D01*
X28888D01*
X28600Y34478D01*
X28322Y34362D01*
X27820D01*
X27800Y34462D01*
X27968Y34532D01*
X28079Y34800D01*
X27968Y35068D01*
X27798Y35138D01*
X27642Y35294D01*
X27447Y35375D01*
X27415Y35459D01*
X27453Y35522D01*
X27692D01*
X28205Y35009D01*
Y34655D01*
X28995D01*
Y34742D01*
X29713D01*
X29835Y34620D01*
X30265D01*
X30480Y34835D01*
Y35265D01*
X30265Y35480D01*
X29835D01*
X29713Y35358D01*
X28995D01*
Y35445D01*
X28641D01*
X28038Y36048D01*
X27820Y36138D01*
X27365D01*
Y36190D01*
D02*
G37*
G36*
X20050Y29729D02*
X19924Y29676D01*
X19274Y29026D01*
X19221Y28900D01*
Y28500D01*
X19274Y28374D01*
X19370Y28277D01*
X19332Y28185D01*
X19290D01*
Y27845D01*
X19271Y27800D01*
Y27150D01*
X19324Y27024D01*
X19450Y26971D01*
X21900D01*
X22026Y27024D01*
X22150Y26972D01*
X22453Y27097D01*
X22578Y27400D01*
X22453Y27703D01*
X22150Y27828D01*
X21847Y27703D01*
X21722Y27400D01*
X21674Y27329D01*
X20443D01*
X20410Y27415D01*
X20410Y27415D01*
X20410D01*
X20410Y27415D01*
Y27750D01*
X20250D01*
Y27800D01*
X20210D01*
Y28185D01*
X19829D01*
Y28250D01*
X19776Y28376D01*
X19776Y28376D01*
X19579Y28574D01*
Y28826D01*
X19841Y29088D01*
X19926Y29032D01*
X19892Y28950D01*
X20200D01*
Y29258D01*
X20159Y29241D01*
X20097Y29324D01*
X20135Y29371D01*
X20926D01*
X21773Y28524D01*
X21722Y28400D01*
X21847Y28097D01*
X22150Y27972D01*
X22453Y28097D01*
X22578Y28400D01*
X22453Y28703D01*
X22150Y28828D01*
X22026Y28777D01*
X21126Y29676D01*
X21000Y29729D01*
X20050D01*
X20050Y29729D01*
D02*
G37*
G36*
X18958Y28250D02*
X18650D01*
Y27942D01*
X18868Y28032D01*
X18958Y28250D01*
D02*
G37*
G36*
X18550Y28658D02*
X18332Y28568D01*
X18242Y28350D01*
X18550D01*
Y28658D01*
D02*
G37*
G36*
X20200Y28850D02*
X19892D01*
X19982Y28632D01*
X20200Y28542D01*
Y28850D01*
D02*
G37*
G36*
X18650Y28658D02*
Y28350D01*
X18958D01*
X18868Y28568D01*
X18650Y28658D01*
D02*
G37*
G36*
X11265Y35480D02*
X10835D01*
X10620Y35265D01*
Y34835D01*
X10835Y34620D01*
X11265D01*
X11480Y34835D01*
Y35265D01*
X11265Y35480D01*
D02*
G37*
G36*
Y33480D02*
X10835D01*
X10620Y33265D01*
Y32835D01*
X10835Y32620D01*
X11265D01*
X11480Y32835D01*
Y33265D01*
X11265Y33480D01*
D02*
G37*
G36*
X20650Y34878D02*
X20347Y34753D01*
X20222Y34450D01*
X20347Y34147D01*
X20650Y34022D01*
X20953Y34147D01*
X21078Y34450D01*
X20953Y34753D01*
X20650Y34878D01*
D02*
G37*
G36*
X11265Y34480D02*
X10835D01*
X10620Y34265D01*
Y33835D01*
X10835Y33620D01*
X11265D01*
X11480Y33835D01*
Y34265D01*
X11265Y34480D01*
D02*
G37*
G36*
X30265Y33480D02*
X29835D01*
X29620Y33265D01*
Y32835D01*
X29835Y32620D01*
X30265D01*
X30480Y32835D01*
Y33265D01*
X30265Y33480D01*
D02*
G37*
G36*
X11265Y31480D02*
X10835D01*
X10620Y31265D01*
Y30835D01*
X10835Y30620D01*
X11265D01*
X11480Y30835D01*
Y31265D01*
X11265Y31480D01*
D02*
G37*
G36*
X21045Y35845D02*
X20255D01*
Y35055D01*
X21045D01*
Y35142D01*
X21342D01*
Y34128D01*
X20782Y33568D01*
X20692Y33350D01*
Y30950D01*
X20782Y30732D01*
X21332Y30182D01*
X21332Y30182D01*
X21550Y30092D01*
X21862D01*
X22150Y29972D01*
X22438Y30092D01*
X22862D01*
X23150Y29972D01*
X23453Y30097D01*
X23578Y30400D01*
X23453Y30703D01*
X23150Y30828D01*
X22862Y30708D01*
X22438D01*
X22150Y30828D01*
X21862Y30708D01*
X21678D01*
X21308Y31078D01*
Y33222D01*
X21868Y33782D01*
X21958Y34000D01*
X21958Y34000D01*
Y35101D01*
X22008Y35111D01*
X22085Y35028D01*
X22085Y34990D01*
Y34336D01*
X22192D01*
Y32700D01*
X22282Y32482D01*
X22842Y31922D01*
Y31708D01*
X22545D01*
Y31795D01*
X21755D01*
Y31005D01*
X22545D01*
Y31092D01*
X22862D01*
X23150Y30972D01*
X23453Y31097D01*
X23578Y31400D01*
X23458Y31688D01*
Y32050D01*
X23458Y32050D01*
X23368Y32268D01*
X22808Y32828D01*
Y34336D01*
X22915D01*
Y34388D01*
X23164D01*
X23235Y34317D01*
Y34160D01*
X23235Y34094D01*
Y34077D01*
Y34060D01*
X23235Y33994D01*
Y33340D01*
X23342D01*
Y33170D01*
X23271Y33000D01*
X23382Y32732D01*
X23650Y32621D01*
X23918Y32732D01*
X24029Y33000D01*
X23958Y33170D01*
Y33340D01*
X24065D01*
Y33392D01*
X24702D01*
Y30438D01*
X23972Y29708D01*
X23438D01*
X23150Y29828D01*
X22862Y29708D01*
X22438D01*
X22150Y29828D01*
X21847Y29703D01*
X21722Y29400D01*
X21847Y29097D01*
X22150Y28972D01*
X22438Y29092D01*
X22862D01*
X23150Y28972D01*
X23438Y29092D01*
X24100D01*
X24318Y29182D01*
X24374Y29238D01*
X25033D01*
X26288Y27983D01*
Y26229D01*
X26188Y26180D01*
X25950Y26279D01*
X25708Y26179D01*
X25510D01*
Y26385D01*
X25112D01*
Y26533D01*
X25465Y26885D01*
X25512Y27000D01*
Y27800D01*
X25510Y27806D01*
Y28185D01*
X24929D01*
Y28300D01*
X24876Y28426D01*
X24876Y28426D01*
X24776Y28526D01*
X24650Y28579D01*
X23504D01*
X23453Y28703D01*
X23150Y28828D01*
X22847Y28703D01*
X22722Y28400D01*
X22847Y28097D01*
X23150Y27972D01*
X23453Y28097D01*
X23504Y28221D01*
X24305D01*
X24390Y28185D01*
Y27979D01*
X24300D01*
X24174Y27926D01*
X24174Y27926D01*
X23826Y27579D01*
X23504D01*
X23453Y27703D01*
X23150Y27828D01*
X22847Y27703D01*
X22722Y27400D01*
X22847Y27097D01*
X23150Y26972D01*
X23453Y27097D01*
X23504Y27221D01*
X23900D01*
X24026Y27274D01*
X24290Y27537D01*
X24390Y27496D01*
Y27415D01*
X24910D01*
Y27755D01*
X24929Y27800D01*
X24990D01*
Y27415D01*
X25188D01*
Y27067D01*
X24835Y26715D01*
X24788Y26600D01*
Y26385D01*
X24390D01*
Y26254D01*
X24290Y26213D01*
X23976Y26526D01*
X23850Y26579D01*
X23504D01*
X23453Y26703D01*
X23150Y26828D01*
X22847Y26703D01*
X22722Y26400D01*
X22847Y26097D01*
X23150Y25972D01*
X23453Y26097D01*
X23504Y26221D01*
X23776D01*
X24124Y25874D01*
X24124Y25874D01*
X24250Y25821D01*
X24319D01*
X24390Y25751D01*
Y25615D01*
X24305Y25579D01*
X23504D01*
X23453Y25703D01*
X23150Y25828D01*
X22847Y25703D01*
X22722Y25400D01*
X22847Y25097D01*
X23150Y24972D01*
X23453Y25097D01*
X23504Y25221D01*
X24700D01*
X24704Y25223D01*
X24788Y25168D01*
Y24740D01*
X24835Y24626D01*
X25488Y23973D01*
Y22200D01*
X25535Y22085D01*
X25838Y21783D01*
Y20315D01*
X25597D01*
Y20283D01*
X23925D01*
X23925Y20283D01*
X23771Y20220D01*
X23707Y20193D01*
X23707Y20193D01*
X22722Y19208D01*
X20265D01*
Y19240D01*
X20096D01*
X19438Y19898D01*
X19368Y20068D01*
X19100Y20179D01*
X18832Y20068D01*
X18721Y19800D01*
X18832Y19532D01*
X19002Y19462D01*
X19435Y19029D01*
Y18586D01*
X19435Y18520D01*
Y18508D01*
X19432Y18483D01*
X19340Y18408D01*
X19240D01*
Y18515D01*
X18586D01*
X18520Y18515D01*
X18503D01*
X18486D01*
X18420Y18515D01*
X18176D01*
Y18100D01*
Y17685D01*
X18420D01*
X18486Y17685D01*
X18503D01*
X18520D01*
X18586Y17685D01*
X19240D01*
Y17792D01*
X19435D01*
Y17766D01*
X19542D01*
Y17121D01*
X19456Y17066D01*
X19061Y17461D01*
X18900Y17527D01*
X16294D01*
X15927Y17894D01*
Y18865D01*
X15968Y18882D01*
X16079Y19150D01*
X15968Y19418D01*
X15700Y19529D01*
X15432Y19418D01*
X15321Y19150D01*
X15432Y18882D01*
X15473Y18865D01*
Y17800D01*
X15539Y17639D01*
X16039Y17139D01*
X16200Y17073D01*
X18806D01*
X19426Y16452D01*
X19400Y16389D01*
Y15860D01*
Y15360D01*
X19580D01*
X19580Y15360D01*
X19580D01*
X19620D01*
Y15360D01*
X19680Y15360D01*
X20080D01*
X20080Y15360D01*
X20080D01*
X20120D01*
Y15360D01*
X20180Y15360D01*
X20580D01*
Y15360D01*
X20620D01*
Y15360D01*
X21080D01*
Y15671D01*
X21158Y15860D01*
Y16490D01*
X21258Y16510D01*
X21332Y16332D01*
X21550Y16114D01*
Y15890D01*
Y15625D01*
X22350D01*
Y15890D01*
Y16610D01*
X22126D01*
X21979Y16757D01*
Y17250D01*
X21960Y17295D01*
Y17665D01*
X21306D01*
X21240Y17665D01*
X21223D01*
X21206D01*
X21140Y17665D01*
X20486D01*
Y17031D01*
X20394Y16993D01*
X20158Y17228D01*
Y17766D01*
X20265D01*
Y18420D01*
X20265Y18486D01*
Y18492D01*
X20275Y18527D01*
X20363Y18592D01*
X22850D01*
X23068Y18682D01*
X23490Y19104D01*
X23571Y19050D01*
X23682Y18782D01*
X23950Y18671D01*
X24218Y18782D01*
X24223Y18796D01*
X25597D01*
Y18710D01*
X26277D01*
Y19390D01*
X25597D01*
Y19304D01*
X24223D01*
X24218Y19318D01*
X23950Y19429D01*
X23896Y19510D01*
X24053Y19667D01*
X25597D01*
Y19635D01*
X26277D01*
Y20315D01*
X26162D01*
Y21850D01*
X26115Y21965D01*
X25812Y22267D01*
Y24040D01*
X25765Y24155D01*
X25112Y24808D01*
Y25112D01*
X25150Y25138D01*
X26100D01*
X26215Y25185D01*
X26439Y25409D01*
X26571Y25276D01*
Y25105D01*
X26482Y25068D01*
X26371Y24800D01*
X26482Y24532D01*
X26750Y24421D01*
X27018Y24532D01*
X27129Y24800D01*
X27018Y25068D01*
X26929Y25105D01*
Y25350D01*
X26876Y25476D01*
X26612Y25740D01*
Y28050D01*
X26565Y28165D01*
X25215Y29515D01*
X25100Y29562D01*
X24829D01*
X24791Y29655D01*
X25228Y30092D01*
X25228Y30092D01*
X25318Y30310D01*
Y33400D01*
X25390D01*
Y34000D01*
X25030D01*
X25010Y34008D01*
X24100D01*
X24100Y34008D01*
X24065Y34094D01*
X24065Y34160D01*
Y34814D01*
X23726D01*
X23626Y34914D01*
X23408Y35004D01*
X23008D01*
X22968Y35073D01*
X23008Y35142D01*
X25003D01*
X25081Y35174D01*
X25407D01*
Y35774D01*
X25047D01*
X25027Y35782D01*
X25006Y35774D01*
X24647D01*
Y35758D01*
X22915D01*
Y35810D01*
X22085D01*
Y35758D01*
X21700D01*
X21700Y35758D01*
X21650Y35738D01*
X21600Y35758D01*
X21045D01*
Y35845D01*
D02*
G37*
G36*
X30265Y31480D02*
X29835D01*
X29620Y31265D01*
Y30835D01*
X29835Y30620D01*
X30265D01*
X30480Y30835D01*
Y31265D01*
X30265Y31480D01*
D02*
G37*
G36*
Y32480D02*
X29835D01*
X29620Y32265D01*
Y31835D01*
X29835Y31620D01*
X30265D01*
X30480Y31835D01*
Y32265D01*
X30265Y32480D01*
D02*
G37*
G36*
X11265D02*
X10835D01*
X10620Y32265D01*
Y31835D01*
X10835Y31620D01*
X11265D01*
X11480Y31835D01*
Y32265D01*
X11265Y32480D01*
D02*
G37*
G36*
X30000Y26000D02*
X29620D01*
Y25835D01*
X29835Y25620D01*
X30000D01*
Y26000D01*
D02*
G37*
G36*
X30265Y25480D02*
X29835D01*
X29620Y25265D01*
Y24835D01*
X29835Y24620D01*
X30265D01*
X30480Y24835D01*
Y25265D01*
X30265Y25480D01*
D02*
G37*
G36*
X30480Y26000D02*
X30100D01*
Y25620D01*
X30265D01*
X30480Y25835D01*
Y26000D01*
D02*
G37*
G36*
X30000Y26480D02*
X29835D01*
X29620Y26265D01*
Y26100D01*
X30000D01*
Y26480D01*
D02*
G37*
G36*
X11265Y26880D02*
X10835D01*
X10620Y26665D01*
Y26235D01*
X10835Y26020D01*
X11265D01*
X11480Y26235D01*
Y26665D01*
X11265Y26880D01*
D02*
G37*
G36*
X30265Y24480D02*
X29835D01*
X29620Y24265D01*
Y23835D01*
X29835Y23620D01*
X30265D01*
X30480Y23835D01*
Y24265D01*
X30265Y24480D01*
D02*
G37*
G36*
Y30480D02*
X29835D01*
X29620Y30265D01*
Y30056D01*
X28632Y29068D01*
X28542Y28850D01*
Y25378D01*
X27432Y24268D01*
X27342Y24050D01*
Y23770D01*
X27271Y23600D01*
X27382Y23332D01*
X27650Y23221D01*
X27918Y23332D01*
X28029Y23600D01*
X27958Y23770D01*
Y23922D01*
X29068Y25032D01*
X29158Y25250D01*
Y28722D01*
X30056Y29620D01*
X30265D01*
X30480Y29835D01*
Y30265D01*
X30265Y30480D01*
D02*
G37*
G36*
X23150Y24828D02*
X22847Y24703D01*
X22722Y24400D01*
X22847Y24097D01*
X23150Y23972D01*
X23453Y24097D01*
X23578Y24400D01*
X23453Y24703D01*
X23150Y24828D01*
D02*
G37*
G36*
X16900Y24420D02*
Y24250D01*
X17385D01*
Y24420D01*
X16900D01*
D02*
G37*
G36*
X11265Y24880D02*
X10835D01*
X10620Y24665D01*
Y24235D01*
X10835Y24020D01*
X11265D01*
X11480Y24235D01*
Y24665D01*
X11265Y24880D01*
D02*
G37*
G36*
Y28480D02*
X10835D01*
X10620Y28265D01*
Y27835D01*
X10835Y27620D01*
X11265D01*
X11480Y27835D01*
Y28265D01*
X11265Y28480D01*
D02*
G37*
G36*
X30265Y27480D02*
X30100D01*
Y27100D01*
X30480D01*
Y27265D01*
X30265Y27480D01*
D02*
G37*
G36*
X30000D02*
X29835D01*
X29620Y27265D01*
Y27100D01*
X30000D01*
Y27480D01*
D02*
G37*
G36*
X18550Y28250D02*
X18242D01*
X18332Y28032D01*
X18550Y27942D01*
Y28250D01*
D02*
G37*
G36*
X20410Y28185D02*
X20300D01*
Y27850D01*
X20410D01*
Y28185D01*
D02*
G37*
G36*
X30265Y28480D02*
X29835D01*
X29620Y28265D01*
Y27835D01*
X29835Y27620D01*
X30265D01*
X30480Y27835D01*
Y28265D01*
X30265Y28480D01*
D02*
G37*
G36*
Y26480D02*
X30100D01*
Y26100D01*
X30480D01*
Y26265D01*
X30265Y26480D01*
D02*
G37*
G36*
X14750Y27729D02*
X14482Y27618D01*
X14412Y27448D01*
X13719Y26755D01*
X13628Y26537D01*
Y26512D01*
X13265D01*
Y26564D01*
X12435D01*
Y25910D01*
X12435Y25844D01*
X12400Y25758D01*
X11387D01*
X11265Y25880D01*
X10835D01*
X10620Y25665D01*
Y25235D01*
X10835Y25020D01*
X11265D01*
X11387Y25142D01*
X12435D01*
Y25090D01*
X13265D01*
Y25142D01*
X13587D01*
Y25120D01*
X13946D01*
X13967Y25112D01*
X13987Y25120D01*
X14232D01*
X14250Y25027D01*
X14089Y24961D01*
X14089Y24961D01*
X13504Y24376D01*
X13500Y24377D01*
X12785D01*
X12768Y24418D01*
X12500Y24529D01*
X12232Y24418D01*
X12121Y24150D01*
X12232Y23882D01*
X12500Y23771D01*
X12768Y23882D01*
X12785Y23923D01*
X13429D01*
X13550Y23873D01*
X13711Y23939D01*
X14161Y24390D01*
X14261Y24348D01*
Y24020D01*
X14261Y23980D01*
Y23950D01*
Y23920D01*
X14261Y23880D01*
Y23520D01*
X14261Y23480D01*
Y23450D01*
Y23420D01*
X14261Y23380D01*
Y23020D01*
X14261Y22980D01*
Y22950D01*
Y22920D01*
X14261Y22880D01*
Y22520D01*
X14261Y22480D01*
Y22450D01*
Y22420D01*
X14261Y22380D01*
Y22027D01*
X14261Y21980D01*
X14183Y21927D01*
X14183Y21927D01*
X14035D01*
X14018Y21968D01*
X13750Y22079D01*
X13482Y21968D01*
X13371Y21700D01*
X13482Y21432D01*
X13750Y21321D01*
X14018Y21432D01*
X14035Y21473D01*
X14183D01*
X14261Y21420D01*
X14261Y21373D01*
Y21027D01*
X14261Y20980D01*
X14183Y20927D01*
X14183Y20927D01*
X14050D01*
X13889Y20861D01*
X13589Y20561D01*
X13523Y20400D01*
Y16280D01*
X13510D01*
X13270Y16040D01*
Y15560D01*
X13510Y15320D01*
X13990D01*
X14134Y15464D01*
X15340D01*
X15390Y15393D01*
X15401Y15364D01*
X15392Y15343D01*
Y13000D01*
X15423Y12923D01*
X15500Y12892D01*
X18500D01*
X18542Y12864D01*
Y12758D01*
X17500D01*
X17423Y12727D01*
X17392Y12650D01*
Y11200D01*
X17423Y11123D01*
X17500Y11092D01*
X19500D01*
X19577Y11123D01*
X19679Y11109D01*
X19721Y11092D01*
X19721Y11092D01*
X23750D01*
X23827Y11123D01*
X23858Y11200D01*
Y11561D01*
X24346D01*
X24614Y11672D01*
X26119Y13177D01*
X26197Y13209D01*
X26253Y13344D01*
X26353D01*
X26409Y13209D01*
X26650Y13109D01*
Y13500D01*
Y13891D01*
X26409Y13791D01*
X26385Y13733D01*
X26285Y13753D01*
Y14349D01*
X26657Y14721D01*
X28293D01*
X28521Y14493D01*
Y13578D01*
X28489Y13500D01*
X28609Y13209D01*
X28900Y13089D01*
X29191Y13209D01*
X29247Y13344D01*
X29347D01*
X29403Y13209D01*
X29644Y13109D01*
Y13500D01*
Y13891D01*
X29403Y13791D01*
X29379Y13733D01*
X29279Y13753D01*
Y14650D01*
X29168Y14918D01*
X28718Y15368D01*
X28450Y15479D01*
X26500D01*
X26315Y15402D01*
X26215Y15469D01*
Y15910D01*
X26277D01*
Y16590D01*
X25597D01*
Y15910D01*
X25598D01*
Y14676D01*
X25527Y14506D01*
Y13657D01*
X24189Y12319D01*
X23929D01*
X23858Y12390D01*
Y12579D01*
X23827Y12656D01*
X23827Y12656D01*
X23756Y12727D01*
X23679Y12758D01*
X23679Y12758D01*
X22842D01*
X22810Y12745D01*
X22776Y12736D01*
X22772Y12729D01*
X22766Y12727D01*
X22752Y12694D01*
X22735Y12664D01*
X22723Y12569D01*
X22628Y12555D01*
X22272D01*
X22177Y12569D01*
X22165Y12664D01*
X22148Y12694D01*
X22134Y12727D01*
X22128Y12729D01*
X22124Y12736D01*
X22090Y12745D01*
X22058Y12758D01*
X20645D01*
X20577Y12827D01*
Y12827D01*
X20544Y12840D01*
X20564Y12940D01*
X20580D01*
X20600D01*
X20620D01*
X20680Y12940D01*
X21080D01*
Y13940D01*
X20680D01*
X20620Y13940D01*
X20600D01*
X20580D01*
X20520Y13940D01*
X20180D01*
X20120Y13940D01*
X20100D01*
X20080D01*
X20020Y13940D01*
X19620D01*
Y13940D01*
X19580D01*
Y13940D01*
X19120D01*
Y13608D01*
X18650D01*
X18608Y13636D01*
Y14750D01*
X18577Y14827D01*
X18500Y14858D01*
X17108D01*
Y15343D01*
X17096Y15373D01*
X17088Y15406D01*
X17033Y15483D01*
X17025Y15488D01*
X17022Y15497D01*
X16991Y15509D01*
X16963Y15527D01*
X16945Y15623D01*
Y16180D01*
X15555D01*
Y16136D01*
X14134D01*
X13990Y16280D01*
X13977D01*
Y20306D01*
X14144Y20473D01*
X14796D01*
X14814Y20480D01*
X15331D01*
Y20880D01*
X15331Y20920D01*
Y20950D01*
Y20980D01*
X15331Y21020D01*
Y21380D01*
X15331Y21420D01*
Y21450D01*
Y21480D01*
X15331Y21520D01*
Y21880D01*
X15331Y21920D01*
Y21950D01*
Y21980D01*
X15331Y22020D01*
Y22380D01*
X15331Y22420D01*
Y22450D01*
Y22480D01*
X15331Y22520D01*
Y22880D01*
X15331Y22920D01*
Y22950D01*
Y22980D01*
X15331Y23020D01*
Y23188D01*
X15431Y23208D01*
X15439Y23189D01*
X15823Y22806D01*
Y21350D01*
X15889Y21189D01*
X16039Y21039D01*
X16200Y20973D01*
X16237D01*
X16315Y20920D01*
X16315Y20873D01*
Y20750D01*
X17385D01*
Y20880D01*
X17385Y20920D01*
Y20950D01*
Y20980D01*
X17385Y21020D01*
Y21373D01*
X17385Y21402D01*
X17468Y21460D01*
X17839Y21089D01*
X18000Y21023D01*
X21595D01*
X21632Y20932D01*
X21900Y20821D01*
X22168Y20932D01*
X22279Y21200D01*
X22168Y21468D01*
X21900Y21579D01*
X21655Y21477D01*
X18094D01*
X17891Y21680D01*
X17893Y21690D01*
X17940Y21773D01*
X20100D01*
X20261Y21839D01*
X21594Y23173D01*
X21816D01*
X21847Y23097D01*
X22150Y22972D01*
X22453Y23097D01*
X22578Y23400D01*
X22453Y23703D01*
X22150Y23828D01*
X21963Y23751D01*
X21907Y23835D01*
X22075Y24003D01*
X22150Y23972D01*
X22453Y24097D01*
X22578Y24400D01*
X22453Y24703D01*
X22150Y24828D01*
X21847Y24703D01*
X21722Y24400D01*
X21753Y24325D01*
X21456Y24027D01*
X21171D01*
X21130Y24127D01*
X22026Y25023D01*
X22150Y24972D01*
X22453Y25097D01*
X22578Y25400D01*
X22453Y25703D01*
X22150Y25828D01*
X21847Y25703D01*
X21722Y25400D01*
X21773Y25276D01*
X20876Y24379D01*
X20095D01*
X20037Y24479D01*
X20129Y24700D01*
X20018Y24968D01*
X20011Y24994D01*
X20040Y25039D01*
X20167Y25054D01*
X20235Y24985D01*
X20336Y24943D01*
X20382Y24832D01*
X20650Y24721D01*
X20918Y24832D01*
X21029Y25100D01*
X20918Y25368D01*
X20650Y25479D01*
X20382Y25368D01*
X20323Y25356D01*
X20212Y25467D01*
Y25615D01*
X20410D01*
Y25716D01*
X20510Y25736D01*
X20532Y25682D01*
X20800Y25571D01*
X21068Y25682D01*
X21179Y25950D01*
X21068Y26218D01*
X20800Y26329D01*
X20532Y26218D01*
X20429Y26230D01*
X20410Y26249D01*
Y26385D01*
X20495Y26421D01*
X21708D01*
X21722Y26400D01*
X21847Y26097D01*
X22150Y25972D01*
X22453Y26097D01*
X22578Y26400D01*
X22453Y26703D01*
X22150Y26828D01*
X21991Y26762D01*
X21950Y26779D01*
X19450D01*
X19324Y26726D01*
X19271Y26600D01*
Y26000D01*
X19290Y25955D01*
Y25615D01*
X19290Y25615D01*
X19290D01*
X19326Y25528D01*
X18974Y25176D01*
X18921Y25050D01*
Y24450D01*
X18974Y24324D01*
X19224Y24074D01*
X19224Y24074D01*
X19350Y24021D01*
X20359D01*
X20400Y23921D01*
X19906Y23427D01*
X19231D01*
X19165Y23527D01*
X19241Y23712D01*
X19130Y23980D01*
X18863Y24091D01*
X18595Y23980D01*
X18573Y23927D01*
X17463D01*
X17385Y23980D01*
X17385Y24027D01*
Y24150D01*
X16850D01*
Y24200D01*
X16800D01*
Y24420D01*
X16373D01*
X16315Y24420D01*
X16273Y24503D01*
Y24503D01*
Y25313D01*
X16373Y25385D01*
X16406D01*
X16423D01*
X16440D01*
X16506Y25385D01*
X17160D01*
Y25724D01*
X17548Y26112D01*
X17718Y26182D01*
X17829Y26450D01*
X17718Y26718D01*
X17450Y26829D01*
X17182Y26718D01*
X17112Y26548D01*
X16779Y26215D01*
X16506D01*
X16440Y26215D01*
X16423D01*
X16406D01*
X16340Y26215D01*
X15686D01*
Y26027D01*
X15220D01*
Y26100D01*
X14460D01*
Y25500D01*
X15220D01*
Y25573D01*
X15686D01*
Y25385D01*
X15819D01*
Y25033D01*
X15719Y24978D01*
X15600Y25027D01*
X14365D01*
X14347Y25120D01*
X14347Y25127D01*
Y25720D01*
X14030D01*
X13937Y25758D01*
X13358D01*
X13318Y25827D01*
X13358Y25896D01*
X13587D01*
Y25874D01*
X14347D01*
Y26474D01*
X14347Y26474D01*
X14347D01*
X14391Y26555D01*
X14848Y27012D01*
X15018Y27082D01*
X15129Y27350D01*
X15018Y27618D01*
X14750Y27729D01*
D02*
G37*
G36*
X30480Y27000D02*
X30100D01*
Y26620D01*
X30265D01*
X30480Y26835D01*
Y27000D01*
D02*
G37*
G36*
X30000D02*
X29620D01*
Y26835D01*
X29835Y26620D01*
X30000D01*
Y27000D01*
D02*
G37*
%LPD*%
G36*
X19120Y13490D02*
X19350D01*
Y13440D01*
X19400D01*
Y12940D01*
X19500D01*
Y12565D01*
X19246D01*
Y12150D01*
Y11735D01*
X19500D01*
Y11200D01*
X17500D01*
Y12650D01*
X18600D01*
X18650Y12700D01*
Y13500D01*
X19120D01*
Y13490D01*
D02*
G37*
G36*
X19900Y12940D02*
X20000D01*
Y12750D01*
X20500D01*
X20600Y12650D01*
X22058D01*
X22070Y12555D01*
X22070Y12550D01*
Y11990D01*
X22830D01*
Y12550D01*
X22830Y12555D01*
X22842Y12650D01*
X23679D01*
X23750Y12579D01*
X23750Y11200D01*
X19721D01*
X19650Y11271D01*
Y11735D01*
X19900D01*
Y12150D01*
Y12565D01*
X19752D01*
X19685Y12665D01*
X19700Y12700D01*
Y12940D01*
X19800D01*
Y13440D01*
X19900D01*
Y12940D01*
D02*
G37*
G36*
X16300Y15420D02*
X16945D01*
X17000Y15343D01*
Y14750D01*
X18500D01*
Y13000D01*
X15500D01*
Y15343D01*
X15555Y15420D01*
X16200D01*
Y15800D01*
X16300D01*
Y15420D01*
D02*
G37*
%LPC*%
G36*
X19146Y12100D02*
X18836D01*
Y11735D01*
X19146D01*
Y12100D01*
D02*
G37*
G36*
X20310D02*
X20000D01*
Y11735D01*
X20310D01*
Y12100D01*
D02*
G37*
G36*
X18000Y12070D02*
X17810D01*
Y11780D01*
X18000D01*
Y12070D01*
D02*
G37*
G36*
X22830Y11890D02*
X22500D01*
Y11325D01*
X22830D01*
Y11890D01*
D02*
G37*
G36*
X18290Y13918D02*
X18100D01*
Y13628D01*
X18290D01*
Y13918D01*
D02*
G37*
G36*
X18000D02*
X17810D01*
Y13628D01*
X18000D01*
Y13918D01*
D02*
G37*
G36*
X22400Y11890D02*
X22070D01*
Y11325D01*
X22400D01*
Y11890D01*
D02*
G37*
G36*
X19300Y13390D02*
X19120D01*
Y12940D01*
X19300D01*
Y13390D01*
D02*
G37*
G36*
X20310Y12565D02*
X20000D01*
Y12200D01*
X20310D01*
Y12565D01*
D02*
G37*
G36*
X18000Y13528D02*
X17810D01*
Y13238D01*
X18000D01*
Y13528D01*
D02*
G37*
G36*
X18290D02*
X18100D01*
Y13238D01*
X18290D01*
Y13528D01*
D02*
G37*
G36*
X18000Y12460D02*
X17810D01*
Y12170D01*
X18000D01*
Y12460D01*
D02*
G37*
G36*
X18290Y12070D02*
X18100D01*
Y11780D01*
X18290D01*
Y12070D01*
D02*
G37*
G36*
X19146Y12565D02*
X18836D01*
Y12200D01*
X19146D01*
Y12565D01*
D02*
G37*
G36*
X18290Y12460D02*
X18100D01*
Y12170D01*
X18290D01*
Y12460D01*
D02*
G37*
%LPD*%
D10*
X25350Y27800D02*
D03*
X25150D02*
D03*
X24950D02*
D03*
X24750D02*
D03*
X24550D02*
D03*
Y26000D02*
D03*
X24950D02*
D03*
X24750D02*
D03*
X25150D02*
D03*
X25350D02*
D03*
X20250Y27800D02*
D03*
X20050D02*
D03*
X19850D02*
D03*
X19650D02*
D03*
X19450D02*
D03*
Y26000D02*
D03*
X19850D02*
D03*
X19650D02*
D03*
X20050D02*
D03*
X20250D02*
D03*
D11*
X16850Y21200D02*
D03*
X14796Y22200D02*
D03*
X16850Y20700D02*
D03*
Y21700D02*
D03*
Y22200D02*
D03*
X14796Y21700D02*
D03*
Y22700D02*
D03*
Y23200D02*
D03*
X16850D02*
D03*
X14796Y24200D02*
D03*
X16850Y22700D02*
D03*
Y23700D02*
D03*
X14796D02*
D03*
X16850Y24200D02*
D03*
X14796Y21200D02*
D03*
Y20700D02*
D03*
D12*
X12850Y26204D02*
D03*
Y25450D02*
D03*
X19850Y18126D02*
D03*
Y18880D02*
D03*
X23650Y34454D02*
D03*
Y33700D02*
D03*
X22500Y34696D02*
D03*
Y35450D02*
D03*
X26953Y33300D02*
D03*
Y34054D02*
D03*
X26950Y35076D02*
D03*
Y35830D02*
D03*
D13*
X13967Y26174D02*
D03*
Y25420D02*
D03*
X14840Y25800D02*
D03*
X25883Y33326D02*
D03*
Y34080D02*
D03*
X25010Y33700D02*
D03*
X25900Y35100D02*
D03*
Y35854D02*
D03*
X25027Y35474D02*
D03*
D14*
X26770Y19050D02*
D03*
X25937D02*
D03*
X26770Y19975D02*
D03*
X25937D02*
D03*
X26770Y18125D02*
D03*
X25937D02*
D03*
X26770Y17200D02*
D03*
X25937D02*
D03*
X26770Y16250D02*
D03*
X25937D02*
D03*
D15*
X19950Y12150D02*
D03*
X19196D02*
D03*
X18126Y18100D02*
D03*
X18880D02*
D03*
X21600Y17250D02*
D03*
X20846D02*
D03*
X16800Y25800D02*
D03*
X16046D02*
D03*
X29404Y18100D02*
D03*
X28650D02*
D03*
X29404Y19025D02*
D03*
X28650D02*
D03*
X29404Y19950D02*
D03*
X28650D02*
D03*
X29404Y16250D02*
D03*
X28650D02*
D03*
X29404Y17175D02*
D03*
X28650D02*
D03*
D16*
X18050Y12120D02*
D03*
Y13578D02*
D03*
D17*
X19350Y13440D02*
D03*
Y15860D02*
D03*
X19850Y13440D02*
D03*
X20350D02*
D03*
X19850Y15860D02*
D03*
X20350D02*
D03*
X20850Y13440D02*
D03*
Y15860D02*
D03*
D18*
X22450Y13557D02*
D03*
Y11940D02*
D03*
D19*
X18145Y15800D02*
D03*
X16250D02*
D03*
D20*
X21950Y16250D02*
D03*
Y15575D02*
D03*
D21*
X25906Y16220D02*
X25937Y16250D01*
X26770Y19975D02*
X28625D01*
X28650Y19950D01*
X26770Y19050D02*
X28625D01*
X28650Y19025D01*
X26770Y18125D02*
X28625D01*
X28650Y18100D01*
X26770Y17200D02*
X28625D01*
X28650Y17175D01*
X26770Y16250D02*
X28650D01*
X29404Y19025D02*
Y19950D01*
Y18100D02*
Y19025D01*
Y17175D02*
Y18100D01*
Y16250D02*
Y17175D01*
Y16250D02*
X29694Y15960D01*
Y13500D02*
Y15960D01*
X23150Y29400D02*
X24100D01*
X25010Y30310D01*
Y33700D01*
X21550Y30400D02*
X22150D01*
X21000Y30950D02*
X21550Y30400D01*
X21000Y30950D02*
Y33350D01*
X21650Y34000D01*
Y35400D01*
X21700Y35450D01*
X22500D01*
X20650D02*
X21600D01*
X21650Y35400D01*
X22500Y34696D02*
X23408D01*
X23650Y34454D01*
Y33700D02*
X25010D01*
X22500Y35450D02*
X25003D01*
X25027Y35474D01*
X25900Y35854D02*
X26926D01*
X26950Y35830D01*
X27820D01*
X28600Y35050D01*
X30050D01*
X28600Y34050D02*
X30050D01*
X25883Y34080D02*
X26927D01*
X26953Y34054D01*
X28596D01*
X28600Y34050D01*
X25883Y33326D02*
X26927D01*
X26953Y33300D01*
X25900Y35100D02*
X26926D01*
X26950Y35076D01*
X27424D01*
X27700Y34800D01*
X26953Y32853D02*
Y33300D01*
Y32853D02*
X27206Y32600D01*
X27700D01*
X22500Y32700D02*
Y34696D01*
Y32700D02*
X23150Y32050D01*
Y31400D02*
Y32050D01*
X22150Y31400D02*
X23150D01*
X11050Y25450D02*
X12850D01*
X13937D01*
X13967Y25420D01*
X12850Y26204D02*
X13937D01*
X16800Y25800D02*
X17450Y26450D01*
X13937Y26537D02*
X14750Y27350D01*
X13937Y26204D02*
Y26537D01*
X27650Y23600D02*
Y24050D01*
X28850Y25250D01*
Y28850D01*
X30050Y30050D01*
X20850Y15860D02*
Y17246D01*
X20846Y17250D02*
X20850Y17246D01*
X19850Y17100D02*
X20350Y16600D01*
Y15860D02*
Y16600D01*
X19850Y17100D02*
Y18126D01*
X18880Y18100D02*
X19824D01*
X19850Y18126D01*
X19100Y19800D02*
X19850Y19050D01*
Y18880D02*
Y19050D01*
X22150Y30400D02*
X23150D01*
X22150Y29400D02*
X23150D01*
X23950Y18150D02*
X25912D01*
X25937Y18125D01*
X25906Y14506D02*
Y16220D01*
X19100Y19800D02*
X20000Y18900D01*
X22850D01*
X23925Y19975D01*
X25937D01*
X23650Y33000D02*
Y33700D01*
D22*
X19450Y27150D02*
Y27800D01*
Y27150D02*
X21900D01*
X22150Y27400D01*
X19450Y26000D02*
Y26600D01*
X21950D01*
X22150Y26400D01*
X24300Y27800D02*
X24550D01*
X23900Y27400D02*
X24300Y27800D01*
X23150Y27400D02*
X23900D01*
X24750Y27800D02*
Y28300D01*
X24650Y28400D02*
X24750Y28300D01*
X23150Y28400D02*
X24650D01*
X24250Y26000D02*
X24550D01*
X23150Y26400D02*
X23850D01*
X24750Y25450D02*
Y26000D01*
X24700Y25400D02*
X24750Y25450D01*
X23150Y25400D02*
X24700D01*
X19650Y25600D02*
Y26000D01*
X19100Y25050D02*
X19650Y25600D01*
X19100Y24450D02*
Y25050D01*
Y24450D02*
X19350Y24200D01*
X20950D02*
X22150Y25400D01*
X20250Y26000D02*
X20750D01*
X20800Y25950D01*
X19350Y24200D02*
X20950D01*
X25350Y26000D02*
X25850D01*
X23850Y26400D02*
X24250Y26000D01*
X25850D02*
X25950Y25900D01*
X26750Y24800D02*
Y25350D01*
X26450Y25650D02*
X26750Y25350D01*
X19400Y28500D02*
X19650Y28250D01*
X19400Y28500D02*
Y28900D01*
X19650Y27800D02*
Y28250D01*
X19400Y28900D02*
X20050Y29550D01*
X21000D01*
X22150Y28400D01*
X16850Y24200D02*
X18700Y26050D01*
Y28200D01*
X18600Y28300D02*
X18700Y28200D01*
D23*
X20050Y25400D02*
Y26000D01*
Y25400D02*
X20350Y25100D01*
X20650D01*
X26100Y25300D02*
X26450Y25650D01*
X25100Y29400D02*
X26450Y28050D01*
Y25650D02*
Y28050D01*
X24100Y29400D02*
X25100D01*
X19750Y24700D02*
Y25050D01*
X19850Y25150D01*
Y26000D01*
X25350Y27000D02*
Y27800D01*
X24950Y26600D02*
X25350Y27000D01*
X24950Y26000D02*
Y26600D01*
X25150Y25300D02*
X26100D01*
X25150D02*
Y26000D01*
X25650Y22200D02*
Y24040D01*
X24950Y24740D02*
Y26000D01*
Y24740D02*
X25650Y24040D01*
X25937Y19975D02*
X26000Y20038D01*
Y21850D01*
X25650Y22200D02*
X26000Y21850D01*
X20250Y28400D02*
X20260Y28390D01*
X19850Y27800D02*
Y28500D01*
X20250Y28900D01*
Y28400D02*
Y28900D01*
X20260Y27800D02*
Y28390D01*
X31050Y10070D02*
Y11570D01*
X31040Y10060D02*
X31050Y10070D01*
X25670Y10060D02*
X31040D01*
X10050Y10050D02*
X24690D01*
X31050Y11570D02*
Y36050D01*
X24700Y10060D02*
X25670D01*
X11660Y37060D02*
X30040D01*
X30500Y36600D01*
X31050Y36050D01*
X10050Y10050D02*
Y35450D01*
X11660Y37060D01*
D24*
X13750Y15800D02*
X16250D01*
D25*
X14840Y25800D02*
X16046D01*
X16050Y23700D02*
X16850D01*
Y23200D02*
X20000D01*
X20600Y23800D01*
X21550D01*
X22150Y24400D01*
X21500Y23400D02*
X22150D01*
X17713Y22200D02*
X17912Y22000D01*
X16850Y22200D02*
X17713D01*
X17912Y22000D02*
X20100D01*
X21500Y23400D01*
X16850Y22700D02*
X19600D01*
X19700Y22600D01*
X16850Y21700D02*
X17550D01*
X18000Y21250D01*
X21850D01*
X21900Y21200D01*
X16046Y23704D02*
X16050Y23700D01*
X16046Y23704D02*
Y25800D01*
X16200Y21200D02*
X16850D01*
X16050Y21350D02*
X16200Y21200D01*
X16050Y21350D02*
Y22900D01*
X15600Y23350D02*
X16050Y22900D01*
X15600Y23350D02*
Y24800D01*
X14250D02*
X15600D01*
X13750Y21700D02*
X14796D01*
X24100Y17200D02*
X25937D01*
X14050Y20700D02*
X14796D01*
X13750Y20400D02*
X14050Y20700D01*
X13750Y15800D02*
Y20400D01*
X19850Y15860D02*
Y16350D01*
X18900Y17300D02*
X19850Y16350D01*
X16200Y17300D02*
X18900D01*
X15700Y17800D02*
X16200Y17300D01*
X15700Y17800D02*
Y19150D01*
X13550Y24100D02*
X14250Y24800D01*
X13500Y24150D02*
X13550Y24100D01*
X12500Y24150D02*
X13500D01*
X18850Y23700D02*
X18863Y23712D01*
X16850Y23700D02*
X18850D01*
D26*
X22150Y22400D02*
X23150D01*
X22450Y11940D02*
X24346D01*
X25906Y13500D01*
X21600Y16600D02*
Y17250D01*
Y16600D02*
X21950Y16250D01*
X16322Y13578D02*
X18050D01*
X16250Y13650D02*
X16322Y13578D01*
X16250Y13650D02*
Y15800D01*
X25906Y13500D02*
Y14506D01*
X26500Y15100D01*
X28450D01*
X28900Y14650D01*
Y13500D02*
Y14650D01*
X19950Y12150D02*
X21400D01*
X21610Y11940D01*
X22450D01*
X18050Y12120D02*
X19166D01*
X19196Y12150D01*
D27*
X23950Y19050D02*
X25937D01*
X19350Y12304D02*
Y13440D01*
X19196Y12150D02*
X19350Y12304D01*
X19850Y12250D02*
Y13440D01*
Y12250D02*
X19950Y12150D01*
D28*
X31050Y16410D02*
Y36050D01*
X10050Y10050D02*
X22080D01*
X16150Y37050D02*
X29050D01*
X10050Y35450D02*
X10650Y36050D01*
X10050Y10050D02*
Y35450D01*
D29*
X25906Y13500D02*
D03*
X26700D02*
D03*
X28900D02*
D03*
X29694D02*
D03*
D30*
X11050Y31050D02*
D03*
X30050Y30050D02*
D03*
X11050Y32050D02*
D03*
Y33050D02*
D03*
Y34050D02*
D03*
Y35050D02*
D03*
Y30050D02*
D03*
Y29050D02*
D03*
Y28050D02*
D03*
Y26450D02*
D03*
Y25450D02*
D03*
Y24450D02*
D03*
Y23450D02*
D03*
Y22450D02*
D03*
Y21450D02*
D03*
Y20450D02*
D03*
Y19450D02*
D03*
X30050Y31050D02*
D03*
Y32050D02*
D03*
Y33050D02*
D03*
Y34050D02*
D03*
Y35050D02*
D03*
Y28050D02*
D03*
Y27050D02*
D03*
Y26050D02*
D03*
Y25050D02*
D03*
Y24050D02*
D03*
Y23050D02*
D03*
D31*
X28600Y34050D02*
D03*
X20650Y34450D02*
D03*
X23150Y22400D02*
D03*
X22150D02*
D03*
X23150Y23400D02*
D03*
X22150D02*
D03*
X23150Y24400D02*
D03*
X22150D02*
D03*
X23150Y25400D02*
D03*
X22150D02*
D03*
X23150Y26400D02*
D03*
X22150D02*
D03*
X23150Y27400D02*
D03*
X22150D02*
D03*
X23150Y28400D02*
D03*
X22150D02*
D03*
X23150Y29400D02*
D03*
X22150D02*
D03*
X23150Y30400D02*
D03*
X22150D02*
D03*
X23150Y31400D02*
D03*
D32*
X28600Y35050D02*
D03*
X20650Y35450D02*
D03*
X22150Y31400D02*
D03*
D33*
X13750Y15800D02*
D03*
D34*
X19750Y24700D02*
D03*
X20800Y25950D02*
D03*
X20650Y25100D02*
D03*
X27700Y34800D02*
D03*
Y32600D02*
D03*
X25950Y25900D02*
D03*
X17450Y26450D02*
D03*
X19700Y22600D02*
D03*
X21900Y21200D02*
D03*
X14750Y27350D02*
D03*
X27650Y23600D02*
D03*
X13750Y21700D02*
D03*
X24100Y17200D02*
D03*
X19100Y19800D02*
D03*
X15700Y19150D02*
D03*
X23950Y19050D02*
D03*
Y18150D02*
D03*
X26750Y24800D02*
D03*
X20250Y28900D02*
D03*
X18600Y28300D02*
D03*
X12500Y24150D02*
D03*
X23650Y33000D02*
D03*
X18863Y23712D02*
D03*
M02*
