%FSLAX24Y24*%
%MOIN*%
G70*
G01*
G75*
%ADD10R,0.0120X0.0570*%
%ADD11R,0.0280X0.0360*%
%ADD12R,0.0520X0.0600*%
%ADD13R,0.0100X0.0400*%
%ADD14R,0.0240X0.0870*%
%ADD15R,0.0520X0.0630*%
%ADD16R,0.0360X0.0280*%
%ADD17R,0.0480X0.0280*%
%ADD18R,0.0280X0.0480*%
%ADD19R,0.0800X0.0260*%
%ADD20R,0.0260X0.0800*%
%ADD21R,0.0630X0.0520*%
%ADD22R,0.0600X0.0520*%
%ADD23C,0.0120*%
%ADD24C,0.0150*%
%ADD25C,0.1500*%
%ADD26C,0.1400*%
G04:AMPARAMS|DCode=27|XSize=70mil|YSize=70mil|CornerRadius=0mil|HoleSize=0mil|Usage=FLASHONLY|Rotation=0.000|XOffset=0mil|YOffset=0mil|HoleType=Round|Shape=Octagon|*
%AMOCTAGOND27*
4,1,8,0.0350,-0.0175,0.0350,0.0175,0.0175,0.0350,-0.0175,0.0350,-0.0350,0.0175,-0.0350,-0.0175,-0.0175,-0.0350,0.0175,-0.0350,0.0350,-0.0175,0.0*
%
%ADD27OCTAGOND27*%

G04:AMPARAMS|DCode=28|XSize=70mil|YSize=70mil|CornerRadius=0mil|HoleSize=0mil|Usage=FLASHONLY|Rotation=90.000|XOffset=0mil|YOffset=0mil|HoleType=Round|Shape=Octagon|*
%AMOCTAGOND28*
4,1,8,0.0175,0.0350,-0.0175,0.0350,-0.0350,0.0175,-0.0350,-0.0175,-0.0175,-0.0350,0.0175,-0.0350,0.0350,-0.0175,0.0350,0.0175,0.0175,0.0350,0.0*
%
%ADD28OCTAGOND28*%

G04:AMPARAMS|DCode=29|XSize=60mil|YSize=60mil|CornerRadius=0mil|HoleSize=0mil|Usage=FLASHONLY|Rotation=0.000|XOffset=0mil|YOffset=0mil|HoleType=Round|Shape=Octagon|*
%AMOCTAGOND29*
4,1,8,0.0300,-0.0150,0.0300,0.0150,0.0150,0.0300,-0.0150,0.0300,-0.0300,0.0150,-0.0300,-0.0150,-0.0150,-0.0300,0.0150,-0.0300,0.0300,-0.0150,0.0*
%
%ADD29OCTAGOND29*%

%ADD30C,0.0560*%
G04:AMPARAMS|DCode=31|XSize=66mil|YSize=66mil|CornerRadius=0mil|HoleSize=0mil|Usage=FLASHONLY|Rotation=90.000|XOffset=0mil|YOffset=0mil|HoleType=Round|Shape=Octagon|*
%AMOCTAGOND31*
4,1,8,0.0165,0.0330,-0.0165,0.0330,-0.0330,0.0165,-0.0330,-0.0165,-0.0165,-0.0330,0.0165,-0.0330,0.0330,-0.0165,0.0330,0.0165,0.0165,0.0330,0.0*
%
%ADD31OCTAGOND31*%

%ADD32C,0.0500*%
%ADD33C,0.0100*%
%ADD34C,0.0080*%
%ADD35C,0.0060*%
%ADD36C,0.0050*%
%ADD37C,0.0020*%
%ADD38C,0.0034*%
D33*
X27700Y30250D02*
G03*
X27700Y30650I0J200D01*
G01*
X33600Y31550D02*
G03*
X33600Y31150I0J-200D01*
G01*
X17700Y37000D02*
X18300Y37600D01*
X17700Y11600D02*
Y37000D01*
X17700Y11600D02*
X17700Y11600D01*
X17700Y11600D02*
X33016D01*
Y15600D01*
X38700D01*
Y37600D01*
X38700Y37600D01*
X37700D02*
X38700D01*
X36700Y38600D02*
X37700Y37600D01*
X23800Y38600D02*
X36700D01*
X22800Y37600D02*
X23800Y38600D01*
X18300Y37600D02*
X22800D01*
X27700Y30250D02*
Y31250D01*
X28900D01*
Y30250D02*
Y31250D01*
X27700Y30250D02*
X28900D01*
X33600Y30550D02*
Y31550D01*
X32400Y30550D02*
X33600D01*
X32400D02*
Y31550D01*
X33600D01*
X30450Y27100D02*
Y26900D01*
Y27000D01*
X30950D01*
X31050Y26900D01*
Y26800D01*
X30950Y26700D01*
X31050Y27300D02*
X30450D01*
Y27600D01*
X30550Y27700D01*
X30750D01*
X30850Y27600D01*
Y27300D01*
X31050Y27900D02*
Y28100D01*
Y28000D01*
X30450D01*
X30550Y27900D01*
X31150Y28399D02*
Y28799D01*
X31050Y29399D02*
Y28999D01*
X30650Y29399D01*
X30550D01*
X30450Y29299D01*
Y29099D01*
X30550Y28999D01*
X31450Y36000D02*
X31250D01*
X31350D01*
Y35500D01*
X31250Y35400D01*
X31150D01*
X31050Y35500D01*
X31650Y35400D02*
Y36000D01*
X31950D01*
X32050Y35900D01*
Y35700D01*
X31950Y35600D01*
X31650D01*
X32250Y35400D02*
X32450D01*
X32350D01*
Y36000D01*
X32250Y35900D01*
X32749Y35300D02*
X33149D01*
X33349Y35400D02*
X33549D01*
X33449D01*
Y36000D01*
X33349Y35900D01*
X30700Y12500D02*
Y12300D01*
Y12400D01*
X31200D01*
X31300Y12300D01*
Y12200D01*
X31200Y12100D01*
X31300Y12700D02*
X30700D01*
Y13000D01*
X30800Y13100D01*
X31000D01*
X31100Y13000D01*
Y12700D01*
X31300Y13699D02*
Y13300D01*
X30900Y13699D01*
X30800D01*
X30700Y13600D01*
Y13400D01*
X30800Y13300D01*
X31400Y13899D02*
Y14299D01*
X31300Y14899D02*
Y14499D01*
X30900Y14899D01*
X30800D01*
X30700Y14799D01*
Y14599D01*
X30800Y14499D01*
X19550Y14900D02*
X19350D01*
X19450D01*
Y14400D01*
X19350Y14300D01*
X19250D01*
X19150Y14400D01*
X19750Y14300D02*
Y14900D01*
X20050D01*
X20150Y14800D01*
Y14600D01*
X20050Y14500D01*
X19750D01*
X20749Y14300D02*
X20350D01*
X20749Y14700D01*
Y14800D01*
X20650Y14900D01*
X20450D01*
X20350Y14800D01*
X20949Y14200D02*
X21349D01*
X21549Y14300D02*
X21749D01*
X21649D01*
Y14900D01*
X21549Y14800D01*
X33350Y25350D02*
X33250Y25450D01*
X33050D01*
X32950Y25350D01*
Y24950D01*
X33050Y24850D01*
X33250D01*
X33350Y24950D01*
X33950Y24850D02*
X33550D01*
X33950Y25250D01*
Y25350D01*
X33850Y25450D01*
X33650D01*
X33550Y25350D01*
X33550Y27200D02*
X33450Y27300D01*
X33250D01*
X33150Y27200D01*
Y26800D01*
X33250Y26700D01*
X33450D01*
X33550Y26800D01*
X33750Y26700D02*
X33950D01*
X33850D01*
Y27300D01*
X33750Y27200D01*
X26350Y25250D02*
Y25050D01*
Y25150D01*
X26850D01*
X26950Y25050D01*
Y24950D01*
X26850Y24850D01*
X26950Y25450D02*
X26350D01*
Y25750D01*
X26450Y25850D01*
X26650D01*
X26750Y25750D01*
Y25450D01*
X26950Y26449D02*
Y26050D01*
X26550Y26449D01*
X26450D01*
X26350Y26350D01*
Y26150D01*
X26450Y26050D01*
X21200Y25600D02*
Y25400D01*
Y25500D01*
X21700D01*
X21800Y25400D01*
Y25300D01*
X21700Y25200D01*
X21800Y25800D02*
X21200D01*
Y26100D01*
X21300Y26200D01*
X21500D01*
X21600Y26100D01*
Y25800D01*
X21800Y26400D02*
Y26600D01*
Y26500D01*
X21200D01*
X21300Y26400D01*
X33350Y29400D02*
Y29200D01*
Y29300D01*
X32750D01*
Y29400D01*
Y29200D01*
X33250Y28500D02*
X33350Y28600D01*
Y28800D01*
X33250Y28900D01*
X32850D01*
X32750Y28800D01*
Y28600D01*
X32850Y28500D01*
X32750Y28300D02*
Y28100D01*
Y28200D01*
X33350D01*
X33250Y28300D01*
X27950Y32350D02*
Y32550D01*
Y32450D01*
X28550D01*
Y32350D01*
Y32550D01*
X28050Y33250D02*
X27950Y33150D01*
Y32950D01*
X28050Y32850D01*
X28450D01*
X28550Y32950D01*
Y33150D01*
X28450Y33250D01*
X28550Y33850D02*
Y33450D01*
X28150Y33850D01*
X28050D01*
X27950Y33750D01*
Y33550D01*
X28050Y33450D01*
X30175Y25450D02*
X30075Y25550D01*
X29875D01*
X29775Y25450D01*
Y25050D01*
X29875Y24950D01*
X30075D01*
X30175Y25050D01*
X30374Y25450D02*
X30474Y25550D01*
X30674D01*
X30774Y25450D01*
Y25350D01*
X30674Y25250D01*
X30574D01*
X30674D01*
X30774Y25150D01*
Y25050D01*
X30674Y24950D01*
X30474D01*
X30374Y25050D01*
X36300Y30650D02*
Y30850D01*
Y30750D01*
X36900D01*
Y30650D01*
Y30850D01*
Y31550D02*
Y31150D01*
X36500Y31550D01*
X36400D01*
X36300Y31450D01*
Y31250D01*
X36400Y31150D01*
Y32150D02*
X36300Y32050D01*
Y31850D01*
X36400Y31750D01*
X36800D01*
X36900Y31850D01*
Y32050D01*
X36800Y32150D01*
X36900Y32349D02*
Y32549D01*
Y32449D01*
X36300D01*
X36400Y32349D01*
X21535Y16675D02*
X20935D01*
X21135Y16875D01*
X20935Y17075D01*
X21535D01*
X20935Y17275D02*
X21435D01*
X21535Y17375D01*
Y17575D01*
X21435Y17675D01*
X20935D01*
Y17875D02*
X21535Y18274D01*
X20935D02*
X21535Y17875D01*
Y18474D02*
Y18674D01*
Y18574D01*
X20935D01*
X21035Y18474D01*
X28650Y37800D02*
X28750Y37700D01*
X28950D01*
X29050Y37800D01*
Y38200D01*
X28950Y38300D01*
X28750D01*
X28650Y38200D01*
X28450Y38300D02*
Y37700D01*
X28050Y38300D01*
Y37700D01*
X27850Y38300D02*
X27650D01*
X27750D01*
Y37700D01*
X27850Y37800D01*
X21100Y36750D02*
Y37150D01*
X21000Y37250D01*
X20800D01*
X20700Y37150D01*
Y36750D01*
X20800Y36650D01*
X21000D01*
X20900Y36850D02*
X21100Y36650D01*
X21000D02*
X21100Y36750D01*
X21300Y36650D02*
X21500D01*
X21400D01*
Y37250D01*
X21300Y37150D01*
X34274Y35500D02*
Y36100D01*
X34574D01*
X34674Y36000D01*
Y35800D01*
X34574Y35700D01*
X34274D01*
X34474D02*
X34674Y35500D01*
X34874D02*
X35074D01*
X34974D01*
Y36100D01*
X34874Y36000D01*
X35350Y33650D02*
Y34250D01*
X35650D01*
X35750Y34150D01*
Y33950D01*
X35650Y33850D01*
X35350D01*
X35550D02*
X35750Y33650D01*
X36350D02*
X35950D01*
X36350Y34050D01*
Y34150D01*
X36250Y34250D01*
X36050D01*
X35950Y34150D01*
X32950Y37850D02*
X33050Y37750D01*
X33250D01*
X33350Y37850D01*
Y38250D01*
X33250Y38350D01*
X33050D01*
X32950Y38250D01*
X32750Y38350D02*
Y37750D01*
X32350Y38350D01*
Y37750D01*
X31751Y38350D02*
X32150D01*
X31751Y37950D01*
Y37850D01*
X31850Y37750D01*
X32050D01*
X32150Y37850D01*
X28100Y21790D02*
Y21590D01*
Y21690D01*
X27500D01*
Y21790D01*
Y21590D01*
Y21290D02*
X28100D01*
X27500Y20890D01*
X28100D01*
Y20690D02*
X27500D01*
Y20390D01*
X27600Y20290D01*
X28000D01*
X28100Y20390D01*
Y20690D01*
X27500Y19691D02*
Y20091D01*
X27900Y19691D01*
X28000D01*
X28100Y19791D01*
Y19991D01*
X28000Y20091D01*
X29700Y22750D02*
Y22150D01*
X30000D01*
X30100Y22250D01*
Y22650D01*
X30000Y22750D01*
X29700D01*
X30300Y22150D02*
X30500D01*
X30400D01*
Y22750D01*
X30300Y22650D01*
X22650Y35600D02*
X22850D01*
X22750D01*
Y35000D01*
X22650D01*
X22850D01*
X23150D02*
Y35600D01*
X23550Y35000D01*
Y35600D01*
X23750D02*
Y35000D01*
X24050D01*
X24150Y35100D01*
Y35500D01*
X24050Y35600D01*
X23750D01*
X24349Y35000D02*
X24549D01*
X24449D01*
Y35600D01*
X24349Y35500D01*
X25900Y33750D02*
X26500D01*
Y34050D01*
X26400Y34150D01*
X26000D01*
X25900Y34050D01*
Y33750D01*
X26500Y34750D02*
Y34350D01*
X26100Y34750D01*
X26000D01*
X25900Y34650D01*
Y34450D01*
X26000Y34350D01*
X29655Y19415D02*
X29055D01*
Y19715D01*
X29155Y19815D01*
X29355D01*
X29455Y19715D01*
Y19415D01*
X29055Y20015D02*
X29655D01*
X29455Y20215D01*
X29655Y20415D01*
X29055D01*
X29655Y20615D02*
X29055D01*
Y20915D01*
X29155Y21014D01*
X29355D01*
X29455Y20915D01*
Y20615D01*
Y20815D02*
X29655Y21014D01*
Y21614D02*
Y21214D01*
X29255Y21614D01*
X29155D01*
X29055Y21514D01*
Y21314D01*
X29155Y21214D01*
X21915Y33645D02*
Y34245D01*
X22215D01*
X22315Y34145D01*
Y33945D01*
X22215Y33845D01*
X21915D01*
X22515Y34245D02*
Y33645D01*
X22715Y33845D01*
X22915Y33645D01*
Y34245D01*
X23115Y33645D02*
Y34245D01*
X23415D01*
X23514Y34145D01*
Y33945D01*
X23415Y33845D01*
X23115D01*
X23315D02*
X23514Y33645D01*
X23714D02*
X23914D01*
X23814D01*
Y34245D01*
X23714Y34145D01*
X35600Y19800D02*
Y20400D01*
X35900D01*
X36000Y20300D01*
Y20100D01*
X35900Y20000D01*
X35600D01*
X35800D02*
X36000Y19800D01*
X36200Y20300D02*
X36300Y20400D01*
X36500D01*
X36600Y20300D01*
Y20200D01*
X36500Y20100D01*
X36400D01*
X36500D01*
X36600Y20000D01*
Y19900D01*
X36500Y19800D01*
X36300D01*
X36200Y19900D01*
X22650Y27300D02*
Y27900D01*
X22950D01*
X23050Y27800D01*
Y27600D01*
X22950Y27500D01*
X22650D01*
X22850D02*
X23050Y27300D01*
X23550D02*
Y27900D01*
X23250Y27600D01*
X23650D01*
X28975Y18000D02*
X28875Y18100D01*
X28675D01*
X28575Y18000D01*
Y17600D01*
X28675Y17500D01*
X28875D01*
X28975Y17600D01*
X29475Y17500D02*
Y18100D01*
X29175Y17800D01*
X29575D01*
X20200Y33960D02*
X20100Y33860D01*
Y33660D01*
X20200Y33560D01*
X20600D01*
X20700Y33660D01*
Y33860D01*
X20600Y33960D01*
X20100Y34560D02*
Y34160D01*
X20400D01*
X20300Y34360D01*
Y34460D01*
X20400Y34560D01*
X20600D01*
X20700Y34460D01*
Y34260D01*
X20600Y34160D01*
X33000Y22250D02*
X33100Y22150D01*
X33300D01*
X33400Y22250D01*
Y22650D01*
X33300Y22750D01*
X33100D01*
X33000Y22650D01*
X32400Y22150D02*
X32600Y22250D01*
X32800Y22450D01*
Y22650D01*
X32700Y22750D01*
X32500D01*
X32400Y22650D01*
Y22550D01*
X32500Y22450D01*
X32800D01*
X26405Y31250D02*
X26505Y31350D01*
Y31550D01*
X26405Y31650D01*
X26005D01*
X25905Y31550D01*
Y31350D01*
X26005Y31250D01*
X26505Y31051D02*
Y30651D01*
X26405D01*
X26005Y31051D01*
X25905D01*
X35400Y21400D02*
X34800D01*
Y21700D01*
X34900Y21800D01*
X35100D01*
X35200Y21700D01*
Y21400D01*
Y21600D02*
X35400Y21800D01*
X34800Y22400D02*
Y22000D01*
X35100D01*
X35000Y22200D01*
Y22300D01*
X35100Y22400D01*
X35300D01*
X35400Y22300D01*
Y22100D01*
X35300Y22000D01*
X24250Y27850D02*
Y28450D01*
X24550D01*
X24650Y28350D01*
Y28150D01*
X24550Y28050D01*
X24250D01*
X24450D02*
X24650Y27850D01*
X25250Y28450D02*
X25050Y28350D01*
X24850Y28150D01*
Y27950D01*
X24950Y27850D01*
X25150D01*
X25250Y27950D01*
Y28050D01*
X25150Y28150D01*
X24850D01*
X35400Y18700D02*
X34800D01*
Y19000D01*
X34900Y19100D01*
X35100D01*
X35200Y19000D01*
Y18700D01*
Y18900D02*
X35400Y19100D01*
X34800Y19300D02*
Y19700D01*
X34900D01*
X35300Y19300D01*
X35400D01*
X21270Y27900D02*
Y28500D01*
X21570D01*
X21670Y28400D01*
Y28200D01*
X21570Y28100D01*
X21270D01*
X21470D02*
X21670Y27900D01*
X21870Y28400D02*
X21970Y28500D01*
X22170D01*
X22270Y28400D01*
Y28300D01*
X22170Y28200D01*
X22270Y28100D01*
Y28000D01*
X22170Y27900D01*
X21970D01*
X21870Y28000D01*
Y28100D01*
X21970Y28200D01*
X21870Y28300D01*
Y28400D01*
X21970Y28200D02*
X22170D01*
X34050Y16595D02*
X34150Y16495D01*
X34350D01*
X34450Y16595D01*
Y16995D01*
X34350Y17095D01*
X34150D01*
X34050Y16995D01*
X33851Y16595D02*
X33751Y16495D01*
X33551D01*
X33451Y16595D01*
Y16695D01*
X33551Y16795D01*
X33451Y16895D01*
Y16995D01*
X33551Y17095D01*
X33751D01*
X33851Y16995D01*
Y16895D01*
X33751Y16795D01*
X33851Y16695D01*
Y16595D01*
X33751Y16795D02*
X33551D01*
X20100Y31100D02*
X20000Y31000D01*
Y30800D01*
X20100Y30700D01*
X20500D01*
X20600Y30800D01*
Y31000D01*
X20500Y31100D01*
Y31300D02*
X20600Y31400D01*
Y31600D01*
X20500Y31700D01*
X20100D01*
X20000Y31600D01*
Y31400D01*
X20100Y31300D01*
X20200D01*
X20300Y31400D01*
Y31700D01*
D34*
X35035Y31353D02*
G03*
X35035Y31117I0J-118D01*
G01*
Y31117D02*
Y31353D01*
X34799Y30684D02*
Y32420D01*
Y30684D02*
X35910D01*
Y32420D01*
X34956D02*
X35910D01*
X34799D02*
X34956D01*
D35*
X31800Y19350D02*
G03*
X31400Y19350I-200J0D01*
G01*
X32220D02*
G03*
X32370Y19500I0J150D01*
G01*
X30980Y21350D02*
G03*
X30830Y21200I0J-150D01*
G01*
Y19500D02*
G03*
X30980Y19350I150J0D01*
G01*
X32370Y21200D02*
G03*
X32220Y21350I-150J0D01*
G01*
X21850Y31500D02*
G03*
X21850Y31900I0J200D01*
G01*
Y31080D02*
G03*
X22000Y30930I150J0D01*
G01*
X23850Y32320D02*
G03*
X23700Y32470I-150J0D01*
G01*
X22000D02*
G03*
X21850Y32320I0J-150D01*
G01*
X23700Y30930D02*
G03*
X23850Y31080I0J150D01*
G01*
X24700Y20800D02*
Y21300D01*
X24950Y21550D01*
X25450D02*
X25700Y21300D01*
X24700Y20800D02*
X24950Y20550D01*
X25450D01*
X25700Y20800D01*
Y21300D01*
X24700Y25800D02*
Y26300D01*
X24950Y26550D01*
X25450D02*
X25700Y26300D01*
X24950Y26550D02*
X25450D01*
X24700Y25300D02*
X24950Y25550D01*
X24700Y24800D02*
Y25300D01*
Y24800D02*
X24950Y24550D01*
X25450D01*
X25700Y24800D01*
Y25300D01*
X25450Y25550D02*
X25700Y25300D01*
X24700Y25800D02*
X24950Y25550D01*
X25450D01*
X25700Y25800D01*
Y26300D01*
X24700Y22800D02*
Y23300D01*
X24950Y23550D01*
X25450D02*
X25700Y23300D01*
X24700Y24300D02*
X24950Y24550D01*
X24700Y23800D02*
Y24300D01*
Y23800D02*
X24950Y23550D01*
X25450D01*
X25700Y23800D01*
Y24300D01*
X25450Y24550D02*
X25700Y24300D01*
X24700Y22300D02*
X24950Y22550D01*
X24700Y21800D02*
Y22300D01*
Y21800D02*
X24950Y21550D01*
X25450D01*
X25700Y21800D01*
Y22300D01*
X25450Y22550D02*
X25700Y22300D01*
X24700Y22800D02*
X24950Y22550D01*
X25450D01*
X25700Y22800D01*
Y23300D01*
X22450Y20800D02*
Y21300D01*
X22700Y21550D01*
X23200D02*
X23450Y21300D01*
X22450Y20800D02*
X22700Y20550D01*
X23200D01*
X23450Y20800D01*
Y21300D01*
X22450Y25800D02*
Y26300D01*
X22700Y26550D01*
X23200D02*
X23450Y26300D01*
X22700Y26550D02*
X23200D01*
X22450Y25300D02*
X22700Y25550D01*
X22450Y24800D02*
Y25300D01*
Y24800D02*
X22700Y24550D01*
X23200D01*
X23450Y24800D01*
Y25300D01*
X23200Y25550D02*
X23450Y25300D01*
X22450Y25800D02*
X22700Y25550D01*
X23200D01*
X23450Y25800D01*
Y26300D01*
X22450Y22800D02*
Y23300D01*
X22700Y23550D01*
X23200D02*
X23450Y23300D01*
X22450Y24300D02*
X22700Y24550D01*
X22450Y23800D02*
Y24300D01*
Y23800D02*
X22700Y23550D01*
X23200D01*
X23450Y23800D01*
Y24300D01*
X23200Y24550D02*
X23450Y24300D01*
X22450Y22300D02*
X22700Y22550D01*
X22450Y21800D02*
Y22300D01*
Y21800D02*
X22700Y21550D01*
X23200D01*
X23450Y21800D01*
Y22300D01*
X23200Y22550D02*
X23450Y22300D01*
X22450Y22800D02*
X22700Y22550D01*
X23200D01*
X23450Y22800D01*
Y23300D01*
X30980Y19350D02*
X32220D01*
X30980Y21350D02*
X32220D01*
X32370Y19500D02*
Y21200D01*
X30830Y19500D02*
Y21200D01*
X21850Y31080D02*
Y32320D01*
X23850Y31080D02*
Y32320D01*
X22000Y30930D02*
X23700D01*
X22000Y32470D02*
X23700D01*
D36*
X29500Y35050D02*
X30500D01*
X29500Y27050D02*
Y35050D01*
Y27050D02*
X30500D01*
Y35050D01*
X31000D02*
X32000D01*
X31000Y27050D02*
Y35050D01*
Y27050D02*
X32000D01*
Y35050D01*
X22100Y12800D02*
Y13800D01*
Y12800D02*
X30100D01*
Y13800D01*
X22100D02*
X30100D01*
X22100Y14000D02*
Y15000D01*
Y14000D02*
X30100D01*
Y15000D01*
X22100D02*
X30100D01*
X34917Y32420D02*
X34956D01*
X27160Y35640D02*
Y37419D01*
Y35640D02*
X29531D01*
Y37419D01*
X28547D02*
X29531D01*
X28547D02*
Y37616D01*
X28150D02*
X28547D01*
X28150Y37419D02*
Y37616D01*
X27160Y37419D02*
X28150D01*
X31360Y35640D02*
Y37419D01*
Y35640D02*
X33731D01*
Y37419D01*
X32747D02*
X33731D01*
X32747D02*
Y37616D01*
X32350D02*
X32747D01*
X32350Y37419D02*
Y37616D01*
X31360Y37419D02*
X32350D01*
X30650Y23000D02*
Y23600D01*
X29250D02*
X30650D01*
X29250Y23000D02*
Y23600D01*
Y23000D02*
X30650D01*
X24900Y33500D02*
X25500D01*
Y34900D01*
X24900D02*
X25500D01*
X24900Y33500D02*
Y34900D01*
D37*
X32230Y19350D02*
Y21350D01*
X21850Y31070D02*
X23850D01*
D38*
X29650Y36662D02*
X29933D01*
X26750D02*
X27033D01*
X26892Y36804D02*
Y36521D01*
X33850Y36662D02*
X34133D01*
X30950D02*
X31233D01*
X31092Y36804D02*
Y36521D01*
M02*
