%FSLAX24Y24*%
%MOIN*%
G70*
G01*
G75*
G04 Layer_Physical_Order=2*
G04 Layer_Color=16711680*
%ADD10R,0.0120X0.0570*%
%ADD11R,0.0280X0.0360*%
%ADD12R,0.0520X0.0600*%
%ADD13R,0.0100X0.0400*%
%ADD14R,0.0240X0.0870*%
%ADD15R,0.0520X0.0630*%
%ADD16R,0.0360X0.0280*%
%ADD17R,0.0480X0.0280*%
%ADD18R,0.0280X0.0480*%
%ADD19R,0.0800X0.0260*%
%ADD20R,0.0260X0.0800*%
%ADD21R,0.0630X0.0520*%
%ADD22R,0.0600X0.0520*%
%ADD23C,0.0120*%
%ADD24C,0.0150*%
%ADD25C,0.1500*%
%ADD26C,0.1400*%
G04:AMPARAMS|DCode=27|XSize=70mil|YSize=70mil|CornerRadius=0mil|HoleSize=0mil|Usage=FLASHONLY|Rotation=0.000|XOffset=0mil|YOffset=0mil|HoleType=Round|Shape=Octagon|*
%AMOCTAGOND27*
4,1,8,0.0350,-0.0175,0.0350,0.0175,0.0175,0.0350,-0.0175,0.0350,-0.0350,0.0175,-0.0350,-0.0175,-0.0175,-0.0350,0.0175,-0.0350,0.0350,-0.0175,0.0*
%
%ADD27OCTAGOND27*%

G04:AMPARAMS|DCode=28|XSize=70mil|YSize=70mil|CornerRadius=0mil|HoleSize=0mil|Usage=FLASHONLY|Rotation=90.000|XOffset=0mil|YOffset=0mil|HoleType=Round|Shape=Octagon|*
%AMOCTAGOND28*
4,1,8,0.0175,0.0350,-0.0175,0.0350,-0.0350,0.0175,-0.0350,-0.0175,-0.0175,-0.0350,0.0175,-0.0350,0.0350,-0.0175,0.0350,0.0175,0.0175,0.0350,0.0*
%
%ADD28OCTAGOND28*%

G04:AMPARAMS|DCode=29|XSize=60mil|YSize=60mil|CornerRadius=0mil|HoleSize=0mil|Usage=FLASHONLY|Rotation=0.000|XOffset=0mil|YOffset=0mil|HoleType=Round|Shape=Octagon|*
%AMOCTAGOND29*
4,1,8,0.0300,-0.0150,0.0300,0.0150,0.0150,0.0300,-0.0150,0.0300,-0.0300,0.0150,-0.0300,-0.0150,-0.0150,-0.0300,0.0150,-0.0300,0.0300,-0.0150,0.0*
%
%ADD29OCTAGOND29*%

%ADD30C,0.0560*%
G04:AMPARAMS|DCode=31|XSize=66mil|YSize=66mil|CornerRadius=0mil|HoleSize=0mil|Usage=FLASHONLY|Rotation=90.000|XOffset=0mil|YOffset=0mil|HoleType=Round|Shape=Octagon|*
%AMOCTAGOND31*
4,1,8,0.0165,0.0330,-0.0165,0.0330,-0.0330,0.0165,-0.0330,-0.0165,-0.0165,-0.0330,0.0165,-0.0330,0.0330,-0.0165,0.0330,0.0165,0.0165,0.0330,0.0*
%
%ADD31OCTAGOND31*%

%ADD32C,0.0500*%
G36*
X37689Y37611D02*
X37670Y37444D01*
X37634Y37419D01*
X37634Y37419D01*
X37250D01*
X37166Y37384D01*
X36451Y36669D01*
X35889D01*
X35875Y36819D01*
X36012Y36846D01*
X36277Y37023D01*
X36454Y37288D01*
X36516Y37600D01*
X36454Y37912D01*
X36277Y38177D01*
X36012Y38354D01*
X35700Y38416D01*
X35388Y38354D01*
X35123Y38177D01*
X34946Y37912D01*
X34884Y37600D01*
X34946Y37288D01*
X35123Y37023D01*
X35388Y36846D01*
X35525Y36819D01*
X35511Y36669D01*
X34200D01*
X34116Y36634D01*
X33466Y35984D01*
X33431Y35900D01*
Y35650D01*
X33466Y35566D01*
X33786Y35246D01*
X33870Y35211D01*
X34655D01*
X34700Y35100D01*
X34817Y35052D01*
Y35052D01*
X34882Y35025D01*
X34882Y35025D01*
X34884Y35022D01*
X34836Y34887D01*
X34811Y34869D01*
X33199D01*
X33063Y35006D01*
Y36442D01*
X33196Y36497D01*
X33301Y36750D01*
X33196Y37003D01*
X32944Y37107D01*
X32691Y37003D01*
X32655Y36916D01*
X32493D01*
X32441Y37041D01*
X32200Y37141D01*
Y36750D01*
Y36359D01*
X32441Y36459D01*
X32493Y36584D01*
X32655D01*
X32691Y36497D01*
X32825Y36442D01*
Y34956D01*
X32860Y34872D01*
X33066Y34666D01*
X33150Y34631D01*
X33376D01*
X33450Y34481D01*
X33375Y34300D01*
X33470Y34070D01*
X33594Y34019D01*
X33616Y33966D01*
X34481Y33101D01*
Y30406D01*
X34331Y30376D01*
X34330Y30380D01*
X34175Y30444D01*
X33629Y30989D01*
X33675Y31100D01*
X33580Y31330D01*
X33350Y31425D01*
X33120Y31330D01*
X33025Y31100D01*
X33120Y30870D01*
X33350Y30775D01*
X33461Y30821D01*
X33876Y30406D01*
X33870Y30380D01*
X33775Y30150D01*
X33870Y29920D01*
X34100Y29825D01*
X34330Y29920D01*
X34331Y29924D01*
X34481Y29894D01*
Y29605D01*
X34350Y29504D01*
X34300Y29525D01*
X34070Y29430D01*
X33975Y29200D01*
X34070Y28970D01*
X34300Y28875D01*
X34530Y28970D01*
X34625Y29200D01*
X34579Y29311D01*
X34684Y29416D01*
X34719Y29500D01*
Y33150D01*
X34684Y33234D01*
X33916Y34002D01*
X33930Y34070D01*
X34025Y34300D01*
X33950Y34481D01*
X34024Y34631D01*
X34514D01*
X34544Y34481D01*
X34420Y34430D01*
X34325Y34200D01*
X34420Y33970D01*
X34650Y33875D01*
X34761Y33921D01*
X34881Y33801D01*
Y32050D01*
X34916Y31966D01*
X35221Y31661D01*
X35175Y31550D01*
X35270Y31320D01*
X35500Y31225D01*
X35730Y31320D01*
X35782Y31448D01*
X35955Y31493D01*
X35981Y31475D01*
Y29575D01*
X35870Y29530D01*
X35775Y29300D01*
X35870Y29070D01*
X36100Y28975D01*
X36330Y29070D01*
X36381Y29194D01*
X36531Y29164D01*
Y28649D01*
X35951Y28069D01*
X33500D01*
X33416Y28034D01*
X31116Y25734D01*
X31081Y25650D01*
Y22150D01*
X31116Y22066D01*
X32831Y20351D01*
Y16649D01*
X32401Y16219D01*
X27649D01*
X27519Y16349D01*
Y18900D01*
X27484Y18984D01*
X27379Y19089D01*
X27425Y19200D01*
X27330Y19430D01*
X27100Y19525D01*
X26870Y19430D01*
X26819Y19306D01*
X26669Y19336D01*
Y19925D01*
X26780Y19970D01*
X26875Y20200D01*
X26780Y20430D01*
X26550Y20525D01*
X26320Y20430D01*
X26225Y20200D01*
X26320Y19970D01*
X26431Y19925D01*
Y16805D01*
X26300Y16704D01*
X26250Y16725D01*
X26020Y16630D01*
X25925Y16400D01*
X26020Y16170D01*
X26250Y16075D01*
X26480Y16170D01*
X26575Y16400D01*
X26529Y16511D01*
X26634Y16616D01*
X26669Y16700D01*
Y19064D01*
X26819Y19094D01*
X26870Y18970D01*
X27100Y18875D01*
X27150Y18896D01*
X27281Y18795D01*
Y16300D01*
X27316Y16216D01*
X27516Y16016D01*
X27600Y15981D01*
X32450D01*
X32534Y16016D01*
X33034Y16516D01*
X33069Y16600D01*
Y20400D01*
X33034Y20484D01*
X31319Y22199D01*
Y25601D01*
X33549Y27831D01*
X36000D01*
X36084Y27866D01*
X36734Y28516D01*
X36769Y28600D01*
Y33501D01*
X37499Y34231D01*
X37510Y34220D01*
X37890D01*
X38080Y34410D01*
Y34790D01*
X37890Y34980D01*
X37510D01*
X37320Y34790D01*
Y34410D01*
X37331Y34399D01*
X36566Y33634D01*
X36531Y33550D01*
Y33484D01*
X36388Y33438D01*
X36269Y33518D01*
Y33544D01*
X36244Y33603D01*
X36234Y33628D01*
X35028Y34834D01*
X35014Y34840D01*
X35009Y34842D01*
X35006Y34843D01*
X34996Y34847D01*
X34949Y34875D01*
X34949Y34875D01*
X34948Y34878D01*
X34948Y34884D01*
X34946Y34902D01*
X34946Y34902D01*
X34947Y34922D01*
X34948Y34937D01*
X34951Y34972D01*
X34953Y35003D01*
X34969Y35022D01*
X35026Y35045D01*
X35032Y35048D01*
X35160Y35100D01*
X35255Y35330D01*
X35160Y35560D01*
X34930Y35655D01*
X34700Y35560D01*
X34655Y35449D01*
X33919D01*
X33669Y35699D01*
Y35851D01*
X34249Y36431D01*
X36500D01*
X36584Y36466D01*
X37299Y37181D01*
X37951D01*
X38231Y36901D01*
Y28926D01*
X38081Y28864D01*
X37915Y29030D01*
X37750D01*
Y28600D01*
X37700D01*
Y28550D01*
X37270D01*
Y28385D01*
X37478Y28177D01*
X37482Y28100D01*
X37478Y28023D01*
X37270Y27815D01*
Y27650D01*
X37700D01*
Y27600D01*
X37750D01*
Y27170D01*
X37915D01*
X38081Y27336D01*
X38231Y27274D01*
Y26299D01*
X37901Y25969D01*
X37890Y25980D01*
X37510D01*
X37320Y25790D01*
Y25410D01*
X37510Y25220D01*
X37890D01*
X38080Y25410D01*
Y25790D01*
X38069Y25801D01*
X38434Y26166D01*
X38469Y26250D01*
Y36950D01*
X38434Y37034D01*
X38118Y37350D01*
X38167Y37500D01*
X38600D01*
X38700Y37459D01*
Y15600D01*
X33016D01*
Y11600D01*
X17700D01*
X17700Y11600D01*
Y37000D01*
X18300Y37600D01*
X22800D01*
X23800Y38600D01*
X36700D01*
X37689Y37611D01*
D02*
G37*
%LPC*%
G36*
X18890Y24380D02*
X18510D01*
X18320Y24190D01*
Y23810D01*
X18510Y23620D01*
X18890D01*
X19080Y23810D01*
Y24190D01*
X18890Y24380D01*
D02*
G37*
G36*
X25375Y23400D02*
X25025D01*
X24850Y23225D01*
Y23169D01*
X23300D01*
Y23225D01*
X23125Y23400D01*
X22775D01*
X22600Y23225D01*
Y22875D01*
X22775Y22700D01*
X23125D01*
X23300Y22875D01*
Y22931D01*
X24850D01*
Y22875D01*
X25025Y22700D01*
X25375D01*
X25550Y22875D01*
Y23225D01*
X25375Y23400D01*
D02*
G37*
G36*
X27200Y26075D02*
X26970Y25980D01*
X26875Y25750D01*
X26970Y25520D01*
X27031Y25495D01*
Y23375D01*
X26920Y23330D01*
X26825Y23100D01*
X26920Y22870D01*
X27150Y22775D01*
X27380Y22870D01*
X27475Y23100D01*
X27380Y23330D01*
X27269Y23375D01*
Y25454D01*
X27430Y25520D01*
X27525Y25750D01*
X27430Y25980D01*
X27200Y26075D01*
D02*
G37*
G36*
X22900Y24000D02*
X22550D01*
Y23850D01*
X22750Y23650D01*
X22900D01*
Y24000D01*
D02*
G37*
G36*
X25150D02*
X24800D01*
Y23850D01*
X25000Y23650D01*
X25150D01*
Y24000D01*
D02*
G37*
G36*
X23350D02*
X23000D01*
Y23650D01*
X23150D01*
X23350Y23850D01*
Y24000D01*
D02*
G37*
G36*
X25600D02*
X25250D01*
Y23650D01*
X25400D01*
X25600Y23850D01*
Y24000D01*
D02*
G37*
G36*
X18890Y23380D02*
X18510D01*
X18320Y23190D01*
Y22810D01*
X18510Y22620D01*
X18890D01*
X19080Y22810D01*
Y23190D01*
X18890Y23380D01*
D02*
G37*
G36*
X25400Y21450D02*
X25250D01*
Y21100D01*
X25600D01*
Y21250D01*
X25400Y21450D01*
D02*
G37*
G36*
X25150D02*
X25000D01*
X24800Y21250D01*
Y21100D01*
X25150D01*
Y21450D01*
D02*
G37*
G36*
X23150D02*
X23000D01*
Y21100D01*
X23350D01*
Y21250D01*
X23150Y21450D01*
D02*
G37*
G36*
X18890Y22380D02*
X18510D01*
X18320Y22190D01*
Y21810D01*
X18510Y21620D01*
X18890D01*
X19080Y21810D01*
Y22190D01*
X18890Y22380D01*
D02*
G37*
G36*
X25375Y22400D02*
X25025D01*
X24850Y22225D01*
Y21875D01*
X25025Y21700D01*
X25375D01*
X25550Y21875D01*
Y22225D01*
X25375Y22400D01*
D02*
G37*
G36*
X23125D02*
X22775D01*
X22600Y22225D01*
Y21875D01*
X22775Y21700D01*
X23125D01*
X23300Y21875D01*
Y22225D01*
X23125Y22400D01*
D02*
G37*
G36*
X18890Y27380D02*
X18510D01*
X18320Y27190D01*
Y26810D01*
X18510Y26620D01*
X18890D01*
X18901Y26631D01*
X19381Y26151D01*
Y24100D01*
X19416Y24016D01*
X21371Y22061D01*
X21325Y21950D01*
X21420Y21720D01*
X21650Y21625D01*
X21880Y21720D01*
X21975Y21950D01*
X21880Y22180D01*
X21650Y22275D01*
X21539Y22229D01*
X19619Y24149D01*
Y26200D01*
X19584Y26284D01*
X19069Y26799D01*
X19080Y26810D01*
Y27190D01*
X18890Y27380D01*
D02*
G37*
G36*
X22900Y24450D02*
X22750D01*
X22550Y24250D01*
Y24100D01*
X22900D01*
Y24450D01*
D02*
G37*
G36*
X32150Y25558D02*
Y25250D01*
X32458D01*
X32368Y25468D01*
X32150Y25558D01*
D02*
G37*
G36*
X32050D02*
X31832Y25468D01*
X31742Y25250D01*
X32050D01*
Y25558D01*
D02*
G37*
G36*
X32458Y25150D02*
X32150D01*
Y24842D01*
X32368Y24932D01*
X32458Y25150D01*
D02*
G37*
G36*
X18890Y26380D02*
X18510D01*
X18320Y26190D01*
Y25810D01*
X18510Y25620D01*
X18890D01*
X19080Y25810D01*
Y26190D01*
X18890Y26380D01*
D02*
G37*
G36*
X34750Y26850D02*
X34442D01*
X34532Y26632D01*
X34750Y26542D01*
Y26850D01*
D02*
G37*
G36*
X37890Y26980D02*
X37510D01*
X37320Y26790D01*
Y26410D01*
X37510Y26220D01*
X37890D01*
X38080Y26410D01*
Y26790D01*
X37890Y26980D01*
D02*
G37*
G36*
X25375Y26400D02*
X25025D01*
X24850Y26225D01*
Y26169D01*
X23300D01*
Y26225D01*
X23125Y26400D01*
X22775D01*
X22600Y26225D01*
Y25875D01*
X22775Y25700D01*
X23125D01*
X23300Y25875D01*
Y25931D01*
X24850D01*
Y25875D01*
X25025Y25700D01*
X25375D01*
X25550Y25875D01*
Y26225D01*
X25375Y26400D01*
D02*
G37*
G36*
X32050Y25150D02*
X31742D01*
X31832Y24932D01*
X32050Y24842D01*
Y25150D01*
D02*
G37*
G36*
X25400Y24450D02*
X25250D01*
Y24100D01*
X25600D01*
Y24250D01*
X25400Y24450D01*
D02*
G37*
G36*
X25150D02*
X25000D01*
X24800Y24250D01*
Y24100D01*
X25150D01*
Y24450D01*
D02*
G37*
G36*
X23150D02*
X23000D01*
Y24100D01*
X23350D01*
Y24250D01*
X23150Y24450D01*
D02*
G37*
G36*
X37890Y24980D02*
X37510D01*
X37320Y24790D01*
Y24410D01*
X37510Y24220D01*
X37890D01*
X38080Y24410D01*
Y24790D01*
X37890Y24980D01*
D02*
G37*
G36*
X25375Y25400D02*
X25025D01*
X24850Y25225D01*
Y24875D01*
X25025Y24700D01*
X25375D01*
X25550Y24875D01*
Y25225D01*
X25375Y25400D01*
D02*
G37*
G36*
X23125D02*
X22775D01*
X22600Y25225D01*
Y24875D01*
X22775Y24700D01*
X23125D01*
X23300Y24875D01*
Y25225D01*
X23125Y25400D01*
D02*
G37*
G36*
X18890Y25380D02*
X18510D01*
X18320Y25190D01*
Y24810D01*
X18510Y24620D01*
X18890D01*
X19080Y24810D01*
Y25190D01*
X18890Y25380D01*
D02*
G37*
G36*
X22900Y21450D02*
X22750D01*
X22550Y21250D01*
Y21100D01*
X22900D01*
Y21450D01*
D02*
G37*
G36*
X27825Y13750D02*
X27650D01*
Y13350D01*
X28050D01*
Y13525D01*
X27825Y13750D01*
D02*
G37*
G36*
X27550D02*
X27375D01*
X27150Y13525D01*
Y13350D01*
X27550D01*
Y13750D01*
D02*
G37*
G36*
X23825D02*
X23650D01*
Y13350D01*
X24050D01*
Y13525D01*
X23825Y13750D01*
D02*
G37*
G36*
X23550Y14450D02*
X23150D01*
Y14275D01*
X23375Y14050D01*
X23550D01*
Y14450D01*
D02*
G37*
G36*
X28050D02*
X27650D01*
Y14050D01*
X27825D01*
X28050Y14275D01*
Y14450D01*
D02*
G37*
G36*
X27550D02*
X27150D01*
Y14275D01*
X27375Y14050D01*
X27550D01*
Y14450D01*
D02*
G37*
G36*
X24050D02*
X23650D01*
Y14050D01*
X23825D01*
X24050Y14275D01*
Y14450D01*
D02*
G37*
G36*
X23550Y13750D02*
X23375D01*
X23150Y13525D01*
Y13350D01*
X23550D01*
Y13750D01*
D02*
G37*
G36*
X27550Y13250D02*
X27150D01*
Y13075D01*
X27375Y12850D01*
X27550D01*
Y13250D01*
D02*
G37*
G36*
X28800Y14900D02*
X28400D01*
X28200Y14700D01*
Y14300D01*
X28400Y14100D01*
X28481D01*
Y13700D01*
X28400D01*
X28200Y13500D01*
Y13100D01*
X28400Y12900D01*
X28432Y12750D01*
X28301Y12619D01*
X27175D01*
X27130Y12730D01*
X26926Y12814D01*
X26863Y12963D01*
X27000Y13100D01*
Y13500D01*
X26800Y13700D01*
X26719D01*
Y14100D01*
X26800D01*
X27000Y14300D01*
Y14700D01*
X26800Y14900D01*
X26400D01*
X26200Y14700D01*
Y14300D01*
X26400Y14100D01*
X26481D01*
Y13700D01*
X26400D01*
X26200Y13500D01*
Y13100D01*
X26341Y12959D01*
X25551Y12169D01*
X24251D01*
X24154Y12319D01*
X24208Y12450D01*
X23492D01*
X23535Y12345D01*
X23408Y12260D01*
X22884Y12785D01*
X22890Y12990D01*
X23000Y13100D01*
Y13500D01*
X22800Y13700D01*
X22719D01*
Y14100D01*
X22800D01*
X23000Y14300D01*
Y14700D01*
X22800Y14900D01*
X22400D01*
X22200Y14700D01*
Y14300D01*
X22400Y14100D01*
X22481D01*
Y13700D01*
X22400D01*
X22200Y13500D01*
Y13100D01*
X22400Y12900D01*
X22481D01*
X22516Y12816D01*
X23366Y11966D01*
X23450Y11931D01*
X25600D01*
X25684Y11966D01*
X26550Y12832D01*
X26571Y12826D01*
X26637Y12649D01*
X26575Y12500D01*
X26670Y12270D01*
X26900Y12175D01*
X27130Y12270D01*
X27175Y12381D01*
X28350D01*
X28434Y12416D01*
X28684Y12666D01*
X28694Y12690D01*
X28719Y12750D01*
Y12900D01*
X28800D01*
X29000Y13100D01*
Y13500D01*
X28800Y13700D01*
X28719D01*
Y14100D01*
X28800D01*
X29000Y14300D01*
Y14700D01*
X28800Y14900D01*
D02*
G37*
G36*
X24050Y13250D02*
X23150D01*
Y13075D01*
X23375Y12850D01*
X23468D01*
X23554Y12700D01*
X23492Y12550D01*
X24208D01*
X24118Y12768D01*
X23977Y12826D01*
X23948Y12973D01*
X24050Y13075D01*
Y13250D01*
D02*
G37*
G36*
X28050D02*
X27650D01*
Y12850D01*
X27825D01*
X28050Y13075D01*
Y13250D01*
D02*
G37*
G36*
X29800Y14900D02*
X29400D01*
X29200Y14700D01*
Y14300D01*
X29400Y14100D01*
X29481D01*
Y13700D01*
X29400D01*
X29200Y13500D01*
Y13100D01*
X29400Y12900D01*
X29800D01*
X30000Y13100D01*
Y13500D01*
X29800Y13700D01*
X29719D01*
Y14100D01*
X29800D01*
X30000Y14300D01*
Y14700D01*
X29800Y14900D01*
D02*
G37*
G36*
X25800D02*
X25400D01*
X25200Y14700D01*
Y14300D01*
X25400Y14100D01*
X25481D01*
Y13700D01*
X25400D01*
X25200Y13500D01*
Y13100D01*
X25400Y12900D01*
X25800D01*
X26000Y13100D01*
Y13500D01*
X25800Y13700D01*
X25719D01*
Y14100D01*
X25800D01*
X26000Y14300D01*
Y14700D01*
X25800Y14900D01*
D02*
G37*
G36*
X24800D02*
X24400D01*
X24200Y14700D01*
Y14300D01*
X24400Y14100D01*
X24481D01*
Y13700D01*
X24400D01*
X24200Y13500D01*
Y13100D01*
X24400Y12900D01*
X24800D01*
X25000Y13100D01*
Y13500D01*
X24800Y13700D01*
X24719D01*
Y14100D01*
X24800D01*
X25000Y14300D01*
Y14700D01*
X24800Y14900D01*
D02*
G37*
G36*
X23550Y14950D02*
X23375D01*
X23150Y14725D01*
Y14550D01*
X23550D01*
Y14950D01*
D02*
G37*
G36*
X22900Y21000D02*
X22550D01*
Y20850D01*
X22750Y20650D01*
X22900D01*
Y21000D01*
D02*
G37*
G36*
X18890Y21380D02*
X18510D01*
X18320Y21190D01*
Y20810D01*
X18510Y20620D01*
X18890D01*
X19080Y20810D01*
Y21190D01*
X18890Y21380D01*
D02*
G37*
G36*
Y20380D02*
X18510D01*
X18320Y20190D01*
Y19810D01*
X18510Y19620D01*
X18890D01*
X19080Y19810D01*
Y20190D01*
X18890Y20380D01*
D02*
G37*
G36*
X23350Y21000D02*
X23000D01*
Y20650D01*
X23150D01*
X23350Y20850D01*
Y21000D01*
D02*
G37*
G36*
X32500Y24625D02*
X32270Y24530D01*
X32175Y24300D01*
X32270Y24070D01*
X32500Y23975D01*
X32730Y24070D01*
X32775Y24181D01*
X33851D01*
X35016Y23016D01*
X35100Y22981D01*
X35351D01*
X36431Y21901D01*
Y21625D01*
X36320Y21580D01*
X36225Y21350D01*
X36320Y21120D01*
X36550Y21025D01*
X36780Y21120D01*
X36875Y21350D01*
X36780Y21580D01*
X36669Y21625D01*
Y21950D01*
X36634Y22034D01*
X35484Y23184D01*
X35400Y23219D01*
X35149D01*
X33984Y24384D01*
X33900Y24419D01*
X32775D01*
X32730Y24530D01*
X32500Y24625D01*
D02*
G37*
G36*
X25600Y21000D02*
X25250D01*
Y20650D01*
X25400D01*
X25600Y20850D01*
Y21000D01*
D02*
G37*
G36*
X25150D02*
X24800D01*
Y20850D01*
X25000Y20650D01*
X25150D01*
Y21000D01*
D02*
G37*
G36*
X18890Y19380D02*
X18510D01*
X18320Y19190D01*
Y18810D01*
X18510Y18620D01*
X18890D01*
X19080Y18810D01*
Y19190D01*
X18890Y19380D01*
D02*
G37*
G36*
X27825Y14950D02*
X27650D01*
Y14550D01*
X28050D01*
Y14725D01*
X27825Y14950D01*
D02*
G37*
G36*
X27550D02*
X27375D01*
X27150Y14725D01*
Y14550D01*
X27550D01*
Y14950D01*
D02*
G37*
G36*
X23825D02*
X23650D01*
Y14550D01*
X24050D01*
Y14725D01*
X23825Y14950D01*
D02*
G37*
G36*
X31950Y15775D02*
X31720Y15680D01*
X31675Y15569D01*
X27575D01*
X27530Y15680D01*
X27300Y15775D01*
X27070Y15680D01*
X26975Y15450D01*
X27070Y15220D01*
X27300Y15125D01*
X27530Y15220D01*
X27575Y15331D01*
X31675D01*
X31720Y15220D01*
X31950Y15125D01*
X32180Y15220D01*
X32275Y15450D01*
X32180Y15680D01*
X31950Y15775D01*
D02*
G37*
G36*
X18700Y18416D02*
X18388Y18354D01*
X18123Y18177D01*
X17946Y17912D01*
X17884Y17600D01*
X17946Y17288D01*
X18123Y17023D01*
X18388Y16846D01*
X18700Y16784D01*
X19012Y16846D01*
X19277Y17023D01*
X19454Y17288D01*
X19516Y17600D01*
X19454Y17912D01*
X19277Y18177D01*
X19012Y18354D01*
X18700Y18416D01*
D02*
G37*
G36*
X18890Y30980D02*
X18510D01*
X18320Y30790D01*
Y30410D01*
X18510Y30220D01*
X18890D01*
X19080Y30410D01*
Y30481D01*
X19401D01*
X19631Y30251D01*
Y29200D01*
X19666Y29116D01*
X21566Y27216D01*
X21650Y27181D01*
X26901D01*
X27831Y26251D01*
Y16600D01*
X27866Y16516D01*
X27950Y16481D01*
X32050D01*
X32134Y16516D01*
X32284Y16666D01*
X32319Y16750D01*
Y18225D01*
X32430Y18270D01*
X32525Y18500D01*
X32430Y18730D01*
X32200Y18825D01*
X31970Y18730D01*
X31875Y18500D01*
X31970Y18270D01*
X32081Y18225D01*
Y16799D01*
X32001Y16719D01*
X28069D01*
Y26300D01*
X28034Y26384D01*
X27034Y27384D01*
X26950Y27419D01*
X21699D01*
X19869Y29249D01*
Y30300D01*
X19834Y30384D01*
X19534Y30684D01*
X19450Y30719D01*
X19080D01*
Y30790D01*
X18890Y30980D01*
D02*
G37*
G36*
X37700Y17916D02*
X37388Y17854D01*
X37123Y17677D01*
X36946Y17412D01*
X36884Y17100D01*
X36946Y16788D01*
X37123Y16523D01*
X37388Y16346D01*
X37700Y16284D01*
X38012Y16346D01*
X38277Y16523D01*
X38454Y16788D01*
X38516Y17100D01*
X38454Y17412D01*
X38277Y17677D01*
X38012Y17854D01*
X37700Y17916D01*
D02*
G37*
G36*
X29950Y33500D02*
X29550D01*
Y33325D01*
X29775Y33100D01*
X29950D01*
Y33500D01*
D02*
G37*
G36*
X21350Y32608D02*
Y32300D01*
X21658D01*
X21568Y32518D01*
X21350Y32608D01*
D02*
G37*
G36*
X21250D02*
X21032Y32518D01*
X20942Y32300D01*
X21250D01*
Y32608D01*
D02*
G37*
G36*
X30450Y33500D02*
X30050D01*
Y33100D01*
X30225D01*
X30450Y33325D01*
Y33500D01*
D02*
G37*
G36*
X18890Y33980D02*
X18510D01*
X18320Y33790D01*
Y33410D01*
X18510Y33220D01*
X18890D01*
X19080Y33410D01*
Y33790D01*
X18890Y33980D01*
D02*
G37*
G36*
X31950Y33500D02*
X31550D01*
Y33100D01*
X31725D01*
X31950Y33325D01*
Y33500D01*
D02*
G37*
G36*
X31450D02*
X31050D01*
Y33325D01*
X31275Y33100D01*
X31450D01*
Y33500D01*
D02*
G37*
G36*
X37890Y32980D02*
X37510D01*
X37320Y32790D01*
Y32410D01*
X37510Y32220D01*
X37890D01*
X38080Y32410D01*
Y32790D01*
X37890Y32980D01*
D02*
G37*
G36*
X21250Y32200D02*
X20942D01*
X21032Y31982D01*
X21250Y31892D01*
Y32200D01*
D02*
G37*
G36*
X37890Y31980D02*
X37510D01*
X37320Y31790D01*
Y31410D01*
X37510Y31220D01*
X37890D01*
X38080Y31410D01*
Y31790D01*
X37890Y31980D01*
D02*
G37*
G36*
X18890D02*
X18510D01*
X18320Y31790D01*
Y31410D01*
X18510Y31220D01*
X18890D01*
X19080Y31410D01*
Y31790D01*
X18890Y31980D01*
D02*
G37*
G36*
X21658Y32200D02*
X21350D01*
Y31892D01*
X21568Y31982D01*
X21658Y32200D01*
D02*
G37*
G36*
X18890Y32980D02*
X18510D01*
X18320Y32790D01*
Y32410D01*
X18510Y32220D01*
X18890D01*
X19080Y32410D01*
Y32790D01*
X18890Y32980D01*
D02*
G37*
G36*
X31700Y32950D02*
X31300D01*
X31100Y32750D01*
Y32350D01*
X31300Y32150D01*
X31700D01*
X31900Y32350D01*
Y32750D01*
X31700Y32950D01*
D02*
G37*
G36*
X30200D02*
X29800D01*
X29600Y32750D01*
Y32669D01*
X28800D01*
X28716Y32634D01*
X27966Y31884D01*
X27931Y31800D01*
Y28675D01*
X27820Y28630D01*
X27725Y28400D01*
X27820Y28170D01*
X28050Y28075D01*
X28280Y28170D01*
X28375Y28400D01*
X28280Y28630D01*
X28169Y28675D01*
Y31751D01*
X28849Y32431D01*
X29600D01*
Y32350D01*
X29800Y32150D01*
X30200D01*
X30400Y32350D01*
Y32750D01*
X30200Y32950D01*
D02*
G37*
G36*
X37890Y33980D02*
X37510D01*
X37320Y33790D01*
Y33410D01*
X37510Y33220D01*
X37890D01*
X38080Y33410D01*
Y33790D01*
X37890Y33980D01*
D02*
G37*
G36*
X27900Y36700D02*
X27559D01*
X27659Y36459D01*
X27900Y36359D01*
Y36700D01*
D02*
G37*
G36*
X37890Y36980D02*
X37510D01*
X37320Y36790D01*
Y36410D01*
X37510Y36220D01*
X37890D01*
X38080Y36410D01*
Y36790D01*
X37890Y36980D01*
D02*
G37*
G36*
X18890D02*
X18510D01*
X18320Y36790D01*
Y36410D01*
X18510Y36220D01*
X18890D01*
X19080Y36410D01*
Y36790D01*
X18890Y36980D01*
D02*
G37*
G36*
X32100Y36700D02*
X31759D01*
X31859Y36459D01*
X32100Y36359D01*
Y36700D01*
D02*
G37*
G36*
X24700Y38365D02*
X24407Y38306D01*
X24159Y38141D01*
X23994Y37893D01*
X23935Y37600D01*
X23994Y37307D01*
X24159Y37059D01*
X24407Y36894D01*
X24700Y36835D01*
X24993Y36894D01*
X25241Y37059D01*
X25406Y37307D01*
X25465Y37600D01*
X25406Y37893D01*
X25241Y38141D01*
X24993Y38306D01*
X24700Y38365D01*
D02*
G37*
G36*
X32100Y37141D02*
X31859Y37041D01*
X31759Y36800D01*
X32100D01*
Y37141D01*
D02*
G37*
G36*
X27900D02*
X27659Y37041D01*
X27559Y36800D01*
X27900D01*
Y37141D01*
D02*
G37*
G36*
X37890Y35980D02*
X37510D01*
X37320Y35790D01*
Y35410D01*
X37510Y35220D01*
X37890D01*
X38080Y35410D01*
Y35790D01*
X37890Y35980D01*
D02*
G37*
G36*
X31450Y34000D02*
X31275D01*
X31050Y33775D01*
Y33600D01*
X31450D01*
Y34000D01*
D02*
G37*
G36*
X30225D02*
X30050D01*
Y33600D01*
X30450D01*
Y33775D01*
X30225Y34000D01*
D02*
G37*
G36*
X29950D02*
X29775D01*
X29550Y33775D01*
Y33600D01*
X29950D01*
Y34000D01*
D02*
G37*
G36*
X31725D02*
X31550D01*
Y33600D01*
X31950D01*
Y33775D01*
X31725Y34000D01*
D02*
G37*
G36*
X18890Y35980D02*
X18510D01*
X18320Y35790D01*
Y35410D01*
X18510Y35220D01*
X18890D01*
X19080Y35410D01*
Y35790D01*
X18890Y35980D01*
D02*
G37*
G36*
X31700Y34950D02*
X31300D01*
X31100Y34750D01*
Y34685D01*
X30400D01*
Y34750D01*
X30200Y34950D01*
X29800D01*
X29600Y34750D01*
Y34350D01*
X29800Y34150D01*
X30200D01*
X30400Y34350D01*
Y34415D01*
X30615D01*
Y31300D01*
X30654Y31204D01*
X31023Y30835D01*
X30961Y30685D01*
X30400D01*
Y30750D01*
X30200Y30950D01*
X29800D01*
X29600Y30750D01*
Y30350D01*
X29800Y30150D01*
X30200D01*
X30400Y30350D01*
Y30415D01*
X31100D01*
Y30350D01*
X31300Y30150D01*
X31700D01*
X31900Y30350D01*
Y30750D01*
X31700Y30950D01*
X31320D01*
X31270Y31014D01*
X31354Y31150D01*
X31700D01*
X31900Y31350D01*
Y31750D01*
X31700Y31950D01*
X31300D01*
X31100Y31750D01*
Y31353D01*
X30991Y31250D01*
X30885Y31356D01*
Y34415D01*
X31100D01*
Y34350D01*
X31300Y34150D01*
X31700D01*
X31900Y34350D01*
Y34750D01*
X31700Y34950D01*
D02*
G37*
G36*
X18890Y34980D02*
X18510D01*
X18320Y34790D01*
Y34410D01*
X18510Y34220D01*
X18890D01*
X19080Y34410D01*
Y34790D01*
X18890Y34980D01*
D02*
G37*
G36*
X30200Y31950D02*
X29800D01*
X29600Y31750D01*
Y31669D01*
X29550D01*
X29466Y31634D01*
X28616Y30784D01*
X28581Y30700D01*
Y29075D01*
X28470Y29030D01*
X28375Y28800D01*
X28470Y28570D01*
X28700Y28475D01*
X28930Y28570D01*
X29025Y28800D01*
X28930Y29030D01*
X28819Y29075D01*
Y30651D01*
X29470Y31302D01*
X29600Y31350D01*
X29800Y31150D01*
X30200D01*
X30400Y31350D01*
Y31750D01*
X30200Y31950D01*
D02*
G37*
G36*
X31700Y28950D02*
X31300D01*
X31100Y28750D01*
Y28350D01*
X31300Y28150D01*
X31700D01*
X31900Y28350D01*
Y28750D01*
X31700Y28950D01*
D02*
G37*
G36*
X30200D02*
X29800D01*
X29600Y28750D01*
Y28350D01*
X29800Y28150D01*
X30200D01*
X30400Y28350D01*
Y28750D01*
X30200Y28950D01*
D02*
G37*
G36*
X26700Y28358D02*
X26482Y28268D01*
X26392Y28050D01*
X26700D01*
Y28358D01*
D02*
G37*
G36*
X28000Y37141D02*
Y36750D01*
Y36359D01*
X28241Y36459D01*
X28293Y36584D01*
X28455D01*
X28491Y36497D01*
X28625Y36442D01*
Y35593D01*
X27066Y34034D01*
X27031Y33950D01*
Y28425D01*
X26895Y28320D01*
X26892Y28320D01*
X26800Y28358D01*
Y28000D01*
Y27642D01*
X27018Y27732D01*
X27129Y28000D01*
X27263Y28069D01*
X27531Y27801D01*
Y27450D01*
X27566Y27366D01*
X28166Y26766D01*
X28250Y26731D01*
X28525D01*
X28570Y26620D01*
X28800Y26525D01*
X29030Y26620D01*
X29125Y26850D01*
X29030Y27080D01*
X28800Y27175D01*
X28570Y27080D01*
X28525Y26969D01*
X28299D01*
X27769Y27499D01*
Y27850D01*
X27734Y27934D01*
X27269Y28399D01*
Y33901D01*
X28828Y35460D01*
X28863Y35544D01*
Y36442D01*
X28996Y36497D01*
X29101Y36750D01*
X28996Y37003D01*
X28744Y37107D01*
X28491Y37003D01*
X28455Y36916D01*
X28293D01*
X28241Y37041D01*
X28000Y37141D01*
D02*
G37*
G36*
X30450Y29500D02*
X30050D01*
Y29100D01*
X30225D01*
X30450Y29325D01*
Y29500D01*
D02*
G37*
G36*
X29950D02*
X29550D01*
Y29325D01*
X29775Y29100D01*
X29950D01*
Y29500D01*
D02*
G37*
G36*
X37650Y29030D02*
X37485D01*
X37270Y28815D01*
Y28650D01*
X37650D01*
Y29030D01*
D02*
G37*
G36*
X26700Y27950D02*
X26392D01*
X26482Y27732D01*
X26700Y27642D01*
Y27950D01*
D02*
G37*
G36*
X34850Y27258D02*
Y26950D01*
X35158D01*
X35068Y27168D01*
X34850Y27258D01*
D02*
G37*
G36*
X34750D02*
X34532Y27168D01*
X34442Y26950D01*
X34750D01*
Y27258D01*
D02*
G37*
G36*
X35158Y26850D02*
X34850D01*
Y26542D01*
X35068Y26632D01*
X35158Y26850D01*
D02*
G37*
G36*
X30200Y27950D02*
X29800D01*
X29600Y27750D01*
Y27350D01*
X29800Y27150D01*
X30200D01*
X30400Y27350D01*
Y27750D01*
X30200Y27950D01*
D02*
G37*
G36*
X18890Y28380D02*
X18510D01*
X18320Y28190D01*
Y27810D01*
X18510Y27620D01*
X18890D01*
X19080Y27810D01*
Y28190D01*
X18890Y28380D01*
D02*
G37*
G36*
X37650Y27550D02*
X37270D01*
Y27385D01*
X37485Y27170D01*
X37650D01*
Y27550D01*
D02*
G37*
G36*
X31700Y27950D02*
X31300D01*
X31100Y27750D01*
Y27350D01*
X31300Y27150D01*
X31700D01*
X31900Y27350D01*
Y27750D01*
X31700Y27950D01*
D02*
G37*
G36*
X31450Y29500D02*
X31050D01*
Y29325D01*
X31275Y29100D01*
X31450D01*
Y29500D01*
D02*
G37*
G36*
X21658Y30150D02*
X21350D01*
Y29842D01*
X21568Y29932D01*
X21658Y30150D01*
D02*
G37*
G36*
X21250D02*
X20942D01*
X21032Y29932D01*
X21250Y29842D01*
Y30150D01*
D02*
G37*
G36*
X31725Y30000D02*
X31550D01*
Y29600D01*
X31950D01*
Y29775D01*
X31725Y30000D01*
D02*
G37*
G36*
X25100Y30158D02*
X24882Y30068D01*
X24792Y29850D01*
X25100D01*
Y30158D01*
D02*
G37*
G36*
X21350Y30558D02*
Y30250D01*
X21658D01*
X21568Y30468D01*
X21350Y30558D01*
D02*
G37*
G36*
X21250D02*
X21032Y30468D01*
X20942Y30250D01*
X21250D01*
Y30558D01*
D02*
G37*
G36*
X25200Y30158D02*
Y29850D01*
X25508D01*
X25418Y30068D01*
X25200Y30158D01*
D02*
G37*
G36*
X31450Y30000D02*
X31275D01*
X31050Y29775D01*
Y29600D01*
X31450D01*
Y30000D01*
D02*
G37*
G36*
X37890Y29980D02*
X37510D01*
X37320Y29790D01*
Y29410D01*
X37510Y29220D01*
X37890D01*
X38080Y29410D01*
Y29790D01*
X37890Y29980D01*
D02*
G37*
G36*
X18890D02*
X18510D01*
X18320Y29790D01*
Y29410D01*
X18510Y29220D01*
X18890D01*
X19080Y29410D01*
Y29790D01*
X18890Y29980D01*
D02*
G37*
G36*
X31950Y29500D02*
X31550D01*
Y29100D01*
X31725D01*
X31950Y29325D01*
Y29500D01*
D02*
G37*
G36*
X25100Y29750D02*
X24792D01*
X24882Y29532D01*
X25100Y29442D01*
Y29750D01*
D02*
G37*
G36*
X30225Y30000D02*
X30050D01*
Y29600D01*
X30450D01*
Y29775D01*
X30225Y30000D01*
D02*
G37*
G36*
X29950D02*
X29775D01*
X29550Y29775D01*
Y29600D01*
X29950D01*
Y30000D01*
D02*
G37*
G36*
X25508Y29750D02*
X25200D01*
Y29442D01*
X25418Y29532D01*
X25508Y29750D01*
D02*
G37*
%LPD*%
D23*
X27400Y15450D02*
X31950D01*
X27300Y15350D02*
X27400Y15450D01*
X32450Y16100D02*
X32950Y16600D01*
X32050Y16100D02*
X32450D01*
X27600D02*
X32050D01*
X27300Y15350D02*
Y15450D01*
X27400Y16300D02*
X27600Y16100D01*
X32100Y25200D02*
X33800Y26900D01*
X34800D01*
X36450D01*
X37150Y27600D01*
X37700D01*
X28600Y12750D02*
Y13300D01*
X28350Y12500D02*
X28600Y12750D01*
X26900Y12500D02*
X28350D01*
X23600Y12750D02*
X23850Y12500D01*
X23450Y12050D02*
X25600D01*
X22600Y12900D02*
X23450Y12050D01*
X25600D02*
X26600Y13050D01*
X23600Y12750D02*
Y13300D01*
X26600Y13050D02*
Y13300D01*
X22600Y12900D02*
Y13300D01*
X26600D02*
Y14500D01*
X28600Y13300D02*
Y14500D01*
X24600Y13300D02*
Y14500D01*
X25600Y13300D02*
Y14500D01*
X22600Y13300D02*
Y14500D01*
X23600Y13300D02*
Y14500D01*
X27600Y13300D02*
Y14500D01*
X29600Y13300D02*
Y14500D01*
X34650Y34200D02*
X35000Y33850D01*
Y32050D02*
Y33850D01*
Y32050D02*
X35500Y31550D01*
X33700Y34050D02*
X34600Y33150D01*
Y29500D02*
Y33150D01*
X34300Y29200D02*
X34600Y29500D01*
X33350Y31100D02*
X34100Y30350D01*
Y30150D02*
Y30350D01*
X26750Y27950D02*
Y28000D01*
Y27950D02*
X28550Y26150D01*
X28950D01*
X29350Y26550D01*
Y28900D01*
X30000Y29550D01*
X28700Y28800D02*
Y30700D01*
X29550Y31550D01*
X28250Y26850D02*
X28800D01*
X27650Y27450D02*
X28250Y26850D01*
X27650Y27450D02*
Y27850D01*
X27150Y28350D02*
X27650Y27850D01*
X27150Y28350D02*
Y33950D01*
X26700Y28050D02*
X26750Y28000D01*
X26700Y28050D02*
Y29150D01*
X26050Y29800D02*
X26700Y29150D01*
X28050Y31800D02*
X28800Y32550D01*
X28050Y28400D02*
Y31800D01*
X29550Y31550D02*
X30000D01*
X25150Y29800D02*
X26050D01*
X28800Y32550D02*
X30000D01*
X31500Y33550D02*
X32350Y34400D01*
Y35050D01*
X32150Y35250D02*
X32350Y35050D01*
X32150Y35250D02*
Y36750D01*
X30000Y29550D02*
X31500D01*
X36100Y29300D02*
Y31900D01*
X26550Y16700D02*
Y20200D01*
X26250Y16400D02*
X26550Y16700D01*
X28744Y35544D02*
Y36750D01*
X27150Y33950D02*
X28744Y35544D01*
X27150Y25700D02*
X27200Y25750D01*
X27150Y23100D02*
Y25700D01*
X21300Y30200D02*
Y32250D01*
Y29950D02*
Y30200D01*
Y29950D02*
X21450Y29800D01*
X25150D01*
X37700Y25600D02*
X38350Y26250D01*
Y36950D01*
X38000Y37300D02*
X38350Y36950D01*
X37250Y37300D02*
X38000D01*
X36500Y36550D02*
X37250Y37300D01*
X34200Y36550D02*
X36500D01*
X33550Y35900D02*
X34200Y36550D01*
X33550Y35650D02*
Y35900D01*
Y35650D02*
X33870Y35330D01*
X34930D01*
X33150Y34750D02*
X34944D01*
X36150Y33544D01*
X32944Y34956D02*
X33150Y34750D01*
X32944Y34956D02*
Y36750D01*
X36150Y33200D02*
Y33544D01*
X27950Y36750D02*
X28550Y37350D01*
X31650D01*
X32150Y36850D01*
Y36750D02*
Y36850D01*
X33700Y34050D02*
Y34300D01*
X33500Y27950D02*
X36000D01*
X27100Y19200D02*
X27400Y18900D01*
Y16300D02*
Y18900D01*
X32950Y16600D02*
Y20400D01*
X31200Y22150D02*
X32950Y20400D01*
X31200Y22150D02*
Y25650D01*
X33500Y27950D01*
X36000D02*
X36650Y28600D01*
X32500Y24300D02*
X33900D01*
X35100Y23100D01*
X35400D01*
X36550Y21950D01*
Y21350D02*
Y21950D01*
X18700Y30600D02*
X19450D01*
X19750Y30300D01*
Y29200D02*
Y30300D01*
Y29200D02*
X21650Y27300D01*
X26950D01*
X27950Y26300D01*
Y16600D02*
Y26300D01*
Y16600D02*
X32050D01*
X32200Y16750D01*
Y18500D01*
X18700Y27000D02*
X19500Y26200D01*
Y24100D02*
Y26200D01*
Y24100D02*
X21650Y21950D01*
X22950Y26050D02*
X25200D01*
X22950Y24050D02*
X25200D01*
X22950Y23050D02*
X25200D01*
X22950Y21050D02*
X25200D01*
X25250Y21000D01*
X26250D01*
Y24000D01*
X26200Y24050D02*
X26250Y24000D01*
X25200Y24050D02*
X26200D01*
X36650Y28600D02*
Y33550D01*
X37700Y34600D01*
D24*
X30750Y34550D02*
X31500D01*
X30000D02*
X30750D01*
Y31300D02*
Y34550D01*
Y31300D02*
X31500Y30550D01*
X30000D02*
X31500D01*
D25*
X37700Y17100D02*
D03*
X35700Y37600D02*
D03*
X18700Y17600D02*
D03*
D26*
X24700Y37600D02*
D03*
D27*
X30000Y27550D02*
D03*
Y28550D02*
D03*
Y29550D02*
D03*
Y30550D02*
D03*
Y31550D02*
D03*
Y32550D02*
D03*
Y33550D02*
D03*
Y34550D02*
D03*
X31500Y27550D02*
D03*
Y28550D02*
D03*
Y29550D02*
D03*
Y30550D02*
D03*
Y31550D02*
D03*
Y32550D02*
D03*
Y33550D02*
D03*
Y34550D02*
D03*
D28*
X29600Y13300D02*
D03*
X28600D02*
D03*
X27600D02*
D03*
X26600D02*
D03*
X25600D02*
D03*
X24600D02*
D03*
X23600D02*
D03*
X22600D02*
D03*
X29600Y14500D02*
D03*
X28600D02*
D03*
X27600D02*
D03*
X26600D02*
D03*
X25600D02*
D03*
X24600D02*
D03*
X23600D02*
D03*
X22600D02*
D03*
D29*
X25200Y21050D02*
D03*
Y22050D02*
D03*
Y23050D02*
D03*
Y24050D02*
D03*
Y25050D02*
D03*
Y26050D02*
D03*
X22950Y21050D02*
D03*
Y22050D02*
D03*
Y23050D02*
D03*
Y24050D02*
D03*
Y25050D02*
D03*
Y26050D02*
D03*
D30*
X28744Y36750D02*
D03*
X27950D02*
D03*
X32944D02*
D03*
X32150D02*
D03*
D31*
X18700Y19000D02*
D03*
Y20000D02*
D03*
X37700Y24600D02*
D03*
Y25600D02*
D03*
Y26600D02*
D03*
Y27600D02*
D03*
Y28600D02*
D03*
Y29600D02*
D03*
Y36600D02*
D03*
Y35600D02*
D03*
Y34600D02*
D03*
Y33600D02*
D03*
Y32600D02*
D03*
X18700Y21000D02*
D03*
Y22000D02*
D03*
Y23000D02*
D03*
Y24000D02*
D03*
Y25000D02*
D03*
Y26000D02*
D03*
Y27000D02*
D03*
Y28000D02*
D03*
Y29600D02*
D03*
Y30600D02*
D03*
Y31600D02*
D03*
Y36600D02*
D03*
Y35600D02*
D03*
Y34600D02*
D03*
Y33600D02*
D03*
X37700Y31600D02*
D03*
X18700Y32600D02*
D03*
D32*
X31950Y15450D02*
D03*
X27300D02*
D03*
X32100Y25200D02*
D03*
X34800Y26900D02*
D03*
X26900Y12500D02*
D03*
X23850D02*
D03*
X34100Y30150D02*
D03*
X33350Y31100D02*
D03*
X28700Y28800D02*
D03*
X26750Y28000D02*
D03*
X28050Y28400D02*
D03*
X36100Y29300D02*
D03*
Y31900D02*
D03*
X26550Y20200D02*
D03*
X26250Y16400D02*
D03*
X28800Y26850D02*
D03*
X27200Y25750D02*
D03*
X27150Y23100D02*
D03*
X21300Y32250D02*
D03*
Y30200D02*
D03*
X34930Y35330D02*
D03*
X35500Y31550D02*
D03*
X34650Y34200D02*
D03*
X36150Y33200D02*
D03*
X33700Y34300D02*
D03*
X25150Y29800D02*
D03*
X27100Y19200D02*
D03*
X32500Y24300D02*
D03*
X36550Y21350D02*
D03*
X32200Y18500D02*
D03*
X21650Y21950D02*
D03*
X34300Y29200D02*
D03*
M02*
