%FSLAX24Y24*%
%MOIN*%
G70*
G01*
G75*
G04 Layer_Color=65535*
%ADD10R,0.0630X0.0520*%
%ADD11R,0.0560X0.0400*%
%ADD12R,0.0520X0.0630*%
%ADD13R,0.0480X0.0480*%
%ADD14R,0.0600X0.0520*%
%ADD15R,0.1190X0.0560*%
%ADD16R,0.0560X0.1030*%
%ADD17R,0.0260X0.0800*%
%ADD18R,0.0280X0.0480*%
%ADD19R,0.0870X0.0240*%
%ADD20R,0.0120X0.0570*%
%ADD21C,0.0270*%
%ADD22C,0.0500*%
%ADD23C,0.0220*%
%ADD24C,0.0370*%
%ADD25C,0.0130*%
%ADD26C,0.0100*%
%ADD27C,0.0420*%
%ADD28C,0.0000*%
%ADD29R,0.0591X0.0591*%
%ADD30C,0.0591*%
G04:AMPARAMS|DCode=31|XSize=76mil|YSize=76mil|CornerRadius=0mil|HoleSize=0mil|Usage=FLASHONLY|Rotation=0.000|XOffset=0mil|YOffset=0mil|HoleType=Round|Shape=Octagon|*
%AMOCTAGOND31*
4,1,8,0.0380,-0.0190,0.0380,0.0190,0.0190,0.0380,-0.0190,0.0380,-0.0380,0.0190,-0.0380,-0.0190,-0.0190,-0.0380,0.0190,-0.0380,0.0380,-0.0190,0.0*
%
%ADD31OCTAGOND31*%

%ADD32C,0.0560*%
G04:AMPARAMS|DCode=33|XSize=66mil|YSize=66mil|CornerRadius=0mil|HoleSize=0mil|Usage=FLASHONLY|Rotation=90.000|XOffset=0mil|YOffset=0mil|HoleType=Round|Shape=Octagon|*
%AMOCTAGOND33*
4,1,8,0.0165,0.0330,-0.0165,0.0330,-0.0330,0.0165,-0.0330,-0.0165,-0.0165,-0.0330,0.0165,-0.0330,0.0330,-0.0165,0.0330,0.0165,0.0165,0.0330,0.0*
%
%ADD33OCTAGOND33*%

%ADD34C,0.0500*%
%ADD35R,0.0520X0.0600*%
%ADD36R,0.0630X0.1070*%
%ADD37R,0.0197X0.0197*%
%ADD38C,0.0040*%
%ADD39C,0.0060*%
%ADD40C,0.0079*%
%ADD41C,0.0020*%
%ADD42C,0.0050*%
%ADD43C,0.0080*%
%ADD44C,0.0027*%
%ADD45R,0.0080X0.0079*%
%ADD46R,0.0710X0.0600*%
%ADD47R,0.0640X0.0480*%
%ADD48R,0.0600X0.0710*%
%ADD49R,0.0560X0.0560*%
%ADD50R,0.0680X0.0600*%
%ADD51R,0.1270X0.0640*%
%ADD52R,0.0640X0.1110*%
%ADD53R,0.0340X0.0880*%
%ADD54R,0.0360X0.0560*%
%ADD55R,0.0950X0.0320*%
%ADD56R,0.0671X0.0671*%
%ADD57C,0.0671*%
G04:AMPARAMS|DCode=58|XSize=84mil|YSize=84mil|CornerRadius=0mil|HoleSize=0mil|Usage=FLASHONLY|Rotation=0.000|XOffset=0mil|YOffset=0mil|HoleType=Round|Shape=Octagon|*
%AMOCTAGOND58*
4,1,8,0.0420,-0.0210,0.0420,0.0210,0.0210,0.0420,-0.0210,0.0420,-0.0420,0.0210,-0.0420,-0.0210,-0.0210,-0.0420,0.0210,-0.0420,0.0420,-0.0210,0.0*
%
%ADD58OCTAGOND58*%

%ADD59C,0.0640*%
G04:AMPARAMS|DCode=60|XSize=74mil|YSize=74mil|CornerRadius=0mil|HoleSize=0mil|Usage=FLASHONLY|Rotation=90.000|XOffset=0mil|YOffset=0mil|HoleType=Round|Shape=Octagon|*
%AMOCTAGOND60*
4,1,8,0.0185,0.0370,-0.0185,0.0370,-0.0370,0.0185,-0.0370,-0.0185,-0.0185,-0.0370,0.0185,-0.0370,0.0370,-0.0185,0.0370,0.0185,0.0185,0.0370,0.0*
%
%ADD60OCTAGOND60*%

%ADD61C,0.0580*%
%ADD62R,0.0600X0.0680*%
%ADD63R,0.0710X0.1150*%
%ADD64R,0.0277X0.0277*%
%ADD65R,0.0476X0.0159*%
%ADD66R,0.0159X0.0476*%
%ADD67R,0.0476X0.0159*%
%ADD68R,0.0079X0.0318*%
%ADD69R,0.0159X0.0318*%
%ADD70R,0.0318X0.0079*%
%ADD71R,0.0560X0.0140*%
%ADD72R,0.0230X0.0180*%
%ADD73R,0.0140X0.0560*%
%ADD74R,0.0030X0.0089*%
%ADD75R,0.0120X0.0118*%
%ADD76R,0.0069X0.0159*%
%ADD77R,0.0098X0.0059*%
%ADD78R,0.0098X0.0060*%
%ADD79R,0.0197X0.0128*%
%ADD80R,0.0197X0.0130*%
%ADD81R,0.0070X0.0159*%
%ADD82R,0.0100X0.0060*%
%ADD83R,0.0100X0.0059*%
%ADD84R,0.0200X0.0130*%
%ADD85R,0.0300X0.0575*%
%ADD86R,0.0295X0.0575*%
%ADD87R,0.0290X0.1024*%
%ADD88R,0.0295X0.1030*%
%ADD89R,0.0575X0.0300*%
%ADD90R,0.0575X0.0295*%
%ADD91R,0.0230X0.0278*%
%ADD92R,0.0236X0.0278*%
%ADD93R,0.0278X0.0220*%
%ADD94R,0.0278X0.0217*%
%ADD95R,0.0200X0.0450*%
%ADD96R,0.0556X0.0079*%
%ADD97R,0.0200X0.0200*%
%ADD98R,0.0440X0.0193*%
%ADD99R,0.0440X0.0190*%
%ADD100R,0.0433X0.0190*%
%ADD101R,0.0433X0.0193*%
G36*
X22550Y12650D02*
X22450D01*
Y12750D01*
X22550D01*
Y12650D01*
D02*
G37*
G36*
X17200Y15700D02*
X17100D01*
Y15800D01*
X17200D01*
Y15700D01*
D02*
G37*
D26*
X10050Y35450D02*
X11660Y37060D01*
X10050Y10050D02*
Y35450D01*
X30500Y36600D02*
X31050Y36050D01*
X30040Y37060D02*
X30500Y36600D01*
X11660Y37060D02*
X30040D01*
X24700Y10060D02*
X25670D01*
X31050Y11570D02*
Y36050D01*
X10050Y10050D02*
X24690D01*
X25670Y10060D02*
X31040D01*
X31050Y10070D01*
Y11570D01*
D28*
X10050Y10050D02*
Y35450D01*
X10650Y36050D01*
X16150Y37050D02*
X29050D01*
X10050Y10050D02*
X22080D01*
X31050Y16410D02*
Y36050D01*
D38*
X26740Y16427D02*
G03*
X26740Y16427I-50J0D01*
G01*
X25956Y16110D02*
G03*
X25956Y16388I0J139D01*
G01*
X26750D02*
G03*
X26750Y16110I0J-139D01*
G01*
X26740Y17377D02*
G03*
X26740Y17377I-50J0D01*
G01*
X25956Y17060D02*
G03*
X25956Y17338I0J139D01*
G01*
X26750D02*
G03*
X26750Y17060I0J-139D01*
G01*
X26740Y18302D02*
G03*
X26740Y18302I-50J0D01*
G01*
X25956Y17985D02*
G03*
X25956Y18263I0J139D01*
G01*
X26750D02*
G03*
X26750Y17985I0J-139D01*
G01*
X18430Y15800D02*
G03*
X18430Y15800I-1230J0D01*
G01*
X23420Y12750D02*
G03*
X23420Y12750I-970J0D01*
G01*
X26740Y20152D02*
G03*
X26740Y20152I-50J0D01*
G01*
X25956Y19835D02*
G03*
X25956Y20113I0J139D01*
G01*
X26750D02*
G03*
X26750Y19835I0J-139D01*
G01*
X26740Y19227D02*
G03*
X26740Y19227I-50J0D01*
G01*
X25956Y18910D02*
G03*
X25956Y19188I0J139D01*
G01*
X26750D02*
G03*
X26750Y18910I0J-139D01*
G01*
X26153Y16476D02*
X26720D01*
X26143Y16020D02*
X26560D01*
X26153Y17426D02*
X26720D01*
X26143Y16970D02*
X26560D01*
X26153Y18351D02*
X26720D01*
X26143Y17895D02*
X26560D01*
X27665Y10640D02*
X27956D01*
X27665Y11160D02*
X27965D01*
X28910Y12590D02*
X29670D01*
X28910Y11610D02*
X29670D01*
X25920Y12590D02*
X26680D01*
X25920Y11610D02*
X26680D01*
X21690Y15765D02*
Y16056D01*
X22210Y15765D02*
Y16065D01*
X18027Y14910D02*
Y16666D01*
X18480Y14520D02*
Y17080D01*
X16580D02*
X18480D01*
X15920Y16410D02*
X16580Y17080D01*
X15920Y15180D02*
Y16410D01*
Y15180D02*
X16580Y14520D01*
X18480D01*
X21722Y13360D02*
X23180D01*
X21426Y13774D02*
X23480D01*
X21426Y12250D02*
Y13774D01*
Y12250D02*
X21958Y11720D01*
X22950D01*
X23480Y12250D01*
Y13774D01*
X26153Y20201D02*
X26720D01*
X26143Y19745D02*
X26560D01*
X26153Y19276D02*
X26720D01*
X26143Y18820D02*
X26560D01*
D39*
X27200Y35170D02*
Y35730D01*
X26700Y35170D02*
Y35730D01*
X25207Y36034D02*
X25727D01*
Y34914D02*
Y36034D01*
X25207Y34914D02*
X25727D01*
X25207D02*
Y36034D01*
X27203Y33394D02*
Y33954D01*
X26703Y33394D02*
Y33954D01*
X28750Y17425D02*
X29310D01*
X28750Y16925D02*
X29310D01*
X28750Y16500D02*
X29310D01*
X28750Y16000D02*
X29310D01*
X28750Y20200D02*
X29310D01*
X28750Y19700D02*
X29310D01*
X28750Y19275D02*
X29310D01*
X28750Y18775D02*
X29310D01*
X28750Y18350D02*
X29310D01*
X28750Y17850D02*
X29310D01*
X16146Y26050D02*
X16706D01*
X16146Y25550D02*
X16706D01*
X22750Y34790D02*
Y35350D01*
X22250Y34790D02*
Y35350D01*
X23400Y33800D02*
Y34360D01*
X23900Y33800D02*
Y34360D01*
X25190Y34260D02*
X25710D01*
Y33140D02*
Y34260D01*
X25190Y33140D02*
X25710D01*
X25190D02*
Y34260D01*
X28250Y14450D02*
X28810D01*
X28250Y14950D02*
X28810D01*
X26400Y14450D02*
X26960D01*
X26400Y14950D02*
X26960D01*
X20946Y17500D02*
X21506D01*
X20946Y17000D02*
X21506D01*
X18220Y17850D02*
X18780D01*
X18220Y18350D02*
X18780D01*
X20100Y18220D02*
Y18780D01*
X19600Y18220D02*
Y18780D01*
X18330Y12450D02*
Y13244D01*
X17774Y12450D02*
X18330D01*
X17774D02*
Y13244D01*
X18330D01*
X18050Y13047D02*
X18210Y12810D01*
X17893D02*
X18210D01*
X17893D02*
X18050Y13047D01*
X19296Y12400D02*
X19856D01*
X19296Y11900D02*
X19856D01*
X14140Y25240D02*
X14660D01*
X14140D02*
Y26360D01*
X14660D01*
Y25240D02*
Y26360D01*
X12600Y25550D02*
Y26110D01*
X13100Y25550D02*
Y26110D01*
D42*
X28110Y11010D02*
X30481D01*
X28110D02*
Y14051D01*
X30481Y11010D02*
Y14051D01*
X30166D02*
X30481D01*
X28110D02*
X28430D01*
X25116Y11010D02*
X27487D01*
X25116D02*
Y14051D01*
X27487Y11010D02*
Y14051D01*
X27172D02*
X27487D01*
X25116D02*
X25436D01*
D43*
X16378Y24400D02*
X16574D01*
X15076D02*
X16378D01*
Y20505D02*
Y24400D01*
X15076Y20505D02*
Y24400D01*
Y20505D02*
X16378D01*
X16574D01*
Y24400D01*
D71*
X26950Y35790D02*
D03*
Y35110D02*
D03*
X26953Y34014D02*
D03*
Y33334D02*
D03*
X22500Y35410D02*
D03*
Y34730D02*
D03*
X23650Y33740D02*
D03*
Y34420D02*
D03*
X19850Y18840D02*
D03*
Y18160D02*
D03*
X12850Y25490D02*
D03*
Y26170D02*
D03*
D72*
X25072Y35474D02*
D03*
X25862Y35844D02*
D03*
Y35104D02*
D03*
X25055Y33700D02*
D03*
X25845Y34070D02*
D03*
Y33330D02*
D03*
X14795Y25800D02*
D03*
X14005Y25430D02*
D03*
Y26170D02*
D03*
D73*
X28690Y17175D02*
D03*
X29370D02*
D03*
X28690Y16250D02*
D03*
X29370D02*
D03*
X28690Y19950D02*
D03*
X29370D02*
D03*
X28690Y19025D02*
D03*
X29370D02*
D03*
X28690Y18100D02*
D03*
X29370D02*
D03*
X16086Y25800D02*
D03*
X16766D02*
D03*
X28190Y14700D02*
D03*
X28870D02*
D03*
X26340D02*
D03*
X27020D02*
D03*
X20886Y17250D02*
D03*
X21566D02*
D03*
X18840Y18100D02*
D03*
X18160D02*
D03*
X19236Y12150D02*
D03*
X19916D02*
D03*
D74*
X26735Y16452D02*
D03*
Y17402D02*
D03*
Y18327D02*
D03*
Y20177D02*
D03*
Y19252D02*
D03*
D75*
X26610Y16427D02*
D03*
X26610Y17377D02*
D03*
Y18302D02*
D03*
X26610Y20152D02*
D03*
X26610Y19227D02*
D03*
D76*
X26119Y16249D02*
D03*
X26119Y17199D02*
D03*
Y18124D02*
D03*
X26119Y19974D02*
D03*
X26119Y19049D02*
D03*
D77*
X26104Y16348D02*
D03*
Y17298D02*
D03*
Y18223D02*
D03*
Y20073D02*
D03*
Y19148D02*
D03*
D78*
X26104Y16150D02*
D03*
X26104Y17100D02*
D03*
Y18025D02*
D03*
X26104Y19875D02*
D03*
X26104Y18950D02*
D03*
D79*
X26055Y16432D02*
D03*
Y17382D02*
D03*
Y18307D02*
D03*
Y20157D02*
D03*
Y19232D02*
D03*
D80*
Y16065D02*
D03*
Y17015D02*
D03*
Y17940D02*
D03*
Y19790D02*
D03*
Y18865D02*
D03*
D81*
X26585Y16249D02*
D03*
Y17199D02*
D03*
Y18124D02*
D03*
Y19974D02*
D03*
Y19049D02*
D03*
D82*
X26600Y16150D02*
D03*
Y17100D02*
D03*
Y18025D02*
D03*
Y19875D02*
D03*
Y18950D02*
D03*
D83*
Y16348D02*
D03*
Y17298D02*
D03*
Y18223D02*
D03*
Y20073D02*
D03*
Y19148D02*
D03*
D84*
X26650Y16065D02*
D03*
Y17015D02*
D03*
Y17940D02*
D03*
Y19790D02*
D03*
Y18865D02*
D03*
D85*
X27525Y10903D02*
D03*
D86*
X28098D02*
D03*
D87*
X29815Y12102D02*
D03*
X26825D02*
D03*
D88*
X28768Y12095D02*
D03*
X25778D02*
D03*
D89*
X21953Y15625D02*
D03*
D90*
Y16198D02*
D03*
D91*
X15875Y15799D02*
D03*
D92*
X18519D02*
D03*
D93*
X22451Y11690D02*
D03*
D94*
Y13803D02*
D03*
D95*
X19350Y13655D02*
D03*
X20850Y15645D02*
D03*
X20350D02*
D03*
X19850Y15635D02*
D03*
X19350Y15645D02*
D03*
X19850Y13655D02*
D03*
X20350D02*
D03*
X20850D02*
D03*
D96*
X18052Y13086D02*
D03*
D97*
X13750Y15800D02*
D03*
D98*
X14816Y20700D02*
D03*
Y21200D02*
D03*
Y21700D02*
D03*
Y22200D02*
D03*
D99*
Y23705D02*
D03*
Y24205D02*
D03*
Y22705D02*
D03*
Y23205D02*
D03*
D100*
X16830Y24205D02*
D03*
Y23705D02*
D03*
Y23205D02*
D03*
Y22705D02*
D03*
D101*
Y22200D02*
D03*
Y21700D02*
D03*
Y21200D02*
D03*
Y20700D02*
D03*
M02*
