M48
;Layer_Color=9474304
;FILE_FORMAT=2:4
INCH,LZ
;TYPE=PLATED
T1F00S00C0.0280
T2F00S00C0.0320
T3F00S00C0.0354
T4F00S00C0.0400
%
T01
X0157Y01915
X0191Y0198
X0197Y0226
X018863Y023712
X01975Y0247
X02065Y0251
X0208Y02595
X02025Y0289
X0186Y0283
X01745Y02645
X02595Y0259
X02675Y0248
X02765Y0236
X0219Y0212
X02395Y01905
Y01815
X0241Y0172
X01375Y0217
X0125Y02415
X01475Y02735
X02365Y033
X0277Y0326
Y0348
T02
X025906Y0135
X0267
X0289
X029694
T03
X02215Y0224
Y0234
Y0244
Y0254
Y0264
Y0274
Y0284
Y0294
Y0304
X02315
Y0294
Y0284
Y0274
Y0264
Y0254
Y0244
Y0234
Y0224
Y0314
X02215
X02065Y03445
Y03545
X0286Y03505
Y03405
T04
X03005Y02305
Y02405
Y02505
Y02605
Y02705
Y02805
Y03005
Y03105
X01105
Y03005
Y02905
Y02805
Y02645
Y02545
Y02445
Y02345
Y02245
Y02145
Y02045
Y01945
X01375Y0158
X01105Y03205
Y03305
Y03405
Y03505
X03005
Y03405
Y03305
Y03205
M30
