%FSLAX24Y24*%
%MOIN*%
G70*
G01*
G75*
%ADD10R,0.0120X0.0570*%
%ADD11R,0.0280X0.0360*%
%ADD12R,0.0520X0.0600*%
%ADD13R,0.0100X0.0400*%
%ADD14R,0.0240X0.0870*%
%ADD15R,0.0520X0.0630*%
%ADD16R,0.0360X0.0280*%
%ADD17R,0.0480X0.0280*%
%ADD18R,0.0280X0.0480*%
%ADD19R,0.0800X0.0260*%
%ADD20R,0.0260X0.0800*%
%ADD21R,0.0630X0.0520*%
%ADD22R,0.0600X0.0520*%
%ADD23C,0.0120*%
%ADD24C,0.0150*%
%ADD25C,0.1500*%
%ADD26C,0.1400*%
G04:AMPARAMS|DCode=27|XSize=70mil|YSize=70mil|CornerRadius=0mil|HoleSize=0mil|Usage=FLASHONLY|Rotation=0.000|XOffset=0mil|YOffset=0mil|HoleType=Round|Shape=Octagon|*
%AMOCTAGOND27*
4,1,8,0.0350,-0.0175,0.0350,0.0175,0.0175,0.0350,-0.0175,0.0350,-0.0350,0.0175,-0.0350,-0.0175,-0.0175,-0.0350,0.0175,-0.0350,0.0350,-0.0175,0.0*
%
%ADD27OCTAGOND27*%

G04:AMPARAMS|DCode=28|XSize=70mil|YSize=70mil|CornerRadius=0mil|HoleSize=0mil|Usage=FLASHONLY|Rotation=90.000|XOffset=0mil|YOffset=0mil|HoleType=Round|Shape=Octagon|*
%AMOCTAGOND28*
4,1,8,0.0175,0.0350,-0.0175,0.0350,-0.0350,0.0175,-0.0350,-0.0175,-0.0175,-0.0350,0.0175,-0.0350,0.0350,-0.0175,0.0350,0.0175,0.0175,0.0350,0.0*
%
%ADD28OCTAGOND28*%

G04:AMPARAMS|DCode=29|XSize=60mil|YSize=60mil|CornerRadius=0mil|HoleSize=0mil|Usage=FLASHONLY|Rotation=0.000|XOffset=0mil|YOffset=0mil|HoleType=Round|Shape=Octagon|*
%AMOCTAGOND29*
4,1,8,0.0300,-0.0150,0.0300,0.0150,0.0150,0.0300,-0.0150,0.0300,-0.0300,0.0150,-0.0300,-0.0150,-0.0150,-0.0300,0.0150,-0.0300,0.0300,-0.0150,0.0*
%
%ADD29OCTAGOND29*%

%ADD30C,0.0560*%
G04:AMPARAMS|DCode=31|XSize=66mil|YSize=66mil|CornerRadius=0mil|HoleSize=0mil|Usage=FLASHONLY|Rotation=90.000|XOffset=0mil|YOffset=0mil|HoleType=Round|Shape=Octagon|*
%AMOCTAGOND31*
4,1,8,0.0165,0.0330,-0.0165,0.0330,-0.0330,0.0165,-0.0330,-0.0165,-0.0165,-0.0330,0.0165,-0.0330,0.0330,-0.0165,0.0330,0.0165,0.0165,0.0330,0.0*
%
%ADD31OCTAGOND31*%

%ADD32C,0.0500*%
D10*
X27900Y31650D02*
D03*
X28100D02*
D03*
X28500D02*
D03*
X28300D02*
D03*
X28700D02*
D03*
Y29850D02*
D03*
X28500D02*
D03*
X28300D02*
D03*
X28100D02*
D03*
X27900D02*
D03*
X33400Y30150D02*
D03*
X33200D02*
D03*
X32800D02*
D03*
X33000D02*
D03*
X32600D02*
D03*
Y31950D02*
D03*
X32800D02*
D03*
X33000D02*
D03*
X33200D02*
D03*
X33400D02*
D03*
D11*
X23650Y34600D02*
D03*
X23134D02*
D03*
D12*
X33775Y26050D02*
D03*
X33100D02*
D03*
X33775Y27850D02*
D03*
X33100D02*
D03*
X30575Y26050D02*
D03*
X29900D02*
D03*
X31050Y17800D02*
D03*
X30375D02*
D03*
X33200Y23300D02*
D03*
X32525D02*
D03*
X33425Y17800D02*
D03*
X34100D02*
D03*
D13*
X34966Y32660D02*
D03*
X35222D02*
D03*
X35480D02*
D03*
X35740D02*
D03*
Y30442D02*
D03*
X35480D02*
D03*
X35222D02*
D03*
X34966D02*
D03*
D14*
X25750Y17120D02*
D03*
X25250D02*
D03*
X22250Y19174D02*
D03*
X22750Y17120D02*
D03*
Y19174D02*
D03*
X23750D02*
D03*
X22250Y17120D02*
D03*
X23250Y19174D02*
D03*
Y17120D02*
D03*
X23750D02*
D03*
X24750D02*
D03*
X24250Y19174D02*
D03*
X24750D02*
D03*
X25750D02*
D03*
X24250Y17120D02*
D03*
X25250Y19174D02*
D03*
D15*
X35520Y35850D02*
D03*
X36274D02*
D03*
X35500Y34750D02*
D03*
X36254D02*
D03*
X35150Y20550D02*
D03*
X34396D02*
D03*
X24396Y29000D02*
D03*
X25150D02*
D03*
X22100D02*
D03*
X21346D02*
D03*
D16*
X28600Y21100D02*
D03*
Y20584D02*
D03*
D17*
X29220Y23300D02*
D03*
X30678D02*
D03*
D18*
X25200Y34930D02*
D03*
Y33472D02*
D03*
D19*
X30390Y21100D02*
D03*
X32810D02*
D03*
X30390Y20600D02*
D03*
Y20100D02*
D03*
X32810Y20600D02*
D03*
Y20100D02*
D03*
X30390Y19600D02*
D03*
X32810D02*
D03*
D20*
X23600Y32910D02*
D03*
Y30490D02*
D03*
X23100Y32910D02*
D03*
X22600D02*
D03*
X23100Y30490D02*
D03*
X22600D02*
D03*
X22100Y32910D02*
D03*
Y30490D02*
D03*
D21*
X23100Y28296D02*
D03*
Y29050D02*
D03*
X34300Y21546D02*
D03*
Y22300D02*
D03*
Y19600D02*
D03*
Y18846D02*
D03*
D22*
X20400Y32260D02*
D03*
Y32935D02*
D03*
X25200Y30625D02*
D03*
Y31300D02*
D03*
X20400Y30250D02*
D03*
Y29575D02*
D03*
D25*
X37700Y17100D02*
D03*
X35700Y37600D02*
D03*
X18700Y17600D02*
D03*
D26*
X24700Y37600D02*
D03*
D27*
X30000Y27550D02*
D03*
Y28550D02*
D03*
Y29550D02*
D03*
Y30550D02*
D03*
Y31550D02*
D03*
Y32550D02*
D03*
Y33550D02*
D03*
Y34550D02*
D03*
X31500Y27550D02*
D03*
Y28550D02*
D03*
Y29550D02*
D03*
Y30550D02*
D03*
Y31550D02*
D03*
Y32550D02*
D03*
Y33550D02*
D03*
Y34550D02*
D03*
D28*
X29600Y13300D02*
D03*
X28600D02*
D03*
X27600D02*
D03*
X26600D02*
D03*
X25600D02*
D03*
X24600D02*
D03*
X23600D02*
D03*
X22600D02*
D03*
X29600Y14500D02*
D03*
X28600D02*
D03*
X27600D02*
D03*
X26600D02*
D03*
X25600D02*
D03*
X24600D02*
D03*
X23600D02*
D03*
X22600D02*
D03*
D29*
X25200Y21050D02*
D03*
Y22050D02*
D03*
Y23050D02*
D03*
Y24050D02*
D03*
Y25050D02*
D03*
Y26050D02*
D03*
X22950Y21050D02*
D03*
Y22050D02*
D03*
Y23050D02*
D03*
Y24050D02*
D03*
Y25050D02*
D03*
Y26050D02*
D03*
D30*
X28744Y36750D02*
D03*
X27950D02*
D03*
X32944D02*
D03*
X32150D02*
D03*
D31*
X18700Y19000D02*
D03*
Y20000D02*
D03*
X37700Y24600D02*
D03*
Y25600D02*
D03*
Y26600D02*
D03*
Y27600D02*
D03*
Y28600D02*
D03*
Y29600D02*
D03*
Y36600D02*
D03*
Y35600D02*
D03*
Y34600D02*
D03*
Y33600D02*
D03*
Y32600D02*
D03*
X18700Y21000D02*
D03*
Y22000D02*
D03*
Y23000D02*
D03*
Y24000D02*
D03*
Y25000D02*
D03*
Y26000D02*
D03*
Y27000D02*
D03*
Y28000D02*
D03*
Y29600D02*
D03*
Y30600D02*
D03*
Y31600D02*
D03*
Y36600D02*
D03*
Y35600D02*
D03*
Y34600D02*
D03*
Y33600D02*
D03*
X37700Y31600D02*
D03*
X18700Y32600D02*
D03*
M02*
